<svg enable-background="new 0 0 1084 1000" viewBox="0 0 1084 1000" xmlns="http://www.w3.org/2000/svg"><path d="m542 912-4.2-2.4 2.9-5.1-1-1.8 3.6-2.1 4.6 8zm-14-8.1-5.5-3.2 4.6-8 5.5 3.2zm29.7-.9-4.6-8 5.5-3.2 4.6 8zm-45-7.9-5.5-3.2 4.6-8 5.5 3.2zm60.2-.9-4.6-8 5.5-3.2 4.6 8zm-75.5-7.9-5.5-3.2 4.6-8 5.5 3.2zm90.8-.9-4.6-8 5.5-3.2 4.6 8zm-106-7.9-5.5-3.2 4.6-8 5.5 3.2zm121.3-1-4.6-8 5.5-3.2 4.6 8zm-136.6-7.8-5.5-3.2 4.6-8 5.5 3.2zm151.9-1-4.6-8 5.5-3.2 4.6 8zm-167.2-7.8-5.5-3.2 4.6-8 5.5 3.2zm182.4-1-4.6-8 5.5-3.2 4.6 8zm-197.6-7.9-5.5-3.2 4.6-8 5.5 3.2zm212.9-.9-4.6-8 5.5-3.2 4.6 8zm-228.2-7.9-5.5-3.2 4.6-8 5.5 3.2zm243.5-.9-4.6-8 5.5-3.2 4.6 8zm-258.8-7.9-5.5-3.2 4.6-8 5.5 3.2zm274-.9-4.6-8 5.5-3.2 4.6 8zm-289.3-7.9-5.5-3.2 4.6-8 5.5 3.2zm304.6-1-4.6-8 5.5-3.2 4.6 8zm-319.8-7.8-5.5-3.2 4.6-8 5.5 3.2zm335.1-1-4.6-8 5.5-3.2 4.6 8zm-350.4-7.8-5.5-3.2 4.6-8 5.5 3.2zm365.7-1-4.6-8 5.5-3.2 4.6 8zm-381-7.9-5.5-3.2 4.6-8 5.5 3.2zm396.2-.9-4.6-8 5.5-3.2 4.6 8zm-411.5-7.9-5.5-3.2 4.6-8 5.5 3.2zm426.8-.9-4.6-8 5.5-3.2 4.6 8zm-442-7.9-5.5-3.2 4.6-8 5.5 3.2zm457.3-1-4.6-8 5.5-3.2 4.6 8zm-472.6-7.8-5.5-3.2 4.6-8 5.5 3.2zm487.9-1-4.6-8 5.5-3.2 4.6 8zm-503.2-7.8-5.5-3.2 4.6-8 5.5 3.2zm518.4-1-4.6-8 5.5-3.2 4.6 8zm-533.6-7.9-5.5-3.2 4.6-8 5.5 3.2zm548.9-.9-4.6-8 5.5-3.2 4.6 8zm-564.2-7.9-5.5-3.2 4.6-8 5.5 3.2zm579.5-.9-4.6-8 5.5-3.2 4.6 8zm-594.8-7.9-5.5-3.2 4.6-8 5.5 3.2zm610-.9-4.6-8 5.5-3.2 4.6 8zm-625.3-7.9-5.5-3.2 4.6-8 5.5 3.2zm640.6-1-4.6-8 5.5-3.2 4.6 8zm-655.8-7.8-5.5-3.2 4.6-8 5.5 3.2zm671.1-1-4.6-8 5.5-3.2 4.6 8zm-686.4-7.8-6.8-3.9v-3.8h5.2l1.7-2.9 4.5 2.6zm701.7-1-3.3-5.6h-.8v-1.4l-.6-1 .6-.3v-.3h.6l1.7-1 .6 1h6.3v5.7zm-699.3-18.1h-9.2v-6.3h9.2zm704.4-1.9h-9.2v-6.3h9.2zm-704.4-15.7h-9.2v-6.3h9.2zm704.4-1.9h-9.2v-6.3h9.2zm-704.4-15.7h-9.2v-6.3h9.2zm704.4-1.9h-9.2v-6.3h9.2zm-704.4-15.8h-9.2v-6.3h9.2zm704.4-1.9h-9.2v-6.3h9.2zm-704.4-15.7h-9.2v-6.3h9.2zm704.4-1.9h-9.2v-6.3h9.2zm-704.4-15.7h-9.2v-6.3h9.2zm704.4-1.9h-9.2v-6.3h9.2zm-704.4-15.8h-9.2v-6.3h9.2zm704.4-1.9h-9.2v-6.3h9.2zm-704.4-15.7h-9.2v-6.3h9.2zm704.4-1.9h-9.2v-6.3h9.2zm-704.4-15.7h-9.2v-6.3h9.2zm704.4-1.9h-9.2v-6.3h9.2zm-704.4-15.8h-9.2v-6.3h9.2zm704.4-1.9h-9.2v-6.3h9.2zm-704.4-15.7h-9.2v-6.3h9.2zm704.4-1.9h-9.2v-6.3h9.2zm-704.4-15.7h-9.2v-6.3h9.2zm704.4-2h-9.2v-6.3h9.2zm-704.4-15.7h-9.2v-6.3h9.2zm704.4-1.9h-9.2v-6.3h9.2zm-704.4-15.7h-9.2v-6.3h9.2zm704.4-1.9h-9.2v-6.3h9.2zm-704.4-15.8h-9.2v-6.3h9.2zm704.4-1.9h-9.2v-6.3h9.2zm-704.4-15.7h-9.2v-6.3h9.2zm704.4-1.9h-9.2v-6.3h9.2zm-704.4-15.7h-9.2v-6.3h9.2zm704.4-1.9h-9.2v-6.3h9.2zm-704.4-15.8h-9.2v-6.3h9.2zm704.4-1.9h-9.2v-6.3h9.2zm-704.4-15.7h-9.2v-6.3h9.2zm704.4-1.9h-9.2v-6.3h9.2zm-704.4-15.7h-9.2v-6.3h9.2zm704.4-1.9h-9.2v-6.3h9.2zm-704.4-15.8h-9.2v-6.3h9.2zm704.4-1.9h-9.2v-6.3h9.2zm-704.4-15.7h-9.2v-6.3h9.2zm704.4-1.9h-9.2v-6.3h9.2zm-704.4-15.7h-9.2v-6.3h5l-2.4-4.1 5.5-3.2 4.6 8-3.4 2v3.6zm704.4-1.9h-9.2v-4.4h2.4l2.9-4.9 4 2.3v7zm-18.3-7.1-5.5-3.2 4.6-8 5.5 3.2zm-672.9-2.3-4.6-8 5.5-3.2 4.6 8zm657.6-6.5-5.5-3.2 4.6-8 5.5 3.2zm-642.3-2.4-4.6-8 5.5-3.2 4.6 8zm627-6.4-5.5-3.2 4.6-8 5.5 3.2zm-611.7-2.4-4.6-8 5.5-3.2 4.6 8zm596.5-6.4-5.5-3.2 4.6-8 5.5 3.2zm-581.3-2.4-4.6-8 5.5-3.2 4.6 8zm566-6.4-5.5-3.2 4.6-8 5.5 3.2zm-550.7-2.4-4.6-8 5.5-3.2 4.6 8zm535.4-6.5-5.5-3.2 4.6-8 5.5 3.2zm-520.1-2.3-4.6-8 5.5-3.2 4.6 8zm504.8-6.5-5.5-3.2 4.6-8 5.5 3.2zm-489.6-2.3-4.6-8 5.5-3.2 4.6 8zm474.4-6.5-5.5-3.2 4.6-8 5.5 3.2zm-459.1-2.4-4.6-8 5.5-3.2 4.6 8zm443.8-6.4-5.5-3.2 4.6-8 5.5 3.2zm-428.5-2.4-4.6-8 5.5-3.2 4.6 8zm413.2-6.4-5.5-3.2 4.6-8 5.5 3.2zm-397.9-2.4-4.6-8 5.5-3.2 4.6 8zm382.6-6.5-5.5-3.2 4.6-8 5.5 3.2zm-367.4-2.3-4.6-8 5.5-3.2 4.6 8zm352.2-6.5-5.5-3.2 4.6-8 5.5 3.2zm-336.9-2.3-4.6-8 5.5-3.2 4.6 8zm321.6-6.5-5.5-3.2 4.6-8 5.5 3.2zm-306.3-2.3-4.6-8 5.5-3.2 4.6 8zm291-6.5-5.5-3.2 4.6-8 5.5 3.2zm-275.7-2.4-4.6-8 5.5-3.2 4.6 8zm260.5-6.4-5.5-3.2 4.6-8 5.5 3.2zm-245.3-2.4-4.6-8 5.5-3.2 4.6 8zm230-6.4-5.5-3.2 4.6-8 5.5 3.2zm-214.7-2.4-4.6-8 5.5-3.2 4.6 8zm199.4-6.5-5.5-3.2 4.6-8 5.5 3.2zm-184.1-2.3-4.6-8 5.5-3.2 4.6 8zm168.8-6.5-5.5-3.2 4.6-8 5.5 3.2zm-153.6-2.3-4.6-8 5.5-3.2 4.6 8zm138.4-6.5-5.5-3.2 4.6-8 5.5 3.2zm-123.1-2.4-4.6-8 5.5-3.2 4.6 8zm107.8-6.4-5.5-3.2 4.6-8 5.5 3.2zm-92.5-2.4-4.6-8 5.5-3.2 4.6 8zm77.2-6.4-5.5-3.2 4.6-8 5.5 3.2zm-61.9-2.4-4.6-8 5.5-3.2 4.6 8zm46.6-6.4-5.5-3.2 4.6-8 5.5 3.2zm-31.4-2.4-4.6-8 5.5-3.2 4.6 8zm16.2-6.5-4.8-2.8 1.8-3.2-2.5-4.4 3-1.7 7.1 4.1z" fill="#fded22"/><path d="m673 540.4v-37.6h-127.7v-28.2h93.9v-97.5h-195.1v97.5h93.6v28.2h-127.7v37.6h-38.5v82.6h82.7v-82.6h-36.6v-30.1h120.2v30h-37.6v82.7h82.6v-82.6h-37.5v-30.1h120.2v30h-36.8v82.7h82.6v-82.6z" fill="#fded22"/><path d="m569.1 409.2h11.3v11.3h-11.3zm0 33.9h11.3v11.3h-11.3z"/><path d="m475.8 455.1c-10.5 0-17-2.8-17-2.8l1.7-6.2s7.3 2 14.9 2c7.3 0 10.2-2.5 10.2-6.8 0-5.9-3.3-5.4-11-6-9.1-.6-16.7.2-16.7-12.4 0-11.4 6.2-14.4 18.2-14.4 8.3 0 14.6 2 14.6 2l-1.6 6.2s-5.6-1-12.8-1c-7.7 0-10.5 1.3-10.5 6.4 0 5.7 1.8 6.8 11.2 6.8 10.1 0 16.6-.3 16.6 12.2-.1 11.3-7.3 14-17.8 14"/><path d="m624.1 454.9c-5.4 0-6.1-5.1-6.1-5.1l-9.3 5.2s-.6.1-4.9.1c-16 0-18.2-9.4-18.2-23 0-13.1 2.4-23.6 17.1-23.6 4.1 0 5.7.6 8.6 1l6.3 4.6v-24h8.4v57.1l1.9 1.3v6.5h-3.8zm-6.4-38.3c-1.1-.1-7-.7-11.9-.7-9.6 0-11.5 4.3-11.5 16.6 0 13.5 2.1 15.6 11.7 15.6 5.7 0 11.7-1.1 11.7-1.1z"/><path d="m549 408.4c-1.8 0-6.8 0-6.8 0-3.3 0-5.1 1.9-6.1 5-.5 1.5-6.2 23.1-6.2 23.1h-1.9s-5.4-21.2-6.4-23.6c-.8-2.5-3.2-4.5-6.3-4.5 0 0-6.9 0-8.1 0-3.2 0-4.1 2.1-4.4 4.3-.2 1.9-1.4 42.3-1.4 42.3h8.9l1.4-39.7h.5c1.3 0 1.6 1.4 1.9 2.5l7 25h15.7l7-25.4s.4-2 1.8-2h.2l1.3 39.7h9s-1.4-40-1.4-41.6c0-3.2-2.1-5.1-5.7-5.1z"/></svg>