<svg enable-background="new 0 0 996 534" viewBox="0 0 996 534" xmlns="http://www.w3.org/2000/svg" xmlns:xlink="http://www.w3.org/1999/xlink"><linearGradient id="a"><stop offset=".00096154" stop-color="#04a6df"/><stop offset="1" stop-color="#1bb150"/></linearGradient><linearGradient id="b" gradientUnits="userSpaceOnUse" x1="111.1344" x2="822.5889" xlink:href="#a" y1="207.594" y2="207.594"/><linearGradient id="c" gradientUnits="userSpaceOnUse" x1="111.1349" x2="822.5894" xlink:href="#a" y1="259.4068" y2="259.4068"/><linearGradient id="d" gradientUnits="userSpaceOnUse" x1="111.134" x2="822.5904" xlink:href="#a" y1="258.7726" y2="258.7726"/><linearGradient id="e" gradientUnits="userSpaceOnUse" x1="111.1309" x2="822.5898" xlink:href="#a" y1="259.5023" y2="259.5023"/><linearGradient id="f" gradientUnits="userSpaceOnUse" x1="111.1346" x2="822.5892" xlink:href="#a" y1="259.4068" y2="259.4068"/><linearGradient id="g" gradientUnits="userSpaceOnUse" x1="111.1344" x2="822.5883" xlink:href="#a" y1="259.4068" y2="259.4068"/><linearGradient id="h" gradientUnits="userSpaceOnUse" x1="111.1351" x2="822.5883" xlink:href="#a" y1="258.7726" y2="258.7726"/><linearGradient id="i" gradientUnits="userSpaceOnUse" x1="111.1347" x2="822.5894" xlink:href="#a" y1="278.186" y2="278.186"/><linearGradient id="j" gradientUnits="userSpaceOnUse" x1="111.1349" x2="822.5905" xlink:href="#a" y1="277.807" y2="277.807"/><linearGradient id="k" gradientUnits="userSpaceOnUse" x1="111.1353" x2="822.5903" xlink:href="#a" y1="259.4068" y2="259.4068"/><linearGradient id="l" gradientUnits="userSpaceOnUse" x1="111.1344" x2="822.5922" xlink:href="#a" y1="266.8756" y2="266.8756"/><linearGradient id="m" gradientUnits="userSpaceOnUse" x1="111.1346" x2="822.5889" xlink:href="#a" y1="258.7726" y2="258.7726"/><path d="m738.9 207.6c0 3.9-3.2 7.1-7.2 7.1s-7.2-3.2-7.2-7.1c0-4 3.2-7.2 7.2-7.2s7.2 3.3 7.2 7.2" fill="url(#b)"/><path d="m247.2 222.8c-20.2 0-36.6 16.4-36.6 36.6s16.4 36.6 36.6 36.6 36.6-16.4 36.6-36.6-16.4-36.6-36.6-36.6m0 62.3c-14.3 0-25.9-11.5-25.9-25.7 0-14.3 11.6-25.9 25.9-25.9s25.9 11.6 25.9 25.9c0 14.2-11.7 25.7-25.9 25.7" fill="url(#c)"/><path d="m680.1 222.8c-9.1 0-17.9 4-23.6 11.1l-1 1.2-1-1.2c-5.7-7.1-14.3-11.1-23.4-11.1-16.4 0-30.3 13.4-30.3 29.8v36.5c.1 3.1 2.7 5.6 5.8 5.6 3.2 0 5.7-2.5 5.8-5.6v-36.5c0-10.2 8.4-18.5 18.5-18.5 10.2 0 18.7 8.3 18.7 18.5v36.5c.1 3.1 2.6 5.7 5.8 5.7s5.7-2.5 5.8-5.7v-36.5c0-10.2 8.5-18.5 18.7-18.5 10.1 0 18.5 8.3 18.5 18.5v36.8c.2 3 2.8 5.4 5.8 5.4s5.6-2.4 5.8-5.4v-36.8c0-16.4-13.6-29.8-29.9-29.8" fill="url(#d)"/><path d="m737.5 230.1c0-3.2-2.6-5.8-5.8-5.8s-5.8 2.6-5.8 5.8v.3 58.6c0 3.2 2.6 5.7 5.8 5.7s5.8-2.6 5.8-5.7v-58.6c0-.1 0-.2 0-.3" fill="url(#e)"/><path d="m585.4 259.4c0-20.2-16.2-36.6-36.4-36.6s-36.5 16.4-36.5 36.6 16.5 36.6 36.7 36.6c16.3 0 24.4-10.8 24.4-10.8v3.6c0 3.3 2.7 5.9 6 5.9s5.9-2.6 6-5.9v1.2-30.6zm-36.3 25.9c-14.3 0-25.9-11.6-25.9-25.9s11.6-25.9 25.9-25.9 25.9 11.6 25.9 25.9-11.6 25.9-25.9 25.9" fill="url(#f)"/><path d="m437.7 260.2c0-9.2-3-18.4-8.2-25.2-2.9-3.8-6.3-6.7-10.2-8.8-4.3-2.3-9-3.4-14.2-3.4-18.9 0-33.7 16-33.7 36.5 0 10.1 3.5 19.5 10 26.2 6.5 6.8 15.3 10.5 25 10.5 10.6 0 18.8-3.3 26.4-10.5 1.1-1 1.8-2.3 1.8-3.7 0-2.7-2.2-4.8-4.9-4.8-1.5 0-2.5.7-3.2 1.3h-.1c-5.2 4.8-11.3 7-19.7 7-6.5 0-12.1-1.7-16.2-4.8-4.4-3.4-7-8.3-7.7-14.7l-.1-.4h49.7c2.9 0 5.3-2.3 5.3-5.2m-47.5-21.2c3.9-3.8 9-5.7 14.6-5.7 6.6 0 11.8 2.2 15.7 6.6 4.1 4.7 5.5 10.7 6 14.9v.4h-43.8l.1-.4c.8-6.5 3.4-11.9 7.4-15.8" fill="url(#g)"/><path d="m327.8 222.8c-1.3 0-2.6.1-4.2.3l-.4.1c-15 2.2-26.2 15.1-26.2 29.8v36.3.1c.1 3 2.6 5.4 5.6 5.4s5.5-2.4 5.6-5.4v-.1s0-34.3 0-36.2v-.1c0-.1 0-.2 0-.3s0-.1 0-.2c0-5.1 2-9.8 5.7-13.2 3.6-3.4 8.5-5.2 13.7-5.2 5.3 0 10.1 1.9 13.7 5.2 3.6 3.4 5.7 8.1 5.7 13.2v37 .1c.2 2.8 2.7 5.1 5.6 5.1s5.4-2.3 5.6-5.2v-36.5c0-16.6-13.6-30.2-30.4-30.2" fill="url(#h)"/><path d="m824.7 259.4c0-20.2-16.8-36.6-36.7-36.6s-36.1 16.4-36.1 36.6 16.2 36.6 36.1 36.6c8.3 0 16.8-3.4 23.1-8.7l1.7-1.4s1.1 11.5-1.5 19.2c-1.3 3.8-6.8 15.8-23.2 16.3-7.6.2-15.6-4.4-20.3-11.1-1.1-1.7-2.9-2.8-5-2.8-3.3 0-5.9 2.7-5.9 5.9 0 .9.2 1.8.6 2.6 6.3 11 18.4 17.5 30.5 17.5 11.6-.4 20.5-4 26.8-11 9.8-11 9.9-27.2 9.9-39.1zm-36.6 24.8c-13.5 0-24.4-11.1-24.4-24.8 0-13.8 11-24.9 24.4-24.9 13.6 0 24.6 11.2 24.6 24.9 0 13.6-11 24.8-24.6 24.8" fill="url(#i)"/><path d="m508.3 229.8c0 .8-.3 1.7-.5 2.4l-.1.2c-.9 2.3-27.9 67-27.9 67-3.7 9.9-8.5 22.6-20.2 28.7-7.5 4-16.2 4.2-26 .8-6.5-2.4-12.2-7.1-15.9-13.1 0 0-.1-.1-.1-.2-.5-.8-.8-1.8-.8-2.8 0-3 2.5-5.5 5.5-5.5 1.9 0 3.6 1 4.6 2.5 0 0 .1.1.1.1 2.6 4.1 6.3 7.3 10.5 8.7 14 4.8 22.4-3.6 24.6-6.4 4.6-5.7 9.3-19.5 9.3-19.5l-28.4-59.9c-.5-1.1-.7-2.1-.7-3 0-3.1 2.5-5.5 5.6-5.5.9 0 3.8 0 5.6 4.3l23.3 49.7 20.6-49.9c.7-1.9 2.2-4.1 5.3-4.1 3.2 0 5.6 2.5 5.6 5.5" fill="url(#j)"/><path d="m874.6 222.8c-20.2 0-36.6 16.4-36.6 36.6s16.4 36.6 36.6 36.6 36.6-16.4 36.6-36.6-16.4-36.6-36.6-36.6m0 62.3c-14.3 0-25.9-11.5-25.9-25.7 0-14.3 11.6-25.9 25.9-25.9s25.9 11.6 25.9 25.9c0 14.2-11.6 25.7-25.9 25.7" fill="url(#k)"/><path d="m874.6 277.1c-9.7 0-17.9-7.2-19.1-16.7-.2-1.8 1-3.5 2.9-3.7 1.8-.2 3.5 1 3.7 2.8.8 6.2 6.2 10.9 12.5 10.9s11.7-4.6 12.6-10.8c.3-1.8 1.9-3.1 3.7-2.8 1.8.2 3.1 1.9 2.8 3.7-.6 4.5-2.9 8.7-6.4 11.8s-8 4.8-12.7 4.8" fill="url(#l)"/><path d="m167.8 222.8c-9.1 0-17.9 4-23.6 11.1l-1 1.2-1-1.2c-5.7-7.1-14.3-11.1-23.3-11.1-16.5 0-30.3 13.4-30.3 29.8v36.5c.1 3.1 2.7 5.6 5.8 5.6 3.2 0 5.7-2.5 5.8-5.6v-36.5c0-10.2 8.4-18.5 18.5-18.5 10.2 0 18.7 8.3 18.7 18.5v36.5c.1 3.1 2.6 5.7 5.8 5.7s5.7-2.5 5.8-5.7v-36.5c0-10.2 8.5-18.5 18.7-18.5 10.1 0 18.5 8.3 18.5 18.5v36.8c.2 3 2.7 5.4 5.8 5.4 3 0 5.6-2.4 5.8-5.4v-36.8c-.1-16.4-13.7-29.8-30-29.8" fill="url(#m)"/></svg>