<?xml version="1.0" encoding="utf-8"?>
<!-- Generator: Adobe Illustrator 22.0.1, SVG Export Plug-In . SVG Version: 6.00 Build 0)  -->
<svg version="1.1" id="Layer_1" xmlns="http://www.w3.org/2000/svg" xmlns:xlink="http://www.w3.org/1999/xlink" x="0px" y="0px"
	 viewBox="0 0 996 534" style="enable-background:new 0 0 996 534;" xml:space="preserve">
<style type="text/css">
	.st0{fill:#FFFFFF;}
</style>
<g>
	<path class="st0" d="M299.5,294.5V293c0-23.6,23-56.1,45.8-56.1c8.2,0,13.5,5.6,13.5,13.8c0,17.9-13,34.9-32.6,47.6
		c1.4,1.9,2.7,2.4,5.1,2.4c7.9,0,20.4-7.4,29.7-14.5l0.3-1.1c3.4-23,11.9-45.8,28.6-68c16.9-22.5,37.4-37.4,50.6-37.4
		c7.7,0,12.2,5.3,12.2,11.4c0,24.9-38.7,69.4-66,94.4l0.3,1.4c1,4.5,4.2,7.1,8.7,7.1c9.5,0,18-4.8,29.7-13.5l0.3-1.1
		c4.5-24,13.8-46.3,33.1-71.9c19.1-25.5,41.3-43.2,53.4-43.2c7.4,0,11.2,4.8,11.2,10.8c0,22-35.4,77.6-74.6,109.9v1.1
		c0.5,6.6,6.1,11.1,11.9,11.1c2.9,0,4.8-0.5,8.7-2.9c0.5,1.1,0.5,1.8,0.5,3.2c0,14.8-13.5,26.2-24.1,26.2c-12.4,0-18.2-8-20.4-19.9
		l-1.1,0.8c-19.6,12.4-26.8,16.9-40.3,16.9c-10,0-16.9-6.6-20.9-16.2l-0.8,0.6c-16.4,11.1-24.1,15.6-38.4,15.6
		c-10.6,0-14.8-3.4-20.4-10.6l-0.8,0.3c-3.4,1.3-6.9,1.9-10.1,1.9c-5.3,0-9-3.2-9-7.1C283.7,301.9,283.7,301.9,299.5,294.5
		L299.5,294.5z M452,257.8l-0.3,0.8c22.2-21.4,42.9-50.9,42.9-59.3c0-1.6-0.8-2.7-1.9-2.7C482.7,196.6,459.6,234.5,452,257.8z
		 M386.5,262.9l-0.3,1.3c23.8-22,40.2-50.9,40.2-54.6c0-1.6-1-2.7-2.1-2.7c-4.5,0-14.9,11.7-23.6,24.4
		C392.8,243.2,388.6,252.3,386.5,262.9L386.5,262.9z M321.7,282.4v1.4c6.6-4,18.8-16.7,18.8-24.8c0-1.3-0.5-2.1-2.4-2.1
		C330.7,256.8,322.2,272.8,321.7,282.4z"/>
	<path class="st0" d="M673.6,314.3l5.6-9l-0.8,0.5c-12.5,8.2-14.5,9.5-21.2,9.5c-10.8,0-18-6.9-18-17.2c0-27.5,38.1-58.7,66.2-58.7
		c4.5,0,8.7,1.3,8.7,5.6c0,7.9-45.3,18.5-45.3,39.1c0,2.6,1.8,5,5.8,5c18,0,25.1-37.3,41-37.3c5.1,0,8.2,3.4,8.2,7.1
		c0,6.1-4.5,14.8-18.2,36.5l0.5-0.3c40-24.9,68.6-63,94.6-63c7.1,0,11.1,4,11.1,11.4c0,14.8-18.8,0-18.8,23c0,3.4,0.3,7.9,0.3,11.4
		c0,23-19.9,50-43.5,50c-13.5,0-22.8-7.5-22.8-19.6c0-2.1,0.5-5,2.1-9.8l-0.8,0.5c-9,6.4-26.2,18.8-37.9,23.8
		c-2.1,3.2-7.7,13.3-12.2,19.9s-9.3,12.7-14.3,18c-12.7,13.5-28.1,22.8-39.2,22.8c-7.7,0-14.6-6.6-14.6-15.4c0-10.3,8-24.1,23.9-35
		C644.8,326,653.2,324.4,673.6,314.3L673.6,314.3z M773.7,263l-32.1,26.7c1.9-0.3,3.4-0.6,4.5-0.6c9.8,0,4.5,11.2,11.2,11.2
		c9.2,0,15.6-18.3,16.4-36L773.7,263z M661.4,336.5l0.5-0.8c-13,6.6-29.2,15.1-29.2,23.5c0,1.6,1.4,2.7,2.7,2.7
		C638.9,362,653.7,350.8,661.4,336.5L661.4,336.5z"/>
	<path class="st0" d="M574.8,264.1H574c-12.2,0-16.7-2.1-20.7-2.1c-6.1,0,0,14-17.7,39.7c-11.4,16.7-23.3,23.3-36.2,23.3
		c-15.6,0-23.8-10.3-23.8-24.6c0-26.2,26.2-57.9,51.6-57.9c4.8,0,8.5,2.6,8.5,6.6c0,4.5-30.7,19.3-30.7,39.4c0,4.2,2.9,7.4,7.7,7.4
		c21.7,0,16.9-50.2,34.2-50.2c6.8,0,15.6,5.3,27,5.3c16.7,0,31.5-10.1,40.5-10.1c5.6,0,8.5,1.9,8.5,5.8c0,8.2-39.2,20.6-39.2,41.5
		c0,2.7,1.8,4.5,5.5,4.5c20.4,0,24.9-49.2,48.7-49.2c3.7,0,7.5,2.9,7.5,8.5c0,5.6-3.2,13.2-13.3,29c-9,14.6-10.9,15.7-17.4,27.3
		c7.9-2.6,15.1-12.7,18.5-12.7c1.3,0,2.1,1.6,2.1,3.4c0,12.4-20.6,27-34.4,32.5c-16.9,23.1-38.4,51.7-64.1,51.7
		c-8,0-14.8-6.1-14.8-14.6c0-26.5,33.6-38.9,65.1-50.3l7.7-12.5l-0.8,0.6c-7.7,5-17.7,8.7-23.8,8.7c-10.3,0-16.7-6.6-16.7-17.2
		C553.3,286.5,559.7,278.5,574.8,264.1L574.8,264.1z M573.2,339.7l0.6-0.8c-9.3,2.9-28.7,13-28.7,20.4c0,1.6,1.4,2.9,3.2,2.9
		C553.1,362.3,563.7,353.2,573.2,339.7z"/>
	<path class="st0" d="M261.6,251.9c1.6,3.7,2.4,5.6,2.4,8.8c0,11.9-15.4,31.2-15.4,56.6c0,15.1,9.8,27.6,25.2,27.6
		c8.5,0,16.9-5.3,17.7-11.4c-7.5,0-11.4-5.8-11.4-12.7c0-15.6,10.8-42.3,10.8-58.2c0-5.8-1.3-8.7-4-13.7l-0.6-0.8
		c29.2-15.4,49.3-31.8,66-47.4c15.9-14.9,22.8-25.1,22.8-35.7c0-9.5-4.8-14.5-13.2-14.5c-23.3,0-44.8,63.8-90.6,85.8L261.6,251.9z"
		/>
	<path class="st0" d="M252.9,223.1c0,9.8-30.2,40.8-34.7,44.7c-26.5,24.4-33.4,31-33.4,44.3c0,8.2,5.8,14,13.8,14
		c17.2,0,27.3-15.1,55.1-65.9c38.6-70.7,44.5-67.8,44.5-76.8c0-3.4-2.4-5.3-5-5.3c-10.1,0-18.3,10.6-56.4,30.4
		c-34.2,17.7-46.8,27-46.8,40.3c0,7.5,4.5,13,11.4,13c20.4,0,36.6-40.3,50.1-40.3C252.3,221.5,252.9,222,252.9,223.1L252.9,223.1z"
		/>
	<path class="st0" d="M736,216.2c0,9.2,8.2,8.5,8.2,14c0,4.3-5,7.7-5,10.6c0,1.6,1.9,2.7,4,2.7c12.9,0,25.1-19.1,25.1-29.2
		c0-8.2-7.1-14.8-15.4-14.8C743.7,199.5,736,207.4,736,216.2L736,216.2z"/>
	<path class="st0" d="M802.9,307.3c3.4,0,6.6,2.6,6.6,6.3s-3.4,6.4-6.6,6.4c-3.4,0-6.6-2.7-6.6-6.4S799.4,307.3,802.9,307.3z
		 M802.8,308.3c-3.1,0-5.6,2.4-5.6,5.3s2.4,5.3,5.6,5.3c2.6,0,5.6-2.1,5.6-5.3C808.4,310.7,805.7,308.3,802.8,308.3z M801.4,314v2.8
		h-0.9v-6.6h3.1c1.1,0,2.1,0.4,2.1,1.8c0,0.9-0.5,1.3-0.9,1.6c0.4,0.2,0.8,0.3,0.8,1.3l0.1,1.2c0,0.4,0.1,0.5,0.4,0.7v0.1H805
		c-0.1-0.4-0.1-1.4-0.1-1.6c0-0.6-0.1-1.2-1.2-1.2L801.4,314L801.4,314z M801.4,311v2.3h2.1c0.7,0,1.4-0.1,1.4-1.1s-0.8-1.1-1.2-1.1
		L801.4,311L801.4,311z"/>
</g>
</svg>
