<svg enable-background="new 0 0 500 500" viewBox="0 0 500 500" xmlns="http://www.w3.org/2000/svg"><g fill="#dc1c24"><path d="m238.6 258.1c2.4 5.5 3.6 8.4 3.6 13.2 0 17.8-23.1 46.8-23.1 85 0 22.7 14.8 41.5 37.9 41.5 12.7 0 25.5-8 26.7-17.2-11.2 0-17.2-8.7-17.2-19.1 0-23.5 16.3-63.6 16.3-87.4 0-8.7-2-13.1-5.9-20.6l-.9-1.2c43.8-23.1 74.1-47.8 99.1-71.3 23.8-22.3 34.2-37.8 34.2-53.7 0-14.3-7.2-21.9-19.9-21.9-35.1 0-67.3 95.9-136.1 128.9z"/><path d="m225.4 214.8c0 14.7-45.4 61.3-52.1 67.1-39.9 36.7-50.2 46.7-50.2 66.5 0 12.3 8.7 21.1 20.8 21.1 25.9 0 41-22.7 82.8-99.1 58.1-106.3 66.8-101.9 66.8-115.5 0-5.2-3.6-7.9-7.6-7.9-15.1 0-27.5 15.9-84.8 45.7-51.4 26.7-70.4 40.6-70.4 60.5 0 11.2 6.8 19.5 17 19.5 30.8 0 55-60.5 75.3-60.5 1.5.2 2.4 1.1 2.4 2.6z"/></g></svg>