<svg enable-background="new 0 0 500 500" viewBox="0 0 500 500" xmlns="http://www.w3.org/2000/svg"><path d="m99 250c0-84.4 67.6-152.9 151-152.9s151 68.5 151 152.9-67.6 152.9-151 152.9-151-68.5-151-152.9" fill="#1694cf"/><g fill="#fff"><path d="m246 299.1v1.1c0 28.4-21.2 44.9-47.7 44.9-31.3 0-47.6-18.8-48.5-42.5h22.8v.6c1.2 11.5 10.6 20.2 24.4 20.2 14.4 0 24.3-9.6 24.3-24.4v-16h-.2c-6 2.6-16 4.1-23.1 4.1-28.5 0-48.8-18.4-49.9-41.5v-.2-52.7h24.6v50.9 1.1c0 11.7 12.8 21.3 24.4 21.3s24.2-9.1 24.2-20.8v-1.1-51.3h24.5z"/><path d="m327.6 263.7h-24.7c-14.6 0-24.7-10.8-24.7-24.1 0-14.3 11.1-24.1 24.7-24.1s24.7 9.5 24.7 24.1zm-24.7-71.6c-27 0-48.8 19.2-48.8 47.5 0 26.3 20.1 47.5 48.9 47.5h48.8l-.1-47.5c0-28.7-21.9-47.5-48.8-47.5"/></g></svg>