
<svg version="1.1" id="Layer_1" xmlns="http://www.w3.org/2000/svg" xmlns:xlink="http://www.w3.org/1999/xlink" x="0px" y="0px"
	 viewBox="0 0 470 380" style="enable-background:new 0 0 470 380;" xml:space="preserve">
<rect x="20.7" y="112.6" class="st0" width="154.8" height="154.8"/>
<path class="st0" d="M98.1,267.4"/>
<path class="st0" d="M246.1,267.4H188c-26.7,0-48.4-21.7-48.4-48.4v-58c0-26.7,21.7-48.4,48.4-48.4h58.1c26.7,0,48.4,21.7,48.4,48.4
	v58.1C294.4,245.7,272.8,267.4,246.1,267.4z"/>
<path class="st0" d="M324.9,267.4h-30.4c-34.4,0-62.2-27.9-62.2-62.2v-30.4c0-34.4,27.9-62.2,62.2-62.2h30.4
	c34.4,0,62.2,27.9,62.2,62.2v30.4C387.1,239.6,359.2,267.4,324.9,267.4z"/>
<path class="st0" d="M371.9,267.4L371.9,267.4c-42.8,0-77.4-34.7-77.4-77.4l0,0c0-42.8,34.7-77.4,77.4-77.4l0,0
	c42.8,0,77.4,34.7,77.4,77.4l0,0C449.3,232.7,414.6,267.4,371.9,267.4z"/>
<path class="st0" d="M98,267.4c-11.4,0-20.6-9.2-20.6-20.6V133.2c0-11.4,9.2-20.6,20.6-20.6"/>
<path class="st0" d="M232.2,206v40.8c0,11.4-9.2,20.6-20.6,20.6"/>
<path class="st0" d="M211.6,112.6c11.4,0,20.6,9.2,20.6,20.6v39.3"/>
</svg>
