<svg version="1.1" id="Layer_1" xmlns="http://www.w3.org/2000/svg" xmlns:xlink="http://www.w3.org/1999/xlink" x="0px" y="0px"
	 viewBox="0 0 470 380" style="enable-background:new 0 0 470 380;" xml:space="preserve">
<g>
	<polyline class="st0" points="255.2,132.1 255.2,85 295.6,106.2 295.6,248.4 255.2,267.5 	"/>
	<path class="st0" d="M214.9,79.8"/>
	<polyline class="st0" points="295.6,106.2 336,86.2 295.6,64.8 295.6,26.9 336,47.1 336,224.1 377.4,206 377.4,26.9 336,47.1 	"/>
	<line class="st0" x1="295.6" y1="64.8" x2="255.2" y2="85"/>
	<polyline class="st0" points="295.6,26.9 336.5,7.1 377.4,26.9 	"/>
	<polyline class="st0" points="281.7,71.7 255.2,59 214.9,79.9 255.2,98.5 	"/>
	<line class="st0" x1="295.6" y1="205.4" x2="336" y2="224.1"/>
	<g>
		<path class="st0" d="M214.8,112.4"/>
	</g>
</g>
<g>
	<polyline class="st0" points="92.6,185.1 92.6,352.6 133,372.8 133,190.3 173.4,211.5 173.4,353.7 133,372.8 	"/>
	<polyline class="st0" points="173.4,211.5 213.8,191.5 173.4,170.1 173.4,132.2 213.8,152.4 213.8,329.4 255.2,311.3 255.2,132.2 
		213.8,152.4 	"/>
	<line class="st0" x1="173.4" y1="170.1" x2="133" y2="190.3"/>
	<polyline class="st0" points="173.4,132.2 214.3,112.4 255.2,132.2 	"/>
	<polyline class="st0" points="159.4,177 133,164.3 92.6,185.2 133,203.8 	"/>
	<line class="st0" x1="173.4" y1="310.7" x2="213.8" y2="329.4"/>
	<g>
		<path class="st0" d="M92.6,353.1"/>
	</g>
</g>
<line class="st0" x1="214.7" y1="79.9" x2="214.7" y2="112.4"/>
</svg>
