<?xml version="1.0" encoding="utf-8"?>
<!-- Generator: Adobe Illustrator 22.0.1, SVG Export Plug-In . SVG Version: 6.00 Build 0)  -->
<svg version="1.1" id="Layer_1" xmlns="http://www.w3.org/2000/svg" xmlns:xlink="http://www.w3.org/1999/xlink" x="0px" y="0px"
	 viewBox="0 0 996 534" style="enable-background:new 0 0 996 534;" xml:space="preserve">
<style type="text/css">
	.st0{fill:#FFFFFF;}
	.st1{fill:#002A3A;}
	.st2{fill:#00A7E1;}
</style>
<rect x="-1.6" class="st0" width="995.4" height="534"/>
<g>
	<path class="st1" d="M107.9,153.9l51.2,0c4.6,0,6.4,1.2,8.9,4.6l11.4,15.4C179.5,174,159.3,159.6,107.9,153.9"/>
	<path class="st2" d="M361.8,274.8h-68.9c-28.8,0-42.1-5.6-56.1-24l-50.4-66.1h32.3c30.8,0,48.2,15.2,48.2,15.2l-26.5-36.1
		c-12.8-17.4-24.3-24.8-50.2-24.8h-85.4c-18.5,0-26.3-2.4-36.5-16.1l-9.4-12.6H182c47,0,68.7,14.1,93.2,47.3L361.8,274.8z"/>
	<polygon class="st1" points="120.7,392.4 120.7,298.4 142.2,298.4 177.6,348.5 212.6,298.4 233.3,298.4 233.3,392.4 214.6,392.4 
		214.6,322.5 177.4,375.9 139.4,322.5 139.4,392.4 	"/>
	<polygon class="st1" points="461.5,298.4 480.2,298.4 480.2,400.9 461.5,377.5 	"/>
	<path class="st1" d="M350.9,298.4h25.9l21.7,29.4l23.3-29.4H448l-39,42.3l65.4,83.1h-10.9c-10.7,0-18.9-6-24.2-13.4
		c-10-14.2-42.9-55.1-42.9-55.1l-8.3,9.4c-15.3,17.3-38.6,30.1-72.8,30.1c-41.3,0-62.2-14.5-62.2-51.3c0-35.8,21.7-47.5,50-47.5
		c25.9,0,38.8,13,38.8,34.8c0,11.7-3,18.9-3,18.9h-66.6c1.5,19.7,14.2,29.2,42.7,29.2c27.3,0,48.5-11.7,62.6-27.9l8.3-9.5
		L350.9,298.4z M301.9,310.6c-21.5,0-28.1,11.4-29.2,24.6h49.7c0,0,0.8-2,0.8-5.6C323.1,315.3,313.5,310.6,301.9,310.6"/>
	<path class="st1" d="M587.8,303.5l-6.6,17.2c0,0-12.6-8-29.9-8c-19.5,0-33.6,7.8-33.6,32.3c0,24,12.1,34,35.6,34
		c21.3,0,33.9-9.2,33.9-9.2V387c0,0-10.1,7.8-34.5,7.8c-36.8,0-54-15.9-54-51.3c0-33.9,21.4-47.5,52-47.5
		C573.7,296,587.8,303.5,587.8,303.5"/>
	<path class="st1" d="M685.8,336.5l0,55.9h-18.7l0-14.6h-1c0,0-8.3,16.9-32.5,16.9c-24.2,0-33.3-14.5-33.3-30.4
		c0-16.4,9-25.5,9-25.5l57.8,0v-3.5c0-18.2-5.4-22.7-26.9-22.7c-18.5,0-31.3,7.3-31.3,7.3l-6.6-17.2c0,0,16.6-6.7,39.1-6.7
		C671.9,296,685.8,303.7,685.8,336.5 M637.4,379.9c18.1,0,29.7-11.2,29.7-26.5l-46,0c0,0-2.7,3.1-2.7,9.9
		C618.3,372.4,623.1,379.9,637.4,379.9"/>
	<polygon class="st1" points="710.3,392.4 710.3,298.4 731.7,298.4 785,365.3 785,298.4 803.7,298.4 803.7,392.4 785,392.4 
		729,322.5 729,392.4 	"/>
	<path class="st1" d="M908.8,336.5l0,55.9H890l0-14.6h-1c0,0-8.3,16.9-32.5,16.9c-24.2,0-33.3-14.5-33.3-30.4c0-16.4,9-25.5,9-25.5
		l57.8,0v-3.5c0-18.2-5.4-22.7-26.9-22.7c-18.5,0-31.3,7.3-31.3,7.3l-6.6-17.2c0,0,16.6-6.7,39.1-6.7
		C894.8,296,908.8,303.7,908.8,336.5 M860.4,379.9c18.1,0,29.7-11.2,29.7-26.5l-46,0c0,0-2.7,3.1-2.7,9.9
		C841.3,372.4,846.1,379.9,860.4,379.9"/>
</g>
</svg>
