<svg enable-background="new 0 0 1500 500" viewBox="0 0 1500 500" xmlns="http://www.w3.org/2000/svg"><path d="m-3.2 0h1506.7v502h-1506.7z" fill="#fff"/><path clip-rule="evenodd" d="m341.3 209.6v6.3h-29.9c-12.8 0-19.3 6-19.3 18.8 0 14 10.1 21.4 23.3 21.4s19.2-5.3 19.2-14.7v-8h7.8v8.9c0 11.9-9.2 20-27.9 20-16 0-30.9-9.1-30.9-27.7 0-16.7 9.2-25.1 27.7-25.1h30z" fill="#8d847c" fill-rule="evenodd"/><path d="m450.5 243.4c0 7.9 6.6 12.8 20.8 12.8 15 0 21.5-4.8 21.5-11.6v-35h7.8v35c0 11.2-10 17.8-29.3 17.8-22.1 0-28.6-8.3-28.6-17.8v-35h7.8z" fill="#8d847c"/><path d="m535.7 216.2v18.1h24c7.2 0 11.9-3.6 11.9-10.2 0-5.4-2.1-7.9-8.5-7.9zm-7.8-6.3h36.7c9.3 0 14.8 4.5 14.8 13.2 0 11.2-8.2 17.5-19.7 17.5h-24v21.5h-7.8z" fill="#8d847c"/><path d="m375.3 216.2v17.6h22.5c5.5 0 12.4-3.6 12.4-10.2 0-5.4-2.4-7.4-8.5-7.4zm-7.9-6.3h36.6c9.3 0 13.9 3.3 13.9 12.4 0 11.7-12.9 14.8-12.9 14.8v.5s6.3.5 9.2 7.8l6.7 16.6h-9.3l-5.7-16.3c-1.8-5.1-5.1-5.8-11.4-5.8h-19.3v22.1h-7.8z" fill="#8d847c"/><path clip-rule="evenodd" d="m629 215.5c-16.4 0-24.2 7.9-24.2 21 0 13.2 11.4 19.9 24.2 19.9s25.2-4.8 25.2-20.4c0-14.9-8.6-20.5-25.2-20.5zm-32.1 20.7c0-16.3 9.9-26.9 32.7-26.9 21.3 0 32.4 9 32.4 26.6 0 17.1-12.2 26.8-33.1 26.8-20.8 0-32-9.9-32-26.5z" fill="#8d847c" fill-rule="evenodd"/><g fill="#231f20"><path d="m208.2 235.8c0-25.2 13.5-35.7 20.4-35.7 4.3 0 7.4 2.7 7.4 7.6 0 9.2-12.1 20.5-25.2 23.7v.2c12.7 0 33.7-9.2 33.7-26.3 0-8.8-7.2-15.2-16.5-15.2-20 0-32.9 24.7-32.9 45.9s12.9 45.9 32.9 45.9c9.3 0 16.5-6.5 16.5-15.2 0-17.1-20.9-26.3-33.7-26.3v.2c13.1 3.2 25.2 14.5 25.2 23.7 0 5-3.1 7.6-7.4 7.6-6.9-.3-20.4-10.9-20.4-36.1z"/><path d="m172.2 256.8c21.8 12.6 24.2 29.5 20.8 35.5-2.2 3.7-6 5.1-10.3 2.6-8-4.6-11.7-20.7-7.9-33.7l-.2-.1c-6.4 11-8.8 33.8 6 42.3 7.6 4.4 16.8 1.4 21.4-6.7 10-17.3-4.9-40.8-23.3-51.4-18.3-10.6-46.2-11.7-56.2 5.6-4.7 8.1-2.6 17.5 5 21.9 14.8 8.5 33.3-5 39.6-16l-.1-.1c-9.3 9.8-25.2 14.6-33.1 10-4.3-2.5-5.1-6.5-2.9-10.2 3.5-5.8 19.4-12.2 41.2.3z"/><path d="m172 215.2c-21.8 12.6-37.7 6.2-41.2.2-2.2-3.7-1.4-7.7 2.9-10.2 8-4.6 23.8.2 33.1 10l.1-.1c-6.4-11-24.8-24.5-39.6-16-7.6 4.4-9.6 13.8-5 21.9 10 17.3 37.8 16.2 56.2 5.6 18.3-10.6 33.2-34.1 23.3-51.4-4.7-8.1-13.8-11-21.4-6.7-14.8 8.5-12.3 31.3-6 42.3l.2-.1c-3.8-13-.1-29.1 7.9-33.7 4.3-2.5 8.1-1.2 10.3 2.6 3.4 6 1 23-20.8 35.6z"/><path d="m983.8 209.9h7.8v52.2h-7.8z"/><path d="m769.2 216.2v17.6h22.5c5.5 0 12.4-3.6 12.4-10.2 0-5.4-2.4-7.4-8.5-7.4zm-7.8-6.3h36.6c9.3 0 13.9 3.3 13.9 12.4 0 11.7-12.9 14.8-12.9 14.8v.5s6.3.5 9.2 7.8l6.7 16.6h-9.3l-5.7-16.3c-1.8-5.1-5.1-5.8-11.4-5.8h-19.3v22.1h-7.8z"/><path d="m856.4 255.8h31.3v6.3h-33.2c-10.3 0-16-5.4-16-14v-38.2h49.2v6.3h-41.4v15.6h41.4v6.3h-41.4v9.7c0 5.1 2.8 8 10.1 8z"/><path d="m950.4 249.8c0-3.7-3.8-6.5-17-11.4-17.7-6.5-23.1-10.6-23.1-18 0-6.8 5.3-10.5 14.1-10.5h30.9v6.3h-29.6c-5.7 0-7.6 1.3-7.6 4.6 0 3.8 2.9 5.3 17.3 10.8 15.8 6 22.8 8.9 22.8 18.2 0 6.8-4.5 12.3-13.7 12.3h-34.2v-6.3h33c5 0 7.1-2 7.1-6z"/><path d="m1043.3 262.7c-16.8 0-23.8-6.9-23.8-18.1v-34.7h36.5c17.3 0 23.2 7.6 23.2 23.3-.1 17.8-13.9 29.5-35.9 29.5zm0-6.2c16.9 0 27.6-8.5 27.6-22.8 0-13.2-4.8-17.5-16.7-17.5h-26.9v28.4c0 7 4.4 11.9 16 11.9z"/><path d="m694.8 216.2v18.1h24c7.2 0 11.9-3.6 11.9-10.2 0-5.4-2.1-7.9-8.5-7.9zm-7.9-6.3h36.7c9.3 0 14.8 4.5 14.8 13.2 0 11.2-8.2 17.5-19.7 17.5h-24v21.5h-7.8z"/><path d="m1120.8 255.8h31.3v6.3h-33.2c-10.3 0-16-5.4-16-14v-38.2h49.2v6.3h-41.4v15.6h41.4v6.3h-41.4v9.7c.1 5.1 2.9 8 10.1 8z"/><path d="m1349.1 255.8h31.3v6.3h-33.2c-10.3 0-16-5.4-16-14v-38.2h49.2v6.3h-41.4v15.6h41.4v6.3h-41.4v9.7c0 5.1 2.9 8 10.1 8z"/><path d="m1287.4 216.2v45.9h-7.8v-45.9h-26.4v-6.3h60.1v6.3z"/><path d="m1178.8 209.9h6.8c11.3 0 13.1 1.2 18 10.8l14.3 27.7c2.7 5.3 5.5 7.4 9.5 7.4v-45.9h7.8v52.2h-6.7c-8.7 0-13.8-3.4-17.8-11.1l-14-27.3c-3.3-6.4-4.4-7.5-10.2-7.5v45.9h-7.8v-52.2z"/></g></svg>