<svg enable-background="new 0 0 500 500" viewBox="0 0 500 500" xmlns="http://www.w3.org/2000/svg"><g fill="#fff"><path d="m311.1 249.6c0-59.1 31.6-83.9 47.9-83.9 10.1 0 17.3 6.2 17.3 17.8 0 21.6-28.4 48.1-59.2 55.6l.1.4c29.8 0 79-21.7 79-61.8 0-20.6-16.8-35.8-38.7-35.8-46.8 0-77.2 57.9-77.2 107.6s30.4 107.6 77.2 107.6c21.9 0 38.7-15.2 38.7-35.8 0-40.1-49.1-61.8-79-61.8l-.1.4c30.8 7.4 59.2 34 59.2 55.6 0 11.6-7.2 17.8-17.3 17.8-16.3.2-47.9-24.5-47.9-83.7z"/><path d="m226.6 298.9c51.2 29.6 56.8 69.3 48.7 83.4-5.1 8.8-14 11.9-24.1 6.1-18.7-10.8-27.5-48.7-18.5-79.1l-.4-.1c-14.9 25.8-20.7 79.2 14 99.3 17.8 10.3 39.4 3.3 50.3-15.6 23.4-40.7-11.5-95.9-54.6-120.8s-108.4-27.5-131.8 13.1c-11 19-6.2 41.1 11.6 51.4 34.7 20.1 78.1-11.7 93-37.5l-.3-.3c-21.8 23-59 34.3-77.7 23.5-10.1-5.8-11.9-15.1-6.8-23.9 8.1-14 45.4-29 96.6.5z"/><path d="m226.1 201.1c-51.2 29.6-88.5 14.5-96.6.5-5.1-8.8-3.3-18.1 6.8-23.9 18.7-10.8 55.9.5 77.7 23.5l.3-.3c-14.9-25.8-58.2-57.6-93-37.5-17.8 10.3-22.6 32.4-11.6 51.4 23.4 40.6 88.8 37.9 131.8 13.1 43.1-24.9 78-80.1 54.6-120.7-10.9-19-32.5-25.9-50.3-15.6-34.7 20.1-28.9 73.4-14 99.3l.4-.1c-9-30.4-.2-68.3 18.5-79.1 10.1-5.8 19-2.7 24.1 6.1 8.1 13.9 2.5 53.7-48.7 83.3z"/></g></svg>