<svg enable-background="new 0 0 1000 500" viewBox="0 0 1000 500" xmlns="http://www.w3.org/2000/svg"><g clip-rule="evenodd" fill-rule="evenodd"><g fill="#fff"><path d="m525.9 351c.9-6.3 7.2-11.2 5.4-19.3-.4-1.3-2.7-4.9-3.6-5.8-.4 0-.9 0-1.3 0-.4-.4-.9-1.3-1.3-1.3-1.8-1.3-3.1-1.8-4.5-2.7-2.7-2.2-4.9-4.5-7.6-6.7-.9-.9-1.8-.9-2.7-1.8-.9-.4-1.8-1.3-2.7-2.2-1.8-.9-3.6-1.3-5.8-2.7-.4-.4-1.3-1.3-2.2-1.3-3.6-1.3-8.5-1.8-13-1.3-7.2.5-14.8 3.6-20.7 5.8-2.2.9-5.8 4.9-2.2 6.7 2.7.9 7.2 0 9-1.3 1.3-.4 2.2-1.8 3.6-2.2 11.2-3.1 23.8.4 27.8 7.2.9 1.8.9 3.6 1.8 6.3 0 .5.9 1.3.9 1.8v2.2c-2.7 0-4 0-6.3.4-9 .9-18.4 3.1-25.6 6.3-1.3.4-2.7.4-3.6 1.3-1.3.9-5.8 6.3-6.3 8.1-.9 1.8-.9 4.5-.5 6.7 1.8 9 13 7.2 22.5 6.3 5.4 0 9.9-.5 14.4-2.2 1.8-.4 4-2.2 5.4-3.6.9 7.6 5.4 15.3 13.9 11.7.4 0 2.7-1.3 3.1-1.8.5-.9 0-1.8.5-3.1 0-2.2 1.3-4.5 1.8-6.7-.2-1.6-.2-3.4-.2-4.8zm-19.3.5c-5.4-1.3-13.5.9-19.8 1.3-1.8.4-3.6.4-4.9 0-2.7-.9-2.7-2.2-2.2-4.9.9-.5 1.8-.9 2.7-1.3 2.2-.9 4.5-1.3 7.2-1.8 3.1-.4 8.1-1.8 11.7-1.8 2.2-.4 4 0 5.4.4-.1 3.1-.1 4.9-.1 8.1z"/><path d="m546.1 330.8c4.5-.4 8.5.4 11.2 2.2 1.3.9 1.8 2.2 2.7 4h3.1c5.4-.5 11.2-2.7 16.6-3.6 14.8-1.8 24.3 4.5 29.2 13.9 1.3 2.7 1.8 5.4 3.6 8.1.4.9 3.6 4 3.6 4.5v.4h.4c.4.4.9 1.3 1.3 1.3.4.4.4 0 1.3.4 1.3.4 3.1 1.3 4.5 2.2 3.6 2.2 6.3 5.8 9.4 8.1 1.3 1.3 6.7 4 7.2 5.4.9 2.2-.9 3.6-2.2 4.5-2.2.9-6.7 1.3-9.4.4-1.3-.4-2.2-1.8-3.6-2.2-4-2.7-7.2-7.2-11.2-9.9-1.3-.9-3.6-1.8-4.9-2.2-.9-.5-1.3 0-2.2-.5-1.3-.9-3.1-3.6-4.5-5.4-5.4-6.3-11.2-15.7-20.2-18-5.4-1.3-18.4 2.2-20.7 4.9-1.3 1.8-1.3 4-2.7 6.3 0 .9-.9 1.3-1.3 1.8-1.8 2.7-4.5 4-8.1 4.5-3.1.4-4.5-.4-5.8-1.8-.9-.4-2.2-.9-2.2-1.3-1.3-3.6.4-9.4 0-13 0-.5-.9-2.2-.9-3.1h-.9v-.7c-.9-.9-4.9-2.2-6.7-2.7 2.2-4.9 5.4-5.8 10.8-7.6.4 0 2.2-.9 2.6-.9z"/><path d="m862.3 329c4.5-.4 10.3 1.8 12.1 4 .5.9.5 1.3.9 2.7 0 0 .9-.5.9 0 6.7-.5 13-3.6 19.8-4 14.8-1.8 22.5 5.4 28.3 12.6.9.9 2.2 1.3 2.7 2.2.4.9.4 1.3.9 1.8 3.1 4.9 6.3 9.9 8.1 15.7 0 0 .4.4.4.9 0 1.3-.9 3.6-2.2 4 0 0-.9 0-1.3 0-1.3-.4-3.1-2.2-4.5-3.1-2.7-1.3-5.8-1.8-8.5-3.1-2.7-2.2-4.9-5.8-6.7-8.5-3.6-4.9-8.1-7.6-13.5-9.9-.9-.5-2.2-1.3-2.7-1.3-7.2-1.3-18.9 2.7-21.6 5.8-.9.9-.9 1.8-1.3 2.7-1.8 4-3.1 6.7-7.6 8.1-1.3.5-3.6 1.3-5.4.9-1.3-.4-2.7-1.8-3.6-2.7 0 0-.4 0-.9 0-.4-.4 0-1.3 0-1.8-1.3-4.5 1.8-7.6.9-11.7 0-.9-2.2-4-3.6-4.5 0 0-.4 0-.9 0-.9-.4-2.2-1.3-3.1-1.8-1.8-1.8-1.3-4 .4-4.9 2.1-1.4 9.3-3.6 12-4.1z"/><path d="m797.7 327.7c2.2-.4 4.5 1.3 6.3 2.2 2.2.9 5.8 2.2 6.3 4.5.5 2.7-1.8 4-2.2 5.4-.9 1.3-.4 2.7-.9 4.5.4 0 .9.4.9.4.4.4 0 .9 0 1.3 1.3.4 3.6 1.3 4.5 1.3 4 .5 11.2-1.8 13.9-3.1-.4-2.2-1.3-4-.9-6.3 0-.4.9-1.3.9-1.8 0-1.3 0-2.2 0-3.1 1.3-3.1 5.8-5.8 10.3-5.4.4 0 1.3.9 1.8.9 4 1.8 2.7 3.6 3.1 8.5.5 2.2 1.8 4 1.3 6.7 0 .9-1.3 1.8-.9 3.1 0 1.8 5.4 7.6 6.7 9.4.4-.5.4.4.4.9l-.9.4c-.4.9 0 1.3-.4 1.8 0 .5-1.3 1.3-1.8 1.3-4.9 2.2-12.1-2.2-14.8-4-.9-.4-1.8-1.8-2.7-1.8-2.2-.4-6.3 1.8-8.1 1.8-6.3.9-14.8 0-18.9-1.8-.9-.4-1.8-1.8-2.2-2.2-1.3-.5-2.7-.9-3.6-1.8-.4-.9-.4-1.8-.9-2.7s-1.8-2.2-1.8-3.6c-.9-4 1.3-7.2 2.2-10.3.6-1.6.1-6.1 2.4-6.5z"/><path d="m404.2 352.4c-1.3-.4-3.1-.9-3.6-.9-1.3 0-3.6.9-4.9.9-2.7.5-5.4 0-7.6.5.5-.5-.4-2.7-.4-3.1-12.1 0-19.3-.4-26.9-4.9-2.2-1.3-3.6-2.2-4.9-4 .4-.5.4-1.8 1.3-1.8 1.3-.5 2.7.9 4.9.4 3.1 0 6.3-.9 9.4-1.3 6.3-1.8 12.1-4.9 16.6-8.1.9-.4 2.2-.9 2.7-1.3 0-.5 0-.9 0-1.8.4-.5 1.8-1.8 2.2-2.2 3.1-2.7 5.4-4 1.3-7.6-2.2-2.2-5.8-3.1-10.8-2.7-5.8.5-9.9 4-13.9 5.8-2.7 1.3-5.8 1.3-8.5 3.1-.4 0-.9.9-1.3 1.3-.9.5-1.3.5-1.8.9-.4 0-.4.9-.9 1.3-5.8 4.5-13.9 12.6-9.4 23.4l.9.9c3.6 6.3 8.5 8.1 17.5 9 7.6.4 22.5.9 28.3-.9 1.3-.9 9.4-4.5 9.9-5.4-.1-.6-.5-1.1-.1-1.5zm-40.8-21.6c1.8-2.7 3.6-4 6.3-5.8 2.2-1.3 4.5-2.2 7.2-3.1.4-.5 1.8-1.3 2.2-1.3 2.2-.4 4.9.9 5.8 2.2l.9 1.3c-.4 0-.9 1.3-1.3 1.8-2.7 5.4-14.8 6.7-22 7.2.4-.9.4-1.4.9-2.3z"/><path d="m433 308.4c4.5-.4 8.5 0 12.1.9l1.3.9h.9c.9.4 1.3 1.3 1.3 1.8 1.3 1.8 1.8 3.1 1.3 4.9-3.1 5.8-13.9-.4-19.8.4-1.3.4-2.7 1.3-3.6 1.8-4.5 1.3-7.6 2.7-10.8 4.9-1.8 1.3-4 2.7-2.7 5.4 1.3 1.8 4.5 1.8 7.6 2.2 9.4.5 18.4-.4 24.7-4 .5-.4 4.5-3.1 4.5-3.6v-.9c1.3-.9 3.1-1.3 5.4-2.2.4 0 2.2-.9 2.7-.9 1.3 0 4 1.8 4 3.1.9 2.2-1.8 4.9-2.7 6.3 0 .4-.9.4-.9.9-.4.9 0 .9 0 2.7l-.9 1.3c-.4 4.5 1.8 8.5 2.2 13 0 6.3-1.3 22.5-3.6 26-.9.9-2.2 1.3-2.7 2.2-.9.9-1.3 2.2-2.2 3.1l1.3 2.2c-1.3.9-3.1 2.2-4.9 2.7-.9 0-2.2-.4-3.1 0-.4.5-1.3 1.8-1.8 2.2-1.8.9-3.6 1.3-5.8 1.8-4.5.9-18 2.2-22.5.4-.9-.4-1.3-1.8-1.8-2.2-.9 0-1.3 0-2.2-.5.5-3.6 1.3-4.5 4.5-4.9 3.1-.5 5.4.9 8.1.9 5.4.4 13.5-.9 15.3-4 1.3-1.8.5-4 .9-7.2 0-.5 1.3-1.8 1.3-2.7.9-3.1 1.3-8.5 1.8-12.1.4-6.3-.5-12.1.9-17.1-.4 0-1.8-.9-1.8-.9-1.8 0-7.2 1.3-9 1.8-9 .9-17.5.4-24.7-1.8-.9-.4-1.8-.4-2.2-.9-1.8-.9-4.9-5.4-5.8-7.2-1.8-4.9 1.8-8.5 4.5-11.2 6-4.6 19-9.1 28.9-9.5z"/><path d="m728.5 271.5c3.6 0 6.7.4 9.4.9 8.1.9 13.9 1.8 19.8 4.5 2.7.9 15.3 5.8 15.7 7.6.4 2.7-1.3 4.9-2.2 6.7.4.4.9.4 1.8.9v.4c-2.2 1.3-4.5 2.7-8.1 2.2-1.8 0-6.3-.9-7.2-1.8-.4-.4-.4-.9-.9-.9 0-1.3.4-2.2.4-3.1-1.3-.9-3.1-1.8-4.5-2.2-3.1-1.3-6.7-1.8-10.3-3.1-2.2-.5-5.4-1.8-7.6-2.2-3.1-.4-6.3.5-8.5.9-5.8.4-10.8.9-15.7 2.7-1.3.5-4.5 1.8-5.8 2.7 0 .4-.5.9-.5.9-1.3.9-2.7.4-3.6 1.3v.9c-.4.4-1.3 1.3-1.3 1.8-.5.9 0 1.8 0 2.2-.5.9-3.1 2.7-3.6 4v5.8c1.3.4 2.7.4 4 1.3 1.3.4 2.7 1.3 3.6 1.8 6.3 2.2 12.6 3.1 19.3 4.5 2.2.4 4.9 2.2 7.6 2.2 5.4.9 9.9.9 14.8 1.8 3.6.9 6.3 3.1 9.9 4.5 5.8 1.8 11.2 3.1 16.2 6.3 2.2 1.3 3.6 3.6 4.9 5.8l.9.4c0 .5-.4.9 0 .9.4 1.3 1.8 1.8 2.7 2.7 2.2 2.2 4 4.5 6.3 6.7 0 .5 1.3.9 1.3 1.3 4.5 5.4 5.4 12.1.9 18.4-.5 1.3-1.8 2.2-2.2 3.1-.9.9-.9 1.8-1.3 2.7-.5.4-2.2 1.3-2.2 1.8-.4.9 0 1.8 0 2.7-.4.4-1.8.9-2.7 1.3-3.1 2.7-4.5 7.2-8.5 8.5-2.2.9-4.5.9-7.2 1.3-2.7.9-6.3 2.2-9.4 3.1-5.4.9-10.3.9-15.7 1.8s-11.7 2.7-18.4 1.8c-.9 0-3.1-1.3-4-1.3-2.7-.4-5.4 0-8.1-.4-4.5-.9-9.4-2.7-13.9-3.6-4.9-1.3-9.4-2.7-13.9-4.5-1.8-.4-2.7-.9-4-1.8-.4-.4-.9-1.3-1.3-1.8-.5-.9-4.5-2.7-4.5-3.1-.4-.9 0-2.7 0-3.6-.4-1.3-1.3-3.6-1.8-5.4-.4-1.8-1.8-8.1 0-9 .9-.4 3.1 0 3.1 0 5.8 2.2 8.5 5.8 11.7 10.3.5.4.9.4.9.9.9 1.3 1.8 4.5 2.7 5.4s2.2.9 3.1 1.3c3.6 1.3 7.6 2.2 12.1 3.1 1.3.5 3.6 1.3 4.5 1.8 2.2.5 4 0 6.3 0 4.5.5 10.3 1.8 14.8.9 7.6-.4 16.2-3.6 22.5-5.8 3.6-1.8 7.6-2.7 10.3-4.9 1.3-.9 1.8-2.7 2.7-4 2.7-3.1 6.3-5.8 8.5-9.9 0 0 .9-1.8 0-2.2-.4-.4-.9-.4-1.3-.4-1.8-.9-4.5-2.2-5.4-4s-.9-4-.5-6.3c.5-5.4-.9-5.8-4-7.6-.9-.5-1.8-1.8-2.7-2.2-2.7-1.3-7.2-3.1-10.8-4-1.3 0-2.2 0-3.6 0-2.2-.9-4.5-2.2-6.7-2.7-3.6-.9-6.3-1.3-9.9-2.2-4.5-.9-9.4-2.7-13.9-3.6-2.2-.4-3.1 0-4.9-.4-1.3-.4-2.2-1.3-3.6-1.8-3.6-.9-6.7-.4-10.3-1.3-1.8-.4-3.1-1.8-5.8-2.7-.4 0-1.3 0-1.8 0v-.5c.5-.4.5-.4.9-.9l-.4-.9c-3.1-.9-9.4-2.7-10.8-5.4-.9-2.2 0-3.6 0-4.9 0-.9-.4-1.3-.4-2.2l.9-1.3c.4-2.2.4-3.6 1.8-4.9.9-1.8 3.6-3.1 5.4-4.9.4-.5.4-.5.9-.9 0 0-.9-.4-.4-.4 0-.4.4 0 .9-.4l.5-.9c1.3-.9 3.1-1.3 4.5-2.2.5-.5.9-1.3 1.3-1.3 3.6-2.2 8.1-4.5 12.1-5.8 4.5-1.3 9-1.3 13.5-2.7 2.6-.7 7.1-2 10.7-2.5z"/><path d="m182.4 262.5c4-.5 7.6 0 9.9 1.3.4.5 1.3.9 1.8 1.3-.5.4 0 .4.4.9l-1.8.9v.9c.4.4.9 0 1.3.4 0 .4 1.3 3.6 1.3 4 .9 4 .9 7.6 1.3 11.7.5.9 1.3 3.1 1.3 3.6.4 2.7-.4 6.3 0 9.4.4 2.2 1.3 4.9 2.2 7.2.5.9 1.3 1.8 1.8 2.7.9 1.8 1.3 4.9 1.8 7.2.5 4.5-.4 9 0 13.5.5 4.9 2.7 9.9 3.6 14.4.5 2.2 0 4 .5 5.8.4 1.3 2.2 2.7 2.7 4 1.3 3.1 1.3 6.3 2.7 8.5.4.9 2.2 2.7 2.7 3.1h.5c.9.9.4 2.2 1.3 3.1 0 .4.9.9 1.3 1.3v.9c2.2.9 8.1 6.3 9.4 8.5.4 1.3 0 2.7.4 4l.9.4c.9 1.3 1.8 3.1 1.3 5.4 0 .9-.4 1.8-.9 2.7 2.2 1.8 5.4 5.4 4 9.4 0 .4-.4 1.3-.9 1.3-.9.9-2.2.5-3.6 0-2.7-.9-18.9-13-19.3-14.8-.9-3.6 2.2-5.4 4.5-6.3-4.5-4-8.5-7.6-12.1-12.1-.4 0-1.3-.4-1.3-.9-2.2-2.7-2.7-6.7-4-10.3-3.1-6.7-7.2-13.9-8.1-23.4-.4-2.7-.4-5.8 0-8.5.4-.9.9-1.8.9-3.1-.5-1.3-1.3-3.1-1.8-4.5-.5-2.2-.5-4.5-.9-6.3-.4-1.3-2.2-2.2-2.7-3.6-.9-2.2.4-5.4-.5-8.1 0-.9-2.2-1.8-2.2-1.8 0-.4 0-.9 0-.9.4-.9 1.8-1.8 2.2-2.7.5-2.2-3.1-3.6-5.8-3.1-1.8.4-6.3 2.7-7.2 3.6-.9 1.3-.4 3.1-1.3 4.5-.4.9-1.8 1.8-2.2 2.7-1.8 1.8-2.2 4-4 5.8-.4.9-2.2 1.8-2.7 2.7-.4.9-.4 1.8-.9 2.7-.9 1.8-3.1 3.6-4.5 5.4-.5.9-.5 2.7-.9 3.1-.4.9-2.2.9-2.7 1.3-1.3 1.8-.5 5.8-2.2 7.6h-.4c-.4 0-.9 1.3-1.3 1.3-1.3.4-2.2.4-3.6.4-1.8.9-4 1.8-5.8 2.7-3.6.9-6.3.9-9.4 2.2-1.3.5-3.1.9-4 1.8-.4 0-.9.9-1.3.9-3.1.9-9-.4-10.3-1.8-2.2-1.8-.4-5.4.9-6.3.9-.4 1.3-.4 2.2-.9 1.3-.9 2.2-1.8 3.6-2.2-.4-.4-.9-1.8-.4-2.2.4-.4.9 0 1.3 0 1.3-.9 2.7-3.6 2.7-4.9 0-.9 0-1.8 0-1.8-.9-1.3-1.8-2.2-2.7-3.6-2.2-4.5-4-8.1-5.8-13-.4 0-.9-.9-1.3-1.3-.5-1.3-1.3-4-1.3-5.4-.4-2.7 1.3-4 0-5.8-.4-.9-3.6-2.2-4.9-3.1-.4 1.8 0 3.1-.9 4.5 0 .4-.9.4-1.3.9-.4 1.8 0 2.7-.4 4-.9 1.3-2.2 2.7-2.7 4-.4.9-1.8 3.6-1.8 4.5-.4.4 0 1.3 0 2.2-.4.4-.9 1.3-1.3 1.3-.9 3.6 0 7.2-.4 10.8-.4 1.8-1.8 4.5-2.2 5.8 0 .9.4 2.7.4 3.1.4 2.7 0 4.9-.4 7.6-.5.9-1.8 2.2-1.8 3.1v3.6c-.5 2.7-1.8 5.8-2.7 8.1-2.7 6.7-17.1 35.5-26 30.5-1.8-.9-2.2-4-1.3-5.8.5-.9 4-4 4.9-4.9 1.3-1.3 2.2-2.7 3.6-4.5 0-.4.9-1.3 1.3-1.8-1.8-1.8-4-3.6-3.6-7.2 0-1.3 1.3-3.6 1.8-4.9 1.3-3.6 3.6-8.1 4.5-11.7 1.3-4 .9-8.5 2.2-12.6.4-1.8 1.3-4 2.2-5.8 0-.5.9-1.3.9-1.3 0-1.3-.5-2.2-.9-3.1 0-2.2.4-4 .9-5.8.9-3.6 3.1-6.3 4.5-9.4 1.3-1.8 1.3-4 2.7-5.8l.9-.4c.9-1.3.9-3.1 1.8-4.5 0-.4.9-.9.9-1.3.4-.9 0-1.8 0-2.7.4-1.3.9-3.1 1.8-4.5.9-1.8 3.1-3.6 4-5.8.9-1.3.9-3.1 1.3-4.5.4 0 .9 0 .9-.4 2.7-3.1 5.4-4.5 9.9-5.4.9 0 3.1-.4 4.5 0 .9 0 1.8.9 2.7 1.3 4.5 3.1 8.5 7.2 9.4 13.9.4 4.5-.5 9.9.4 13.9.4 2.2 1.8 4.5 2.7 6.3.4 0 1.3.5 1.3.5 0 1.8-1.3.9 0 2.7 0 .4.9 1.3 1.3 1.3 1.3.4 3.6 0 4.5-.4h.4c.4-.5.4-1.3.9-1.8.5-.9 1.8-1.3 2.7-2.2.4-.9.4-1.8 1.3-2.7.9-1.8 2.2-3.6 3.6-4.9.4-.4 3.6-3.1 3.6-3.1.9-1.3.4-3.1 1.3-4.5.4-1.3 2.2-1.3 3.6-2.2 2.7-1.8 4.5-4.5 7.2-6.7.9-.4 1.8-.9 2.7-1.8 1.3-1.8 3.6-4 4.9-6.3.5-1.3.9-3.1 2.2-4 2.2-1.6 6.2-3 9.4-3z"/><path d="m316.2 256.7c4.5-.4 7.6 2.7 10.3 4-.9 1.3-1.8 2.2-2.7 3.1-.4.9-1.3.9-1.8 1.8-1.3 2.2-1.8 4.9-2.7 7.2-1.3 3.1-3.6 5.4-5.4 7.6-.5 1.3-.9 2.2-1.8 3.1-1.3 1.8-3.1 3.6-4.9 4.5-.9.5-2.2.5-3.1 1.3-.4.4-.4 1.3-.9 1.8l-.5.9c-2.2 4.9-2.7 11.2-3.1 17.5-.4 7.2-1.8 14.8-4 20.7 5.4-1.3 10.8-3.6 17.5-2.7 3.1.4 6.3 2.2 8.5 3.1 1.8.4 3.6.4 4.9.9.4.5.9 1.3 1.3 1.8h.9c.5.5.9 1.8 1.3 2.2s1.3.9 1.8 1.3c2.2 3.1 3.6 7.6 3.1 12.6.9.4 2.2 1.3 3.6 1.8 3.1 1.3 12.1 3.6 5.8 8.1-.9.5-1.3.9-2.2 1.3v1.3c-1.8.4-4.5-.9-5.8-1.3-4-.9-8.1-1.3-9.9-4-1.3-1.8-1.3-4-2.2-6.3-2.2-8.1-4.9-10.8-13.5-12.6-2.2-.4-5.4-1.3-8.5-.9-.9.4-2.2 1.8-3.1 2.2-2.2 1.8-4.5 3.1-5.8 5.4-1.3 2.2-1.3 4-2.7 6.3-1.3 3.1-3.6 5.8-5.8 8.1 0 .4-.4 1.3-.9 1.3-.9.4-1.3 0-1.8.4-.9.5-1.8 1.8-2.7 2.2-2.2 1.3-5.8 1.3-8.5.9 0-5.4 1.8-7.6 4.5-9.9.5-.9 1.8-1.3 1.8-2.2.9-2.7 0-5.4.4-7.6.9-6.7 2.7-13.5 4.5-19.8 1.8-7.2 4.5-14.8 7.2-22 .9-1.3 2.7-3.1 3.1-4.5.9-2.7 0-5.4.5-8.5.4-3.1 1.3-6.7 2.7-9.4 1.3-1.8 3.1-2.7 4.5-4.5.9-.9.4-2.7 1.8-3.6 0-.4.9-.4 1.3-.4.9-.9.9-1.8 1.3-2.2h.9l4-4c2.3-2.9 2.8-7.4 6.8-8.3z"/><path d="m269.5 342.5c0-2.2 0-3.6-.4-4.9-.9-2.7-3.6-4.5-5.4-6.3-2.2-1.3-3.6-3.6-4.9-5.4-2.2 0-4 0-5.8-.9-.5 0-.9-1.3-1.3-1.3-2.2-.9-5.8-1.3-9-.9-.9 0-3.6.4-4.5.4-1.8.9-3.1 2.7-4 3.6-5.4 3.6-10.8 6.7-13.9 12.6 0 .9-1.3 2.2-1.3 3.6-.9 3.1.4 6.7 1.8 8.5.4.4 1.3.9 1.8 1.3.4.9 0 2.2.4 3.6l.9.9v.4c1.8 1.8 16.2 3.6 20.2 2.7 1.3 0 3.1-1.3 4.5-1.8 7.6-2.7 16.6-4.9 20.7-11.2l.4-.4c.7-1.4.2-3.2-.2-4.5zm-23.4 10.3c-.5 0-1.3.9-1.8.9-4 .9-8.1-.4-10.3-1.3-.5-4-.5-8.1.9-10.8.4-.4 1.8-1.3 1.8-1.8v-.4c1.8-2.2 4.9-3.6 7.6-4.9.9 0 2.7-1.3 3.6-1.3s2.2.4 3.1.9c6.7 2.2 5.8 5.4 7.6 12.6-3.5 3-7.5 4.3-12.5 6.1z"/></g><path d="m658.4 212.2-5.8-13.5c-.5-.5-.9-1.3-1.8-1.3l-.5-.4c-.4 0-1.3-.5-1.8-.9l-4.9-.9c-1.8.4-2.2 1.8-2.2 3.6 0 2.2.9 2.2 1.3 4.5 0 2.2-.9 2.2-.4 4v4.5 4.5c0 2.2-.5 2.2-.5 4.5.5 2.2.9 1.8.9 4l1.3.4c.4 0 1.3 0 2.2-.4l4.5-2.7c.4 0 1.3-.9 1.8-1.3l5.4-6.3c.5-.9 1-1.8.5-2.3z" fill="#ffd55b"/><path d="m584.3 178.1v1.3s.5.4.5.9c0 .4.4.4.9.9 0 .4 0 .9.4.9 0 .4.5.4.9.9 0 0 .4.4.9.4.4 0 .9 0 .9.4h1.3c.4 0 .9 0 1.3-.4h.9c.4-.4.9-.4.9-.4.4-.5.9-.5.9-.9.4 0 .4-.4.9-.9 0-.5.4-.5.4-.9s0-.9 0-1.3c.4 0 .4-.4.4-.9 0-.4 0-.9 0-1.3s-.4-.4-.4-.9c-.4-.4-.4-.9-.4-.9 0-.4-.9-.4-.9-.9-.4-.5-.4-.5-.9-.5-.5-.4-.5-.9-.9-.9s-.9 0-.9 0c-.4-.4-.9-.4-1.3-.4-.5 0-.9 0-.9 0-.4.4-.9.4-1.3.4s-.4.4-.9.4c-.4.4-.4.4-.9.9-.4 0-.4.4-.9.9 0 0 0 .4-.4.9v.9c0 .5-.5 1-.5 1.4z" fill="#231f20"/><path d="m652.6 177.7c0 .4.4.9.4 1.3v.9c.4.4.4.9.4.9.4.5.9.9.9.9.4.4.4.4.9.9.4 0 .4.5.9.5.4 0 .9 0 1.3.4h.9 1.3c.4 0 .9-.4.9-.4.5 0 .9-.5.9-.5.4-.4.9-.4 1.3-.9 0 0 0-.4.4-.9 0 0 .4-.4.4-.9 0-.4.4-.4.4-.9 0-.4 0-.9 0-1.3 0-.5 0-.9 0-.9 0-.4 0-.9-.4-1.3 0-.4-.4-.4-.4-.9-.4-.4-.4-.4-.9-.9 0 0-.4-.4-.9-.4 0-.4-.4-.4-.9-.4-.4-.4-.4-.9-.9-.9-.4 0-.9.4-1.3.4s-.4 0-.9 0c-.4 0-.9 0-1.3 0 0 .4-.5.4-.9.4-.4.4-.4.4-.9.9s-.5.5-.5.9c-.4.4-.9.4-.9.9v1.3c-.4 0 0 .4 0 .9h-.2v.4z" fill="#231f20"/><path d="m584.8 244.1v1.3c.4.4.4.4.9.9v.9c.4.4.9.9.9.9.4.4.4.9.9.9.4.4.4.4.9.4.4.4.9 0 1.3.4h.9 1.3c.4 0 .4 0 .9-.4.5 0 .9-.4.9-.4.4-.5.9-.5.9-.9.5 0 .9-.4.9-.4 0-.4 0-.9.4-1.3 0-.4 0-.4 0-.9.4-.5.4-.9.4-1.3 0-.4 0-.9 0-.9 0-.4-.4-.9-.4-1.3-.4 0-.4-.5-.4-.9s-.4-.4-.9-.9c-.4 0-.4-.5-.9-.9 0 0-.4 0-.9-.4-.4 0-.4 0-.9 0s-.9 0-1.3 0-.9 0-.9 0c-.4 0-.9 0-1.3.4-.4 0-.4 0-.9 0-.4.4-.9.4-.9.9-.5.4-.5.4-.5.9-.4.4-.9.4-.9.9v1.3.9h-.4v-.1.4z" fill="#231f20"/><path d="m652.6 244.6v1.3c0 .4.4.4.4.9s0 .9.4 1.3c0 0 .4.4.9.4 0 .5 0 .9.4.9.4.4.9.4 1.3.4 0 0 .4.4.9.4h1.3.9c.4 0 .9 0 1.3-.4 0 0 .5-.4.9-.4 0-.4.4-.4.9-.9l.5-.4c.4-.4.4-.9.4-1.3.4-.4.4-.4.4-.9 0-.4.4-.9.4-1.3h-.4c0-.4 0-.4 0-.9s-.4-.9-.4-1.3c0 0-.4-.4-.4-.9-.5 0-.5-.4-.5-.9-.4-.4-.9-.4-.9-.4-.4-.5-.9-.5-1.3-.5 0-.4-.4-.4-.9-.9-.5 0-.9.4-.9.4-.4 0-.9 0-1.3 0s-.9 0-.9 0c-.5.4-.9.4-1.3.4 0 .5-.4.9-.4.9-.5.4-.9.4-.9.9-.4.5-.4.9-.4.9 0 .4-.4.9-.4 1.3z" fill="#231f20"/><path d="m610.8 193.8c2.2-.4 2.2 0 4.5 0 2.2.4 2.2 0 4.5 0 2.2 0 2.2-.4 4.5-.4h4.5c2.2 0 2.2.4 4 .9 2.2 0 2.2.4 4.5.4h1.8c0-.9 0-1.3 0-1.8l-.9-4.9c0-.9-.4-1.8-.9-2.2l-3.1-2.7c-.4-.5-1.3-1.3-1.8-1.8 0 0-3.1-1.8-4.5-2.7-1.3-.4-9 .9-9.9.9-.5 0-1.8 0-2.2.4l-3.6 5.8c-.4.5-.9 1.3-1.3 2.2l-.9 4.5c-.5 1-.1 1.9.8 1.4z" fill="#ffd55b"/><path d="m638.2 229.3c-2.2-.4-2.2.9-4.5.9-2.2-.4-2.2-1.3-4.5-1.3s-2.2.4-4.5.4c-2.2 0-2.2 0-4.5-.4-1.8 0-1.8.9-4 .9s-2.2 0-4.5-.5c-1.8 0-2.2-.4-3.1.9 0 .4 0 .9.5 1.3l2.7 4.5c.4.9.9 1.8 1.3 2.2l5.4 4.5h.4c.4 0 .9.4 1.3.4h.9c-.5 0-.5 0-.5 0h.9 1.8l11.7-5.4c.4 0 1.3-.9 1.3-1.3l.5-.5c.4-.4.4-1.3.9-2.2l.9-4c.1-.4.1-.4-.4-.4z" fill="#ffd55b"/><path d="m607.2 220.3c0-2.2.4-2.2.4-4.5 0-2.2-.9-2.2-.9-4.5 0-2.2.5-2.2.5-4.5 0-2.2-.5-2.2-.5-4.5s-1.3-2.2-.9-4.5c.4-1.8.4-1.8-1.3-2.7l-2.2.4c-.5 0-1.8.4-2.2.9l-2.2 3.1c-.9.5-1.3 1.3-1.8 2.2 0 0-2.2 2.7-2.7 4-.9 1.3.4 9 .4 9.9 0 .4 0 1.8.9 2.2l5.4 4c.5 0 1.8.4 2.2.9l5.4 1.3c0-1.4 0-1.9-.5-3.7z" fill="#ffd55b"/><path d="m631 141.3c0-2.2 1.3-4.5 1.3-6.7s-.9-4.9-.9-7.2c-.4-2.2.5-4.5.5-6.7-.5-1.8-1.3-4-1.8-5.8-.4-1.8-.9-3.6-1.3-4.9-.4-1.8-1.8-2.7-2.2-4-.5-1.3.4-2.7 0-3.6 0-.4-.5-.9-.5-1.3 0-.4-.4-.4-.4-.4 0-.4 0-.4 0-.4 0-.4 0-.4-.4-.4 0 0 0 0 0-.5l-.4-.4c-.5 0-.9.4-.9.9v.4-.4.4c0 .4 0 .4-.4.4v.4c0 .5-.4.9-.4 1.3 0 .9 0 1.8-.5 2.2-.4.9-.9 2.2-.9 3.1 0 .4-.4.4-.4.9 0 .4-.5.9-.5 1.3-.4 1.3-.4 3.1-.9 5.4-.5 1.8-.5 3.6-.9 5.8 0 2.2-1.3 4-1.3 6.3-.4 2.2-.9 4.9-.9 7.2 0 2.2.9 4.5 1.3 6.7 0 2.2 0 4.5.4 6.7s0 4 .4 6.3c.4 1.8 1.8 3.1 2.2 4.5.4 1.8.4 3.6.9 4.9.4.9.4 2.2.9 3.1.4.5.9.9 1.3 1.3.5-.4 1.8-.9 1.8-1.3.5-.9.9-2.2 1.3-3.6.4-.9 0-2.7.4-4.5.5-1.3 2.2-2.7 2.7-4.5.4-2.2.4-4 .9-6.3.5-1.7-.8-4.4-.4-6.6z" fill="#007db5"/><path d="m583 210v.4s0-.4-.5-.4c0 0-.4 0-.9 0-.9-.4-1.8-.9-2.7-1.3-.9 0-1.8 0-2.7 0-.9-.9-2.2-1.8-3.6-2.2-1.3-.4-3.1-.4-5.4-.9-1.8-.5-3.6-1.3-5.8-1.8-1.8 0-4-.9-6.3-1.3-1.3 0-2.2.4-3.6.9-.9 0-1.8 0-2.7 0-1.8.5-3.6 0-5.4-.4-.4 0-.9 0-1.3 0s-.9 0-1.3 0c-2.2.4-4 1.3-6.3 1.8-2.2.4-4 .4-5.8.9-1.3 0-2.7.4-4 .9-1.3 0-2.2.4-3.6.4-2.2.5-4 1.3-6.3 2.2-.4 0-.9 0-.9 0h-.5l-.4.4h.4c-.4.4-.4.9-.4.9 0 .5 0 .5.4.5 0 0 0 .4.5.4h.9c.9.4 1.8.4 2.2.9 1.3 0 2.2.4 3.1.4.9.9 1.8 1.8 3.1 2.2s3.1.4 5.4.9c1.8.4 3.6 1.8 5.4 1.8 2.2.4 4.5-.5 6.7-.5 2.7.5 4.9.5 7.2.5 2.2 0 4.9.4 7.2 0 2.2 0 4-.9 6.3-1.3 2.2-.4 4-.9 5.8-1.3s4 .4 5.4 0h.9c1.3-.4 2.7-1.3 4-1.8.5-.4.9-.4 1.3-.4.4-.4.9-.4.9-.4h1.8c0-.5.4-.5.4-.5s.4 0 .4-.4l.5-.4s0 0 0-.5c.2-.2.2-.2.2-.6z" fill="#b45351"/><path d="m633.3 211.3c0-.4 0-1.3 0-1.8 0-1.3-.9-2.7-1.3-3.6-.5-.4-.9-.9-1.3-.9h.4c-.4 0-.4 0-.4 0s0 0 .4 0c-.4 0-.4 0-.4-.4v.4c-.4-.4-.4-.9-.9-.9-.4 0-.4-.4-.4-.4h-.4c-.4-.5-.9-.5-1.3-.5l-3.1-.9c-.4 0-.9 0-1.3 0l-2.7.4c-.4 0-.9.4-1.3.4l-1.3 1.8c0 .5-.4.9-.9.9 0 0-.9 1.8-1.3 2.7s0 4.9 0 5.4c0 .4.4 1.3.4 1.3l1.3.9c.4 1.3 2.2 1.8 4 2.2-.5 0-.5 0-.5 0 .5.4.9.4 1.8.9h-.8.9-.5 2.2.4.9l2.7-1.8c.4 0 .9-.5 1.3-.9l1.3-1.8c.5 0 .5 0 .5-.4h.4c0-.4.4-.9.4-1.3.4 0 .4-.4.4-.9.4.1.4-.3.4-.8z" fill="#b45351"/><path d="m617.1 169.6c0-.4 0-.4 0-.4v-.5c0-.4 0-.4 0-.4.4-2.2.4-4.5.4-6.7-.4-2.2-1.3-4.5-1.8-6.7-.4-1.8-.4-4.5-1.3-6.7-.9-1.8-1.8-4-2.7-5.8-.4-.9-.9-1.3-1.3-1.8 0-.4-.4-1.8-.9-1.8-.4-.4-1.3.4-1.8.4-.9 0-.9 1.8-1.3 1.8-.4.5-1.3 0-1.3.9-.4.4-1.3.9-1.3 1.3-.4.9-.4 1.8 0 2.7 0 .4.9 1.3.9 1.8.9 1.8 1.8 3.1 2.7 4.9.4 1.8 0 4.5.4 6.3.9 1.8 2.2 3.1 2.7 4.9.4 1.3.9 2.2 1.3 3.6v1.8c.4.4.4 1.3.9 2.2 0 .4.4.4.4.4s.4.4.4.9h.4.5v.4-.4s0 .4 0 0h.4s0 0 0-.4h.4s0 0 0-.4c.4 0 .9-.4 1.3-.9-.4 0-.4 0-.4 0s0 0 .4 0c0 0 .4-.5.4-.9v-.5z" fill="#007db5"/><path d="m644.5 274.7c0-.5.4-1.8.4-2.2-.9-1.8-1.3-4-2.2-5.8-.4-1.8-.4-2.2-1.8-4-1.3-1.8-2.2-2.7-2.7-4.9-.4-.9-.9-1.8-.9-3.1v-.7s0 0 0-.5c0-.4 0-.9 0-1.3 0-.5 0-.5 0-.9-.4-.4-.4-.4-.4-.4 0-.4-.9-.9-1.3-.9l-.4-.4h.4-.4s0 0-.5 0c0-.4 0-.4-.4-.4 0-.5-.4-.9-.4-.9-.4-.4-.4-.4-.4-.4-.4 0-.4 0-.4 0v.4c-.4 0-.4.4-.4.4 0 .5-.4.5-.4.5-.5.4-1.3.9-1.3 1.8-.4.4-.4 1.3 0 1.8v.4c-.4 2.2.4 4.5.4 6.3.4 2.2.9 4 1.3 6.3.9 2.2 2.2 4.5 3.1 6.3.9 2.2.9 4.9 1.8 6.7 0 .4.4.4.9.4l.5.4c.4.4.9.9 1.3.9l.5.4c.4.4.9.9 1.8.4v.5-.5.5c0-.5 0-.5 0-.5h.4c.4 0 .4 0 .9-.4.5-.4.5-.4.5-.9.4 0 .4-.4.9-.9 0-.4.4-1.3.4-2.2.2-.4-1.2-1.3-1.2-2.2z" fill="#00734a"/><path d="m587 200.1s0-.5-.4-.5c0 0 0-.4-.5-.4s0 0 0-.4h.5c-.5 0-.5 0-.5 0-.4-.5-.4-.5-.4-.5-.4 0-.9 0-.9 0-1.8-.9-4-.4-5.8-1.3-1.8-.5-3.1-1.8-4.9-2.7-1.8-.4-3.6-1.3-5.4-1.8-1.8-.9-2.7-2.7-4-3.6-.4 0-.9 0-1.8 0h-.4c-.5 0-.9-.4-1.8-.4-.5-.4-.9-.4-.9 0-.4 0-.4 0-.4 0-.4 0-.4.4-.4.4h-.4c-.4.9-1.3 1.3-2.2 1.3-.4.4-1.3.4-1.3 1.3-.4 0-.4 0-.4 0v.4.4c.9.9 1.8 1.8 2.2 2.7l.5.4c0 .4.4.4.9.9 1.8.9 4 1.8 5.8 2.7 2.2.9 3.6 2.2 5.8 3.1 1.8.9 4 .4 6.3.4 2.2.4 4.5 1.8 7.2 1.3h1.3 1.3.4v-.4s0 0 0-.5c0 0 .5-.4.5-.9h.4c0-.4 0-.4 0-.4s0 0 0-.5h.4c-.2-.1-.7-.5-.7-1z" fill="#b45351"/><path d="m586.6 219.4h-.5c-.9-.9-1.8-1.8-2.7-2.2-1.8-.4-3.1 0-4.9.9-.9 0-1.3 0-1.8 0-2.2 0-4.5 0-6.7.9-2.2.5-4 1.3-6.3 2.2-1.8.9-4.5.9-6.7 1.8-.5.4-.9 1.3-1.3 1.8-.4.4-1.3.9-1.3 1.3-.4.9.4 1.3.4 2.2 0 .4.5.9.9 1.3 0 .9-.9 2.2-.4 2.7.9.4 1.8.4 2.7.9.4 0 1.3-1.3 1.8-1.3h1.8c1.8-.9 4-.9 5.8-1.8 0 0 .4 0 .4-.4 2.7-1.3 4.9-2.7 7.6-4 1.8-.9 4-1.8 5.8-2.2s3.6-.9 5.8-.9c0-.4 0-.4 0-.4.4 0 .4-.4.9-.4-.4-.4-.4-.9-.4-1.3 0-.6-.5-1.1-.9-1.1z" fill="#b45351"/><path d="m645 144.9c0-.9 0-1.3 0-1.8 0-.9.9-2.2.4-3.1 0-.4-.4-1.3-.9-1.8-.4-.4-.9-.4-.9-.9-.4 0-.4 0-.4 0h-.4c-.4 0-.9.5-1.3.9-.4 0-.4 0-.9 0v.4c-.5 0-.5 0-.5 0h.5s0 0-.5.4v.5c-.9 1.3-1.3 3.1-2.2 4.9-.9.9-1.3 1.3-1.8 2.2v.4.4c-.9 1.8-1.8 4-2.2 5.8-.4 2.2-.9 4.9-1.3 7.2 0 1.8.4 3.1.4 4.9v2.2.9.9c0 .4 0 .9.4.9v.5c0 .4.4.4.9.4 0 .4.4.4.4.9h.5v.4h.4.4s0 0 0-.4h.4c0-.4.5-.9.5-1.3.4-.5.4-.5.4-.5s0-.4.4-.9v.4c.4-2.2.9-4 1.3-6.3.9-1.8 1.3-3.6 2.2-5.4.4-1.8 1.3-3.1 2.2-4.9.5-1.8.5-4.5 1.3-6.3.3-.6.3-1 .3-1.9z" fill="#007db5"/><path d="m699.3 226.6s0-.4-.5-.4c-.4-.5 0-1.8-.9-1.8-2.2-.9-4.5-1.8-6.7-2.7s-5.8 0-8.1-.9c-2.2-.4-4.5-1.8-7.2-1.8-1.3 0-2.7-.4-4.5-.4-.4 0-.9 0-1.3 0-.5 0-.5 0-.9 0h-.4-.4c-.9.4-1.8 1.3-2.7 1.8-.4 0-.9 0-1.3 0 0 .4-.4.9-.4.9 0 .4.4.4.9.9v.4h.4s0 0-.4 0c.4.5.9.9 1.3.9 0 0 0 .4.5.4.9.5 1.8 1.3 2.7.9h.4c.9 0 1.3.4 1.8.4h1.8.9c1.8.9 3.6 2.2 5.4 2.7 1.8.4 4 1.3 5.8 1.8 2.2.9 3.6 1.8 5.8 2.2.4.4 1.8-.4 2.7-.4h1.8c.9-.5 2.2.4 2.7.4.4-.4.4-.4.4-.4 0-.5 0-.5.5-.5v-.4-.4c0-.4.4-.9.4-1.3-.1-.9-.1-1.4-.5-2.3z" fill="#783a82"/><path d="m631.5 287.7c0-2.2-.9-4.5-.9-6.7-.4-2.2 0-4.5-.4-6.7 0-2.2-.4-4-.9-5.8-.4-1.8-.9-3.6-1.3-5.4-.4-1.3-.9-2.7-1.3-4-.5-1.3-.9-2.2-1.3-3.1 0-.5 0-.9-.4-.9 0-.4 0-.4 0-.9s0 0 0-.5v-.4h-.5.5c-.5-.4-.9-.4-1.3 0-.4.4-.4.4-.9.9v.4c-.4.4-.9.9-.9 1.8-.4.9-.4 2.2-.4 3.1 0 1.3-.5 2.2-.9 3.6-.4 1.8-.4 3.6-.9 5.4-.4 1.8-1.3 3.6-1.8 5.8 0 2.2-1.3 4-1.3 6.3-.5 1.8.4 3.6.9 5.4 0 1.8-.4 3.1-.9 4.9 0 1.8-.5 4 0 6.3.4 1.8.9 3.6 1.8 5.8v.4c0 2.7.9 5.4.9 8.1 0 .9 0 1.8.4 2.7l.9.9c.4 1.3.9 2.2 1.3 3.1.4.4.9 1.3.4 1.8 0 .4.4.9.9.9v.4.5.4s0 0 .4.4h.4s0 0 0-.4c.4 0 .9-.4.9-.9 0-.9.4-1.8.4-2.2.4-.4.9-.9 1.3-1.8 0-.4.4-1.3.4-1.8.4-.9 1.3-1.8 1.3-3.1.4 0 .4 0 .4-.4.4-2.7.9-4.9 1.3-7.6.4-.5.4-.9.4-1.3.4-.4.4-.9.4-1.3.4-2.2 0-4.5.4-6.7.3-2.5.3-4.7.3-7.4z" fill="#00734a"/><path d="m737 210c-.4 0-.4-.4-.9-.4-.5 0-1.3-.4-2.2-.9-.9 0-2.2 0-3.1-.4-1.3-.4-3.1-.4-4.5-.9-1.8-.5-3.1-1.3-4.9-1.8s-3.6-1.3-5.8-1.8c-1.3-.5-3.1-.5-4.5-.9-1.3 0-2.7 0-4 0-2.2.4-4 .4-6.3.4-1.8.5-4 0-5.8 0-.4 0-1.3 0-1.8 0-1.8.5-3.1.9-4.9.9-1.8.4-4 .9-5.8 1.3-1.8 0-3.6.4-4.9.9-1.8.4-3.1 1.8-4 2.2-1.3.5-2.7 0-3.6.5-.9.4-1.3.9-1.8.9 0 0 0 0-.4 0 0 0-.4.4-.4.9 0 .4.4.9.4.9h1.3s0 0-.4 0c1.3 0 1.8.9 2.7 1.3s1.8 1.3 3.1.9c1.3.4 2.7.4 3.6.4 1.3.4 2.7 1.3 4.5 1.8 1.8.4 4 .4 5.8.9 2.2 0 4.5-.4 6.7 0 2.2 0 4.5-.4 7.2-.4 2.2 0 4.5.9 6.7.9 2.2-.5 4.5-1.3 6.3-1.8 2.2-.5 4.5 0 6.3-.5 1.8-.4 3.6-.9 4.9-1.3 1.3-.5 2.2-1.3 3.1-1.8h.9c1.3 0 2.7.4 3.6 0 .9-.5 1.8-.9 2.2-.9.4 0 .9-.4.9-.9-.2 0-.2 0-.2-.4z" fill="#783a82"/><path d="m616.7 250.4s0 0-.4 0v-.4c-.9-.4-1.3-1.3-2.2-2.2-.4-.4-.4-.4-.4-.4-.4 0-.4 0-.4.4-.4 0-.4.4-.4.4v.4c-.5 0-.5 0-.5 0v.5c-.4.9-.9 1.3-.9 1.8-.4.4-.4.4-.4.9 0 .9-.4 1.8-.9 3.1 0 .4 0 .9-.4 1.3-.4 1.8-.4 4-1.3 5.8-.4 1.8-1.8 3.1-2.7 4.9-.4 1.8-.4 4-1.3 5.4v.9c0 .4 0 .9-.5 1.3v.4 1.3c0 .9.5 1.3.5 2.2.4.4.4.9.4 1.3v.4c.4.4.9.9 1.8.9h.4.9c.4.5.9 0 1.8 0 .4 0 .4-.4.9-.4.4-.4 0-2.2.4-2.7.9-1.8 1.8-4 2.7-5.8.9-2.2.9-4.5 1.3-6.7.9-2.2 1.3-4 1.3-6.3 0-1.3.4-3.1.4-4.5v-.4-.2-.5c0-.4 0-.9.4-1.3 0 0 0-.5 0-.9-.1 0-.1-.9-.5-.9z" fill="#00734a"/><path d="m698.8 191.6c0-.5-.4-.9-.9-1.3s-1.3-.9-1.8-.9c-.9-.4-1.3 0-2.2 0-.4 0-1.3-1.3-2.2-1.3-.4.4-1.3.9-2.2 1.3-1.3.9-2.7 2.2-4.9 3.1-1.8.9-3.1 1.3-4.9 1.8-1.8.9-4.5.9-6.3 1.8-.9.4-1.8.9-2.7 1.8 0 0-.4 0-.4.4-.5 0-.9 0-.9 0-1.3.5-3.6.5-4.5.9-.5 0-.5 0-.5 0 0 .4-.4.4-.4.4-.4.5-.4.9-.4 1.3h.4v.4c0 .5.4.5.4.9.5 0 .9.4 1.3.4h.4.5.4-.4c.4 0 .4.4.9.4h.4c.5-.4 1.3-.4 1.8 0h.5c2.2 0 4.5.5 6.3 0 2.7-.4 4.9-.9 7.2-1.8 2.2-.9 5.4-1.3 7.6-2.2 1.8-.9 4-2.2 5.8-3.1.9-.4.9-1.3 1.3-1.8.4 0 .4-.9.4-1.3.5-.3.5-.8 0-1.2z" fill="#783a82"/></g></svg>