<?xml version="1.0" encoding="utf-8"?>
<!-- Generator: Adobe Illustrator 22.0.1, SVG Export Plug-In . SVG Version: 6.00 Build 0)  -->
<svg version="1.1" id="Layer_1" xmlns="http://www.w3.org/2000/svg" xmlns:xlink="http://www.w3.org/1999/xlink" x="0px" y="0px"
	 viewBox="0 0 996 534" style="enable-background:new 0 0 996 534;" xml:space="preserve">
<style type="text/css">
	.st0{fill:url(#XMLID_2_);}
	.st1{fill:url(#XMLID_3_);}
	.st2{fill:url(#XMLID_4_);}
	.st3{fill:url(#XMLID_5_);}
	.st4{fill:url(#XMLID_6_);}
	.st5{fill:url(#XMLID_7_);}
	.st6{fill:url(#XMLID_8_);}
	.st7{fill:url(#XMLID_9_);}
	.st8{fill:url(#XMLID_10_);}
	.st9{fill:url(#XMLID_11_);}
	.st10{fill:url(#XMLID_12_);}
	.st11{fill:url(#XMLID_19_);}
</style>
<g>
	<linearGradient id="XMLID_2_" gradientUnits="userSpaceOnUse" x1="111.1344" y1="207.594" x2="822.5889" y2="207.594">
		<stop  offset="9.615400e-04" style="stop-color:#04A6DF"/>
		<stop  offset="1" style="stop-color:#1BB150"/>
	</linearGradient>
	<path id="XMLID_41_" class="st0" d="M738.9,207.6c0,3.9-3.2,7.1-7.2,7.1c-4,0-7.2-3.2-7.2-7.1c0-4,3.2-7.2,7.2-7.2
		C735.7,200.4,738.9,203.7,738.9,207.6"/>
	<linearGradient id="XMLID_3_" gradientUnits="userSpaceOnUse" x1="111.1349" y1="259.4068" x2="822.5894" y2="259.4068">
		<stop  offset="9.615400e-04" style="stop-color:#04A6DF"/>
		<stop  offset="1" style="stop-color:#1BB150"/>
	</linearGradient>
	<path id="XMLID_38_" class="st1" d="M247.2,222.8c-20.2,0-36.6,16.4-36.6,36.6c0,20.2,16.4,36.6,36.6,36.6
		c20.2,0,36.6-16.4,36.6-36.6C283.8,239.2,267.4,222.8,247.2,222.8 M247.2,285.1c-14.3,0-25.9-11.5-25.9-25.7
		c0-14.3,11.6-25.9,25.9-25.9c14.3,0,25.9,11.6,25.9,25.9C273.1,273.6,261.4,285.1,247.2,285.1"/>
	<linearGradient id="XMLID_4_" gradientUnits="userSpaceOnUse" x1="111.134" y1="258.7726" x2="822.5904" y2="258.7726">
		<stop  offset="9.615400e-04" style="stop-color:#04A6DF"/>
		<stop  offset="1" style="stop-color:#1BB150"/>
	</linearGradient>
	<path id="XMLID_37_" class="st2" d="M680.1,222.8c-9.1,0-17.9,4-23.6,11.1l-1,1.2l-1-1.2c-5.7-7.1-14.3-11.1-23.4-11.1
		c-16.4,0-30.3,13.4-30.3,29.8v36.5c0.1,3.1,2.7,5.6,5.8,5.6c3.2,0,5.7-2.5,5.8-5.6v-36.5c0-10.2,8.4-18.5,18.5-18.5
		c10.2,0,18.7,8.3,18.7,18.5v36.5c0.1,3.1,2.6,5.7,5.8,5.7c3.2,0,5.7-2.5,5.8-5.7v-36.5c0-10.2,8.5-18.5,18.7-18.5
		c10.1,0,18.5,8.3,18.5,18.5v36.8c0.2,3,2.8,5.4,5.8,5.4c3,0,5.6-2.4,5.8-5.4v-36.8C710,236.2,696.4,222.8,680.1,222.8"/>
	<linearGradient id="XMLID_5_" gradientUnits="userSpaceOnUse" x1="111.1309" y1="259.5023" x2="822.5898" y2="259.5023">
		<stop  offset="9.615400e-04" style="stop-color:#04A6DF"/>
		<stop  offset="1" style="stop-color:#1BB150"/>
	</linearGradient>
	<path id="XMLID_36_" class="st3" d="M737.5,230.1c0-3.2-2.6-5.8-5.8-5.8c-3.2,0-5.8,2.6-5.8,5.8c0,0.1,0,0.2,0,0.3l0,0V289l0,0
		c0,3.2,2.6,5.7,5.8,5.7c3.2,0,5.8-2.6,5.8-5.7v-58.6h0C737.5,230.3,737.5,230.2,737.5,230.1"/>
	<linearGradient id="XMLID_6_" gradientUnits="userSpaceOnUse" x1="111.1346" y1="259.4068" x2="822.5892" y2="259.4068">
		<stop  offset="9.615400e-04" style="stop-color:#04A6DF"/>
		<stop  offset="1" style="stop-color:#1BB150"/>
	</linearGradient>
	<path id="XMLID_33_" class="st4" d="M585.4,259.4c0-20.2-16.2-36.6-36.4-36.6c-20.2,0-36.5,16.4-36.5,36.6
		c0,20.2,16.5,36.6,36.7,36.6c16.3,0,24.4-10.8,24.4-10.8v3.6c0,3.3,2.7,5.9,6,5.9c3.3,0,5.9-2.6,6-5.9l0,1.2V259.4z M549.1,285.3
		c-14.3,0-25.9-11.6-25.9-25.9c0-14.3,11.6-25.9,25.9-25.9c14.3,0,25.9,11.6,25.9,25.9C575,273.7,563.4,285.3,549.1,285.3"/>
	<linearGradient id="XMLID_7_" gradientUnits="userSpaceOnUse" x1="111.1344" y1="259.4068" x2="822.5883" y2="259.4068">
		<stop  offset="9.615400e-04" style="stop-color:#04A6DF"/>
		<stop  offset="1" style="stop-color:#1BB150"/>
	</linearGradient>
	<path id="XMLID_30_" class="st5" d="M437.7,260.2c0-9.2-3-18.4-8.2-25.2c-2.9-3.8-6.3-6.7-10.2-8.8c-4.3-2.3-9-3.4-14.2-3.4
		c-18.9,0-33.7,16-33.7,36.5c0,10.1,3.5,19.5,10,26.2c6.5,6.8,15.3,10.5,25,10.5c10.6,0,18.8-3.3,26.4-10.5c1.1-1,1.8-2.3,1.8-3.7
		c0-2.7-2.2-4.8-4.9-4.8c-1.5,0-2.5,0.7-3.2,1.3l-0.1,0c-5.2,4.8-11.3,7-19.7,7c-6.5,0-12.1-1.7-16.2-4.8c-4.4-3.4-7-8.3-7.7-14.7
		l-0.1-0.4h49.7C435.3,265.4,437.7,263.1,437.7,260.2 M390.2,239c3.9-3.8,9-5.7,14.6-5.7c6.6,0,11.8,2.2,15.7,6.6
		c4.1,4.7,5.5,10.7,6,14.9l0,0.4h-43.8l0.1-0.4C383.6,248.3,386.2,242.9,390.2,239"/>
	<linearGradient id="XMLID_8_" gradientUnits="userSpaceOnUse" x1="111.1351" y1="258.7726" x2="822.5883" y2="258.7726">
		<stop  offset="9.615400e-04" style="stop-color:#04A6DF"/>
		<stop  offset="1" style="stop-color:#1BB150"/>
	</linearGradient>
	<path id="XMLID_26_" class="st6" d="M327.8,222.8c-1.3,0-2.6,0.1-4.2,0.3l-0.4,0.1c-15,2.2-26.2,15.1-26.2,29.8v36.3v0.1
		c0.1,3,2.6,5.4,5.6,5.4c3,0,5.5-2.4,5.6-5.4v-0.1c0,0,0-34.3,0-36.2V253c0-0.1,0-0.2,0-0.3c0-0.1,0-0.1,0-0.2c0-5.1,2-9.8,5.7-13.2
		c3.6-3.4,8.5-5.2,13.7-5.2c5.3,0,10.1,1.9,13.7,5.2c3.6,3.4,5.7,8.1,5.7,13.2v37v0.1c0.2,2.8,2.7,5.1,5.6,5.1
		c2.9,0,5.4-2.3,5.6-5.2v0V253C358.2,236.4,344.6,222.8,327.8,222.8"/>
	<linearGradient id="XMLID_9_" gradientUnits="userSpaceOnUse" x1="111.1347" y1="278.186" x2="822.5894" y2="278.186">
		<stop  offset="9.615400e-04" style="stop-color:#04A6DF"/>
		<stop  offset="1" style="stop-color:#1BB150"/>
	</linearGradient>
	<path id="XMLID_21_" class="st7" d="M824.7,259.4c0-20.2-16.8-36.6-36.7-36.6c-19.9,0-36.1,16.4-36.1,36.6
		c0,20.2,16.2,36.6,36.1,36.6c8.3,0,16.8-3.4,23.1-8.7l1.7-1.4c0,0,1.1,11.5-1.5,19.2c-1.3,3.8-6.8,15.8-23.2,16.3
		c-7.6,0.2-15.6-4.4-20.3-11.1c-1.1-1.7-2.9-2.8-5-2.8c-3.3,0-5.9,2.7-5.9,5.9c0,0.9,0.2,1.8,0.6,2.6c0,0,0,0,0,0
		c6.3,11,18.4,17.5,30.5,17.5c11.6-0.4,20.5-4,26.8-11c9.8-11,9.9-27.2,9.9-39.1V259.4z M788.1,284.2c-13.5,0-24.4-11.1-24.4-24.8
		c0-13.8,11-24.9,24.4-24.9c13.6,0,24.6,11.2,24.6,24.9C812.7,273,801.7,284.2,788.1,284.2"/>
	<linearGradient id="XMLID_10_" gradientUnits="userSpaceOnUse" x1="111.1349" y1="277.807" x2="822.5905" y2="277.807">
		<stop  offset="9.615400e-04" style="stop-color:#04A6DF"/>
		<stop  offset="1" style="stop-color:#1BB150"/>
	</linearGradient>
	<path id="XMLID_20_" class="st8" d="M508.3,229.8c0,0.8-0.3,1.7-0.5,2.4l-0.1,0.2c-0.9,2.3-27.9,67-27.9,67
		c-3.7,9.9-8.5,22.6-20.2,28.7c-7.5,4-16.2,4.2-26,0.8c-6.5-2.4-12.2-7.1-15.9-13.1c0,0-0.1-0.1-0.1-0.2c-0.5-0.8-0.8-1.8-0.8-2.8
		c0-3,2.5-5.5,5.5-5.5c1.9,0,3.6,1,4.6,2.5c0,0,0.1,0.1,0.1,0.1c2.6,4.1,6.3,7.3,10.5,8.7c14,4.8,22.4-3.6,24.6-6.4
		c4.6-5.7,9.3-19.5,9.3-19.5L443,232.8v0c-0.5-1.1-0.7-2.1-0.7-3c0-3.1,2.5-5.5,5.6-5.5c0.9,0,3.8,0,5.6,4.3l23.3,49.7l20.6-49.9
		c0.7-1.9,2.2-4.1,5.3-4.1C505.9,224.3,508.3,226.8,508.3,229.8"/>
	<g id="XMLID_14_">
		<linearGradient id="XMLID_11_" gradientUnits="userSpaceOnUse" x1="111.1353" y1="259.4068" x2="822.5903" y2="259.4068">
			<stop  offset="9.615400e-04" style="stop-color:#04A6DF"/>
			<stop  offset="1" style="stop-color:#1BB150"/>
		</linearGradient>
		<path id="XMLID_16_" class="st9" d="M874.6,222.8c-20.2,0-36.6,16.4-36.6,36.6c0,20.2,16.4,36.6,36.6,36.6
			c20.2,0,36.6-16.4,36.6-36.6C911.2,239.2,894.8,222.8,874.6,222.8 M874.6,285.1c-14.3,0-25.9-11.5-25.9-25.7
			c0-14.3,11.6-25.9,25.9-25.9c14.3,0,25.9,11.6,25.9,25.9C900.5,273.6,888.9,285.1,874.6,285.1"/>
		<linearGradient id="XMLID_12_" gradientUnits="userSpaceOnUse" x1="111.1344" y1="266.8756" x2="822.5922" y2="266.8756">
			<stop  offset="9.615400e-04" style="stop-color:#04A6DF"/>
			<stop  offset="1" style="stop-color:#1BB150"/>
		</linearGradient>
		<path id="XMLID_15_" class="st10" d="M874.6,277.1c-9.7,0-17.9-7.2-19.1-16.7c-0.2-1.8,1-3.5,2.9-3.7c1.8-0.2,3.5,1,3.7,2.8
			c0.8,6.2,6.2,10.9,12.5,10.9c6.3,0,11.7-4.6,12.6-10.8c0.3-1.8,1.9-3.1,3.7-2.8c1.8,0.2,3.1,1.9,2.8,3.7
			c-0.6,4.5-2.9,8.7-6.4,11.8C883.8,275.4,879.3,277.1,874.6,277.1"/>
	</g>
	<linearGradient id="XMLID_19_" gradientUnits="userSpaceOnUse" x1="111.1346" y1="258.7726" x2="822.5889" y2="258.7726">
		<stop  offset="9.615400e-04" style="stop-color:#04A6DF"/>
		<stop  offset="1" style="stop-color:#1BB150"/>
	</linearGradient>
	<path id="XMLID_13_" class="st11" d="M167.8,222.8c-9.1,0-17.9,4-23.6,11.1l-1,1.2l-1-1.2c-5.7-7.1-14.3-11.1-23.3-11.1
		c-16.5,0-30.3,13.4-30.3,29.8v36.5c0.1,3.1,2.7,5.6,5.8,5.6c3.2,0,5.7-2.5,5.8-5.6v-36.5c0-10.2,8.4-18.5,18.5-18.5
		c10.2,0,18.7,8.3,18.7,18.5v36.5c0.1,3.1,2.6,5.7,5.8,5.7c3.2,0,5.7-2.5,5.8-5.7v-36.5c0-10.2,8.5-18.5,18.7-18.5
		c10.1,0,18.5,8.3,18.5,18.5v36.8c0.2,3,2.7,5.4,5.8,5.4c3,0,5.6-2.4,5.8-5.4v-36.8C197.7,236.2,184.1,222.8,167.8,222.8"/>
</g>
</svg>
