<svg enable-background="new 0 0 500 500" viewBox="0 0 500 500" xmlns="http://www.w3.org/2000/svg"><circle cx="250" cy="250" fill="#fff" r="155.7"/><path d="m250 94.3c-4.8 0-9.5.2-14.1.6-2.3.6-4.6 1.4-6.7 2.1-25.7 8.9-51.7 27.2-70 51.7-15.1 20.1-26.2 43-26.2 69.9 0 38.8 30.5 56 57.7 56 27.3 0 60.2-13.9 86.9-39.2.6-.6 1.2-1.2 1.8-1.8h-38.7c-7.9 0-13.4-6-12.2-13.9.1-.5.5-2.9.6-3.4 1.5-8.3 9-12.7 17.3-12.7h74.2c8.2 0 13.6 6.7 12.1 15l-13.3 74.4c-1.5 8.3-7.3 15-15.5 15h-3.3c-7.9-.1-13.1-7-11.7-15 1.4-8.2 6.2-34.7 6.2-34.7-36.6 33.8-80 52-117.1 52.3-24.4.2-81.8-10.1-81.8-81.3 0-1.2.1-2.4.1-3.6-1.2 7.9-1.9 16.1-1.9 24.4 0 86 69.7 155.7 155.7 155.7s155.7-69.7 155.7-155.7-69.8-155.8-155.8-155.8z" fill="#ff3030"/></svg>