<?xml version="1.0" encoding="utf-8"?>
<!-- Generator: Adobe Illustrator 22.0.1, SVG Export Plug-In . SVG Version: 6.00 Build 0)  -->
<svg version="1.1" id="Layer_1" xmlns="http://www.w3.org/2000/svg" xmlns:xlink="http://www.w3.org/1999/xlink" x="0px" y="0px"
	 viewBox="0 0 996 534" style="enable-background:new 0 0 996 534;" xml:space="preserve">
<style type="text/css">
	.st0{fill:#FFFFFF;}
	.st1{fill:#FF3030;}
</style>
<g>
	<circle class="st0" cx="140" cy="265.7" r="85.6"/>
	<g>
		<path class="st0" d="M348.6,237.5h-4.9c-4.8,0-6.8,1.4-10.1,6.6l-26.2,42.4l-10.9-42c-1.3-5-2.7-7.1-8.1-7.1h-4.1
			c-5.3,0-8.8,3.2-9.8,8.8l-12.2,68.3c-0.9,5.1,1.4,7.8,5.9,7.8h1.8c4.7,0,6.7-2.3,7.6-7.4l9.8-55.2l9.4,37c0.8,3.7,1.5,6.2,8.6,6.2
			c6,0,7.4-2.1,9.4-5.5l23.1-38.1l-9.8,55.3c-0.9,5.2,1.4,7.8,5.8,7.8h2c4.7,0,6.7-2.4,7.6-7.4l12.2-68.5
			C356.7,241.1,354.1,237.5,348.6,237.5 M390.5,257.7c-21.6,0-34.8,17.6-34.2,37c0.7,17.6,12.8,28.9,30.7,28.9
			c22.1,0,34.8-17.7,34.2-37.1C420.7,269.9,409.4,257.7,390.5,257.7 M387.1,311.5c-10.2,0-16.6-7.4-16.9-17.4
			c-0.4-12.9,8-24.5,20.2-24.5c9.3,0,16.7,7.4,17,17.5C407.8,300.8,399.3,311.5,387.1,311.5 M469.5,257.7c-9,0-16.2,4.5-20.8,12
			c0.4-8.5-4.2-11-9-11c-2.3,0-4,0.5-4.1,0.9l-9.8,55.6c-1,5.8,2.3,7.4,6.4,7.4h1.7c4.6,0,6.4-1.9,7.4-7.4l5.9-33.4
			c4.2-7.4,8.9-10.9,16.1-10.9c7.3,0,11.5,4.3,11.7,11.5c0.1,1.8-0.3,4.2-0.8,7l-4.6,25.8c-1,5.8,2.3,7.4,6.4,7.4h1.7
			c4.6,0,6.4-1.9,7.4-7.4l5-28.4c0.5-3.2,1-6,0.9-8.5C490.5,266.1,482.6,257.7,469.5,257.7 M745,257.7c-7.4,0-12.8,4.2-16.6,12
			c0.5-8.5-4.1-11-8.9-11c-2.4,0-4,0.5-4.1,0.9l-9.9,55.6c-1,5.8,2.8,7.4,7,7.4h1.7c3.9,0,5.9-1.9,6.8-7.4l3.3-18.6
			c2.5-14.5,7.8-24.6,16.5-24.6c4.2,0,6.8,1.7,8.7,3.7c0.2,0.2,6.7-2.3,6.5-10C755.7,260.8,750.9,257.7,745,257.7 M819.7,258.6
			c-6.1,0-9.4,2.9-11.4,10.7c-3.9-7.3-11.8-11.6-21.1-11.6c-19.6,0-33.3,17.5-33.3,37.4c0,16.4,10.1,28.5,25.9,28.5
			c9.6,0,17.1-4,21.9-12.1c-0.7,8.4,1,11,7,11c5.4,0,7.2-2,7.7-7.9c0.8-11,4.4-28.9,8.8-54.1C825.4,260,822.9,258.6,819.7,258.6
			 M768.2,294.6c0-12.6,7.4-25.2,21.1-25.2c11.1,0,15.7,8.2,15.7,17.2c0,11.3-7.6,24.9-21.7,24.9
			C773.7,311.5,768.2,305.4,768.2,294.6 M913.9,257.7c-10.7,0-17.9,5.5-22.9,13.6c-2.5-8.5-9.8-13.6-19.1-13.6
			c-8.1,0-15.3,3.9-20.2,11.2c0.2-7.8-4.3-10.2-9-10.2c-2.3,0-3.9,0.5-4.1,0.9l-9.8,55.6c-1,5.8,2.3,7.4,6.4,7.4h1.7
			c3.9,0,6.4-1.6,7.4-7.4l6.1-34.5c4.5-6.9,8.6-9.8,15.2-9.8c6.4,0,10.4,4.8,10.4,12.1c0,1.2-0.1,2.5-0.3,3.8l-4.9,28.4
			c-1,5.8,2.4,7.4,6.4,7.4h1.6c4,0,6.5-1.7,7.5-7.4l6.1-34.5c4.4-6.9,8.7-9.8,15.2-9.8c6.2,0,10.7,3.8,10.7,11.5
			c0,1.8-0.3,4.2-0.8,7l-4.6,25.8c-1,5.8,2.3,7.4,6.4,7.4h1.7c4.6,0,6.4-1.9,7.4-7.4l5-28.4c0.5-3.2,0.9-6,0.9-8.5
			C934.4,265.6,925.9,257.7,913.9,257.7 M534.9,257.6c-27.6,0-37.4,20.3-37.4,38.1c0,16.9,12.2,28.1,30.8,28.1
			c18.7,0,29.2-8.4,29.2-15c0-4.5-3.1-6-6.7-6.3c-4.9,6.3-11.7,9.4-20.9,9.4c-8.1,0-17.9-3.2-18.6-17.7h42.4c4.6,0,8-2.6,8-8.4
			c0-8.6-1.7-14.4-5.6-19.4C551.9,260.8,544.1,257.6,534.9,257.6 M548.1,283.6h-35.3c3.3-9,11.2-14.6,21.2-14.6
			c5,0,8.9,1.4,11.4,4.2C547.5,275.7,548.4,279.2,548.1,283.6 M693,277h-25.2c-3,0-4.4,0.7-5.4,1.6c-1.5,1.6-2.3,5.3-2.3,7
			c0.1,2.6,2.4,4.1,6.4,4.1h17.9c-2.5,12.5-10.4,21.2-24.1,21.2c-14.3,0-24-9.1-24.5-24.7c-0.7-19.6,12.3-35.7,30.6-35.7
			c10.7,0,19.1,5.8,22.6,13.4c0.4,0.6,10.4,0.6,10.1-7.9c-0.1-3-1.9-6.6-5.1-9.7c-5.3-5.2-15.2-9.8-28.3-9.8
			c-18.5,0-33,10.2-40.6,24.9c0-0.1-0.1-0.1-0.1-0.1c-1.5-2-4-2.9-6.4-2.9c-4.1,0-6.7,1.3-10.7,8.3l-19.6,34.5l-7.4-34.4
			c-1.4-6.4-3.7-8.4-7.8-8.4c-4.8,0-8.7,3.5-8.5,4.4l14,55.6l-14.7,23.7c-1.5,2.6-1.6,6,3.9,6h3c5.7,0,7.6-3.5,10.4-8.3l39.5-66.9
			c-1.2,4.7-1.7,9.7-1.5,14.8c0.8,22.5,15.8,36,38,36c10.5,0,18.9-4,23.6-10.1c-0.3,6.5,3.1,9.1,7.8,9.1c2.6,0,4.4-0.9,4.4-1.3
			l6.4-36C700.4,279.9,698.3,277,693,277"/>
		<path class="st0" d="M950.9,315.2c0.5,0.8,0.8,1.1,1.5,1.2c0,0,0.1,1-1,1c-0.7,0-1.1-0.3-1.9-1.6l-1.3-2.4H947l-0.6,3.2
			c-0.1,0.5-0.3,0.7-0.8,0.7h-0.2c-0.4,0-0.7-0.3-0.6-0.8l1.6-8.4c0.1-0.6,0.4-0.9,1-0.9h2.4c2.3,0,3.5,0.9,3.5,2.6
			c0,2-1.3,3.3-3.5,3.4L950.9,315.2z M949.4,312.1c1.5,0,2.3-0.8,2.3-2.1c0-1-0.7-1.5-2-1.5h-1.8l-0.7,3.5H949.4z"/>
		<path class="st0" d="M949,304.6c4.5,0,8.2,3.7,8.2,8.3c0,4.5-3.7,8.2-8.2,8.2c-4.6,0-8.2-3.7-8.2-8.2
			C940.8,308.3,944.5,304.6,949,304.6 M949,303.3c-5.3,0-9.6,4.3-9.6,9.6c0,5.3,4.3,9.6,9.6,9.6c5.3,0,9.6-4.3,9.6-9.6
			C958.6,307.6,954.3,303.3,949,303.3"/>
	</g>
	<path class="st1" d="M140,179.5c-2.6,0-5.3,0.1-7.8,0.4c-1.3,0.4-2.5,0.7-3.7,1.2c-14.2,4.9-28.6,15.1-38.8,28.6
		c-8.3,11.1-14.5,23.8-14.5,38.7c0,21.5,16.9,31,31.9,31c15.1,0,33.3-7.7,48.1-21.7c0.3-0.3,0.7-0.7,1-1h-21.4
		c-4.4,0-7.4-3.3-6.7-7.7c0-0.3,0.3-1.6,0.3-1.9c0.8-4.6,5-7,9.6-7h41.1c4.6,0,7.5,3.7,6.7,8.3l-7.3,41.1c-0.8,4.6-4,8.3-8.6,8.3
		H168c-4.4,0-7.2-3.9-6.5-8.3c0.8-4.6,3.4-19.2,3.4-19.2c-20.2,18.7-44.3,28.8-64.8,29c-13.5,0.1-45.3-5.6-45.3-45c0-0.7,0-1.3,0-2
		c-0.7,4.4-1.1,8.9-1.1,13.5c0,47.6,38.6,86.2,86.2,86.2c47.6,0,86.2-38.6,86.2-86.2S187.7,179.5,140,179.5z"/>
</g>
</svg>
