<svg enable-background="new 0 0 500 500" viewBox="0 0 500 500" xmlns="http://www.w3.org/2000/svg"><g fill="#fff"><path d="m100.5 218.8h-2.8c-2.7 0-3.9.8-5.8 3.8l-14.9 24.1-6.2-23.9c-.7-2.9-1.6-4-4.7-4h-2.4c-3 0-5 1.8-5.6 5l-6.9 38.9c-.5 2.9.8 4.4 3.4 4.4h1.1c2.6 0 3.9-1.3 4.4-4.2l5.6-31.5 5.4 21c.4 2.1.9 3.5 4.9 3.5 3.4 0 4.2-1.2 5.4-3.1l13.2-21.7-5.6 31.5c-.5 3 .8 4.4 3.3 4.4h1.2c2.6 0 3.9-1.4 4.4-4.2l6.9-39c.3-3-1.1-5-4.3-5zm23.9 11.5c-12.3 0-19.9 10-19.6 21 .4 10 7.3 16.5 17.5 16.5 12.7 0 19.9-10.1 19.6-21.1-.3-9.4-6.7-16.4-17.5-16.4zm-1.9 30.6c-5.8 0-9.4-4.2-9.7-9.9-.2-7.4 4.6-14 11.5-14 5.3 0 9.5 4.2 9.7 9.9.3 7.9-4.5 14-11.5 14zm47.1-30.6c-5.2 0-9.2 2.5-11.9 6.8.2-4.8-2.4-6.2-5.2-6.2-1.3 0-2.3.3-2.4.5l-5.6 31.6c-.6 3.3 1.3 4.2 3.6 4.2h1c2.6 0 3.6-1.1 4.2-4.2l3.4-19.1c2.4-4.2 5.1-6.2 9.2-6.2s6.6 2.5 6.7 6.6c.1 1.1-.2 2.4-.4 3.9l-2.6 14.7c-.6 3.3 1.3 4.2 3.7 4.2h1c2.6 0 3.7-1.1 4.2-4.2l2.9-16.2c.3-1.8.6-3.5.5-4.8-.3-6.8-4.9-11.6-12.3-11.6zm157.2 0c-4.2 0-7.3 2.4-9.4 6.8.3-4.8-2.4-6.2-5.1-6.2-1.4 0-2.3.3-2.4.5l-5.7 31.6c-.6 3.3 1.6 4.2 3.9 4.2h1c2.2 0 3.4-1.1 3.9-4.2l1.9-10.6c1.4-8.2 4.4-14 9.4-14 2.4 0 3.9 1 4.9 2.1.2.2 3.9-1.3 3.7-5.7.1-2.7-2.6-4.5-6.1-4.5zm42.8.6c-3.5 0-5.3 1.6-6.5 6.1-2.2-4.2-6.7-6.7-12-6.7-11.3 0-19.1 9.9-19.1 21.3 0 9.4 5.8 16.3 14.8 16.3 5.5 0 9.8-2.3 12.5-6.9-.4 4.8.6 6.2 3.9 6.2 3.1 0 4.1-1.2 4.4-4.5.4-6.2 2.5-16.5 5-30.8.2-.3-1.2-1-3-1zm-29.5 20.4c0-7.1 4.2-14.4 12-14.4 6.3 0 9 4.7 9 9.8 0 6.4-4.4 14.2-12.4 14.2-5.4 0-8.6-3.4-8.6-9.6zm83.2-21c-6.2 0-10.2 3.1-13.1 7.7-1.4-4.8-5.6-7.7-10.9-7.7-4.7 0-8.7 2.2-11.5 6.4.1-4.4-2.5-5.8-5.2-5.8-1.3 0-2.2.3-2.4.5l-5.6 31.6c-.6 3.3 1.3 4.2 3.6 4.2h1c2.2 0 3.7-.9 4.2-4.2l3.5-19.6c2.5-3.9 4.9-5.6 8.7-5.6 3.7 0 5.9 2.7 5.9 6.9 0 .7-.1 1.4-.2 2.1l-2.8 16.2c-.6 3.3 1.4 4.2 3.6 4.2h.9c2.3 0 3.7-1 4.3-4.2l3.5-19.6c2.5-3.9 4.9-5.6 8.7-5.6 3.5 0 6.2 2.1 6.2 6.6 0 1.1-.2 2.4-.4 3.9l-2.6 14.7c-.6 3.3 1.3 4.2 3.7 4.2h1c2.6 0 3.6-1.1 4.2-4.2l2.9-16.2c.3-1.8.5-3.5.5-4.8 0-7.2-4.8-11.7-11.7-11.7zm-216.4-.1c-15.8 0-21.4 11.6-21.4 21.7 0 9.6 6.9 16 17.6 16s16.7-4.8 16.7-8.5c0-2.5-1.8-3.5-3.9-3.6-2.8 3.6-6.7 5.3-12 5.3-4.7 0-10.2-1.8-10.6-10.1h24.2c2.6 0 4.6-1.5 4.6-4.8 0-4.9-1-8.2-3.2-11-2.3-3.1-6.8-5-12-5zm7.5 14.8h-20.1c1.9-5.2 6.4-8.3 12.1-8.3 2.9 0 5.1.8 6.5 2.4 1.2 1.5 1.7 3.4 1.5 5.9zm82.8-3.7h-14.4c-1.7 0-2.5.4-3.1.9-.9.9-1.3 3-1.3 3.9.1 1.5 1.4 2.4 3.7 2.4h10.2c-1.4 7.1-5.9 12.1-13.7 12.1-8.2 0-13.7-5.2-14-14.1-.4-11.2 7-20.3 17.5-20.3 6.2 0 10.9 3.3 12.9 7.6.2.3 5.9.3 5.8-4.5-.1-1.7-1.1-3.8-2.9-5.5-3-3-8.7-5.6-16.2-5.6-10.5 0-18.8 5.8-23.2 14.2 0-.1-.1-.1-.1-.1-.9-1.2-2.3-1.6-3.6-1.6-2.4 0-3.9.7-6.2 4.7l-11.2 19.6-4.2-19.6c-.8-3.6-2.1-4.8-4.4-4.8-2.7 0-4.9 2-4.8 2.5l8 31.6-8.4 13.5c-.9 1.5-.9 3.4 2.2 3.4h1.7c3.3 0 4.4-2 5.9-4.7l22.6-38.1c-.7 2.6-1 5.5-.9 8.5.4 12.8 9 20.5 21.7 20.5 6 0 10.8-2.3 13.5-5.8-.2 3.7 1.8 5.2 4.4 5.2 1.5 0 2.5-.5 2.5-.7l3.6-20.5c.6-3.1-.6-4.7-3.6-4.7z"/><path d="m444.4 263.1c.2.5.4.7.8.7 0 0 .1.6-.6.6-.4 0-.7-.2-1.1-.9l-.7-1.3h-.7l-.3 1.8c-.1.2-.2.4-.4.4h-.1c-.2 0-.4-.2-.3-.4l.9-4.8c.1-.3.2-.5.6-.5h1.4c1.3 0 2 .5 2 1.5 0 1.2-.7 1.9-2.1 1.9zm-.8-1.8c.8 0 1.3-.4 1.3-1.2 0-.6-.4-.8-1.2-.8h-1.1l-.4 2.1z"/><path d="m443.4 257.1c2.6 0 4.7 2.1 4.7 4.7s-2.1 4.7-4.7 4.7-4.7-2.1-4.7-4.7c0-2.7 2.1-4.7 4.7-4.7m0-.9c-3 0-5.5 2.5-5.5 5.5s2.5 5.5 5.5 5.5 5.5-2.5 5.5-5.5-2.5-5.5-5.5-5.5z"/></g></svg>