<svg enable-background="new 0 0 996 534" viewBox="0 0 996 534" xmlns="http://www.w3.org/2000/svg"><g fill="#fff"><path d="m324.5 236.4h-5.3c-5.1 0-7.4 1.6-11 7.2l-28.5 46.2-11.7-45.8c-1.4-5.4-3-7.7-8.9-7.7h-4.5c-5.7 0-9.6 3.5-10.6 9.6l-13.3 74.3c-1 5.5 1.6 8.5 6.3 8.5h2c5 0 7.3-2.5 8.3-8l10.6-60 10.3 40.2c.8 4.1 1.7 6.7 9.3 6.7 6.5 0 8-2.3 10.3-6l25.1-41.4-10.6 60c-1 5.6 1.6 8.5 6.2 8.5h2.2c5 0 7.3-2.6 8.3-8l13.3-74.5c1.1-5.9-1.7-9.8-7.8-9.8m45.6 21.9c-23.4 0-37.9 19.1-37.2 40.2.7 19.1 13.9 31.5 33.4 31.5 24 0 37.9-19.3 37.2-40.3-.6-18-12.8-31.4-33.4-31.4m-3.6 58.6c-11.1 0-18.1-8-18.4-18.9-.5-14.1 8.7-26.6 22-26.6 10.2 0 18.2 8 18.5 19 .4 14.9-8.9 26.5-22.1 26.5m89.5-58.6c-9.8 0-17.6 4.8-22.6 13 .5-9.2-4.5-12-9.8-12-2.5 0-4.4.6-4.4 1l-10.6 60.4c-1.1 6.2 2.5 8 6.9 8h1.9c4.9 0 6.9-2 8-8l6.3-36.2c4.5-8 9.7-11.8 17.5-11.8 7.9 0 12.6 4.7 12.7 12.6.1 2-.4 4.7-.8 7.5l-4.9 28c-1.1 6.2 2.5 8 6.9 8h1.9c5 0 6.9-2 8-8l5.4-30.9c.6-3.5 1.1-6.5 1-9.2-.5-13.2-9.1-22.4-23.4-22.4m299.4 0c-8 0-13.9 4.5-18.1 13 .6-9.2-4.4-12-9.7-12-2.6 0-4.4.6-4.5 1l-10.8 60.4c-1.1 6.2 3.1 8 7.5 8h1.9c4.3 0 6.3-2 7.4-8l3.6-20.2c2.8-15.7 8.5-26.7 17.9-26.7 4.5 0 7.4 1.9 9.4 4.1.2.2 7.3-2.5 7.1-10.9 0-5.3-5.1-8.7-11.7-8.7m81.3 1c-6.6 0-10.3 3.2-12.3 11.6-4.3-7.9-12.9-12.7-22.8-12.7-21.4 0-36.2 19-36.2 40.7 0 17.8 11 31 28.2 31 10.5 0 18.7-4.4 23.8-13.2-.7 9.1 1.1 12 7.5 12 5.9 0 7.8-2.2 8.4-8.6.8-12 4.8-31.5 9.6-58.7.1-.5-2.7-2.1-6.2-2.1m-55.9 39.2c0-13.8 8-27.4 22.8-27.4 12.1 0 17.1 8.9 17.1 18.7 0 12.3-8.3 27-23.6 27-10.3.1-16.3-6.6-16.3-18.3m158.3-40.2c-11.7 0-19.5 6-24.9 14.8-2.8-9.2-10.6-14.8-20.8-14.8-8.9 0-16.6 4.3-22 12.2.2-8.5-4.7-11.1-9.8-11.1-2.5 0-4.2.6-4.5 1l-10.6 60.4c-1.1 6.2 2.5 8 6.9 8h1.9c4.3 0 6.9-1.8 8-8l6.6-37.4c4.9-7.4 9.3-10.6 16.5-10.6 6.9 0 11.4 5.1 11.4 13.2 0 1.3-.1 2.8-.4 4.2l-5.3 30.9c-1.1 6.2 2.6 8 6.9 8h1.8c4.3 0 7.1-1.9 8.1-8l6.6-37.4c4.8-7.4 9.4-10.6 16.5-10.6 6.7 0 11.7 4.2 11.7 12.6 0 2-.4 4.7-.8 7.5l-4.9 28c-1.1 6.2 2.5 8 6.9 8h1.9c4.9 0 6.9-2 8-8l5.4-30.9c.6-3.5 1-6.5 1-9.2.2-14.2-9-22.8-22.1-22.8m-412-.2c-30 0-40.7 22.1-40.7 41.4 0 18.3 13.3 30.5 33.5 30.5 20.3 0 31.7-9.1 31.7-16.3 0-4.9-3.5-6.5-7.3-6.8-5.3 6.8-12.8 10.2-22.7 10.2-8.9 0-19.5-3.5-20.2-19.3h46.2c4.9 0 8.7-2.9 8.7-9.1 0-9.3-1.9-15.7-6.1-21-4.7-6-13.2-9.6-23.1-9.6m14.4 28.4h-38.4c3.6-9.8 12.2-15.9 23-15.9 5.4 0 9.7 1.6 12.4 4.7 2.4 2.6 3.3 6.4 3 11.2m157.5-7.2h-27.4c-3.2 0-4.8.7-5.9 1.8-1.7 1.8-2.5 5.7-2.5 7.5.1 2.9 2.6 4.5 6.9 4.5h19.5c-2.8 13.6-11.4 23.1-26.2 23.1-15.5 0-26.1-9.9-26.7-26.8-.7-21.3 13.3-38.7 33.2-38.7 11.7 0 20.8 6.2 24.5 14.6.5.6 11.4.6 11-8.6-.1-3.3-2-7.2-5.5-10.5-5.7-5.6-16.5-10.6-30.9-10.6-20.1 0-35.9 11.1-44.1 27 0-.1-.1-.1-.1-.1-1.7-2.2-4.3-3.2-6.9-3.2-4.4 0-7.3 1.4-11.7 9l-21.4 37.4-8-37.3c-1.6-6.9-4.1-9.1-8.5-9.1-5.1 0-9.4 3.8-9.2 4.8l15.2 60.4-15.9 25.7c-1.7 2.9-1.8 6.5 4.3 6.5h3.3c6.2 0 8.3-3.8 11.4-9l42.9-72.7c-1.3 5.1-1.9 10.5-1.7 16.1.8 24.5 17.2 39.1 41.3 39.1 11.5 0 20.6-4.4 25.6-11-.4 7.1 3.5 9.9 8.5 9.9 2.9 0 4.8-1 4.8-1.4l6.9-39.1c1.3-6.2-1-9.3-6.7-9.3"/><path d="m979.3 320.9c.5.8.8 1.2 1.6 1.3 0 0 .1 1.1-1.1 1.1-.7 0-1.2-.4-2-1.8l-1.4-2.6h-1.4l-.7 3.5c-.1.6-.4.8-.8.8h-.2c-.5 0-.7-.2-.6-.8l1.8-9.1c.1-.6.5-1 1.1-1h2.6c2.5 0 3.7 1 3.8 2.9 0 2.3-1.4 3.6-3.8 3.7zm-1.5-3.3c1.6 0 2.5-.8 2.5-2.3 0-1.1-.8-1.6-2.2-1.6h-2l-.7 3.8z"/><path d="m977.3 309.3c4.9 0 9 4.1 9 9s-3.9 9-9 9c-4.9 0-9-4.1-9-9s4.1-9 9-9m0-1.4c-5.7 0-10.4 4.7-10.4 10.4s4.7 10.4 10.4 10.4 10.4-4.7 10.4-10.4-4.7-10.4-10.4-10.4"/></g><path d="m97.9 173.2c-2.9 0-5.7.1-8.5.4-1.3.4-2.8.8-4.1 1.3-15.4 5.4-31.1 16.4-42.1 31.1-9.1 12.1-15.8 26-15.8 42.1 0 23.3 18.3 33.7 34.7 33.7s36.2-8.4 52.3-23.6c.4-.4.7-.7 1.1-1.1h-23.4c-4.8 0-8-3.6-7.3-8.4 0-.4.4-1.7.4-2 .8-5 5.4-7.7 10.4-7.7h44.6c4.9 0 8.3 4.1 7.3 9l-7.9 44.7c-.8 5-4.4 9-9.3 9h-1.9c-4.8 0-7.9-4.2-7.1-9 .8-4.9 3.7-20.9 3.7-20.9-22 20.3-48.1 31.3-70.4 31.5-14.7.1-49.3-6.1-49.3-48.9 0-.7 0-1.4 0-2.2-.7 4.8-1.2 9.7-1.2 14.7 0 51.8 42 93.8 93.8 93.8s93.8-42 93.8-93.8c-.2-51.7-42.1-93.7-93.8-93.7z" fill="#ff3030"/></svg>