<svg enable-background="new 0 0 996 534" viewBox="0 0 996 534" xmlns="http://www.w3.org/2000/svg" xmlns:xlink="http://www.w3.org/1999/xlink"><linearGradient id="a"><stop offset=".00096154" stop-color="#04a6df"/><stop offset="1" stop-color="#1bb150"/></linearGradient><linearGradient id="b" gradientTransform="matrix(1 0 0 -1 0 534)" gradientUnits="userSpaceOnUse" x1="36.8525" x2="884.2455" xlink:href="#a" y1="337.7996" y2="337.7996"/><linearGradient id="c" gradientTransform="matrix(1 0 0 -1 0 534)" gradientUnits="userSpaceOnUse" x1="36.8531" x2="884.2461" xlink:href="#a" y1="276.0426" y2="276.0426"/><linearGradient id="d" gradientTransform="matrix(1 0 0 -1 0 534)" gradientUnits="userSpaceOnUse" x1="36.852" x2="884.2473" xlink:href="#a" y1="276.7572" y2="276.7572"/><linearGradient id="e" gradientTransform="matrix(1 0 0 -1 0 534)" gradientUnits="userSpaceOnUse" x1="36.8483" x2="884.2465" xlink:href="#a" y1="275.9235" y2="275.9235"/><linearGradient id="f" gradientTransform="matrix(1 0 0 -1 0 534)" gradientUnits="userSpaceOnUse" x1="36.8527" x2="884.2458" xlink:href="#a" y1="276.0426" y2="276.0426"/><linearGradient id="g" gradientTransform="matrix(1 0 0 -1 0 534)" gradientUnits="userSpaceOnUse" x1="36.8525" x2="884.2448" xlink:href="#a" y1="276.0425" y2="276.0425"/><linearGradient id="h" gradientTransform="matrix(1 0 0 -1 0 534)" gradientUnits="userSpaceOnUse" x1="36.8533" x2="884.2448" xlink:href="#a" y1="276.7572" y2="276.7572"/><linearGradient id="i" gradientTransform="matrix(1 0 0 -1 0 534)" gradientUnits="userSpaceOnUse" x1="36.8528" x2="884.2461" xlink:href="#a" y1="253.71" y2="253.71"/><linearGradient id="j" gradientTransform="matrix(1 0 0 -1 0 534)" gradientUnits="userSpaceOnUse" x1="36.8531" x2="884.2474" xlink:href="#a" y1="254.1342" y2="254.1342"/><linearGradient id="k" gradientTransform="matrix(1 0 0 -1 0 534)" gradientUnits="userSpaceOnUse" x1="36.8536" x2="884.2471" xlink:href="#a" y1="276.0426" y2="276.0426"/><linearGradient id="l" gradientTransform="matrix(1 0 0 -1 0 534)" gradientUnits="userSpaceOnUse" x1="36.8525" x2="884.2495" xlink:href="#a" y1="267.1225" y2="267.1225"/><linearGradient id="m" gradientTransform="matrix(1 0 0 -1 0 534)" gradientUnits="userSpaceOnUse" x1="36.8527" x2="884.2455" xlink:href="#a" y1="276.7572" y2="276.7572"/><path d="m784.6 196.3c0 4.6-3.8 8.5-8.6 8.5s-8.6-3.8-8.6-8.5c0-4.8 3.8-8.6 8.6-8.6s8.6 3.9 8.6 8.6" fill="url(#b)"/><path d="m198.9 214.4c-24.1 0-43.6 19.5-43.6 43.6s19.5 43.6 43.6 43.6 43.6-19.5 43.6-43.6-19.5-43.6-43.6-43.6m0 74.2c-17 0-30.8-13.7-30.8-30.6 0-17 13.8-30.8 30.8-30.8s30.8 13.8 30.8 30.8c.1 16.9-13.9 30.6-30.8 30.6" fill="url(#c)"/><path d="m714.5 214.4c-10.8 0-21.3 4.8-28.1 13.2l-1.2 1.4-1.2-1.4c-6.8-8.5-17-13.2-27.9-13.2-19.5 0-36.1 16-36.1 35.5v43.5c.1 3.7 3.2 6.7 6.9 6.7 3.8 0 6.8-3 6.9-6.7v-43.5c0-12.1 10-22 22-22 12.1 0 22.3 9.9 22.3 22v43.5c.1 3.7 3.1 6.8 6.9 6.8s6.8-3 6.9-6.8v-43.5c0-12.1 10.1-22 22.3-22 12 0 22 9.9 22 22v43.8c.2 3.6 3.3 6.4 6.9 6.4s6.7-2.9 6.9-6.4v-43.8c.1-19.6-16.1-35.5-35.5-35.5" fill="url(#d)"/><path d="m782.9 223.1c0-3.8-3.1-6.9-6.9-6.9s-6.9 3.1-6.9 6.9v.4 69.8c0 3.8 3.1 6.8 6.9 6.8s6.9-3.1 6.9-6.8v-69.8c0-.2 0-.3 0-.4" fill="url(#e)"/><path d="m601.7 258c0-24.1-19.3-43.6-43.4-43.6s-43.5 19.5-43.5 43.6 19.7 43.6 43.7 43.6c19.4 0 29.1-12.9 29.1-12.9v4.3c0 3.9 3.2 7 7.1 7s7-3.1 7.1-7v1.4-36.4zm-43.2 30.8c-17 0-30.8-13.8-30.8-30.8s13.8-30.8 30.8-30.8 30.8 13.8 30.8 30.8-13.8 30.8-30.8 30.8" fill="url(#f)"/><path d="m425.8 258.9c0-11-3.6-21.9-9.8-30-3.5-4.5-7.5-8-12.1-10.5-5.1-2.7-10.7-4-16.9-4-22.5 0-40.1 19.1-40.1 43.5 0 12 4.2 23.2 11.9 31.2 7.7 8.1 18.2 12.5 29.8 12.5 12.6 0 22.4-3.9 31.4-12.5 1.3-1.2 2.1-2.7 2.1-4.4 0-3.2-2.6-5.7-5.8-5.7-1.8 0-3 .8-3.8 1.5h-.1c-6.2 5.7-13.5 8.3-23.5 8.3-7.7 0-14.4-2-19.3-5.7-5.2-4-8.3-9.9-9.2-17.5l-.1-.5h59.2c3.5 0 6.3-2.7 6.3-6.2m-56.6-25.2c4.6-4.5 10.7-6.8 17.4-6.8 7.9 0 14.1 2.6 18.7 7.9 4.9 5.6 6.6 12.7 7.1 17.7v.5h-52.2l.1-.5c1.1-7.8 4.2-14.2 8.9-18.8" fill="url(#g)"/><path d="m294.9 214.4c-1.5 0-3.1.1-5 .4l-.5.1c-17.9 2.6-31.2 18-31.2 35.5v43.2.1c.1 3.6 3.1 6.4 6.7 6.4s6.6-2.9 6.7-6.4v-.1s0-40.9 0-43.1v-.1c0-.1 0-.2 0-.4 0-.1 0-.1 0-.2 0-6.1 2.4-11.7 6.8-15.7 4.3-4 10.1-6.2 16.3-6.2 6.3 0 12 2.3 16.3 6.2 4.3 4 6.8 9.6 6.8 15.7v44.1.1c.2 3.3 3.2 6.1 6.7 6.1s6.4-2.7 6.7-6.2v-43.5c-.1-19.8-16.3-36-36.3-36" fill="url(#h)"/><path d="m886.8 258c0-24.1-20-43.6-43.7-43.6s-43 19.5-43 43.6 19.3 43.6 43 43.6c9.9 0 20-4 27.5-10.4l2-1.7s1.3 13.7-1.8 22.9c-1.5 4.5-8.1 18.8-27.6 19.4-9.1.2-18.6-5.2-24.2-13.2-1.3-2-3.5-3.3-6-3.3-3.9 0-7 3.2-7 7 0 1.1.2 2.1.7 3.1 7.5 13.1 21.9 20.8 36.3 20.8 13.8-.5 24.4-4.8 31.9-13.1 11.7-13.1 11.8-32.4 11.8-46.6zm-43.6 29.5c-16.1 0-29.1-13.2-29.1-29.5 0-16.4 13.1-29.7 29.1-29.7 16.2 0 29.3 13.3 29.3 29.7 0 16.2-13.1 29.5-29.3 29.5" fill="url(#i)"/><path d="m509.9 222.7c0 1-.4 2-.6 2.9l-.1.2c-1.1 2.7-33.2 79.8-33.2 79.8-4.4 11.8-10.1 26.9-24.1 34.2-8.9 4.8-19.3 5-31 1-7.7-2.9-14.5-8.5-18.9-15.6 0 0-.1-.1-.1-.2-.6-1-1-2.1-1-3.3 0-3.6 3-6.6 6.6-6.6 2.3 0 4.3 1.2 5.5 3l.1.1c3.1 4.9 7.5 8.7 12.5 10.4 16.7 5.7 26.7-4.3 29.3-7.6 5.5-6.8 11.1-23.2 11.1-23.2l-33.8-71.3c-.6-1.3-.8-2.5-.8-3.6 0-3.7 3-6.6 6.7-6.6 1.1 0 4.5 0 6.7 5.1l27.8 59.2 24.5-59.4c.8-2.3 2.6-4.9 6.3-4.9 3.6-.1 6.5 2.8 6.5 6.4" fill="url(#j)"/><path d="m946.2 214.4c-24.1 0-43.6 19.5-43.6 43.6s19.5 43.6 43.6 43.6 43.6-19.5 43.6-43.6-19.5-43.6-43.6-43.6m0 74.2c-17 0-30.8-13.7-30.8-30.6 0-17 13.8-30.8 30.8-30.8s30.8 13.8 30.8 30.8c0 16.9-13.8 30.6-30.8 30.6" fill="url(#k)"/><path d="m946.2 279c-11.6 0-21.3-8.6-22.7-19.9-.2-2.1 1.2-4.2 3.5-4.4 2.1-.2 4.2 1.2 4.4 3.3 1 7.4 7.4 13 14.9 13s13.9-5.5 15-12.9c.4-2.1 2.3-3.7 4.4-3.3 2.1.2 3.7 2.3 3.3 4.4-.7 5.4-3.5 10.4-7.6 14.1s-9.6 5.7-15.2 5.7" fill="url(#l)"/><path d="m104.3 214.4c-10.8 0-21.3 4.8-28.1 13.2l-1.2 1.4-1.2-1.4c-6.8-8.5-17-13.2-27.8-13.2-19.7 0-36.1 16-36.1 35.5v43.5c.1 3.7 3.2 6.7 6.9 6.7 3.8 0 6.8-3 6.9-6.7v-43.5c0-12.1 10-22 22-22 12.1 0 22.3 9.9 22.3 22v43.5c.1 3.7 3.1 6.8 6.9 6.8s6.8-3 6.9-6.8v-43.5c0-12.1 10.1-22 22.3-22 12 0 22 9.9 22 22v43.8c.2 3.6 3.2 6.4 6.9 6.4 3.6 0 6.7-2.9 6.9-6.4v-43.8c.1-19.6-16.1-35.5-35.6-35.5" fill="url(#m)"/></svg>