<svg enable-background="new 0 0 996 534" viewBox="0 0 996 534" xmlns="http://www.w3.org/2000/svg"><path d="m274.1 382.4c-7.5 0-12.6 1.5-15.4 2.4-3.3 1.1-4.4 2.4-4.4 4v44.1c0 1.7.5 1.9 1.9 1.9h4.8c1.3 0 2.1-.1 2.1-2v-40.5c0-2.3 3.7-4.5 10.6-4.5 11.6 0 11.6 7.5 11.6 12v33c0 1.7.5 2 2.1 2h5.5c1.1-.1 1.2-1.1 1.2-2v-34.1c-.1-5.9-.1-16.3-20-16.3m211.1 0c-7.5 0-12.6 1.5-15.4 2.4-3.3 1.1-4.4 2.4-4.4 4v44.1c0 1.7.5 1.9 1.9 1.9h4.8c1.3 0 2.1-.1 2.1-2v-40.5c0-2.3 3.7-4.5 10.6-4.5 11.4 0 11.4 7.5 11.4 12v33c0 1.7.7 2 2.3 2h5.5c1.1-.1 1.2-1.1 1.2-2v-34.1c0-5.9-.2-16.3-20-16.3m94.5 0c-5.3 0-8.7.9-11.2 1.6-3.3.9-4.5 2.4-4.5 4v45c0 1.6.7 1.7 2 1.7h5.1c1.2 0 1.7-.1 1.7-1.7v-41.3c0-2.7 2.1-4.4 5.1-4.4 6.4 0 7.3 4.7 10.6 4.7 2.3 0 4.1-1.6 4.1-4.4-.1-3.6-6.1-5.2-12.9-5.2m-31.8 3.6c-3.6-2.4-8.4-3.7-12.9-3.7s-9.3 1.2-12.8 3.7c-5.7 3.9-9.4 11.4-9.4 23.3 0 11.7 3.7 19.3 9.4 23.2 3.6 2.5 8.3 3.6 12.8 3.6s9.3-1.2 12.9-3.6c5.7-3.9 9.4-11.4 9.4-23.2s-3.7-19.4-9.4-23.3m-4.3 41.3c-2.7 2.5-5.2 3.2-8.7 3.2s-5.9-.7-8.5-3.2c-2.8-2.5-4.7-8.7-4.7-17.8 0-9.4 1.9-15.4 4.7-18 2.7-2.5 5.2-3.2 8.5-3.2 3.5 0 6 .7 8.7 3.2 2.8 2.7 4.7 8.7 4.7 18 0 9.1-1.9 15.1-4.7 17.8m-206.8-41.3c-3.6-2.4-8.3-3.7-12.9-3.7-4.5 0-9.2 1.2-12.8 3.7-5.7 3.9-9.4 11.4-9.4 23.3 0 11.7 3.7 19.3 9.4 23.2 3.6 2.5 8.4 3.6 12.8 3.6 4.5 0 9.3-1.2 12.9-3.6 5.7-3.9 9.4-11.4 9.4-23.2.1-11.8-3.7-19.4-9.4-23.3m-4.3 41.3c-2.7 2.5-5.2 3.2-8.7 3.2s-5.9-.7-8.5-3.2c-2.8-2.5-4.7-8.7-4.7-17.8 0-9.4 1.9-15.4 4.7-18 2.7-2.5 5.2-3.2 8.5-3.2 3.5 0 6 .7 8.7 3.2 2.8 2.7 4.7 8.7 4.7 18 0 9.1-1.9 15.1-4.7 17.8m57.3-43.7h-4.9c-.7.1-.9.4-1.2 1.3l-12.8 37.7-13.3-37.4c-.5-1.3-.7-1.6-2.1-1.6h-6c-.4 0-1.3 0-1.3 1.2 0 .4.1.9.4 1.5l17.8 47c.5 1.2.7 1.5 1.5 1.6h3.9c1.2 0 1.3-.1 1.9-1.5l17.3-47.1c.4-1.2.4-1.5.4-1.6-.4-1.1-1.2-1.1-1.6-1.1m27-237.5c22.1 0 39.9-17.8 39.9-39.9s-17.8-39.9-39.9-39.9-39.9 17.8-39.9 39.9c0 21.9 17.8 39.9 39.9 39.9m1.5-71.5c14.9 0 26.9 12 26.9 26.9s-12 26.9-26.9 26.9-26.9-12-26.9-26.9 12.1-26.9 26.9-26.9m8.6 311.4c-3.6-2.4-8.3-3.7-12.8-3.7s-9.3 1.2-12.8 3.7c-5.7 3.9-9.4 11.4-9.4 23.3 0 11.7 3.7 19.3 9.4 23.2 3.6 2.5 8.3 3.6 12.8 3.6s9.3-1.2 12.8-3.6c5.7-3.9 9.4-11.4 9.4-23.2.2-11.8-3.7-19.4-9.4-23.3m-4.1 41.3c-2.7 2.5-5.2 3.2-8.7 3.2s-6-.7-8.7-3.2c-2.8-2.5-4.7-8.7-4.7-17.8 0-9.4 1.9-15.4 4.7-18 2.7-2.5 5.2-3.2 8.7-3.2s6 .7 8.7 3.2c2.8 2.7 4.7 8.7 4.7 18-.2 9.1-2.1 15.1-4.7 17.8m340.7-109.5c-13 0-23.8 10.5-23.8 23.7s10.6 23.8 23.8 23.8 23.7-10.6 23.7-23.8c0-13.1-10.7-23.7-23.7-23.7m0 43.6c-10.9 0-19.8-8.9-19.8-19.8s8.8-19.7 19.8-19.7c10.9 0 19.8 8.8 19.8 19.7s-8.9 19.8-19.8 19.8m-89.6 34.5c0-3.7 2.9-7.6 8.5-7.6 5.7 0 7.2 3.7 10.1 3.7 1.5 0 3.6-.9 3.6-3.5 0-3.7-6.4-5.9-13.2-5.9-9.1 0-16.9 4.8-16.9 14 0 8.5 6 12.1 13.2 15.2 5.7 2.4 11 4.5 11 10 0 4-3.3 8.7-10.1 8.7-6.9 0-8.9-5.2-12.2-5.2-1.7 0-3.7.7-3.7 3.3 0 4 8 7.5 16 7.5 8.9 0 18.1-4.8 18.1-15.3-.2-16.4-24.4-13.9-24.4-24.9m-21.7-31.4c-3.2 0-5.5 2.3-5.5 5.3 0 2.8 2 5.1 5.3 5.1 3.5 0 5.5-2.7 5.3-5.5 0-2.9-2.4-4.9-5.1-4.9m59.8.5h-5.2c-1.1 0-1.7.3-1.7 1.6v66.5c0 1.3.3 1.6 1.7 1.6h5.2c1.3 0 1.9 0 1.9-1.5v-66.8c0-1.4-.7-1.4-1.9-1.4m53.5-21.7v-.1c5.3-.3 7.3-4.3 7.3-7.1 0-2.1-.9-3.9-2.4-5.2-2.1-1.7-5.5-1.7-8.4-1.7h-8.8v25.6h4.1v-10.8h2.4c3.3 0 4.5 1.2 7.6 6.8l2.3 4h5.1l-3.1-4.9c-3.3-5.3-4.6-6.1-6.1-6.6m-3.3-2.9h-5.1v-7.7h4.7c2.5 0 6.5 0 6.5 3.9.1 3.8-4.1 3.8-6.1 3.8m-107.7 43.2h-5.2c-1.7 0-1.7.5-1.7 1.9v47.5c0 1.3 0 1.7 1.5 1.7h5.3c1.5 0 2-.1 2-1.7v-47.5c0-1.6-.4-1.9-1.9-1.9m70.1 24c6.4-4.9 13.3-12.6 17.4-20.9.5-.9.5-1.3.5-2 0-.9-.5-1.1-1.7-1.1h-4.7c-1.7 0-2.5 0-3.1 1.5-2.8 8.5-10.1 17.6-17.4 22-.3.3-.4.5-.4.5 0 .3.1.4.1.5l17.6 25.2c.9 1.5 1.3 1.5 2.9 1.5h6.7c.3 0 1.3-.1 1.3-1.1 0-.5-.3-.8-.7-1.3zm-90.6-42.3h-4.8c-1.7 0-1.9.7-1.9 2.1v18c-3.1-1.6-6.1-2.7-10.8-2.7-15.3 0-23.2 14.5-23.2 26.6 0 18 10 26.9 25 26.9 7.3 0 17.7-3.6 17.7-6.9v-62c0-1.8-.5-2-2-2m-6.7 61.2c0 2.7-4.1 4-8.7 4-9.6 0-16.4-8-16.4-21.7 0-12 6.5-20 15.6-20 5.2 0 7.6 1.6 9.4 3.2v34.5zm-244.8-248c3.9 6.5 11.6-4.3 10.8-6.4-.6-1.9-14.6-.1-10.8 6.4m214.2 178.9c0-1.1-.1-2.9 3.9-2.9h5.6c1.3 0 8.3.1 10.8-.1 2.7-.3 2.9-3.1 2.9-6.7 0-5.3.4-66.3 0-73.7-.4-10.4 1.3-56-6.8-70.5-9.7-17.4-29.3-15.7-38.2-15-12 1.1-32.7 4-56 4.1-31.9.1-65.6-11.6-70.7-13-8.7-2.4-18.5-6.4-22.5-8.4-4.7-2.3-2.3-3.2-.3-4.3 10.4-5.2 19-10.6 24.4-19.4 4.1-6.7 2.5-8.8-2-5.1-.9.8-2.7 2.1-5.1 3.7-7.5 5.5-21.2 11.4-41.9 5.9-22.1-5.9-29.5-26.6-31.3-31.4-1.7-4.8-4.1-5.1-4.1 1.9 0 17.6 7.7 28.2 10.4 31.3s3.9 6 2.4 7.7c-2.9 3.6-7.1 8.5-8.1 11.6-.4.9-.1 2.9-.3 3.9-.5 3.9-4.5 7.9-9.3 14-2.8 3.5-1.1 7.2 1.2 9.7 2.8 3.1 5.7 7.1 6.9 7.7 4.1 2.4 7.3.7 11 1.9s9.3 2.8 13.2 9.7c5.6 10 11.7 25.6 22.5 38.5 4.8 5.7 4.8 16.1 4.8 19.7.3 30.2-15.6 58.3-25.7 76.4-2.4 4.3-1.9 7.9 1.3 7.9h16c6.7 0 3.7-3.7 5.2-6.3 1.1-1.7 4.7.5 5.2-5.7 0-1.1.1-2 .7-6 3.5-24.6 15.4-61.2 22.9-65.9 11 7.2 24.2 19.2 28.1 43.4 1.2 7.5 1.9 14 1.2 20.4-.8 6.9-1.3 10.1-2 12-2.1 6.5-.4 8 2.8 7.9h16.9c6.7 0 3.5-4 4.9-6 1.1-1.5 3.7-.5 3.2-4.3-4.1-21.4-15-39.7-20-60.8-3.5-15 5.6-24.5 13.2-26.8 12.1-3.6 28.6 2.4 30.7 3.6 2 1.1 2.1 1.6 3.7.3 13.7-11.3 20-5.7 20.4-5.5 1.6 1.5 2.7 9.4 2.8 11 1.9 37.3-36.1 73.2-42.7 81.3-2.9 3.6-1.3 7.2 1.6 7.2 2.5 0 15 0 17.6-.1 6.4-.3 3.1-3.9 4.7-5.9.9-1.2 3.1-.1 4.1-3.1 5.1-13.4 15.4-39.4 37.1-57 1.9-1.5 3.7-5.3 5.3-14 .7-3.3 1.3-5.7 2.3-8.5 12.2 15.8 13.7 44.2-6.9 81.6-2.1 3.9-.8 6.9 1.6 6.9 1.5 0 12.8.1 16.2 0 5.2 0 4.2-2.5 4.2-4.8m6.7-120.3c1.2-12.2.8-19.3.9-20.5.3-3.1 2.1-2.8 3.6 1.5 4.4 12.5 2.5 62.8 2.5 63.9 0 1.5-1.7 2.5-2.9 1.1-1.5-1.7-4.5-20.6-5.6-26.5-1.2-6.1.7-11.9 1.5-19.5m-36.1-41c3.3-.7 6.3.3 8 2.3 3.7 4.4 5.3 12.6 4.4 17.7-.5 3.3-5.5 4.8-6 1.2s-3.3-12-7.9-17c-2.6-2.9-1.7-3.5 1.5-4.2m-66.5 1.9c8.1.4 12 .8 17 .8 6 0 12.9-.3 15.6-.4 4.8-.4 7.9 1.1 9.4 4.8 1.5 3.6 6.9 18.6-2 22.8-11.4 5.3-27.9 6-36.2 3.6-3.1-.9-8-2-7.9-8.3 0-2.1.1-10.1-.7-17.2-.5-3.7-1.2-6.4 4.8-6.1m-36-.8c-.3-3.9.5-4 5.3-3.3 5.1.8 4.9 2.1 4.9 5.2.3 12.2-2.9 20.2-7.1 22.5-2.3 1.3-5.2.7-5.3-1.7 0-2 3.2-11.1 2.2-22.7m-60.8 27.9c-6.1-9.6-7.9-12.5-12.5-16.2-9.3-7.5-17.7-2.8-21.4-7.2-3.9-4.7-6.5-6.1-2.9-10.6 2.7-3.2 4.5-6.3 5.9-7.9 1.7-2.1 1.3-6.8 2.1-8.8.7-2 4.5-7.5 9.6-11.6 4.8-3.9 11.3 0 24.1 7.6 7.1 4.1 14.2 7.9 17.7 9.8 3.9 2.4.9 6.1-1.1 9.2-6.1 9.3-14.1 26.4-16.5 32.5-1.8 4.6-3 6.4-5 3.2m176.1 36.6c-8.5-5.3-18.1-9.3-31-10.5-27.7-2.5-43.1-.7-51.4 2.1-2.4.8-23.2 6.7-23.6 27.9-.1 6.3-1.9 5.7-4.8 3.5-10.2-7.9-20.8-15.2-34.9-23.6-6.8-4-12.6-9.7-14.8-13.4-3.5-6-8.1-15.2-2.8-29.4 2.5-7.1 8-18.1 12.1-24.1 6.7-9.8 6-10 18.9-5.9 11.6 3.7 11 5.2 11.2 10.8.1 7.5-.8 14.2-2.3 21-.8 3.6 1.5 7.7 6 7.9 18.2.5 18.6-24.8 18.6-24.8.4-5.9-1.9-7.1 4-6.5 4.4.4 5.2 4.1 5.7 10.8.3 2.5.1 12 .1 14.5s.3 9.3 9.2 11.8c14.8 4 35.4.8 43.8-4.1 4.9-2.9 8.1-6.3 7.5-13.4-.4-5.3-2-11.8-2.9-14.4-1.1-2.8-.9-4.7 1.3-4.9 11-1.5 16.1 10 20 24.2 1.2 4.5 7.6 4.3 10.8 1.2 3.1-3.1 4.9-7.9 2.7-16.9-.7-2.9-1.7-5.3-2.7-6.8-.8-1.3-1.1-2.5 2-2.5 20.2-.1 15.2 37.4 14.9 40.6-.3 4-2 12.6-2.9 16.6-3.5 16.7-12 10.1-14.7 8.3" fill="#fff"/></svg>