<?xml version="1.0" encoding="utf-8"?>
<!-- Generator: Adobe Illustrator 22.0.1, SVG Export Plug-In . SVG Version: 6.00 Build 0)  -->
<svg version="1.1" id="Layer_1" xmlns="http://www.w3.org/2000/svg" xmlns:xlink="http://www.w3.org/1999/xlink" x="0px" y="0px"
	 viewBox="0 0 996 534" style="enable-background:new 0 0 996 534;" xml:space="preserve">
<style type="text/css">
	.st0{opacity:0.8;}
	.st1{fill:#FFFFFF;}
	.st2{fill:#00A7E1;}
	.st3{opacity:0.5;}
	.st4{fill:none;stroke:#FFFFFF;stroke-width:0.766;stroke-miterlimit:10;}
	.st5{opacity:0.5;fill:none;stroke:#FFFFFF;stroke-width:0.766;stroke-miterlimit:10;}
	.st6{fill:none;stroke:#FFFFFF;stroke-width:0.766;stroke-miterlimit:10;stroke-dasharray:0.7663,0.7663;}
	.st7{fill:none;stroke:#FFFFFF;stroke-width:0.766;stroke-miterlimit:10;stroke-dasharray:0.7659,0.7659;}
	.st8{fill:none;stroke:#FFFFFF;stroke-width:0.766;stroke-miterlimit:10;stroke-dasharray:0.7655,0.7655;}
	.st9{fill:none;stroke:#FFFFFF;stroke-width:0.766;stroke-miterlimit:10;stroke-dasharray:0.7651,0.7651;}
</style>
<g>
	<g class="st0">
		<path class="st1" d="M159.8,209.7l44.6,0c4,0,5.6,1,7.8,4l10,13.5C222.1,227.2,204.5,214.6,159.8,209.7"/>
		<path class="st2" d="M380.9,315h-60c-25,0-36.7-4.9-48.9-20.9l-43.9-57.5h28.1c26.9,0,42,13.2,42,13.2l-23-31.4
			c-11.1-15.2-21.2-21.6-43.8-21.6H157c-16.1,0-22.9-2.1-31.8-14.1l-8.1-11h107.2c40.9,0,59.8,12.3,81.1,41.2L380.9,315z"/>
		<polygon class="st1" points="173.1,417.4 173.1,335.5 191.8,335.5 222.7,379.1 253.1,335.5 271.2,335.5 271.2,417.4 254.9,417.4 
			254.9,356.5 222.5,403 189.4,356.5 189.4,417.4 		"/>
		<polygon class="st1" points="467.7,335.5 484,335.5 484,424.8 467.7,404.4 		"/>
		<path class="st1" d="M374.4,335.5H397l18.9,25.6l20.3-25.6H459l-34,36.8l56.9,72.4h-9.5c-9.3,0-16.5-5.2-21.1-11.7
			c-8.7-12.3-37.4-48-37.4-48l-7.3,8.2c-13.3,15.1-33.6,26.2-63.4,26.2c-36,0-54.2-12.6-54.2-44.7c0-31.2,18.9-41.3,43.6-41.3
			c22.6,0,33.8,11.4,33.8,30.3c0,10.2-2.6,16.5-2.6,16.5l-58,0c1.3,17.2,12.4,25.5,37.2,25.5c23.8,0,42.3-10.2,54.5-24.3l7.2-8.3
			L374.4,335.5z M331.8,346.1c-18.7,0-24.5,10-25.4,21.4h43.3c0,0,0.7-1.8,0.7-4.9C350.3,350.2,341.9,346.1,331.8,346.1"/>
		<path class="st1" d="M577.7,339.9l-5.8,15c0,0-11-7-26-7c-17,0-29.3,6.8-29.3,28.1c0,20.9,10.5,29.6,31,29.6c18.5,0,29.5-8,29.5-8
			v15c0,0-8.8,6.7-30,6.7c-32,0-47-13.9-47-44.7c0-29.5,18.7-41.3,45.3-41.3C565.4,333.4,577.7,339.9,577.7,339.9"/>
		<path class="st1" d="M663,368.7l0,48.7h-16.3l0-12.7h-0.9c0,0-7.2,14.7-28.3,14.7c-21.1,0-29-12.6-29-26.5
			c0-14.2,7.8-22.2,7.8-22.2l50.3,0v-3c0-15.8-4.7-19.8-23.4-19.8c-16.1,0-27.2,6.4-27.2,6.4l-5.8-15c0,0,14.5-5.9,34-5.9
			C650.9,333.4,663,340.1,663,368.7 M620.9,406.5c15.8,0,25.8-9.8,25.8-23.1l-40.1,0c0,0-2.4,2.7-2.4,8.6
			C604.2,399.9,608.4,406.5,620.9,406.5"/>
		<polygon class="st1" points="684.3,417.4 684.3,335.5 703,335.5 749.4,393.8 749.4,335.5 765.7,335.5 765.7,417.4 749.4,417.4 
			700.6,356.5 700.6,417.4 		"/>
		<path class="st1" d="M857.1,368.7l0,48.7h-16.3l0-12.7h-0.9c0,0-7.2,14.7-28.3,14.7c-21.1,0-29-12.6-29-26.5
			c0-14.2,7.8-22.2,7.8-22.2l50.3,0v-3c0-15.8-4.7-19.8-23.4-19.8c-16.1,0-27.2,6.4-27.2,6.4l-5.8-15c0,0,14.5-5.9,34-5.9
			C845,333.4,857.1,340.1,857.1,368.7 M815,406.5c15.8,0,25.8-9.8,25.8-23.1l-40.1,0c0,0-2.4,2.7-2.4,8.6
			C798.4,399.9,802.6,406.5,815,406.5"/>
	</g>
	<g class="st3">
		<path class="st4" d="M159.8,209.7l44.6,0c4,0,5.6,1,7.8,4l10,13.5C222.1,227.2,204.5,214.6,159.8,209.7"/>
		<path class="st4" d="M380.9,315h-60c-25,0-36.7-4.9-48.9-20.9l-43.9-57.5h28.1c26.9,0,42,13.2,42,13.2l-23-31.4
			c-11.1-15.2-21.2-21.6-43.8-21.6H157c-16.1,0-22.9-2.1-31.8-14.1l-8.1-11h107.2c40.9,0,59.8,12.3,81.1,41.2L380.9,315z"/>
		<polygon class="st4" points="173.1,417.4 173.1,335.5 191.8,335.5 222.7,379.1 253.1,335.5 271.2,335.5 271.2,417.4 254.9,417.4 
			254.9,356.5 222.5,403 189.4,356.5 189.4,417.4 		"/>
		<polygon class="st4" points="467.7,335.5 484,335.5 484,424.8 467.7,404.4 		"/>
		<path class="st4" d="M374.4,335.5H397l18.9,25.6l20.3-25.6H459l-34,36.8l56.9,72.4h-9.5c-9.3,0-16.5-5.2-21.1-11.7
			c-8.7-12.3-37.4-48-37.4-48l-7.3,8.2c-13.3,15.1-33.6,26.2-63.4,26.2c-36,0-54.2-12.6-54.2-44.7c0-31.2,18.9-41.3,43.6-41.3
			c22.6,0,33.8,11.4,33.8,30.3c0,10.2-2.6,16.5-2.6,16.5l-58,0c1.3,17.2,12.4,25.5,37.2,25.5c23.8,0,42.3-10.2,54.5-24.3l7.2-8.3
			L374.4,335.5z M331.8,346.1c-18.7,0-24.5,10-25.4,21.4h43.3c0,0,0.7-1.8,0.7-4.9C350.3,350.2,341.9,346.1,331.8,346.1"/>
		<path class="st4" d="M577.7,339.9l-5.8,15c0,0-11-7-26-7c-17,0-29.3,6.8-29.3,28.1c0,20.9,10.5,29.6,31,29.6c18.5,0,29.5-8,29.5-8
			v15c0,0-8.8,6.7-30,6.7c-32,0-47-13.9-47-44.7c0-29.5,18.7-41.3,45.3-41.3C565.4,333.4,577.7,339.9,577.7,339.9"/>
		<path class="st4" d="M663,368.7l0,48.7h-16.3l0-12.7h-0.9c0,0-7.2,14.7-28.3,14.7c-21.1,0-29-12.6-29-26.5
			c0-14.2,7.8-22.2,7.8-22.2l50.3,0v-3c0-15.8-4.7-19.8-23.4-19.8c-16.1,0-27.2,6.4-27.2,6.4l-5.8-15c0,0,14.5-5.9,34-5.9
			C650.9,333.4,663,340.1,663,368.7 M620.9,406.5c15.8,0,25.8-9.8,25.8-23.1l-40.1,0c0,0-2.4,2.7-2.4,8.6
			C604.2,399.9,608.4,406.5,620.9,406.5"/>
		<polygon class="st4" points="684.3,417.4 684.3,335.5 703,335.5 749.4,393.8 749.4,335.5 765.7,335.5 765.7,417.4 749.4,417.4 
			700.6,356.5 700.6,417.4 		"/>
		<path class="st4" d="M857.1,368.7l0,48.7h-16.3l0-12.7h-0.9c0,0-7.2,14.7-28.3,14.7c-21.1,0-29-12.6-29-26.5
			c0-14.2,7.8-22.2,7.8-22.2l50.3,0v-3c0-15.8-4.7-19.8-23.4-19.8c-16.1,0-27.2,6.4-27.2,6.4l-5.8-15c0,0,14.5-5.9,34-5.9
			C845,333.4,857.1,340.1,857.1,368.7 M815,406.5c15.8,0,25.8-9.8,25.8-23.1l-40.1,0c0,0-2.4,2.7-2.4,8.6
			C798.4,399.9,802.6,406.5,815,406.5"/>
	</g>
	<line class="st5" x1="74.7" y1="171.7" x2="998.7" y2="171.7"/>
	<line class="st5" x1="74.7" y1="315" x2="998.7" y2="315"/>
	<line class="st5" x1="74.7" y1="335.5" x2="998.7" y2="335.5"/>
	<line class="st5" x1="2.1" y1="417.4" x2="998.7" y2="417.4"/>
	<line class="st5" x1="74.7" y1="444.7" x2="998.7" y2="444.7"/>
	<line class="st5" x1="484" y1="296.6" x2="484" y2="462"/>
	<line class="st5" x1="467.7" y1="296.6" x2="467.7" y2="462"/>
	<line class="st5" x1="271.2" y1="296.6" x2="271.2" y2="462"/>
	<line class="st5" x1="254.9" y1="296.6" x2="254.9" y2="462"/>
	<line class="st5" x1="189.4" y1="296.6" x2="189.4" y2="462"/>
	<line class="st5" x1="173.1" y1="14.3" x2="173.1" y2="516.9"/>
	<line class="st5" x1="117.1" y1="14.3" x2="117.1" y2="516.9"/>
	<line class="st5" x1="857.1" y1="96.5" x2="857.1" y2="516.9"/>
	<line class="st5" x1="663" y1="296.6" x2="663" y2="462"/>
	<line class="st5" x1="646.7" y1="296.6" x2="646.7" y2="462"/>
	<line class="st5" x1="700.6" y1="296.6" x2="700.6" y2="462"/>
	<line class="st5" x1="684.3" y1="296.6" x2="684.3" y2="462"/>
	<line class="st5" x1="765.7" y1="296.6" x2="765.7" y2="462"/>
	<line class="st5" x1="749.4" y1="296.6" x2="749.4" y2="462"/>
	<line class="st5" x1="840.8" y1="296.6" x2="840.8" y2="462"/>
	<g class="st3">
		<g>
			<line class="st4" x1="849.3" y1="519.7" x2="849.1" y2="519.4"/>
			<line class="st6" x1="848.6" y1="518.8" x2="448.6" y2="14.9"/>
			<line class="st4" x1="448.4" y1="14.6" x2="448.1" y2="14.3"/>
		</g>
	</g>
	<g class="st3">
		<g>
			<line class="st4" x1="535.5" y1="519.7" x2="535.3" y2="519.4"/>
			<line class="st7" x1="534.8" y1="518.8" x2="155.4" y2="14.9"/>
			<line class="st4" x1="155.1" y1="14.6" x2="154.9" y2="14.3"/>
		</g>
	</g>
	<g class="st3">
		<g>
			<line class="st4" x1="441.8" y1="519.7" x2="441.5" y2="519.4"/>
			<line class="st7" x1="441.1" y1="518.8" x2="61.6" y2="14.9"/>
			<line class="st4" x1="61.4" y1="14.6" x2="61.2" y2="14.3"/>
		</g>
	</g>
	<g class="st3">
		<g>
			<line class="st4" x1="538.9" y1="496.7" x2="538.7" y2="496.4"/>
			<line class="st8" x1="538.2" y1="495.8" x2="180.1" y2="20.3"/>
			<line class="st4" x1="179.9" y1="20" x2="179.7" y2="19.7"/>
		</g>
	</g>
	<g class="st3">
		<g>
			<line class="st4" x1="293.7" y1="519.7" x2="293.9" y2="519.4"/>
			<line class="st7" x1="294.4" y1="518.8" x2="683.8" y2="14.9"/>
			<line class="st4" x1="684.1" y1="14.6" x2="684.3" y2="14.3"/>
		</g>
	</g>
	
		<ellipse transform="matrix(0.2489 -0.9685 0.9685 0.2489 -56.3809 271.0392)" class="st5" cx="146.6" cy="171.9" rx="23.4" ry="23.4"/>
	<circle class="st5" cx="314.3" cy="261.7" r="53.3"/>
	<circle class="st5" cx="238.2" cy="243.6" r="71.3"/>
	<circle class="st5" cx="236.4" cy="243.3" r="46.9"/>
	<circle class="st5" cx="156.1" cy="347" r="137.4"/>
	<g class="st3">
		<g>
			<line class="st4" x1="319.1" y1="519.7" x2="318.9" y2="519.4"/>
			<line class="st9" x1="318.4" y1="518.7" x2="66.3" y2="150.4"/>
			<line class="st4" x1="66.1" y1="150.1" x2="65.8" y2="149.7"/>
		</g>
	</g>
	<line class="st5" x1="176.9" y1="496.7" x2="477.8" y2="496.7"/>
	<line class="st5" x1="277.8" y1="367.6" x2="378.9" y2="367.6"/>
	<line class="st5" x1="277.8" y1="380.1" x2="378.9" y2="380.1"/>
	<line class="st5" x1="577.7" y1="370.1" x2="678.9" y2="370.1"/>
	<line class="st5" x1="577.7" y1="382.7" x2="678.9" y2="382.7"/>
	<line class="st5" x1="775" y1="370.1" x2="876.2" y2="370.1"/>
	<line class="st5" x1="775" y1="382.7" x2="876.2" y2="382.7"/>
	<line class="st5" x1="874" y1="254.4" x2="874" y2="351.3"/>
</g>
</svg>
