<svg enable-background="new 0 0 996 534" viewBox="0 0 996 534" xmlns="http://www.w3.org/2000/svg"><g fill="#fff"><path d="m406.1 269.8s7-.2 7.2-8c0 0 0-17.4-16.1-17.4 0 0-15.9-.7-26.3 18.8-9.2 0-19.4 0-20.9-.3 0 0-1-9.2-8-8.2 0 0-11.4 3.5-3.2 13.7 0 0 1 1.3 3.2 2 0 0 6.7 11.7-3.9 17.4 0 0-10.9 7-10.7-17.6 0 0 .5-64.9-1.5-79.8 0 0-.8-8.2-9.7-12.9 0 0-3.7-2.2-3.9 2.4l-.5 101.4s-.6 8.2 6.3 12.4c0 0 17.3 14.6 32.4-4.5 0 0 5.3-8.6 1.3-19.1l16.9-.1c-.5 1.6-.7 3.4-.9 5.3 0 0-2.8 23.7 20.7 22.9 0 0 15.4 0 22.6-16.9 0 0 1.5-6.5-4.5-1 0 0-8.9 14.2-20.2 6.5 0 0-5.9-5.7-4.3-16.8zm-19.6-13.4s6.5-8.9 12-7c0 0 7.4 3.2 3.5 11.5 0 0 .2 3.2-16.1 2.2 0 0-.9 0-2.3 0 .6-2.1 1.5-4.3 2.9-6.7z"/><path d="m484.3 176.2c-2.9-.2-12.3.1-12.5 12.1l.3 69.5c-2.4 6.8-11.4 25.5-24.7 29.9 0 0-16.9 5.5-14.2-15.2 0 0 .5-11.5 10-21.4 0 0 7.4-6.6 7.7 3.5v3.2s-3.9 1.5-2.2 5.5c0 0 3.2 8.4 7.7 5.1 0 0 1.5-1.4 1.7-3.2 1-4.4 2.1-13.2-3.7-18.6 0 0-14.5-11.7-31.3 10.2 0 0-16.1 27.6 7 37.6 0 0 23.3 8.9 42.1-20.5l.1 20s-1 1.7 3.9 1.3c0 0 7.7.2 8.7-4.8v-14.3c.6 1.2 2 2.2 4.6 2.9 0 0 7 2.6 15.1-1.2 6.3 3.9 5.3 13.6 5.3 13.6.7 6.5 0 87.5.2 99.2s10.9 16.4 10.9 16.4c4.2 2.4 3.9-2.6 3.9-2.6l-1.5-104.9c-.1-17.2-8.7-23-14-24.8 1.3-1 3.1-2.3 4.4-3.8 0 0 16.6-16.8-5.3-27.7 0 0-11-4.5-23.8 7.1l.1-73c.4-1.1-.5-1.1-.5-1.1zm9.8 93.9s-4.5 0-7.2 1.5c-.8.5-1.5 1.2-2 2v-13.3c4.8-4.3 9.5-7.3 13.3-7.3 0 0 8.7-.5 8.9 8.5.2-.1.2 10.1-13 8.6z"/><path d="m296.8 283.8c-.8-5.9 0-92.5 0-92.5s0-7.3-5.3-11.6c0 0-4.6-5-7-.3 0 0 0 38.5.2 71.4l-.2-.1s-19.6-13.6-37.8 6.6c0 0-9.6 11.3-7.1 23.2-2.1 2.3-6.4 6.5-7.8 2.3 0 0-2-11.8-8.9-12.3 0 0-3.2-1.5-9.6 7 0 0-3 3.6-3.4-2.7 0 0 .3-12.9-9.6-12 0 0-5.3-.7-16.2 15.9 0 0-5.9 6.3-7-1.6 0 0 .3-25.2-10.9-15.2 0 0-9.3 10.3-16.2 18.2 0 0-4.6 3.9-5.3-3.4 0 0 0-29.1-8.6-29.1 0 0-8-2.7-14.6 26.6 0 0-1.3 17.5-14.3 15 0 0-23.3-4.1-47.5-5.3.9-1.6 1.7-3.4 2.4-5.2 0 0 7-15.9 6.6-38.2 0 0-.7-112.6-4.6-124.2 0 0-2-7-7-4.3 0 0-8.2-.7-7 50 0 0 1 78.5 2 96.1 0 0 1.9 17.1-2.9 25.4-11.7-.1-22.3-.3-30.6 3.1 0 0-11.7 6.4-.3 11.3 0 0 19 4.6 32.7-4.6 8.2 2.3 25.4 4.3 59.4 6.3 12.2.7 14.6-10.3 14.6-10.3 5.5-13.8 6.6-2.7 6.6-2.7-.3 13.6 4.6 14.6 4.6 14.6 5.7 4.3 19.3-12.6 19.3-12.6 8-12.3 8-5.3 8-5.3-.7 12.3 6.6 15 6.6 15 8.9 3.4 18.6-13 18.6-13 7.3-12.5 8.4-7 8.4-7-.3 7.9.3 15.9.3 15.9 2.7 12.3 16.6-3.9 16.6-3.9 3.9-6.3 4.6-3.6 4.6-3.6 2.3 9.6 8.9 9.6 8.9 9.6 5.8.2 11.4-6.6 14-10.4.8 1.4 1.7 2.8 2.9 4.2 0 0 12 14.3 28.2 4.3 0 0 6.2-4.5 12.4-13.6 0 4.8.1 8.7.2 11.5 0 0 1.7 9.2 9.6 2.7 0 0 2-.7 2.4-5.6.2-.3.2-1.8-.4-5.6zm-21.3-5c-16.6 14.3-21.2-.7-21.2-.7-2.3-20.9 20.5-23.2 20.5-23.2 3.9-.5 7.4 1.2 9.9 3v8.2c-5.2 10.5-9.2 12.7-9.2 12.7z"/><path d="m184.7 335s70.3-3 201.9 0c0 0 8.9 0 12.9 5.7 0 0-48 2-203.6 8.6 0 0-30.9-.7-20.2-10.9 0 0 3-2.7 9-3.4z"/></g><path d="m789.4 69.7c7 8.4 8.9 18.7 10.1 29.4 1 5.2 3.4 10 6.2 14.5 1.7 6 3.2 12.5 9.5 16.2 1.9 2 3.1 5.1 6 5.6l5.3 1.6c2.9.2 5 .2 7.8.2l.3.3c6.5-.8 13.2 0 18.8-3.2 2.6-.9 5.8-.1 8-2 3.9.2 9.2 2.1 11.4-2.1 1.7-1.5 3.8-2.4 5.9-2.3 3.7-1.2 7-3.6 10.9-4.1 6.3-2.9 12.8-5.5 19-8.7.8-.2 1.4-.8 2.4-.6 3.9-1.2 7.2-3.9 10.4-6.6 5.5-4.3 13.2-2.9 18.7-7.1 2-1.3 4.4-.3 6.7-.8 4.3-.3 7-4.5 11.7-3.9 6.4 0 14.3-3.1 19.4 2.1 2.1 2 3.7 4.3 4.5 7 .9 6.2-4.4 10.1-5.7 15.6-3 6-11.1 6-12.5 12.6-2.8 3.2-7 4.3-9.4 7.5-6.5 6-14.5 8.1-21.6 13-3.1 3.4-7 5.9-10.9 7.5-2.3 2-3.7 4.4-5.8 6.6-5.8 3.7-13 4.8-17.6 10.8h-.3c-2.9 4.4-8 4.8-10.8 9.1-3.5 1.7-6.4 4.5-8.4 7.9-2.3 3.5-7 3.4-8.4 7.5-1.3 2.4-5.8 2.9-4.9 6.3.7 2.3-1.7 3.8-2.9 5.5.3 1.2.7 2.2.1 3.4l.6 6.3c-.1.3-.5.5-.3.8 1.7 1.5 4.3 1.5 5.5 3.9.6 5.2 7 4.1 8.7 8.8 2.4 3.5 2.8 7.9 5.9 11 .8 3 1.9 6.3 4.9 8 2.4 3.5 4.6 7.1 6.7 10.7 1.6 1.7 3.6 2.3 5.3 3.7 5.7 5.7 8 12.9 13.7 18.5 2.2 3 6 5.5 7 9.4 2 3.5 4.5 6.6 5.5 10.4 2.2 1.4 3.5 3.6 4.1 5.9 4.9 2.8 4.4 9.1 8 12.9 2.9 2.9 5 6 5.8 9.6 4.6 4.5 6.4 10.3 5.9 16.7 0 5.3 5.1 8.7 4.6 14.3 1.2 2.7 1.2 6.4 0 9.1-2.4 1.9-1.6 5-2.8 7.3-2.1 4.2-5.8 9.2-10.8 9.6-4.1.1-8 .7-11.4 2.4-5 0-9.2-2-13-4.6-3.1-1.7-4.9-5.7-8.4-6.6-1.9-2.1-2.7-4.9-5.1-6.6-1.6-2.9-4.9-4.5-6.7-7.4-4.9-5.5-7.7-11.8-14-16.4-4.5-4.4-6.7-10.1-11.4-14.6-4.2-3.7-8.7-8.2-10.8-13.3-4.6-5.5-11.1-8.2-15-14.4-1.3-1.4-2.9-2.2-4.5-2.7-2.8-4.9-7.9-7.9-11.7-11.7-1.2-.5-2.3-.9-3.5-1.3-3.1-4.8-8.1-4.6-11.7-8-1.5-.5-2.8-1.4-4.1-2.4-3-.5-6.8-.5-8.2-3.7-1.2-.5-3.4.5-4.1-1.5-1.2.1-2.1.8-3 1.5-4.8-2.6-6.3 4.5-10.7 4.3-1.9.5-3.7 1-5.7 1.3-2.9 1.5-5.5 3.7-8.5 4.6-2.1 1.6-2.7 3.7-3.6 5.9-3.5 6.6-7.9 13.5-14.5 18-3.5 5.3-10.1 8.7-11.6 15-1.7 3.7-4.9 7-7.8 10.3-1.4 2-3.7 2.3-5.7 3.5-3.8 8.7-12 15.1-18 22.6l-2.8 2.4c.1 1.6 0 3.5-1.4 4.8-6.3 7.5-13.5 13.8-18.2 22.1-2 1.4-5.2 2.7-4.3 5.9-.8 4.3-4.9 7.1-8 10.1-.8 3.7-3.7 6-5.8 9.2-3.6 4.5-7 10.1-12.4 12.9-1.5 3.2-6.6 3.5-6.3 7.5-2.3 4.4-5.3 8.9-10 11.3-3.5 3.2-7.1 6.2-11.4 7.4-2.3-1-3.4 2-5.3 2.2-4.6-2.6-8.4 3.9-12.3-.7-2.1-.6-4.1-1.4-5.9-2.4-5.1-6.3-5.3-15.7-2.2-22.9.1-3.7 2.7-6.8 3.4-10.7.7-2.4 2.9-4.3 4.3-6.4.9-2.1 1.4-4.4 2.9-6.3 1.2-3 2.1-6 4.1-8.7 1.6-3 1.3-6.8 3.4-9.6 4.4-5.1 6.6-11 8.9-17.1 2-2.7 4.8-5 6.3-8 2.9-8.4 11.4-14.4 16.1-21.9 3.7-3.7 5.8-8.1 7.8-12.5 3.4-6 10.2-9.9 12.1-16.5 4.5-5.9 9.7-11.8 12.9-18.5 1.2-2.8 3.5-4.9 4.1-7.9.1-6.8 5.8-11.4 7.1-17.6 2.7-7.1 3.8-14.7 9.4-20.5.3-4.4 4.5-7.4 3.9-12.1-.9-2-3.1-2.6-4.6-4.2-2.9-2.9-6.5-5.3-10.8-5-1.3-.5-2.7-.7-4.2-.8-5.9-2.4-12.2-3.6-18.2-5.8-3.2-2.1-7-3.8-9.2-7.4l-4.1-3.2c-6.8.9-11.5-4.8-18.3-4.3-7.7-1.9-15.3-3.8-22.5-6.6-4.1-4.4-10.7-3.2-13.8-8.9-2.8-1.6-6.5-2.6-7.8-6.2-.8-1.2-.7-2.9-.5-4.3 1.5-2.9 4.1-4.8 6.5-7.1 2.4-2 5.5-1.4 8.6-1.7 8.7-1 18.5-1.6 26.7-4.5 3.9-.6 8.7-1 12.4-.2 4.8.7 10.3-.6 15-.5 3.4-.1 6.6-.3 9.9.1 4.4-.2 8.7-.7 12.9-1.4 5.3 1.3 10.9.3 15.4-2.1 4.8-1.7 10.1-2 14.9-3.8 2.3-3.5 5.8-5.5 9.6-5.9 1.7-2.9 4.6-3.5 7.1-5.3 1.7-2.8 4.9-4.9 7-7.2.3-2.4.5-5.5 1.7-7.7 5.8-4.3 3-12.1 6.7-17.3 1.4-4.4 2.6-8.9 5.3-12.9 1.2-1.7-.2-4.3.5-6.4 1.5-3.4 5.1-5.8 6.4-9.3.3-2-.6-4.2.2-6.2 1.4-6.5 3.6-12.9 9.5-17.2 3.1-2.3 6-6.2 10.7-4.2 2.5.9 5.1.5 7.1 2.1z" fill="#de902f"/><path d="m624.7 453.4c-.3-.9 1.5-.8.5-1.6-1.9-.5-4.6 4.5-5.1.2-1-.6-2-.2-2.9-.5-.8.2-.9 1.5-1.9 1.5-2.8 1.2-2.9-3.1-4.9-3.2.6.5.3 1.5.1 2.1-.2.3-.6.6-1.2.5-.5-.9-1.9-1.4-1.2-2.7.8-.3.3-1.3.9-1.6-.3-.7-1.6-.2-1.7-1.3-.1-2.4 1.2-4.6-.6-6.6 0-1.2-.3-2.3.6-3.1 1.6.2.1-1.7 1.3-2.2-.2-1.6-1-3.2-.5-5 .9-.9 1.9-2.3 3.4-1.6 1.5-.6-.2-1.5-.3-2.2 2.3-1.4.3-4.1 1.2-6.4.9-1.3 1-3.1 2.9-3.5.5 0 1 .5 1.5.3 2-1.2.6-3.1 2.4-4.3-.8-1.2-.3-2.4-.5-3.7.7-.6 1.2-1.4 2.1-1.3.5.9 1.6.5 2.2 1.3.6-.8 1.5.2 1.7-.8 1.2-.5 2.1-.7 2.9-1.7.5-2-2.7-1.9-1.7-3.8.2-.9.7-1.6 1.6-1.9 1.2-.2 1.4 1.6 2.4 1.2 1.4 0-.6-1.2-.2-2-1.5-.7-2.6-1.9-3-3.4.7-1 .5-2.6 1.4-3.5-.7-.9-.1-1.6.3-2.4 1.9-1.3 4.1-.8 5.5-2.7.5 0 .7.1.9.5.2 1.3-.9 2.3 0 3.4 0 .3-.1.7.1 1 .6-.2.9-1.2 1.6-1-.9-1.6-1-3.4-.5-5.1 0-.2-.5-.9-.8-.5-.3.3-.9.6-1.6.5-.7-.2-.8-1-.8-1.7 1.7-.7 2.3-3.7 4.5-2.6l.8.6c.3-.6.1-1.3.2-2-1.3-.3-.1-2.3-1.7-1.7-.9-.8-.3-2.1-.5-3.2 1.2-.7 1-2 2.4-2.2 2-1.4 2-3.9 2-5.9.6-1.2 1.9-2.4 3.2-2.6.3.2.8.3 1.3.3 2-.9-1-1.7.2-3 1-1 2.2-3.2 4.1-2.6.6 1 1.9 1.5 1.2 2.9-.5 1.4-1.6 0-2.1 1.2.3.7 1.2 1.3 2 1 .9-.7 1.2-1.6 1.3-2.6-.8-1.6-1.2-3.5-1.6-5.3.8-1.2 2.7-2.2 2.6-3.8 1.6-1 3.5-1.9 4.2-3.5.7-1.2 2.3.3 2.4-1.5-.8-.5-.3-1.6-1.2-2.1 0-2.3.9-4.4 2.6-5.9 1.2 0 2.3.5 2.9 1.6 0 .2-.1.6.1.7 1 0 .6-1.2 1.2-1.6-.3-2.6.3-5.6 2-7.8.9-1.6 3.6-.6 3.7-2.9-.6-.5-.2-1.3.1-1.7.5-.5 1-.6 1.6-.5-.9 1.9 1.5 3.6-.8 5l-1.5-.9c-.2.3-.1 1-.1 1.5 1 1.5 2.1-.8 3.5-.3.9-.6 1.7-.1 2.6-.8.2-.7 1-1.2.5-1.7-.5.3-.9.6-1.6.5-.8-1-.3-1.9-.9-2.9.2-.7.7-1 1.3-1.4 1.3.2 2-1.5 2.8-2.3-.6-.5-1.6.2-1.7-.6-.1-.7.1-1.2.6-1.6-.7-.8.6-.5.8-.9.7-.6 1.3-1.6 2.4-1.4.5.5 1 .8.8 1.6-.3 1.2-2.6.9-2.1 2.4.7-.6 1.7-.1 2.2-1.2 0-.6 0-1.5.6-1.5h.1c0-1.5-.8-3.6.2-5.1 1.5-.9 2.9-2.6 4.1-3.8.8-1.4 2.3 0 2.9-1.7v-.3c-.7-.2-1.6.5-2.4 0-1.2-2 1.7-2.9.9-5 .9-.6 2.1-3.2 3.4-1.3 2.9-1.9 2.2-5.3 4.9-7.3l2.6-2.4c.2-.8-.6-.8-.9-1.2-.8.2-2 .8-2.8.1-.6-.9-1-2.2-.6-3.4.7-.6 1.7-.7 1.7-1.7-.6-1.7.9-3.1 2-4.5.7.2.9-.7 1.4-.8 1 .1 2 .9 2.3 2-.7 1.9-2.3 2.1-3.2 3.6-.1.6 0 1.2.6 1.6 1.4-.8 1-2.6 2.4-3.2l.9-4.5c-.6-.5-.9 0-1.6 0-.8-1-2.7-1.5-2.4-3.1.3-.8.3-1.9 1.4-2.1.3 0 .6 0 .8.3-.5.6-.5 1.2.1 1.7l.3.3c.6-1.2.1-2.6.9-3.6.9-.3 1.6-1.5 2.8-1.3 1.3-1 2.7-2.3 2.7-4.1 1.7-1.7-.6-3.4-1.2-4.9.8-1.7 0-4.1 1.6-5.5 0-1.2.3-2.3.9-3.4.7-.3 1.9-1.4 2.6-.3 1 2.1-.6 4.4-1.2 6.4-.3.8.6 1.3.9 2 .8-.1.3-1.2.9-1.5.7-.5 1.2-.9 1.6-1.6.2-1.2-.2-1.6-.3-2.7-1.7-.7-.1-2.6-1.3-3.5.6-2.2-1.5-3.7-1.2-6.2-.9-.8-.9-2.2-.7-3.4.6-2.6 4.4-.6 4.1-3.8.3-1.5-1.4-1.3-2-2.4-.7-.9-1.6-1.7-1.4-2.9.2-.3 1.3-.3.8-.9.1-.9-.8-1.4-1.2-2.1-2.1-.8-3.8 1.4-5.9.1-.6-.6-1.7 0-2-1.2-.8-1.5 1.7-2.6-.3-3.5-1-.6-2.6 1-3.4-.3-.9-.7-1.5.3-2.2.8-1.3-.6-2.6.5-3.7 0-2.7-1.6-6.6-.3-8.6-3.7-1.5-.1-2.7-1-4.2-1-1.4-1.6 1.2-2.9.6-4.5-1.4-1.9-3 .9-4.3-.5-.6-.6-.7-1.4-1.3-2-1.7.3-3.8 1.4-5.7.3-.6-1-1.4-2.1-1.4-3.4-1.5-3.1-5.2 1.5-6.8-2.1-2.1-.7-3.2 2-5.5 1.4-1.6-.7-2.7-2.3-4.9-1.4-2.1.6-3.5-1.7-5.8-1.2-2-.6-1-4.6-4.1-2.9-1.7 1.2-4.3 1.4-6.4.8-1.2-1.3-1.9-4.5-4.3-3.5-2.6 1.7-6.4 2.1-9.4 1.2-1-2-4.5-1.2-4.4-3.9 0-1.3-1.2-1.7-2.3-1.3-.6.7-1.4.7-2.2.6-.7-1.4-2.6-1.9-3.8-2.6-1.3.8-2.6-.5-3.2-1.4 0-1.5-1-2.7-2.4-3.2-.3-1-.1-2.2.7-3 1.7-1.9 2.1 1.4 3.8.9.2 2.3 3.9 2.1 2.7 4.8 1 1 2 3 3.6 2l.3-.3c-2.8-.6-1.5-4.2-3.7-5.1-2.9.2-2.3-3.5-5-3.8-.3-.3-.6-1.2-1.3-.8-1 .5-1.3 2.4-2.6 1.7-.8-.7-.5-2-.3-2.9.6-1.2 2-.9 3-1.4 1.2-.5 0-1.4.3-2 .9-.6 1.4-1.5 2.4-2 1.5.5 3 1.6 4.4 0 1.2 0 2-.9 3-1.2 3.7-1.2 7.8-3 11.7-.9 2.9-.6 7-3 9.4 0 1.3-.1 2.1.7 2.4 1.7.2.3 0 1 .6 1.2 3.1.5 3.2-3.6 6.2-3.7 2.3-.2 4.5-1.3 6.3.9 4.3.7 6.2-4.9 10.3-4.6 3.1-.6 5.2 3.2 8.4.9 1.6-.8 3.6-1.5 5.3-.9 1.3.1 2.4.9 3.2 2 0 .7.3 1.4.9 1.7 3.9 1.4 5.9-2.8 9.9-1.3 2.8-.7 2.3 4.9 5.1 1.7.2-1.2 0-2.7 1.4-2.9 2.2-.3 4.6-.8 6.6.3 5.8-.3 9.5-5.9 15-7.1 4.3.3 8.4-.7 10.9-4.2 1-2.9.1-7 3.8-8.6 2.3-1.5 6.4.5 7.9-2.2-.1-1.5-3-1.5-2.1-3.4.8-1.3 2.3-1.4 3.7-.8.6.7 1.4 1.2 2.3 1.3.8-1.4-.8-2.7-.5-4.3 1-2.3 2.9-5.3 5.8-5.5.8-.6 1.3-1.9.8-2.9-.8-1.2-1.7-2.4-1.3-3.9.7-2.9 4.8-4.5 3.2-8.1-.8-4.8 1.7-8.9 4.6-12.5.6-3.5.7-7.2 2.1-10.3 2.7-2.9 2-7.2 4.3-10.3.5-4.3.9-8.9 2.1-13 2.1-2.7 5-4.8 5.5-8.1 2.8-2.3 5.6-5.1 8.8-6.4 3-.6 5.1 2.3 8 1.6 1.3.3 2.8 1 3.4 2.4 0 1.2 1.6 1.5 1.6 2.8.6 2.6-.3 5-.5 7.5.7.5 1.7.8 2 1.7 1.9 2.9-2.9 2.9-1.6 5.7 2.2 2 1.6 4.8 1.3 7.4-.5.2-.3.7-.8 1 .7.3 1.4.6 2 1.3 0-1.4 1-1.7 2-2.4.8-.1 1.4.2 1.6.9 0 1.2 0 2.4-.8 3.2-.7.5-1.4.5-2.1 0-.5-.2-.2-.7-.7-.6.9 3.4-4.6 3.5-3 6.6 1.6-.5 2.2.6 3 1.6 0 .3-.1.8.2 1.2.5-.7 1-2 2.1-1.4.8.3.5 1.4.5 1.7-.6.5-1.4 1.2-2.3.7-.6 2.1-3.2 1.6-3.7 3.5 2 .1 3.1-1.7 4.6-2.9 2.6.3 3-3.4 5.7-1.6 1.4 1-.2 5.1 2.6 4.2 2.8.5 3.1 3.6 3.6 5.9-1.2 1.3-1 3-.3 4.3.8 1.5 2.7.9 3.4 2.4 1.9-.6.1 0 1 .8-.1 1.6.2 3.2-.5 4.6l.1 1.7c1.7-.2 4.3-.6 5.6 1.2.7-.3.8.8 1.3 1.2.1 1 .6 2.1.1 3.2-.6 1.4-3.1 1.3-2.4 2.9 3.8.1 2-6.5 6.6-5 1.7 1.4 3.8 4.3 6.3 3 .8-1 2-2.1 3.2-2.4 2.2.8 4.9 1.4 7 0 2.6-.5 4.4 1.4 7 .7 2.2-1.7 5.7-2.9 8.2-1.5 3.9.2 6.6-2.9 10.2-3.4 1.6 1.2 3.1-.7 4.2 1.2 3.9-1.7 2.7-4.3 5.6-3.8 1.5-1.2 3.7 2.6 3.2-.9.8 0 1.7-.8 2.4 0-.2.5-.2 1.2 0 1.6 1.5-.6 2.1-2 3.5-2.9 1-.3 2.1-1.2 3.4-.7.1 1.2 1.6.2 1.7 1.5 1.6-.6.9-2.6 1.7-3.7.7-.8 1.2-1.9 2.2-2.2.8-.1 1.9.2 1.7 1.2v.5c-.9.7-1.5 1.9-2.4 2.6 1 .3 1.7-1.2 2.7-1.4 2.6-1.4 2.4-6.4 6.2-5.1.5.7 1 1.6 2 1.4 1.6-.7 1.2-4.1 3.8-3.2.8.3.2 2.1 1.6 2 .7-.2 1.5 0 2-.8-.2-1.9 0-3.8 2-4.5 1.4-.6 2.6 0 4.1-.5 1.5-2.3 3.8-2.9 6.3-2.6-.3-2 2.3-2 2.6-3.7.8-.3 1.7 0 2.4.5 1.3-1 .6-3.4 2.6-3.5 1.9 1.3 2.3-1.7 3.9-.5.1.8-1 1.2-1.2 2 .8.2 1.9-.2 2.6-.9.6-2.6 4.9-4.1 7.7-4.4 3.2-1.2 5.9-1.7 8.8-3.1 1.9-.2 2.9 1.7 4.8 1 1.4-1.3 3.2-1.4 5.2-1.3 2.2 0 2.7 3.7 5.2 2.4.7-.3 1.4.7 2 1.2l-.7.9c.7.6 1.7.6 2.1 1.6-.2.7-.1 1.9-1.2 2-.9.2-2.8 1.2-3.6 2 .8 1.2 2.6.6 3.7.5.5-.3 1-3.1 2-2.9 3.5 2.6-4.1 5.5.9 7.4 1.3.9.3 2.6 0 3.7.2 1.4-2.4 1.4-1.3 2.9.6.7-1.3 2.6-1.6 3.5-.6.8-1.2 1.4-2.1 1.7 1 .3 1 1.4.3 2.1-.1.2-.5.1-.7.1-.3-.3-.5-.8-.5-1.3.1-.2 2.6-1 2.6-1.4-.7-.3-3.6.7-4.1 1.4.3.6 1.9 1.5 1.7 2-.1.3-1.2 2.1-2.4 2.4-.7.3-1.5-.8-2 .3-.1 4.9-3.5 3.2-5.9 6-2.3 2-5.2-1.9-7.4.8-1.2 2.3-3.2 2.8-5.3 3.5-1.4 1 .1 3.1-1.3 4.2-2.3 2.7-6.6-1.4-8 2.2.6.3 1.6 0 1.6.9-.1 1.4-.7 3-2.1 3.7-1.5.6-3.1 1.3-4.1 2.6-1.2.9-3 .1-3.7 1.7-1.6 1.6-6.7-.9-5.3 3.4-.9 1.2-2.8 1.6-3.2 3.4-.9.8-2.2 1.2-3.4.8-.5-.1-.8-.8-1.3-1.2-.6.2-1.3.1-1.6.8-.1 1.3.8 2.3.5 3.5-2 1.6-4.5 2.7-7.2 1.7-1.6-.1-1.6-2.8-3.4-2.3-.3.6 0 .9-.3 1.5.7.6 1.4 1.5.9 2.6-.7.6-1.5 1.3-2.4 1.5-.6-.6-.8-1.5-.3-2.3-.5-.1-.9-.3-1.4-.3-.3 1-2.6 1.6-1.6 3.1.7.5 0 1.2 0 1.7-1.5 3.1-5.5.8-7.5 2.9-.6 1.9-2.6 2.2-3.8 3.4-2 .9-4.2-1.3-5.8.6-.6-.2-1.4-.6-2.1-.2-1.7 1.5 1.4 3.9-1.5 4.6-.6.2-1.3.1-1.7.6l.1 1.3c.9-.5 1.7.5 2.7.1.2.2.2.6.2.9-.9.5-.2 1.6-1.2 2.1-2.2-.7-3.8 2.2-5.6-.2-.6.3-.6.8-.3 1.3l1.6 1.2c-.2 1 0 2.8-1.6 2.8-1.2.2-2 3.2-3.2 1.3-.8-.8 1.5-1.6-.2-1.6-.8.6-.8 2.7-2.2 2-.8-.8-.6-2.1-.8-3-.5.7-.7 1.9-.3 2.7.8 1 1.2 2.6.8 3.8-.3.8-.9 1.6-1.7 2.1-1.3 1-3.5-1.5-4.1.9-1.2 1-2-1.3-3.5-.5-2-.1.3-2.4-1.7-2.6-.7-.7-.6-1.9-.9-2.7 1.5-.6 2.1 1.7 3.4 1.2.7.1 2 .5 2.9.1.9-.6 1.7-1.9 2.7-2.2v-1.3c-2.2-.3-2.9-.9-5.2-2.2-.9-2.7-5.7-.8-4.6-4.3-1.5-1-3.5-.1-5.1 0 .7 1.4 2.4 3.8 2 5.7-.3.9-2.8.9-1.4 2.2.2.7-.5.9-.8 1.3h-.2c0 1 .1 2.7-1.3 3.2-.9 0-2-.2-2.4.8.2 2 2.1.2 3 1 1.2.3 1.9 1.2 2.4 2.2.5 1.4-1.5 2.3-.6 3.5.6-.5 1.4.1 2 .3.6.9.3 1.9.1 2.9 2.3 1.6 5 3.2 5 6.4-.2.8-.9 1.9-1.6 2.7l-1.4 1.7c.9.7 2.8-.9 3.4 1 .5 1.2-5.1 6-3.8 7 1.5.3 3.1.6 4.1 2.1.8.7.3 2.2 1.6 2.6 1-.3 2.2-.7 3.4-.3.8.8-.3 1.4.6 2.2.5.9-1 2.6.8 2.6 1.3.3 3.8-.9 4.2 1.2.6 2.2 1.6 5.1 4.3 5.6 1.3.9-1.4 4.3 1.4 2.4.6.5 1.6.3 1.6 1.3 0 .7.3 1 .2 1.7 3.4.3 2 5.5 5.8 4.5.9.6 1.3 1.5 1.2 2.6-.2.7-.5 1.4-.9 2 1.2 1.2 4.1 1.3 3.8 3.7.3-.6.9-.3 1.3-.7.9.5.9 1.5.7 2.3-.3.1-.6.3-.9.3l-.9-1.3c-1.3 1.3-2.8 2.9-2 5 .8 1.2 2 2 3.2 2.2 1.5-.6 3-1.7 4.8-.8 1.5 1.6 4.4 2.1 3.9 4.6.9-1.7-.1 4.1-.3 3.7l.7.5c.6-.6 0-1.6.5-2.2.7-.7 2.1.7 3 .3 1.7 2.2 3.8 1.5 2.1 6.3-.7.7 3.4-1.3 4.6-.8 1.2 1.4 3 2.9 2.1 5-.6.8-1.6 1.5-1 2.6 1.4 1.2 5.1-5.2 6.4-3.4.7 2.2 3.1-.6 4.3 1.3 1.7.9-.2 3.4 1.7 4.2.1 1-3.2 5.3-3.7 2.3-1.7-.8-2.4-2.7-2.6-4.2-.5-.1-1.2 1.2-1.5 1.4.8 2.8 1 4.4 1.7 7.3.6-.3 2-2.6 2.8-1.7.6 2.3.5 4.6.5 7.2.5 1.2 1.5 0 2.1.3 1.3.8 1.3 2.3 2.2 3.4.1.7-.2 1.5.3 2 .5-.5 1.4-.3 2-.1.7 1.3 1.2 2.4 2.4 3.2 0 .9-.3 1.9-1.2 2.6-1.2.2-2-.6-2.6-1.3-.3.1-.2.9-.3 1.3 1.4.7 2.9 2.3 5 .7.8.3 1.6.9 1.7 2 .7 2.4-4.6 2.9-1.5 5 .3-.8-.1-2 .9-2.3 1.6.5 3.1 1.9 3.5 3.5 0 1.4 1.3 2.6 1.2 4.2.7.5 1.5.6 2 1.3.2.9-.2 1.6-1.2 1.6-.6-.1-1.2.1-1.3.7-.3 1 .8 1.5 1.3 1.9.7.1 1.5.3 1.6 1.2-.6.8-1.4 1.9-2.2 2.6 3.8-.2.2 6.6 4.5 3.6 1 0 1.2 1 1.4 1.7-.6 1.9-1.3 3.6-.3 5.5.9.1 2.1.2 2.1 1.5-.2 1.5-.3 2.9.6 4.2 1.5 1 4.2 1.7 4.2 4.1 1.2.2 2.1 1.5 2.7 2.4.1 2 .3-3 3.6-.1-.1 1.3.2 3.9-.8 4.6-.8-.1-1.4 1.7-2.1 1-.3 1.2-.6.3-.3 1.6 1.4 1.6 2.9 3.2 2.1 5.6-.2 1.7-2.3 2.6-2 4.3.6 1.7-1.2 3-2.4 4.1-1.3-.1-1.9 1.4-3 1.4-1.2 1.5.8 5.2-2.3 5.8-3 2.2-6.2-.2-9.3 1.4-1 .7-1.9-.3-2.7-.8l-.8-1.5c-1 1-2.6.7-3.8.3-1.3-.7-.1-3.2-2.3-2.9-.1.3-.3.6-.6.8-1 .3-1.4-1.4-2.4-1.2-2.3-1.6-2.1-4.4-2.1-6.7-.1-1-.9-.8-1.6-1-1.7-1.2-3.1-2.6-3.8-4.5-.1-.8.1-1.5.5-2.1.8-.6 1.6.2 2.4.7-.5 1.9 0 3.7 1.4 5 .5-.8-1.4-1.5-.3-2.4.8-.2.8-.8.9-1.5-2.6-.1-.9-4.4-4.1-3-.3-.2-.8-1.2-1.3-.8.5.3.3 1.2.1 1.6-.3.6-1 .2-1.6.3-.3-.2-.6-.6-.5-1.2.3-.3.6-.8.9-1.2h.6c-.1-.2.3-1.3-.5-1.3-.9-.5-2.7 1.2-2.4-.8 1.3-.5.1-1.5.5-2.1-1.2-1.3-2.9-2.6-2.2-4.5l-1-.8c-.6.8-.7 2.6-2.2 1.6-.5-1.7-3.5-3.6-1.3-5.5.7-.6 1.3-1.3.3-2-.9-1-1.9-.1-3-.2-2-.5-.9-3.9-3.2-3-1 .3-1.6-.7-2.1-1.2-.1-1.6-.1-2.8-1.9-2.9-.7-.3-2-.3-2 .8.9.8 3-.6 2.8 1.6.5.3 1 .6.9 1.3.2.7-.8.8-.8 1.4-.8.3-1.6 0-2.3-.3-.5-1.3-2.3-1.9-1.6-3.7-1.7-1.4-1.7-3.4-3.2-4.9.6-1.9-.7-3.5-2.2-4.5-.3-.2-.9-.1-1.5-.1-.5-1.2.3-2.6-1.2-2.9-1.2.7-2.6 0-3.8 0-.8-1.3-2.8-2-2.6-3.7-2.2-.6-3.4-2.3-4.6-4.2-.9-1.7.7-4.9-2.3-5.2-.8 0-1.7.9-2.6.1-.8-1.7-2.9-1.2-3.5-2.7.5-2 .7-3.4.8-5.5-1.2-.6-1.7-2.3-3.1-2.4-1.4.1-2.3 1.7-3.8 1.2-.9-.8-2.6-1.4-1.9-3.1.2-.6-.5-.8-.8-.9-.1-1 0-1.9.5-2.7-.3-.6-.9-1.5-1.7-1.5-.7-.7.8-2-.7-2.1-.2 2.3-2.6.6-3.4 2-1.5.5-2.2-1.4-3-2-.2-.2-.1-.8-.1-1.2.3-.9 1.2.5 1.3-.6.6-1 2.3.5 2.4-1.2.3 0 .5.1.7-.3-1-1.3-1.9.2-3-.3-.1.3-.3.6-.6.8-1-.3-1.6-1.7-2.9-1.6-1.4-1.6-1.7 2.2-3.2.7-1.4-1.2-1.5-2.8-2.6-4.1-1.4.8-2.9.5-4.8.1-.8-.6-.7-1.4-.8-2.3-.5-1.3 1.5-1.7-.5-2.8-1.4.2-2.1.3-3.6.3-1.3-.6-.8-1.9-1.3-2.9.2-.5.5-1.3.1-1.7-.5-.3-1-.6-1.7-.5-.5.6-.1 1.5-1 1.9-1 .3-1.7-.6-2.4-1.2-.1-1.2.3-3.2-1.3-3.5-.5 0-.9-.6-.5-.9-1.4.5-1.4-1.9-2.9-.8-1.2-.2-.6 1-1 1.6-.6.3-1.3-.3-1.4-.9.7-1.4-.6-2.4-1.7-2.9-.7-.8 0-1.6-.6-2.4-.5-.9-1-.2-1.6-.8l-.3.3c.8.3.8.9 1.5 1.6 0 .6-.2 1.3-.6 1.7-2.9.3-4.5-2.1-7.1-1-1.2-.6-3.1 2.2-2.8-.6 0-.8-.9-.9-1.6-.7.1.6.2 1 .2 2-1.6.1-2.6 3.9-4.1 1.2-.5-.5.2-.8.1-1.3-1.6-.1-2.4 2.8-4.5 1.3-2.1.2-.5 2.6-2.4 3.2-.8 1.2-2.3 1-3.5.8-.1-.3-.5-.1-.7-.2l-.5.5c.8.1.7 1.2 1.2 1.7-.3.8-.6 1.6-1.3 2.1-.8-.8-2.6.5-2.4-1.2.2-.6 1.3 0 1.3-.8-2.7-.2-5.3 2.6-7.9.6-.5-.8-1.4-.3-2.1-.6-2 .6-2.3 2.9-2.6 4.3 1.2-.1.7-1.3 1.3-1.9.8-.2.8-1.6 2-1.3 1.7.7-.1 1.9.9 2.9 0 .9-.5 1.7-.9 2.6-1.5.6-2.8 2-4.5 1.4-1.2-.2-.8-2.8-2.1-1.2.3 1.3 2.3 1.2 1.6 2.7.7 0 1.3-.6 2-.1 1.2.5-.2 1.2 0 1.6-.8.7-1.6 1.3-2.6 1.6l-.8-1.2c-.3.7-1.2 1.3-1.7 1.9 1.3.5 1.2 2.3.7 3.2-.1.7-.9 1.3-1.6.8-.2-.2-.7-.1-.9-.1-1.2 1.2.1 2.2-.3 3.4-.1.8-.6 1.4-1.3 1.7-1.4.1-3.4-2.1-4.2.3-1.5.6-3.4-1.4-4.2 1.2-.2.5.2.7.5.9.8-.2 1.6-1.6 2.6-.6.6 2-1.5 1.6-2.1 2.9-.8-.8-2.4-.5-3-1.4-.1-.6 1-1 .2-1.6-.6.3-1.5.6-2 .3-.3-.9-1.4-.5-2.1-.1-.8 1-2.1 2.6-3.4 3.4 0 .3 0 .6.3.8 1.3-.6 2.2-3.4 3.9-1.6.7.9 2.2-.6 3 .7.1.7 0 1.5-.8 1.7-.3-.2-.9-.1-1.4-.1-.3 1.2-1.4.9-2.3 1.4-.8.3-1.3-.6-2-.6-.5.5.5 1.2-.3 1.6.6.8 1.2.1 1.7.8-.2 1.2 0 2.8-1.4 3-.6.2-1-.2-1.2-.7 0-.6.3-1.2 0-1.6h-1.1c-.2 1.3-2.6 3.2-.3 4.3.6 1.2-.2 2.3-.6 3.4-.9.5-1.4.5-2.4.7.2.3.1.9.1 1.4-.8.8-2.8.2-2.8 2-1.2.3-2 3.2-3.2 2-.3-2.2 1.3-3.5 1.2-5.5.7-.7 2.4.1 2.3-1.3-1-.8-2.2 0-3.2.2-.9 1.4.6 4.3-2 4.3-1.2.5-1.6-.8-2.4-.9-2.9 1.2-.5 5.1-3.5 5.9-1.6.9-2.9-1.5-4.3-.2-.8.7-2-.8-2.2.7 1.2 1.4-.8 2.6-.5 3.8.9-.2 2.6.2 3.2-1.2-.6-.8-.3-1.4-.1-2.3l1.3-.9c.7.3.6 1.4 1.4 1.6 2 .2 1.9-2.2 3.9-1.7.2-.1.3.2.5.3.2 2-2 2.7-1.2 4.9-.5.8-.9 1.9-2 2.1-.5-.2-1.2-.1-1.7-.3-1.5 1.5-.2 3.6-1.7 5.1-.8 1.2-2.3 1.3-3.5.9-.6-.5-1.3-.6-1.6.3-.5 2.3-.6 5.6-3.2 7-1.4.2-2.3-.8-3.2-1.7-.8 1-.8 2.9-2.6 3.1-.6.2-.1 1-.5 1.4-.9.2-1.7 2-2.7.6l-.5-.5c-.1 1.5-2.8 2.2-1 4.1l-.1.1c.2.2.5.7.9.5.7-.2.1-1 .5-1.4 1.2-.7 1.9-2.3 3.4-2 .8.6 2.2 1.3 1.4 2.6-.9 1.4-3.5 1.2-2.7 3.2-.3.7-.8 1.4-1.5 2-.8 0-1.4-.2-2.1-.6-.8.3-.5 1.3-.7 1.9.8.5 1 1.4.8 2.1-.9.8 0 3.2-2 2.6-.2-.5-.7-1-1.3-1 0 .7-.5 2.1.7 2.6.3 1.4 2.2 2.4 1.3 4.2-1.2.7-2 1.9-3.5 1.6-.2 4.3-5 6.4-5.9 10.1-1.4 2.2-6 0-5 4.1-1.2 3.6-6.7.8-6.8 5.3-.8 2.3-3.6.8-4.9 2.6.5.2 1.2.7.6 1.3-.7.7-1.4 1.5-2.4 1.7-.3-.3-.3-.9-.3-1.4.5-1.2 2-.2 2.2-1.5-.5-.1-1.6.2-2.1-.3-1.4 1.6-.2 4.8-2.9 5.6-.8-.1-1.7-.2-2.1-1.2l-.3-2.4c-.8-.5-1 .6-1.5.9 0 .9.6 2 .1 2.9-1.9 2.1-4.5 3.5-7.2 2.9-1.4.8-2 2.2-2.3 3.5 1.4 1.6-.7 4.1 1.2 5.5.3 1.3.3 2.8-.3 4.1-.6 1.9-2.7 1.2-3.8 1.6 1.3.7 1 2.2.8 3.4-.8 1-2.2 1.5-3.4.8-.3-.2-.8-.5-1.2-.8-.5.8-2 1.6-1.2 2.9.8.7 1.3 2 .6 2.9-.7.6-1.4-.6-2 .1 0 1.5.2 3.5-1.6 4.1-1.4.7-3.2-.5-4.6.3-2.3.3-2.2 3.2-3.8 4.3.1.2-.1.6.2.8.9-1.2 3-.5 2.4-2.6.6-.9 1.5-2.3 2.7-2.2.7.5.8 1.4.5 2.1-1.2 0-1 1.3-1.3 2.1l1 .3c-.2.9-.6 2.1-1.6 2.7-1 .1-.8-1.5-1.7-1.2-.5.3-1.3 1.2-1.7.5l-.7-1.3c-.8 1.4-2.2 1.3-3.4.5-.3-.2-.7.3-1.2.1-.3-.2-.6-.9-1.2-.6-.6.9-.8 2.1-2 2.7 1.5.9 1-2.1 2.8-.8.3.9.8 2 .2 2.9-1.1 1.4-2.2.4-3.3 0zm12.2-4.4h-.1v-.3h.1zm-26.8-21.7c.5-.6.9-1.3.9-2.1-.3-.2-.2-1.2-.9-.8-.6.6-1.5.8-1.3 1.7.2.6.5 1.2 1.3 1.2zm44-5.3c.5 0 .6-.7.3-.9h-.4c-.1.2-.5.3-.3.6.2.2.2.4.4.3zm.8-1.7c1-.5 1.4-1.5 1.4-2.6-.2-.9-.6-1.7-1.7-1.6-1.3.6-.9 1.5-1 2.7.4.7.5 1.5 1.3 1.5zm-30.5-14.3c.6-1.2 1.9-2.4 1.2-4.1-1-1 .1-2.6-1.2-3.6-.7-.3-1.5 0-2 .7-1 1.3.5 2.4.6 3.7-1 .8-1.3 1.5-.9 2.9.5.7 1.6.9 2.3.4zm40.8-2.1c.1-1.2 1.6-.9 2-1.6-2.1-1.6 1.5-3.4-.7-5-2.1-.2-1.4 2.2-2.2 3.2-.5 1.2-.1 2.6.9 3.4zm13.7-10.9c.9-.3 1.7-.8 2.4-1.5 0-.3.6-.6.1-.9-.3-.7-.8-1.9-.1-2.6.3-.5 1.2-.8.7-1.4-1.3 1.9-3.4 2-5.6 4.4.9.1 2.1 1.1 2.5 2zm260.5-1.9c1.3 0 1.9-1.3 2.8-1.7.5-1.2 1.9-2.4.6-3.7-1-.2-.8 1.3-2 1.2-.1 1.4-1.5.3-2.1 1.6-.2.7-.4 2.1.7 2.6zm-249.2-5.1.5-1.2c-.8 0-1.5-1.3-2.2-.3.2.9 1.1.8 1.7 1.5zm256.7-12.3c.7-.5.7-1.3.6-2.1-.5-.5-.6-1.5-1.4-1.3-.8.1-1.4.9-1.2 1.9.5.8 1 1.8 2 1.5zm-46.9-11.3c-2-1.3 1-2 .3-3.5l-1.3-.9-.6.6c-.7 1.4.6 2.9 1.6 3.8zm-14.1-15.5v-2.6c-.2-.8-.7-2-1.7-1.7l-1.2 1.6c.1-.1-.2 3.1 0 3.2.1.2 2-1.4 1.9-1-.2.6.4.5 1 .5zm-9.9-5.9c0-.3.5-1-.1-1.2-.6.5-1.9-.2-1.7.9.2 1 1.6 1.4 1.8.3zm2.4-2.7c.3-.6.5-1.6.1-2.2-.6-.2-1.2-1.2-1.7-.8 0 1.4-.5 3 1.6 3zm-159.4-4.9c.9-1.6 3-1.7 3.7-3.2-.3-.1-.5-.5-.8-.3-1.5-.3-.5-1.6-.9-2.6-.9-1.3-2.1.2-2.6.9.8 1.5 0 3.5 0 5 .2-.1.3.2.6.2zm14.1-2.4.6-.3c-.1-.5-.7-.9-.9-.5zm187.1 11.5c.3-2.1-.3-3.8-2.1-5.1 1.5 2.1-1.9 3.1-.7 5.1-.1 2.1 2 .4 2.8 0zm-244.5-18c-.2-.5-.6-1.3-1.3-.8v.5c-.7 1.2 1.6 1.3 1.3.3zm47.6-1.3c.9-.5 1.5-1.4 1.4-2.4-.3-.1-.3-1.2-1.2-.8-1.4.7-2.7 2.3-2.2 3.8.9.2 1.3-1.1 2-.6zm6.2-1.4c1.3-.8 2.2-2.6 3.8-2.6.5-.3.8-.8.6-1.4-1.7.3-3.5.5-4.9 1.7.1.7 0 1.9.5 2.3zm125.7-1.1c.6-.3.7-1.3.8-2-.6-.9-.8-3.4-2.6-2.4.1 1.2-1.5 1.6-.5 2.7 1.3.1 1.3 1.8 2.3 1.7zm59.6 2.5c1.2-1-.8-1.2-1.2-2.1-.6-.9 0-2.7-1.2-2.9.1 1.2-.1 2.3-.2 3.6.6.6 1.7 1.5 2.6 1.4zm1.6-2.8-.6-2.8c.1.7-.9.8-.8 1.4.3.6 1 1.3 1.4 1.4zm-70.5-10.5c-.1-.2-.5-.1-.6-.1-.2 0-.6 0-.5.3.2.5 1 .3 1.1-.2zm-1.2-.4c.2-.5.3-1.3-.1-1.6-.3-.2-1-.3-1.3.2 0 .6.7 1.2 1.4 1.4zm-98.5 1.3c.8-.9 2.3-.8 2.6-2.1 2.2.3 1.4-.9 1.5-1.4.7-1.5.3-1.2-.1-2.3-2.6 3.2-4.3.6-4.8 5.3.3.4.5.4.8.5zm90.7-6.4c.6-.3 1.7-.2 1.6-1-.3-.7-.8-.2-1.5-.3-.7 0-.6-1.3-1.3-.6 0 .7.8 1.2 1.2 1.9zm-146.2-2.5c1.2-.5.6-1.9.9-2.8-.1-.3-.5-.6-.8-.5-.9.2-1.5 1.5-1.7 2.4.2.7.9 1 1.6.9zm4.9-1.6c.7-1 1.9-3.1 1.3-4.1-.5.7-.9 2.4-2.1 1.7.3.9 0 2.2.8 2.4zm-2.6-3c-.2-.5-.6-.3-1-.3v.5c.2.5 1 .3 1-.2zm118.8-8.7c.7.7 1-.2 1.7-.2-.2-.7.3-1.3.1-1.7-.8.2-.6-.7-1.2-1-.5-.5-1-.3-1.6-.6-.3.3-.6.7-.6 1.2.6.9 1 1.7 1.6 2.3zm-109.4-8c.7-.7 1.7-1.3 2.9-1.3 1-.1 1-1.4.8-2.1-.8-.3-1.9 0-2.6.3.7 1.7-2.1 1.4-1.1 3.1zm99.9-.7c-.1-.5.5-.5.6-.7 0 .4-.4.7-.6.7zm-92.5-6.4c.8-.7 2.4-.5 2.6-1.7.1-1.7-.9-3.5-2.4-4.5v.7c1.2.8.5 2.2.8 3.4-.6.7-.9 1.3-1.2 2.1zm-5.6-1.1c.6-.8 1.5-1.7 1.6-2.9-.2-1.2 1-2.3.1-3.4-.6.2-1.6-.3-2 .5.2 1.9-2.2 2.6-1.4 4.6.3.7.9 1.2 1.7 1.2zm149.7-22.1c.3-.6 2.9-3.6 3.5-3.5.6-.8-3.5-.2-3.5-1.4l-2.1 1.4c-.2 1 .8 2.9 2.1 3.5zm-143.2-7.9c.6-.3 1-.9.8-1.6-.3-.5-.8-.8-1.4-.7-.5.1-.7.6-.8.9.3.6.5 1.8 1.4 1.4zm154.4-4.5c.7-.2 1.7-.2 1.3-1.3-.6-1.2-1.7-2.2-3.2-1.7l.1 1.6c.2.8 1 1.3 1.8 1.4zm-157.6-1.8c.7-.3 1.4-.8 1.9-1.5 0-.3 0-.9-.5-.9-.9.7-2-.1-3.1.1-.3.3-1 .3-.8 1.2.7.7 1.6 1.1 2.5 1.1zm144.8-11.5c1.2-.1 1-1.5.8-2.2h-1.3c-.3.3-.6.8-.5 1.3.3.4.2 1.2 1 .9zm-185.8-8.2c.3-.7 0-1.5-.3-2.1-.6-.8-1.4.1-2.1 0-.7.2-.9 1-.8 1.6.5 1.1 2.6 2.7 3.2.5zm183.1-2.3c.5-.3.7-.6.8-1.2-.1-.9-.9-1.3-1.7-1.3-.3.5-.6 1-.5 1.6.2.8.9.8 1.4.9zm-224.6-10.1c2 .1 3.7-1.2 5.5-2.1-.6-.1-1 0-1.5.5-1.3.3-2.9.8-4.1-.3-.6-3.1-3.8-.7-4.9-1.4l.7.6c1.4-.6 2.6.2 3.4 1.2.6.4.4 1.3.9 1.5zm231-1.6c.3-.3 0-.8-.2-1.2-.5.2-.9-.5-1.2.2-.2.5.9 2 1.4 1zm-5.5-3.5c-.9-.5-1.2-2.2-2.6-2v.5c-1 .7-.6 2-.9 2.9 1.4 1.2 2.4-.8 3.5-1.4zm12.3-6.6c.3-.9 1.9 1.4 2.3.9.7-.2 1.2.9 1.7.5.9-1.4-.9-4.4-1.6-4.8-.8.4-2.1 2.6-2.4 3.4zm16.7-3.9c2.7-.6 2.3-3.4 2.8-5.3l-.3-.3c-1.5-.7-3 .5-4.2 1.6.2 1.5-.3 2.3-.2 3.5.4.7 1.3.1 1.9.5zm-227-8.9c.7-.2 1-1 .7-1.6s-.6-.8-1.2-1.2c-.9-.1-2.2-.5-2.9.3-.8 2 1.6 3.2 3.4 2.5zm249.3-16.8c-.2-.3-1.3-2.8-1.9-2.8-.9.3-1.6 3.6-2 4.3 1.5 1.1 5.6 1.8 3.9-1.5zm35.9-15c-.6-.7-1.4-.6-2.1-.8l-.2.7c.5.8 2.2 1.3 2.3.1zm7.1-1.7c3.5-.3 2.1-3.4 1.9-2.7-.3-.9-1.5-.6-2.3-.7-.8.3-1 1.4-1.2 2.3.6.5 1 .9 1.6 1.1zm5.2-3.7c1.2.3 1.6-1.2 2.6-1.2.3-.8.1-2-.5-2.6-.7-.5-1.3.3-1.9.5-.8.9-1.4 2-1.3 3.2.2.5 1 .5 1.1.1zm-42.6-22.1c.8.5.8-.6 1.4-1-.5-.5-.6-1.3-.8-1.7-.3.3-1.2 0-1.4.5 0 .8-.5 1 .8 2.2zm61.1-3.3-1.7-2.8c-.5.2-2 2.6-1.9 3.2 2.4 2.1 3.1 0 3.6-.4zm-174.9-10.9c.3-.3.9-.8.8-1.4-.2-.2-.5-.6-.9-.5-1.2-.3-.8.9-1.2 1.5.4.4.8.5 1.3.4z" fill="#bb644d"/><path d="m862 206.3c-1.6-.9-3.1.5-4.6 0-2.2.8-2.2 3-2.7 4.9.7.6 2.1.5 2.4-.5 1.4.8 2.3-.6 3.2-1.4.9-.1 1.6-.9 2.1-1.6-.2-.2-.5-.6-.8-.7z" fill="#c4755c"/><path d="m828.2 216.1c-1.5-.9-3.1.5-4.6 0-2.2.8-2.2 3.1-2.8 4.9.7.6 2.1.3 2.4-.5 1.4.8 2.3-.6 3.2-1.4.9-.1 1.6-.9 2.1-1.6-.2-.2-.5-.6-.8-.7z" fill="#ab4526"/><path d="m805.2 183c-1.5-1-3.1.5-4.6 0-2.2.8-2.2 3.1-2.7 4.9.7.6 2.1.3 2.4-.5 1.4.8 2.3-.6 3.2-1.4.9-.1 1.6-.9 2.1-1.6-.2-.2-.5-.6-.8-.7z" fill="#ab4526"/><path d="m820.6 203.9c-1.5-.9-3.1.5-4.6 0-2.2.8-2.2 3.1-2.8 4.9.7.6 2.1.3 2.4-.5 1.4.7 2.3-.6 3.2-1.4 1-.1 1.6-.9 2.1-1.6-.2-.2-.5-.6-.8-.7z" fill="#ab4526"/><path d="m611.3 447c-.9-2.2-1.7-5.1.2-7.1.9 0 1.9-.6 2.8-.1 1.9 1-.2 4.1 2.3 4.5 2.9 1.3 7.8 1.5 7.7 5.9-.1 1.6-2 2.2-3.2 2.6-4.1-.2-8.2-2-9.8-5.8zm16-11.7c4.3-2.3 1.7-7.3 3.4-10.9.3-1.4 1.9-1.4 2.9-1.7 2.8-1.3 2.1-4.2 2-6.7.3-1.4 1-3 2.6-3.5 2-1 2-3.6 3.7-4.3.6-.9 2.1-1.5 3.4-1.7 1.9-1.7 4.6-3.4 4.2-6.3-.1-3.8-3.6-5.5-4.3-8.8l-.1-.1-.1-.1c-.8-1.6-1.4-3.6-.2-5.2.8-1.5 1.5-3.1 1.5-5-.8-1.3-2.4-1.5-3.7-1.5-2 .9-1.5 3-1.6 4.9l-2.4 3.2c-.3 2.3.2 4.4 1.4 6.3.3.8.1 2.1-.9 2.7-.5 0-1 .1-1.3-.2-1.5-1 .2-2.3-.3-3.8-.6-1-2-1.4-3.1-1-.9 1.4-2.6 1.2-3.5 2.1-2.7 3.5 1 6.7 2.1 10-.6 2.1-2.3 3.6-4.2 4.5-4.1 2.3-1.7 8.2-6.3 10.1-2-.6-4.4-.3-5.9 1-1.3 1-1.4 2.7-1.3 4.3.5 1.6 1.5 2.6 2.9 3.7-.9 1.2-2.9.8-3.6 2.6-1.7 2.9-.2 6.5 1.2 8.8 4.1 5.8 7.4-2.6 11.5-3.4zm-6.3-5.8c-.2-1.3-1.4-2.2-2.6-2.8.8 1 4.1-1.5 4.9 1 0 1.2-.3 2.6-1.4 3.2-.8-.2.5-2.3-.9-1.4zm305.2-34.7c2.3.9 4.3-.8 5.9-2.1 2 .5 4.3 0 5.5-1.7 2-2.6-2-2.4-2.7-4.2 1.2-.8 2.2-1 3.2-2.3.5-.8.6-2 .5-2.8l-1.6-1.9c-3.8-.7-3.8 1.3-7.7 1.3-3.4 0-4.1-3.9-5-6.5-1.5-5.9 1.9-12.9-1.2-18-1.7-1.4-3.6-1.4-5.6-2.2-4.4-2.1.6-6.7-1.7-9.6-.9-.3-2 0-2.7.3-1.6-.8-.2-2.9-1.3-3.9-.5-.9-1.5-1.4-2.6-1.4-1-.5-1.2-1.6-1.7-2.4.8-3.4-.3-6.2-3.1-8.2-1.5-2.1 1.4-3.2 1.3-5.2-.2-.9-.2-2.1-1.2-2.6-2.7 0-2.3 0-2.7 1.2-.9 1.5-.2 3-1.5 4.3-.3.2-.7.6-1.2.2-1.3-.5-1.2-3-1.2-3 1.2-1.4 1.3-3.9.5-5.5-1.3-1-2.9-.7-4.4-.3-.8-.9-1.5-1.9-1.4-3 1.7-1.3.7-3.7.3-5.3-.9-1-1.9-4.4-3.2-4.4-2.9-1-2.8.6-3.7-1.7.3-2.2-2.7-1.9-2.7-3.7-1.4-1.4-.7-3.2-.7-5-.8-.6-.5-1.6-.9-2.2.3-1.6 2.3-1.6 3.4-2-.9 1.2-.8 2.6-1.3 3.9.2 1.6 0 3.7 1.7 4.3 3.2 2.1 3-3 5.5-2.4-.7.9-.8 2.1-1.2 3.2.2.9.9 1.9 2.1 1.4.7-.5 2.1-.9 2-2.1 1-1.7-1.4-2.6.8-3.7.8-1.2 1.5-1.7 2.3-2.9.3-1 0-2.2-.7-2.9-2.7-.3-4.1-2.9-6.4-3.8-1.5.2-1.7 2-2.2 3-.7.2-1.4.9-2.1.7.9-2-2-3.7 0-5.5.5-1.7-.7-2.7-1.4-3.8-1.6-.7-3.4.5-4.6 1.4-1.6 1.6-.2 4.2-.5 6.2-.5 2.6-3.4.9-4.2 3 .3 2-1.5 2.9-1.3 4.6-.6.6.3 2-.8 2.1-.1 2.4 1 4.5 2.9 6-.8 3.6 2.1 2.8-2 4.1-1.6 0-3.7.8-4.9-1.3.2-3.6-1.5-5.9-2.2-9.2l-5.8-.6c-5.8-6.8-8.7-7.9-15.8-12.1-2.6-1.4-2.2-4.4-3.4-6.6-.6-3.1-2.9-2.1-6.5-3.7-1-.2-1.7.2-2.6.8-1.5 1.2-2.3 4.4-4.6 3.5-4.1-4.3 3-5.8 4.5-8.8.2-1.4.6-3.1-.9-4.1-2.3-1.5-4.1 1.3-6.6.8-.7-.6-1.2-1.3-1.5-2.1-.3-1.2-.2-2.7.9-3.2.5-2 2.1-4.9-.2-6.6.1-1.2-1.7-.9-1.4-2.2-2.8-4.8 4.9-5 5-9.1 0-1.3-.8-2.2-1.7-2.9-1-.6-1.9.3-2.9.3-1.5 3-3.7-.5-5.9.8-3.6.5-4.6 5.7-8.6 5-1.2-.2-1.4-2-2.6-2-2.9-2.9-5.8 1.6-9.1.2-.7-1.7-1.6-3.2-3.2-4.3-1.5.6-3.7 1-4.1 3-.7 1.7-2.3 1.3-3.8 1.3-1.5.5-3 1.6-3.6 3.2-1.7 1.5.1 4.1-1.6 5.6-.2 0-.6.1-.8-.1-3.8-2.9 1.3-6.6.2-10-.5-.8-1.4-1.5-2.4-1.3-.9.1-1.7 1.2-2.1 2-.2.8-.9 2 0 2.8 0 .8.8 1.7-.1 2.4.3.6-.5 1.2-.9 1.7-.6.2-.9-.2-1.4-.5-1.3-.8-.7-2.4-.8-3.7 1.6-3.5 2.4-7.8 0-11.1v-4.1c-.1-3.6 3.6-3.4 5-6.4.3-1.4.9-3.1-.6-4.2-1.3-1.6-3.9-1.2-5.8-.8-2.1 0-4.9 2.8-7.2.3-3.7-3.4 0-8.7-3.2-12.1-.5-1.4-1.3-2.9.2-4.1 2.8-1.4 5.8-3.4 7.5-6.3.3-2.1 3.5-2.7 3.2-5-.1-2.3-.9-4.4-2-6.4-.3-1.6-.2-3.5 1.2-4.5 1 .2 2.4-.6 3.2.6 1.9 1.2 2.2-1.2 3.4-1.6 0-2.1 1.6-3.6 2.8-5.2 2.2-.6 2.7 2.3 4.3 3.2-.1 1.6 1 2.7.6 4.5-.1.1-.2.3-.5.3.2.7.2 1.2.1 1.9.9 1.9 2.9 3 5 3 1.2 0 2.4-.5 3-1.4.5-3.1 3.6-5.2 2.9-8.5-2-2.6-2.3-6.2-.9-9.2-.7-1.2-.8-2.7-2.1-3.4-1.3-.6-3.1-.9-4.4-.3-3.7-.3-6 3.2-7.9 5.9-1 .7-1.5-1-2.4-1.3-1.6-.3-3 .6-4.3 1.5l-1.2-1.2c-.8-1.4 0-2.9.5-4.2 2.2.6-.6 1.4-.1 2.4.2.8 1.2.9 1.7 1.2.7-.7.7-1.5 1-2.2-.1-.9.1-2.3-1.2-2.9.2-1.7.9-4.2 0-5.7-5.1-2 1.5-5.6-.8-9.1-.9-1.4-2.7-1.9-3.9-3-.1-1.3 1.4-1.9 1.6-3 .8-1.6-1.7-3.5.3-4.6l.1.2c1.5-.7 1.6 1.7 3.2 1.2.3-.2.9-.2.8-.8 1.5-.6 1.6-2.3 2-3.7.6-1.3 2-1.4 2.9-2.6.9 0 2.2-.6 2.9-1.3.3-.8.6-1.6.5-2.6-.6-.9-1.5-1.7-2.7-1.4-1.6-.2-.9 1.9-2.4 2-.9-.6-.7-1.4-1.6-1.6-1.7-.7-2.2-2.6-2.4-4.2-.7-1.4.3-2.7 1.2-3.7.7-1.5 1.3-2.7.5-4.4.5-.5-.3-.7-.3-1.2-2.3-2.2-2.9-5.7-2-8.7-.3-.9-1-1.4-2-1.6-2 .9-2.1 2.9-3 4.5-.6 3.5-4.5 1-5.6 3.7-.7 1.4.3 2.4.9 3.6 2.6 3.6-2.3 3.9-3.5 6.3-2.1 2.6-1.5 6.2-1.2 9.4-.5.8-.9 1.9-2.3 1.4-2.6-3.1.6-6.3 1.2-9.3 1.5-2 .2-4.3.8-6.5-.5-3 4.1-4.3 3.2-7.7-2.9-3 2-4.9 1.4-7.9-.3-.8-.9-1.4-1.7-1.6-5.1 4.9-5.5 12.1-8 18.2-2.3 3.7-5 7.9-3.2 12.6-2.6 2.8-3.2 6.6-1.9 10.2-.3 2-2.3 2.7-3.5 4.1-3.5 3.1-1.4 8.5-5.3 11.5-2.1 2.1-5.3-.3-7.4 1.6-1.6 2.8-3.9 5.6-3.2 9.2-1.9 2.2-2.8 4.6-4.2 7.1-1.9.7-3.4 2.3-5 3.6-.6 3.4-4.4 2.8-6 4.9-1.3 2 .9 3.7 2 5.2-.3.8-1.2 1.2-1.7 1.6-4.2.3-8.5-2.1-11.8.8-2.1 2.3-2.7 6.4-5.9 7-.2-.1-.5-.3-.5-.6-.2-.2-.8-.2-.9.1-.5-.3-.6-.8-.9-1.2-.2 0-.5-.1-.7.2l-.3-.3c.7-.6 1-1.3 1.6-2 .2-.7.2-1.7-.2-2.4-.6-1.5-2.4-.9-3.7-1.4-2.9.2-2.9 3.9-5.3 4.5-1.7-1.7-3.1-3.9-5.8-3.5-1.6.7-3.7 1.5-4.3 3.5.1 2.8-1.7 4.8-3.5 6.6-1.7.2-3.1 1.5-4.6 2.4-.6.7-1.3 0-1.7-.5 0-1.5 2.1-1.9 2.7-3.1.8-.8 0-1.7-.6-2.4-2.2-1.4-4.1 1-6 2-.9 1-1.7 0-2.6-.6-2.3-3.1-5.7.3-8.6.5-1.9-2.4-4.1-4.8-6.7-5.9-1.7-.5-3.5 0-5 .8-3.7 1.9-1.9-3-4.2-3.7-1.2 0-2.6-.7-3.4 0-.6.7-1.2 1.4-1.2 2.4.8 2.1 1.5 4.5.9 6.7 2 2.3 3.9 4.9 6.8 5.6 4.9-1 7 3.4 9.7 6.3 3.9-.5 6.6 3.5 10.8 1.6 3.2-1.6 7.7-1 10.8-.5 1.5.6 2.2 2.4 3 3.8.9.6 2.1.8 3.2 1 1.7-.5 3.7-.9 4.5-2.4.1-1.6 1-3.6 2.7-4.4.5.3.7.8.8 1.3-1.2 1.9-3.4 3.5-2.8 5.9.5.5.3 1.6 1.3 1.5 1.7 1.7 3.2 3.6 3.5 5.9.7 1.7 2.6 2.1 4.1 2.9 3.4 1.2 7.9 1.4 10.8-1.2 1.3-.3 2.7-.8 3.7.3.9 3 3.9 4.9 6.4 6.7 1 1.5.6 3.6 1.6 5.1 5 4.1-1.3 10.6 4.6 14.2 2.3 3.1-.9 8.6 3.5 10.2 1.4 0 2.7-1.4 3.7-.5.3 3.5-4.3 4.1-6.7 5.2-4.4 2.1-5.5 7-5.3 11.3.8 3.1 4.4 2.7 6.7 3.6 1.6.9 3 2.7 5.2 1.7 1.7-1.2 2.6-3.5 2.9-5.3.5-.8 1.5-1.7 2.8-1.6 3.8 2.4-1.4 5.3.1 8.2.8 1.4 2.2 2.1 3.8 1.7 5.8 3.7-.7 9.1-1.3 13.5-.2 1.2-.5 2.8.8 3.6 3.1.9 4.6-2.2 6.4-4.1 2.3-.9 3.7 1.7 6.2.8 2.4-1.3 2.3-4.2 3.2-6.3.8-3 4.3-2 6-3.7 2.6-2.8 5.1-6.4 9.2-6.3 2.2 1.3 4.4 3.4 7.4 2.7 3.7-.1 5.8-4.8 10.1-3 2.2-.5 3.6-3.4 5.3-4.6 3.1 1 5-2.8 6.7-4.5.6-.5 1.5.1 2.1-.5 1.4-.9 2.1.9 3 1.5 1.2 1.4 3.1.3 4.6.5.5-.7 1.2-1.5 1.9-1.7.8.5 1.7.3 2.4 1.3 1.5 4.2 6.2 2.7 10 3 2.2 1.4 1.6 3.8 2.9 5.6.1 0 .5 0 .5-.1l1.2.9c3.9-.6 2.9 4.1 5.8 5.3 2.8.8 4.1-2.1 6.7-1.3 3.2 2.4-2.7 2.6-2 5.3.5.9.3 2.1 1.3 2.7 2.3 1.2 3.5-4.3 5.5-1.3.5 2.7 3.2 4.1 5.2 5.3 5.2 1.5 2.4 7 3.4 10.7 1.4 3.2 4.1-.1 6.6.9 4.1 1.5.8 6.4 2.8 9.2 2.1 2.8 5.8 1.3 8.7 2 .7.2.8.9 1 1.6.9 1.2 2.1 2 3.7 2.1 3.6 0 2.6-4.2 4.9-5.8.3.6 1 .5 1.4.9.2 1.3-1.4 1.7-2 2.9-.2 1.4-1.5 3.1-.2 4.4 2.2 1.2 3-1.5 4.9-1.5 2.2 1.7-.1 5.1 1.3 7.2.8 2.6 3.6 1.9 5.1 3.4 3.5 1.4 1.7 5.6 4.1 7.8 1 1.2 2.9.5 4.1.1.7.5 0 1 0 1.6-.6 2 .2 3.7 1.5 5.1.8.7 2 .3 2.8-.3 1.2-1.5-1.2-3.5.8-4.5.5.2 1.3.3 1.3.8.8.5-.1 1.3.1 1.7-1.3 5 5.6 4.8 5.3 9.5 1.5 2.1-1.5 3.6-1.2 5.8 1.7 2.6 4.9 4.6 6.7 7.1.8.6 1.3 1.6 1.3 2.6.8 2.8 4.1 1.9 5.8 3.7.7.6.7 1.7.7 2.6-.6.8-1.4 1.5-2.3 2-.3.5-.5 1.3-.5 1.7.3 2.9 3.7 1.3 5.5 2 .7.2 1.4.9 1.3 1.6.8 1.2 1.4 2.1 2.4 2.2zm-278-4.4c.8-.6 1.3-1.2 1.9-2 .6-1 .3-2.6-.5-3.4-1.2-1-2.2.3-2.9 1.3-.6.8-1.4 2-.6 3.1.2.9 1.4 1.2 2.1 1zm268.8-3c.6-.8.8-2 .5-3-.2-.5-.9-1.2-1.6-.7-1.4.7-2.1 1.9-1.7 3.5.7.8 1.8.5 2.8.2zm17.1-10.5c.6-1 .8-2 .8-3-1-1.7.6-3.5.5-5.3-.2-2-.7-4.1-2.4-5.1-2-.3-3.1 2.4-4.3 3.8-3 3.5 1.2 6.8 1.6 10.3 1.1 1.2 2.9.5 3.8-.7zm-265.7-1c1.5.1 2.8-.1 3.9-.8 2.8-2.4 7.1-1.3 9.6-4.3.8-.9 1.2-2.2.8-3.4-.5-1.6-2.2-2.2-3.4-3.1-.9-.7-2.8-.5-2.7-2.1-2-2.3-2.3-5.7-2.1-8.7.8-.5-.1-1 0-1.6-.5-1.2-1.6-1.9-2.8-2-1 .3-1.4 1.2-2.4 1.6-1.6 1.3-2.8-.2-4.5-.2-.7-1-2.2-1.3-3.5-1.2-.2.6-.7.2-1.2.3-3.9.7-3.1 5.2-4.3 8-3 1.5-5.8 4.1-6 7.5.6 2.3.8 4.6 3.1 6.3 1.7 1.7 4.9 1.5 7 .8 3.1-3.8 6 1.7 8.5 2.9zm-19.2-3.9c1.6-1.4-.2-3.4-.5-5-.8-.9-1.4.3-2.2.1-.3 1-.7 2.1-.3 3.2.8 1.1 2.1 1.1 3 1.7zm44.2-13.4c1.5.5 3.2-.2 4.3-.7 1.5-1.2 4.2.5 5.3-1.6.8-.6 1.2-1.4 1-2.4-1.2-2.1.5-5.6-1.5-7.4-1.3-1-2.9 0-4.2.3-.7 0-1.9.8-2.3-.2-3-.6-1.7-4.6-5-5.1-1.6-1-2.1-2.8-2.1-4.6 1.5-2 1.6-4.8 1.3-7.4.6-2 3.7-3.8 1.6-6.2-.9-.6-1.7-.3-2.8-.1-1.4.5-2.2 3.6-3.8 2-.6-1.5.9-2.6 1.7-3.7 3.4-1.7 5.9-5.2 6.6-8.8 0-.6-.7-1.2 0-1.6 1.5.7 2.6-.9 3.8-1.3 2.3-.9 3.8 1.9 6.3.7 3.2-1.5 2.7-5.1 4.9-7.4 1.2-.1 2.1.1 3 .5 1.9.1 4.1-.3 5.2-2.3.6-2.2.3-4.9-.9-6.7-1.2-1.7.1-3.2-.2-5-1-1.9-.8-5.5-4.1-5.2-2-.7-2.9 1-4.3 2.3-.2 1.3-.2 1.9 0 2.9-.3 2.3-1.5 4.9-4.1 5.6-1.9 2.3-3.4 4.9-5 7.2-2.6 1.6-5.6 3.5-6.2 6.7-.7.3-1.5.7-2.3.3-2.8 1.7-4.1 5.3-6.8 7.4-1.3 1.6-1 3.5-.8 5.5-.3 2.2-2.8 2.6-4.1 3.8-1.2 1.5-2 3.6-1.2 5.5.5 2.3 3.4 4.3 1.6 6.7-1.9 2.6-4.4 0-6.7 0-1.3.1-2.6.7-3.2 2-.9 1.5-.9 3.4 0 4.9 1.2.7 2.8 1.4 4.2.7 2.9-2.1 6.8-1.5 10.1-.5 2.1 1 2.2 3.5 3.7 5.1 2.7 1 4.9 3.9 5.5 6.7zm-5.8-3.9c.3-.8 0-1.7-.5-2.4-.7-.1-1.3-1.2-2-.3 0 .8 0 1.5.3 2.2 1 .1 1.5 1.5 2.2.5zm-4.4-2.2c2.1-1.3 1.5-3.1 1.2-5.1-1-2.2-3.4-1.2-5.1-1.5-.9.6-1.9 1.3-2 2.4.5.9 1.4 1.9 2.4 1.7 1.6.2 1.9 2.7 3.5 2.5zm228-13.3c.9-.2.8-1.3.8-2.1-.2-1.4-1.3-2.7-2.9-2-.6.3-.1 1.2-.3 1.7.3 1.1 1 2.4 2.4 2.4zm-27.9-13.9c-.7-1.7-3.2-2.9-2.1-5.1.3-1.5 1.3-2.8 2-4.2.8-.1.8.6 1.5.7-.2 3.4-.6 6.4 1.2 9.3.3 1.2-.6 2.1-.3 2.9l-.5.3c.2.1.2.3.2.5-1.2-.3 0 .7-.9.8-2.5-1-.7-3.7-1.1-5.2zm14.9-12.9c1.2-.6 1.4-1.6 1.4-2.7-.2-1-1.4-1.6-2.4-1.2-.3.8-1.2 1.4-1.2 2.3.4.8 1.1 1.8 2.2 1.6zm-189.1-2.4c1.7-.7 2.2-2.6 2.4-4.2-.7-1.2-1.7-.6-2.8-.5-1.2.9-.5 2.9-.7 4.3.3.5.8.4 1.1.4zm42-4.4c1.6.6 2.8-.8 3.8-2 1.3 0 2.6 0 3.5.7 1.4.1 2.1-1.2 3-2 .6-2.1 2.7-3.5 2.6-5.8-1.7-3.9-3.7 1.4-6.3-.2-1.6.3-2.8-1.3-4.5-1.2-1 .6-1.5 1.5-1.3 2.8 1.5 2.1-1.7 3.5-1.6 5.7.9.6.5 1.2.8 2zm118.3-15.2c1.5.6 1.6-1.6 2.4-2.4.5-1.2-.1-2.3-.6-3.2-1.4-.8-2.4.6-3.4 1.3-.9.3-1.3-1-2.1-1.2-2 2.1-2.2-2.2-4.3-1.4-.8 1.3-2.8.6-3 2.2 1.4.9 2.3 2.6 3.5 3.5 2.8 1.5 1.9-2.6 3.4-2.8.5.6 1.4.9 1 1.7.5 1.3 1.8 2.5 3.1 2.3zm-11.5-7.5c2.8 1.3 3.7-1.4 5.5-2.7.5-1.6-.6-3-.9-4.5-2.1-1.6 0-3.5-.7-5.5-.1-1.3-1.6-1.7-2.6-2.3-.3-.3-.1-.9.1-1.3.3-1.2-.1-2.6-.9-3.2-1-.6-2.3-1.2-3.4-.9-1.4-.3-.9-2.3-2.6-2.6-3-1.3-3.9 2.3-6.4 2.9-2.6.5-4.1-2.6-6.7-1-.3.3-.6.7-.5 1.2-.3.6.1 1.6.2 2.4 3.5 2 1.7 5.1 1.7 8.4.5.9.9 2 2.1 2.2 2 .2 2.9-1.7 4.4-2.8.6 0 .8.6 1.3 1 0 2.6-3.5 4.3-1.7 6.8.8.5 1.9.9 2.9.5 2.5-2.4 5.4.7 8.2 1.4zm-125.2-17.6c-.9-2.3 1.7-4.5.8-6.4 2.8 2.1 5.5-2.3 7.8.8.5.9 1.2 2 .7 3.2-1.2 2.8-4.3 3.4-6.8 4.2-1.3-.2-2.5-.3-2.5-1.8zm75.6-11.6c.2-1.2-.6-3.2 1.3-3l.5-.6c1.7.3 4.4-1.6 5.1 1.2.6 1.3-.3 2.3-.6 3.4-1.5 2.1-3.4.7-5.1.5-.2-.7-.7-1-1.2-1.5zm1.7-10.5c.9-.8 1.7-1.9 1.6-3.2 0-1.4-1.5-1.9-2.6-2.2-1.2.5.1 1 .1 1.6.6 1.4-.9 2-1.2 3 .2 1.1 1.4.7 2.1.8zm-32.9-2.7c.8-.9 2.3-.8 2.7-2.2 0-3-3-3.9-4.3-6.3-.6.2-1 .8-.8 1.5-1 1.4 0 3.2-.3 4.9 1 .4 1.3 2.1 2.7 2.1zm39.1-1.1c2.1-.8 3-2.8 4.2-4.5.2-.9 1-2.3-.3-3-.5-1.7 1.7-2.9 2.9-3.9-.2-.9.6-1.9.1-2.8-.5-1.4-1.7-2.3-3.2-2-1.3 1.3-2.6 2.9-1.7 4.5-.9 1.9-3.2 2.8-3.7 4.9.8 2.1 0 3.7 0 5.9.9-.1.9 1 1.7.9zm7.9-7.8c.7-.8.2-2.1-.8-2.6-1.2 0-1.2 1-2 1.7.5.9 1.9 2 2.8.9zm-128.3-8.9.3-2.8c1.6-.7 1.5-2.7 3.2-3.4 1.4-1.9 1.5-5.7 4.9-5.3 1.3 0 1.6 1.2 2.7 1.7 1.9 1.2 5 1.4 5.3 4.2-.1 2.8-3.2 3.1-5.2 3.8-2.8.6-6.4.6-8.5 3.2-1-.3-2.4-.2-2.7-1.4zm-3.2-14.8c0-2.4-.2-5.1 2.1-6.4 2.4 1.7.1 4.6.1 7-.4.6-1.8.3-2.2-.6zm43.8-2.6c-.5-1.6.7-2.8 1.7-3.5 2.1-1.2 4.8-1.5 6.3-3.8 0-1.2.9-2.4.2-3.5-.5-.6-1.2-1.6-2.1-1.4-.9-.8-2.1 0-3.2 0-.6.2-.9 1-1.6.6-1-1-.7-3.2-.3-4.5.3-1.3 2.1-1.6 2.2-2.9 1.7-.3 3-1.6 3.9-3 1.7-4.6-3.6-8.6-.3-13.1.7.1 1.2-.7 1.6-1.2 6.5-.6 5.3 7.1 7.1 10.8v.3c1.9 1.6 3.5 3.9 5.9 4.2 2.3 1.7 2.9 4.8 3 7.7 0 2.7-1.9 4.8-4.1 6.3-1.4.3-2.4 1.3-4.1 1.2-1.6-2.2-3.2-1.3-5.5-1.2-3.7 2-5.3 5.7-9.1 8.1-.5.1-1.5.1-1.6-1.1zm-108.9-3.4c1.3.3 1.9-1 2.6-1.7-.6-1.4.5-3.8-1.2-4.5-1.9-.7-3.2.6-4.6 1.4-.5.5.1 1 .2 1.5 1 .9 2.1 2.3 3 3.3zm117.5-8c-.9-3.7 2.1-6.6 3.7-9.6.9-.5 1.9-1.7 3-1.3.9 1.2.8 2.2.8 3.6-.1 1.6-2.1 1.2-2.1 2.9.1 1.4.6 3.1-.5 4.2-.7.6-1 1.4-2 1.4-1-.5-2.5.1-2.9-1.2zm120.5-6c1-1.5 3.4-2.7 2.7-4.9.7-.3 1-1.5 2-.9.8-1.2 2.4-.7 2.9-2 0-.9.1-1.6-.1-2.6-.3-1.7-2.3-.9-3.7-1.2-.8-.8-1.7 1-2.3-.3-.3-.8 0-1.6.3-2.3-.5-1.2 1-2 1.6-2.9 1.2.9-.9 1.6 0 2.7.8.2 1.6.1 2.2-.5.3-.5.7-1 .5-1.6-.8-.6-1.4-1.6-2.6-1.3.2-1 1.4-1.9 2.3-2.4 5.1 1.7 2.9-3.9 6.4-5.2 2.8-2.8 8.1.9 10.4-2.7.5-1.5-1.4-2.7-1.6-4.2 2-1.5 5.5-.3 6.6-3.1-.2-2.8 2.6-5 4.6-6.7 1.7-.9 2 1.2 3.4 1.5.2.3.3 1-.1 1.3-1.7.1-1.5-1.7-3.4-1.5-.3 1.3-2 1.7-3 2.3.2.8.2 1.7.6 2.4.9 0 1.6-.5 2.2-1.2.7.2 1.7-.6 2.4.1 2.6.5 2.8-3 4.9-3.5 1.5.7 2.6-1 4.2-.9 1.5.5 2.3 2.1 3.5 2.9 1 .3 2.1 0 2.9-.5 1.6-.5.8 1.5 1.4 2.2 1.2.7 2.1.3 3.4.9 1.2-.1 2.1-.6 2.9-1.3.7-1.3 1.4-2.7.6-3.9.3-.9-.1-2.3.9-2.8l-.2-.1c1.2-2.2 4.8-2.3 5.1-5.1.6-.1 1-.9 1.6-.6.3.7-.6.9-.9 1.5-.2.7-.3 1.9.1 2.4.6.9 1.7.9 2.8.9 2.3-.7 4.5-1.4 6.6-2.8 1.2-1.5.6-3.2.5-5.1.1-.7.8-1 1.6-.8 1 .2 1.4 1.3 2.1 1.9 2.3-1.3 2.6 2.4 5 1.2 1.4-.7 3.8-1.2 3.6-3.1-.3-.7-1.2-1-1.7-1.3-1.4.2-2 2-3.4 2-.1-.3.3-.5.2-.8.9-1.9 3.5-1.9 5.3-1.7l.8.3c1.5-.3 3.1-.9 3.8-2.3 1.7-.3 0-2.7.8-3.9 1.9-1.7 2.8-4.2 2.1-6.5-1.4-2-1.5-5-4.9-5.2-.6.2-1 1-2 .9-1 0-1.2.9-1.5 1.6-.5.6-1.2.9-1.7.7-.8-1.6.7-3 1.6-4.3 0-1.4.2-3.1-1.5-4.1-1.2-.3-1.6-.5-3.9-.2-1.7.8-4.2.5-6.2 1.2-4.1 3.9-9.7 4.3-15.1 5.3-1.4.3-2.4 1.4-2.4 2.8-1.5 3.9-5.9.9-8.7 3-2.4 1.6-4.4 3.7-5.9 5.8-.5 1.6-2.6 1.7-3.6 3-.9-1.2-2.6-.8-4.1-.9-1.5.7-2.4 2.2-3.5 3.4-1.7.3-2.1 2.7-3.8 2.6-1.9 2.6-3.2-1.2-5.1-.7-2.2 1-4.5 1.5-6.4 3.1-.6-.1-1.3-.2-1.7-.6-4.1.1-7.9 2.8-11.8 1.3-3.1.1-6.3-1.7-9.2-.5-2.4-.2-4.6.8-6.7 1.9-1.4.2-2.9 1.3-4.3.7-4.5.5-9.2 1.5-13.8.7-3.2-1.3-6.4-.3-8.9 1.4-1 .7-3.1-.9-3.8.8-.8.8-.2 2.7-2 2.4-.3-.3-.7-.8-.6-1.3.3-1.2 1.4-2.7.3-3.7-.8-2.2-3.5-.9-5-.9-1.6-.9 0-2.4-.9-3.6-.5-1.3-1.9-1.5-3.1-1.7-1.3.7-2.2 1.9-1.7 3.4.9 1.5 2.8 2.7 4.6 3 1.4 1 .7 3 .7 4.3 1.2.9-.3 2.3 1.3 3 .1 1.3 1.4 1.4 1.7 2.4l1 .1c.2.1.3.3.3.7.6.6 1.4.8 2.4.7 1.4-.6 2.7-1 3.2-2.6.5 0 .6-.5.5-.8.5-1.7 2.8-1.6 4.3-1.9.7.6 1.4 1.3 1.6 2-.3.8-.9 1.3-1.7 1.6-5.3.8-8 5.3-11.6 8.8-2.7.3-1.4-2.4-2.9-3.4-.9-.2-2 .3-2.7 1-.7-.5-1.9.2-2.2-.7-.3-2.1.5-3.8.7-5.7-.2-1.3 0-3.2-1.6-4.1-1.3 0-2.6.8-3 1.9-.9 2.2-4.4 1.7-4.9 4.1-1.2.8-1.6 2.6-3.2 2.6-1.2-1-3.5-.8-3.8-2.7-2.3.3-1.3-2.3-3.2-2.7-.9-.2-2.3-.2-3 .6-.9 1.3-.2 2.4 0 3.8-.9.8-2.4.5-3.2 1.6-1 1.4-2.3 2.4-3.4 3.6.2 1.4-1.4 2.2-1.3 3.6.3.9 1.4 1.4 2.4 1.4 2.6-1.9 5.2-3.6 8.4-4.1 2 .7 3.7 1.5 5.5 2.8 3.5 1.4 4.2 4.9 6.4 7.2.6 1.2 2.7 1.6 2.4 2.9 1.5 1.7-3 2.1-2 4.3.8 1.5 2.3.2 3.7.6 1.4-.8 3.7-.3 5 .1 1.2-.1 1.9.9 3 .7 1.3-.1 2-1.4 2.6-2.3.9-1.6 1.2-3.4-.1-5 .5-2.6 2.1-4.6 3.5-6.8.2-1 .1-2.3.8-3.1 2.3-3.2 6-5.1 10.2-4.8.7.9 1.4 1.9 2.1 2.8.6 1.2 2.3.9 3.4.7 1.6-1.6 3.6-3.1 3.7-5.5 1.2-1.6 2.9-2.7 5.1-2.2 4.5.8.9 4.8 1.7 7 1 1.5 2.2 3.6 4.5 3.8.8-.2 1.9-.2 2.6-.9 1-1.2.8-2.7.2-3.9.5-.8 1.6-.1 2.4-.6.3.5.7.9.3 1.5-.7 1.6 1.7 2.1 2.6 3.1 1 2.4-3 2.3-3.2 4.5-.6 1.7.8 2.8 2.3 3.8-.2.3-.1.8-.2 1.3-.5.7-1.3.8-2.1.7-1.9 1.2 1 2.6-.8 3.8-.2 1-.2 2.4.8 3 1.5.8 1.6-.8 2.6-1.2.1-2.1 2.7-1.9 4.2-2.4.6.7.9 1.3 1.3 2.1 2.4.2.3 1.7.9 3-.6.7-1.4.9-1.9 1.6-.2 1-.7 2.2 0 3.1.4 1.3 1.1 1.9 2.2 1.9zm-41.4-19.5c.3-1.3.1-2.9-.5-4.1-.7-.2-1.2-1.9-2.1-1-1 1.5-3.8 3-2.3 5.3.9 2.7 3.9 1.8 4.9-.2zm37.2-13.4c-1-.1-1.7-1-2.8-1.2-.7-2.2.8-5.1-.8-7.1.7-2-3.2-.5-2-2.9.6-2.9 3.4 2.9 5.5-1.6l3.8-2.3c1.2.3 3.5.9 3.7 2.9-.9 2.3-4.4 3.5-3.5 6.2.2.8 1.2.9 1.7 1.2 2 .2 1.4-2.1 2.8-2.7.6-.7 1.4-1.2 2.2-1.5 1 .5.1 1.3 0 1.7-4.1 1.6-2.1 6.2-4.6 8.5-2-.3-4.9 1.2-6-1.2zm62.4-30.2c.1-1.2 1.6-1.2 2.6-1.4 2-1.2 2.8-4.1 5.3-2.3.2 0 .3-.2.3-.5v-.5c3.1-.5 5.1-3.5 7.2-5.6 1.7-1.7 2.7-4.3 5.5-4.1 1.5 1.3 2.1 3.4 1.7 5.5-.9 1.5-2 3.8-3.9 4.2-.6 1.4-2.3.3-2.9 2-1.9.3-3.4 1.5-5.5 1.4-2.9.5-6.3.2-8.5 2.1-.6-.3-2.2.6-1.8-.8zm-149-19.2c1.5-.3 1.2-2.3.9-3.4l-1.6-.1c-.8.8-1.4 1.9-1.2 2.9.4.6 1.3.6 1.9.6zm182.1-1.3c1.4.8 2.3-.6 3.2-1.4 1-.1 1.6-.9 2.1-1.6-.2-.2-.5-.6-.8-.7.1-.1.2-.3.5-.3v-.3c-1.6-1-3.1.5-4.6 0-2.2.8-2.2 3-2.8 4.9.6.5 1.9.4 2.4-.6zm-187.2-3.4c.5-2.9 1.7-5.6 1.4-8.5.7-1.5 2.7-2.3 2.9-3.8 1.6-3.1-2.3-3.8-2.4-6.4.5-.8 1-1.7 1.6-2.4l-.2-.1c.2-.1.2-.3.5-.3l-.1-.6c1.3-1.7 2.8-4.2 2-6.3-2.4-.3-4.1 2.4-5.1 4.2-.6 2.2-1.7 4.6-4.1 5.7-.7.9-.8 2.1-.3 3.1-1.2 2.3-1.4 5.2 0 7.5 2.1 2.3-1.4 4.5 0 7.2.2 1.5 2.8 2.5 3.8.7z" fill="#ab4526"/><path d="m794.6 250c-1.9-1.2-3.7.6-5.6 0-2.7.9-2.7 3.7-3.2 5.8.8.7 2.4.5 2.9-.6 1.6.9 2.8-.7 3.8-1.7 1.2-.1 2-1.2 2.4-2-.2-.3-.6-.7-.9-.8z" fill="#bb644d"/></svg>