<svg enable-background="new 0 0 500 500" viewBox="0 0 500 500" xmlns="http://www.w3.org/2000/svg"><path d="m77.2 78.1h346.8v343.3h-346.8z" fill="#0097cc"/><g fill="#fff"><path d="m110 198.8v-67.1h9.7l25.2 58.5 25.7-58.5h9.2v67.1h-6v-62h-.2l-25.7 62h-6l-25.7-61.7h-.2v61.7z"/><path d="m196.2 152.2 15.7 39 15.6-39h6l-25.7 64.5h-6.1l7.1-17.8-19.3-46.7z"/><path d="m107.3 215.4h25.1c3.9 0 11.4 0 16.5 3.2 6.1 3.9 7.5 10.4 7.5 14.3 0 2.5-.5 6.9-3.9 10-.5.6-3.7 3.5-7.6 4.6v.2c10.2 1.9 14.2 9.3 14.2 16.4 0 7.9-4.6 13.2-9.9 15.8-5.2 2.7-14.3 2.7-16.9 2.7h-25.1v-67.2zm13.8 27.3h10c4.1 0 11.5 0 11.5-8.6 0-8.4-7.1-8.4-11.8-8.4h-9.8v17zm0 29h9.8c6.6 0 14 0 14-9 0-9.6-8.6-9.6-15.5-9.6h-8.3z"/><path d="m169 215.3h13.8v67.2h-13.8z"/><path d="m208.3 235.6v28c0 4.1 0 10.3 7.3 10.3 8.8 0 8.8-6.6 8.8-14.6v-23.7h14.1v30.9c.2 10.1.3 11.3.3 12.6.1 1.3.2 2.1.4 3.4h-13.4l-.5-6.2c-1.4 2.1-4.9 7.4-13.8 7.4-6.3 0-11.5-2.9-14.1-6.3-3.1-3.8-3.1-10.3-3.1-12.6v-29.2z"/><path d="m262.7 262.6c0 3.1 0 12.5 9.6 12.5 3.4 0 6.9-1.3 8.2-6.5h12.5c-.2 2.2-.6 6.2-4.5 10.2-3.4 3.6-9.6 5.5-16.4 5.5-4 0-11.6-.7-16.5-5.9-4.3-4.5-6-10.8-6-18.3 0-7.6 1.9-16.7 9.8-22.2 3.6-2.4 8.1-3.9 13.2-3.9 6.7 0 14.7 2.6 19 11.3 3.2 6.4 3 13.3 2.8 17.2h-31.7zm17.5-8.7c0-2.1-.2-10.5-8.2-10.5-6 0-8.5 5-8.8 10.5z"/><path d="m107 299.2 22.2.1c3.7 0 15.1.1 23.1 6 8.5 6.2 11.4 16.8 11.4 26.4 0 20.6-11.1 31.4-23.8 33.7-2.5.5-5.3.7-12.1.7h-20.8zm14.6 56c1.6.1 4 .2 5.7.2 6.1 0 11.4-.5 15.6-4.7 5.7-5.7 6-15.7 6-19 0-9.5-3.3-18.2-12.3-20.7-3-.8-6.8-1.3-15.1-.9v45.1z"/><path d="m196.2 318.2c17 0 24.4 11.5 24.4 24.6 0 13.2-7.6 25.1-24.6 25.1-13.4 0-24-8.3-24-24.7 0-11.3 5.7-25 24.2-25zm.2 40.1c6 0 10.1-3.6 10.1-16.1 0-6.2-1.2-14.9-10.3-14.9-10 0-10.1 11.6-10.1 15.9 0 10.6 3.5 15.1 10.3 15.1z"/><path d="m255.7 335.9c-.2-1.7-.7-8.6-6-8.6-6.5 0-7.3 9.9-7.3 15 0 2.6.3 11 3.4 14.4 1.3 1.4 2.7 1.6 3.7 1.6 1.5 0 5.8-.7 6.3-9h13.6c-.2 3.6-.6 9.3-6 13.8-3.3 2.9-7.5 4.4-13.4 4.4-6.2 0-11.7-1.4-16-6.2-4.1-4.7-6-11-6-18.5 0-21.4 15.7-24.4 21.9-24.4 8.7 0 19.1 4.8 19.1 17.6h-13.3z"/><path d="m305 365.6c-4.5 1.2-8.5 1.5-10.7 1.5-13.8 0-13.8-8.7-13.8-12.6v-25.7h-9v-9.1h9v-9.2l13.7-5v14.2h11.2v9.1h-11.2v21.2c.1 4.3.1 7 6.2 7 2 0 3-.1 4.6-.3z"/><path d="m333.8 318.2c17 0 24.4 11.5 24.4 24.6 0 13.2-7.6 25.1-24.6 25.1-13.4 0-24-8.3-24-24.7-.1-11.3 5.7-25 24.2-25zm.2 40.1c6 0 10.1-3.6 10.1-16.1 0-6.2-1.2-14.9-10.3-14.9-10 0-10.1 11.6-10.1 15.9 0 10.6 3.5 15.1 10.3 15.1z"/><path d="m368.5 330.8c0-2.2-.4-9-.6-11.7h12.9l.3 9c1.8-4 4.8-9.7 16-9.1v12.4c-13.9-1.3-14.8 5.8-14.8 11.7v23.1h-13.8z"/></g></svg>