<svg enable-background="new 0 0 500 500" viewBox="0 0 500 500" xmlns="http://www.w3.org/2000/svg"><g fill="#fff"><path d="m410.8 397c0-3.9-1.9-6-7.5-6h-9.3v21.5h2.8v-9.5h4.6l6.1 9.5h3.1l-6.4-9.5c3.8-.3 6.6-1.9 6.6-6zm-10.2 3.5h-3.8v-7h5.9c2.6 0 5.1.4 5.1 3.4.1 4.1-4.2 3.6-7.2 3.6z"/><path d="m401.1 383.1c-10.5 0-18.9 8.5-18.9 18.8 0 10.4 8.5 18.8 18.9 18.8s18.8-8.4 18.8-18.8c0-10.3-8.4-18.8-18.8-18.8zm0 34.6c-9.3 0-15.9-6.6-15.9-15.8 0-9.1 6.6-15.7 15.9-15.7 9.2 0 15.8 6.6 15.8 15.7 0 9.2-6.6 15.8-15.8 15.8z"/><path d="m268.7 196.5h41.9c-10-11.7-23.4-20.4-38.6-24.8 4.7 7.9.9 18.1-3.6 22.9-.9.8-.4 1.7.3 1.9z"/><path d="m219.1 233.8-47.3-4.4c-1.5 6.1-2.3 12.5-2.3 19 0 19.9 7.3 38 19.3 52l33.1-63c.9-1.9.6-3.4-2.8-3.6z"/><path d="m230.9 194.6c-4.4-4.8-8.3-15.1-3.5-22.9-15.3 4.4-28.6 13.2-38.6 24.8h41.9c.7-.2 1.1-1.1.2-1.9z"/><path d="m250.5 273.1c-.2-.1-.4-.2-.6-.2-.5 0-.9.2-1.3.8l-31 47.9c10 4.4 21 6.7 32.7 6.7 11.6-.1 22.7-2.6 32.6-7.1l-31.6-47.5c-.3-.3-.6-.5-.8-.6z"/><path d="m280.3 233.8c-3.4.3-3.7 1.7-2.9 3.7l33.1 63c12.1-14 19.3-32.1 19.3-52 0-6.5-.8-12.9-2.3-19z"/><path d="m418.7 173.1h-94.3v-93.8h-150.1v93.8h-94.2v150.1h94.2v93.8h150.2v-93.8h94.3v-150.1zm-169.6-17.4c37.3-.2 69.7 21.4 84.8 52.9l-66.3.4c-9.5-.1-13.7-5.6-13.9-10.1-.3-5.3.6-7 4.9-12.7 4.8-6.4 1.3-18.7-9.5-18.8-10.8.3-14 12.5-9.2 18.9 4.4 5.6 5.3 7.3 5.1 12.6-.2 4.5-4.3 10.1-13.8 10.3l-66.2.5c14.7-31.6 46.8-53.7 84.1-54zm-92.5 93.3c-.1-11.5 2-22.5 5.7-32.7l62.5 5.6c11.7 1.5 13.2 12.9 10.1 19.7l-42.3 80.3v-.1c-21.7-16.9-35.8-43.2-36-72.8zm93 92.1c-18.9 0-36.5-5.6-51.1-15.3l45.4-67.5c3.3-4.7 8.4-4.4 11.6 0l45.3 67.5c-14.7 9.7-32.2 15.3-51.2 15.3zm58-20.1-43.3-79.6c-3.2-6.8-1.9-18.1 9.8-19.8l62.4-6.4c3.9 10.1 6.1 21.1 6.1 32.6.4 29.6-13.4 56.1-35 73.2z"/></g></svg>