<svg enable-background="new 0 0 996 534" viewBox="0 0 996 534" xmlns="http://www.w3.org/2000/svg"><g fill="#fff"><path d="m205.5 210.2c-3.5 3.7-5.3 8.6-5.3 14.6v12.9h26.2v5.9h-26.2v76.9h-6.7v-76.9h-10.8v-5.9h10.8v-12.2c0-5.3 1.1-10 3.3-14.2 2.2-4.1 5.2-7.4 9-9.7 3.7-2.3 7.8-3.5 12.1-3.5 5.1 0 9.9 1.3 14.5 3.9l-2.1 5.9c-4.3-2.2-8.2-3.3-11.6-3.3-5.3 0-9.7 1.9-13.2 5.6zm43.8-3.3c1.1 1.1 1.7 2.5 1.7 4.2s-.6 3.2-1.7 4.3-2.5 1.7-4 1.7-2.9-.6-4-1.7-1.7-2.6-1.7-4.3c0-1.6.6-3 1.7-4.2 1.1-1.1 2.5-1.7 4-1.7s2.8.6 4 1.7zm-7.4 28.6h6.7v84.9h-6.7z"/><path d="m348.4 244.3c5.8 5.9 8.7 14 8.7 24.4v51.8h-6.8v-50.5c0-8.7-2.4-15.5-7.3-20.4s-11.7-7.3-20.4-7.3c-9.7.2-17.4 3.2-23.2 8.9s-9.1 13.5-9.9 23.4v45.9h-6.8v-84.9h6.8v21.7c2.8-7 7.2-12.3 13.1-16s13.1-5.6 21.6-5.9c10.3 0 18.3 2.9 24.2 8.9z"/><path d="m463.5 199.5v120.9h-6.8v-22.2c-3.3 7.1-8 12.6-14.3 16.6s-13.6 6-21.8 6c-7.9 0-15.1-1.8-21.3-5.5-6.3-3.7-11.2-8.8-14.7-15.2-3.5-6.5-5.3-13.8-5.3-22.1s1.8-15.6 5.3-22.2c3.5-6.5 8.4-11.6 14.7-15.3 6.2-3.7 13.3-5.5 21.3-5.5 8.4 0 15.7 2 22 6s11.1 9.6 14.3 16.6v-58.2h6.6zm-24.1 110.3c5.4-3.1 9.6-7.5 12.6-13s4.6-11.8 4.6-18.7c0-7-1.5-13.2-4.6-18.7-3-5.5-7.3-9.9-12.6-13-5.4-3.1-11.4-4.7-18.2-4.7-6.7 0-12.8 1.6-18.2 4.7-5.4 3.2-9.6 7.5-12.7 13s-4.6 11.8-4.6 18.7c0 7 1.5 13.2 4.6 18.7 3 5.5 7.3 9.9 12.6 13 5.4 3.2 11.5 4.7 18.3 4.7 6.8.1 12.9-1.5 18.2-4.7z"/><path d="m530.4 245.4c-4-1.1-8-1.7-11.9-1.7-5.4 0-9.8 1.1-13.1 3.2s-5 5.3-5 9.5c0 2.9.9 5.3 2.7 7.2 1.8 1.8 4 3.3 6.7 4.5 2.7 1.1 6.4 2.4 11.2 3.8 5.9 1.7 10.6 3.4 14.3 5.1s6.8 4.1 9.5 7.3c2.6 3.2 3.9 7.4 3.9 12.6 0 7.7-2.9 13.6-8.8 17.7s-13.2 6.1-22 6.1c-6.2 0-12.2-1-17.9-3.1-5.8-2.1-10.6-5-14.5-8.8l4.4-7.8c3.7 3.4 8.1 6 13.1 8 5.1 2 10.2 2.9 15.4 2.9 5.8 0 10.5-1.2 14.1-3.6s5.5-5.9 5.5-10.4c0-3.1-.9-5.7-2.8-7.7s-4.2-3.6-6.9-4.7c-2.8-1.1-6.6-2.5-11.5-4-5.8-1.7-10.4-3.4-14-5s-6.6-4-9.1-7.1-3.7-7.1-3.7-12.1c0-7.5 2.8-13.1 8.4-16.9s12.6-5.7 20.9-5.7c4.9 0 9.6.7 14.2 2s8.6 3.1 12.2 5.4l-4.2 8.3c-3.4-2.3-7-3.9-11.1-5z"/><path d="m703 243.5c5.6 5.9 8.5 14 8.5 24.4v52.5h-11.1v-49.9c0-8.1-2.2-14.5-6.6-19s-10.5-6.8-18.2-6.8c-9.1.2-16.3 3.4-21.4 9.5-5.2 6.1-7.7 14.1-7.7 24.1v42h-11.1v-49.9c0-8.1-2.2-14.5-6.6-19s-10.5-6.8-18.2-6.8c-9.1.2-16.3 3.4-21.5 9.5s-7.8 14.1-7.8 24.1v42h-10.9v-85.4h10.9v20c2.8-6.7 7-11.8 12.6-15.2s12.4-5.1 20.4-5.2c8.2 0 14.9 2 20.3 6s8.9 9.7 10.7 16.9c2.6-7.6 6.8-13.3 12.6-17.1s13-5.8 21.4-5.9c10.2.4 18 3.4 23.7 9.2z"/><path d="m751.6 205c1.4 1.5 2.1 3.3 2.1 5.5s-.7 4-2.2 5.5-3.2 2.3-5.3 2.3c-2.2 0-4-.8-5.5-2.3s-2.2-3.4-2.2-5.5.7-4 2.2-5.5 3.3-2.2 5.5-2.2 3.9.7 5.4 2.2zm-11 30.1h10.9v85.4h-10.9z"/><path d="m784.1 199.5h10.9v120.9h-10.9z"/><path d="m891.4 247.4c6.9 8.4 10.2 19.7 9.6 34h-71.2c.8 9.1 4.1 16.5 10.1 22.1s13.4 8.4 22.2 8.4c5.4 0 10.5-1 15.2-2.9s8.7-4.7 12.1-8.3l6.2 6.2c-4.1 4.5-9.1 7.9-14.9 10.3s-12.2 3.7-19.1 3.7c-8.3 0-15.6-1.8-22-5.5-6.4-3.6-11.4-8.7-15.1-15.2-3.6-6.5-5.5-14-5.5-22.3s1.8-15.7 5.5-22.2c3.6-6.6 8.7-11.7 15.1-15.3s13.6-5.5 21.7-5.5c13-.2 23.1 4 30.1 12.5zm-.2 25.5c-.5-8.9-3.5-16-8.9-21.3s-12.4-7.9-21.1-7.9c-8.6 0-15.7 2.7-21.5 8s-9.1 12.4-9.9 21.2z"/></g></svg>