<svg enable-background="new 0 0 500 500" viewBox="0 0 500 500" xmlns="http://www.w3.org/2000/svg"><path d="m292.2 252-7.4-17c-.6-.6-1.2-1.7-2.2-1.7l-.6-.6c-.6 0-1.7-.6-2.2-1.2l-6.2-1.2c-2.2.6-2.8 2.2-2.8 4.6 0 2.8 1.2 2.8 1.7 5.7 0 2.8-1.2 2.8-.6 5.1v5.7 5.7c0 2.8-.6 2.8-.6 5.7.6 2.8 1.2 2.2 1.2 5.1l1.7.6c.6 0 1.7 0 2.8-.6l5.7-3.4c.6 0 1.7-1.2 2.2-1.7l6.8-7.9c.5-1.2 1-2.3.5-2.9z" fill="#ffd55b"/><g fill="#231f20"><path d="m198.7 209v1.7s.6.6.6 1.2.6.6 1.2 1.2c0 .6 0 1.2.6 1.2 0 .6.6.6 1.2 1.2 0 0 .6.6 1.2.6s1.2 0 1.2.6h1.7c.6 0 1.2 0 1.7-.6h1.2c.6-.6 1.2-.6 1.2-.6.6-.6 1.2-.6 1.2-1.2.6 0 .6-.6 1.2-1.2 0-.6.6-.6.6-1.2s0-1.2 0-1.7c.6 0 .6-.6.6-1.2 0-.6 0-1.2 0-1.7 0-.6-.6-.6-.6-1.2-.6-.6-.6-1.2-.6-1.2 0-.6-1.2-.6-1.2-1.2-.6-.6-.6-.6-1.2-.6-.6-.6-.6-1.2-1.2-1.2s-1.2 0-1.2 0c-.6-.6-1.2-.6-1.7-.6-.6 0-1.2 0-1.2 0-.6.6-1.2.6-1.7.6-.6 0-.6.6-1.2.6-.6.6-.6.6-1.2 1.2-.6 0-.6.6-1.2 1.2 0 0 0 .6-.6 1.2v1.2c0 .5-.6 1.1-.6 1.7z"/><path d="m284.8 208.4c0 .6.6 1.2.6 1.7v1.2c.6.6.6 1.2.6 1.2.6.6 1.2 1.2 1.2 1.2.6.6.6.6 1.2 1.2.6 0 .6.6 1.2.6s1.2 0 1.7.6h1.2 1.7c.6 0 1.2-.6 1.2-.6.6 0 1.2-.6 1.2-.6.6-.6 1.2-.6 1.7-1.2 0 0 0-.6.6-1.2 0 0 .6-.6.6-1.2s.6-.6.6-1.2 0-1.2 0-1.7c0-.6 0-1.2 0-1.2 0-.6 0-1.2-.6-1.7 0-.6-.6-.6-.6-1.2-.6-.6-.6-.6-1.2-1.2 0 0-.6-.6-1.2-.6 0-.6-.6-.6-1.2-.6-.6-.6-.6-1.2-1.2-1.2s-1.2.6-1.7.6c-.6 0-.6 0-1.2 0s-1.2 0-1.7 0c0 .6-.6.6-1.2.6-.6.6-.6.6-1.2 1.2s-.6.6-.6 1.2c-.6.6-1.2.6-1.2 1.2s0 1.2 0 1.7c-.6 0 0 .6 0 1.2h-.5v.6z"/><path d="m199.3 292.2v1.7l1.2 1.2v1.2c.6.6 1.2 1.2 1.2 1.2.6.6.6 1.2 1.2 1.2.6.6.6.6 1.2.6.6.6 1.2 0 1.7.6h1.2s1.2 0 1.7 0c.6 0 .6 0 1.2-.6.6 0 1.2-.6 1.2-.6.6-.6 1.2-.6 1.2-1.2.6 0 1.2-.6 1.2-.6 0-.6 0-1.2.6-1.7 0-.6 0-.6 0-1.2.6-.6.6-1.2.6-1.7 0-.6 0-1.2 0-1.2 0-.6-.6-1.2-.6-1.7-.6 0-.6-.6-.6-1.2s-.6-.6-1.2-1.2c-.6 0-.6-.6-1.2-1.2 0 0-.6 0-1.2-.6-.6 0-.6 0-1.2 0s-1.2 0-1.7 0c-.6 0-1.2 0-1.2 0-.6 0-1.2 0-1.7.6-.6 0-.6 0-1.2 0-.6.6-1.2.6-1.2 1.2-.6.6-.6.6-.6 1.2-.6.6-1.2.6-1.2 1.2v1.7 1.2l-.6-.1v.6z"/><path d="m284.8 292.8v1.7c0 .6.6.6.6 1.2s0 1.2.6 1.7c0 0 .6.6 1.2.6 0 .6 0 1.2.6 1.2.6.6 1.2.6 1.7.6 0 0 .6.6 1.2.6h1.7 1.2c.6 0 1.2 0 1.7-.6 0 0 .6-.6 1.2-.6 0-.6.6-.6 1.2-1.2l.6-.6c.6-.6.6-1.2.6-1.7.6-.6.6-.6.6-1.2s.6-1.2.6-1.7h-.6c0-.6 0-.6 0-1.2s-.6-1.2-.6-1.7c0 0-.6-.6-.6-1.2-.6 0-.6-.6-.6-1.2-.6-.6-1.2-.6-1.2-.6-.6-.6-1.2-.6-1.7-.6 0-.6-.6-.6-1.2-1.2-.6 0-1.2.6-1.2.6-.6 0-1.2 0-1.7 0-.6 0-1.2 0-1.2 0-.6.6-1.2.6-1.7.6 0 .6-.6 1.2-.6 1.2-.6.6-1.2.6-1.2 1.2-.6.6-.6 1.2-.6 1.2 0 .6-.6 1.2-.6 1.7z"/></g><path d="m232.1 228.8c2.8-.6 2.8 0 5.7 0 2.8.6 2.8 0 5.7 0s2.8-.6 5.7-.6h5.7s2.8.6 5.1 1.2c2.8 0 2.8.6 5.7.6h2.2c0-1.2 0-1.7 0-2.2l-1.2-6.2c0-1.2-.6-2.2-1.2-2.8l-4-3.4c-.6-.6-1.7-1.7-2.2-2.2 0 0-4-2.2-5.7-3.4-1.7-.6-11.3 1.2-12.5 1.2-.6 0-2.2 0-2.8.6l-4.6 7.4c-.6.6-1.2 1.7-1.7 2.8l-1.2 5.7c-.4.7.2 1.9 1.3 1.3z" fill="#ffd55b"/><path d="m266.6 273.5c-2.8-.6-2.8 1.2-5.7 1.2-2.8-.6-2.8-1.7-5.7-1.7s-2.8.6-5.7.6c-2.8 0-2.8 0-5.7-.6-2.2 0-2.2 1.2-5.1 1.2-2.8 0-2.8 0-5.7-.6-2.2 0-2.8-.6-4 1.2 0 .6 0 1.2.6 1.7l3.4 5.7c.6 1.2 1.2 2.2 1.7 2.8l6.8 5.7h.6c.6 0 1.2.6 1.7.6h1.2c-.6 0-.6 0-.6 0h1.2 2.2l14.7-6.8c.6 0 1.7-1.2 1.7-1.7l.6-.6c.6-.6.6-1.7 1.2-2.8l1.2-5.1c0-.8 0-.8-.6-.8z" fill="#ffd55b"/><path d="m227.6 262.2c0-2.8.6-2.8.6-5.7 0-2.8-1.2-2.8-1.2-5.7 0-2.8.6-2.8.6-5.7 0-2.8-.6-2.8-.6-5.7s-1.7-2.8-1.2-5.7c.6-2.2.6-2.2-1.7-3.4l-2.8.6c-.6 0-2.2.6-2.8 1.2l-2.8 4c-1.2.6-1.7 1.7-2.2 2.8 0 0-2.8 3.4-3.4 5.1-1.2 1.7.6 11.3.6 12.5 0 .6 0 2.2 1.2 2.8l6.8 5.1c.6 0 2.2.6 2.8 1.2l6.8 1.7c-.2-2.3-.2-2.8-.7-5.1z" fill="#ffd55b"/><path d="m257.6 162.5c0-2.8 1.7-5.7 1.7-8.5s-1.2-6.2-1.2-9.1c-.6-2.8.6-5.7.6-8.5-.6-2.2-1.7-5.1-2.2-7.4-.6-2.2-1.2-4.6-1.7-6.2-.6-2.2-2.2-3.4-2.8-5.1s.6-3.4 0-4.6c0-.6-.6-1.2-.6-1.7 0-.6-.6-.6-.6-.6 0-.6 0-.6 0-.6 0-.6 0-.6-.6-.6 0 0 0 0 0-.6l-.6-.6c-.6 0-1.2.6-1.2 1.2v.6-.6.6c0 .6 0 .6-.6.6v.6s-.6 1.2-.6 1.7c0 1.2 0 2.2-.6 2.8-.6 1.2-1.2 2.8-1.2 4 0 .6-.6.6-.6 1.2s-.6 1.2-.6 1.7c-.6 1.7-.6 4-1.2 6.8-.6 2.2-.6 4.5-1.2 7.4 0 2.8-1.7 5.1-1.7 7.9-.6 2.8-1.2 6.2-1.2 9.1s1.2 5.7 1.7 8.5c0 2.8 0 5.7.6 8.5s0 5.1.6 7.9c.6 2.2 2.2 4 2.8 5.7.6 2.2.6 4.6 1.2 6.2.6 1.2.6 2.8 1.2 4l1.7 1.7c.6-.6 2.2-1.2 2.2-1.7.6-1.2 1.2-2.8 1.7-4.6.6-1.2 0-3.4.6-5.7.6-1.7 2.8-3.4 3.4-5.7.6-2.8.6-5.1 1.2-7.9.9-2.2-.7-5.6-.2-8.4z" fill="#007db5"/><path d="m197 249.2v.6s0-.6-.6-.6c0 0-.6 0-1.2 0-1.2-.6-2.2-1.2-3.4-1.7-1.2 0-2.2 0-3.4 0-1.2-1.2-2.8-2.2-4.6-2.8-1.7-.6-4-.6-6.8-1.2-2.2-.6-4.6-1.7-7.4-2.2-2.2 0-5.1-1.2-7.9-1.7-1.7 0-2.8.6-4.6 1.2-1.2 0-2.2 0-3.4 0-2.2.6-4.6 0-6.8-.6-.6 0-1.2 0-1.7 0-.6 0-1.2 0-1.7 0-2.8.6-5.1 1.7-7.9 2.2-2.8.6-5.1.6-7.4 1.2-1.7 0-3.4.6-5.1 1.2-1.7 0-2.8.6-4.6.6-2.8.6-5.1 1.7-7.9 2.8-.6 0-1.2 0-1.2 0h-.4l-.6.6h.6c-.6.6-.6 1.2-.6 1.2 0 .6 0 .6.6.6 0 0 0 .6.6.6s1.2 0 1.2 0c1.2.6 2.2.6 2.8 1.2 1.7 0 2.8.6 4 .6 1.2 1.2 2.2 2.2 4 2.8 1.7.6 4 .6 6.8 1.2 2.2.6 4.6 2.2 6.8 2.2 2.8.6 5.7-.6 8.5-.6 3.4.6 6.2.6 9.1.6 2.8 0 6.2.6 9.1 0 2.8 0 5.1-1.2 7.9-1.7 2.8-.6 5.1-1.2 7.4-1.7 2.2-.6 5.1.6 6.8 0h1.2c1.7-.6 3.4-1.7 5.1-2.2.6-.6 1.2-.6 1.7-.6.6-.6 1.2-.6 1.2-.6h2.2c0-.6.6-.6.6-.6s.6 0 .6-.6l.6-.6s0 0 0-.6c-.2-.3-.2-.3-.2-.8z" fill="#b45351"/><path d="m260.5 250.9c0-.6 0-1.7 0-2.2 0-1.7-1.2-3.4-1.7-4.6-.6-.6-1.2-1.2-1.7-1.2h.6c-.6 0-.6 0-.6 0s0 0 .6 0c-.6 0-.6 0-.6-.6v.6c-.6-.6-.6-1.2-1.2-1.2-.6 0-.6-.6-.6-.6h-.6c-.6-.6-1.2-.6-1.7-.6l-4-1.2c-.6 0-1.2 0-1.7 0l-3.4.6c-.6 0-1.2.6-1.7.6l-1.7 2.2c0 .6-.6 1.2-1.2 1.2 0 0-1.2 2.2-1.7 3.4-.6 1.2 0 6.2 0 6.8s.6 1.7.6 1.7l1.7 1.2c.6 1.7 2.8 2.2 5.1 2.8-.6 0-.6 0-.6 0 .6.6 1.2.6 2.2 1.2h-.6 1.2-.6 2.8.6 1.2l3.4-2.2c.6 0 1.2-.6 1.7-1.2l1.7-2.2c.6 0 .6 0 .6-.6h.6c0-.6.6-1.2.6-1.7.6 0 .6-.6.6-1.2.1.1.1-.4.1-1z" fill="#b45351"/><path d="m240 198.2c0-.6 0-.6 0-.6v-.6c0-.6 0-.6 0-.6.6-2.8.6-5.7.6-8.5-.6-2.8-1.7-5.7-2.2-8.5-.6-2.2-.6-5.7-1.7-8.5-1.2-2.2-2.2-5.1-3.4-7.4-.6-1.2-1.2-1.7-1.7-2.2 0-.6-.6-2.2-1.2-2.2-.6-.6-1.7.6-2.2.6-1.2 0-1.2 2.2-1.7 2.2-.6.6-1.7 0-1.7 1.2-.6.6-1.7 1.2-1.7 1.7-.6 1.2-.6 2.2 0 3.4 0 .6 1.2 1.7 1.2 2.2 1.2 2.2 2.2 4 3.4 6.2.6 2.2 0 5.7.6 7.9 1.2 2.2 2.8 4 3.4 6.2.6 1.7 1.2 2.8 1.7 4.6v2.2c.6.6.6 1.7 1.2 2.8 0 .6.6.6.6.6s.6.6.6 1.2h.6.6v.6-.6s0 .6 0 0h.6s0 0 0-.6h.6s0 0 0-.6c.6 0 1.2-.6 1.7-1.2-.6 0-.6 0-.6 0s0 0 .6 0c0 0 .6-.6.6-1.2v-.5h-.5z" fill="#007db5"/><path d="m274.6 330.7c0-.6.6-2.2.6-2.8-1.2-2.2-1.7-5.1-2.8-7.4-.6-2.2-.6-2.8-2.2-5.1-1.7-2.2-2.8-3.4-3.4-6.2-.6-1.2-1.2-2.2-1.2-4v-.6s0 0 0-.6c0-.6 0-1.2 0-1.7 0-.6 0-.6 0-1.2-.6-.6-.6-.6-.6-.6 0-.6-1.2-1.2-1.7-1.2l-.6-.6h.6-.6s0 0-.6 0c0-.6 0-.6-.6-.6 0-.6-.6-1.2-.6-1.2-.6-.6-.6-.6-.6-.6-.6 0-.6 0-.6 0v.6c-.6 0-.6.6-.6.6 0 .6-.6.6-.6.6-.6.6-1.7 1.2-1.7 2.2-.6.6-.6 1.7 0 2.2v.6c-.6 2.8.6 5.7.6 7.9.6 2.8 1.2 5.1 1.7 7.9 1.2 2.8 2.8 5.7 4 7.9 1.2 2.8 1.2 6.2 2.2 8.5 0 .6.6.6 1.2.6l.6.6c.6.6 1.2 1.2 1.7 1.2l.6.6c.6.6 1.2 1.2 2.2.6v.6-.6.6c0-.6 0-.6 0-.6h.6c.6 0 .6 0 1.2-.6.6-.6.6-.6.6-1.2.6 0 .6-.6 1.2-1.2 0-.6.6-1.7.6-2.8.5-.1-1.2-1.2-1.2-2.4z" fill="#00734a"/><path d="m202.1 236.7s0-.6-.6-.6c0 0 0-.6-.6-.6s0 0 0-.6h.6c-.6 0-.6 0-.6 0-.6-.6-.6-.6-.6-.6-.6 0-1.2 0-1.2 0-2.2-1.2-5.1-.6-7.4-1.7-2.2-.6-4-2.2-6.2-3.4-2.2-.6-4.6-1.7-6.8-2.2-2.2-1.2-3.4-3.4-5.1-4.6-.6 0-1.2 0-2.2 0h-.5c-.6 0-1.2-.6-2.2-.6-.6-.6-1.2-.6-1.2 0-.6 0-.6 0-.6 0-.6 0-.6.6-.6.6h-.5c-.6 1.2-1.7 1.7-2.8 1.7-.6.6-1.7.6-1.7 1.7-.6 0-.6 0-.6 0v.6.6c1.2 1.2 2.2 2.2 2.8 3.4l.6.6c0 .6.6.6 1.2 1.2 2.2 1.2 5.1 2.2 7.4 3.4 2.8 1.2 4.6 2.8 7.4 4 2.2 1.2 5.1.6 7.9.6 2.8.6 5.7 2.2 9.1 1.7h1.7 1.7.6v-.6s0 0 0-.6c0 0 .6-.6.6-1.2h.6c0-.6 0-.6 0-.6s0 0 0-.6h.6c-.2-.5-.8-1-.8-1.6z" fill="#b45351"/><path d="m201.5 261h-.6c-1.2-1.2-2.2-2.2-3.4-2.8-2.2-.6-4 0-6.2 1.2-1.2 0-1.7 0-2.2 0-2.8 0-5.7 0-8.5 1.2-2.8.6-5.1 1.7-7.9 2.8-2.2 1.2-5.7 1.2-8.5 2.2-.6.6-1.2 1.7-1.7 2.2-.6.6-1.7 1.2-1.7 1.7-.6 1.2.6 1.7.6 2.8 0 .6.6 1.2 1.2 1.7 0 1.2-1.2 2.8-.6 3.4 1.2.6 2.2.6 3.4 1.2.6 0 1.7-1.7 2.2-1.7h2.2c2.2-1.2 5.1-1.2 7.4-2.2 0 0 .6 0 .6-.6 3.4-1.7 6.2-3.4 9.6-5.1 2.2-1.2 5.1-2.2 7.4-2.8 2.2-.6 4.6-1.2 7.4-1.2 0-.6 0-.6 0-.6.6 0 .6-.6 1.2-.6-.6-.6-.6-1.2-.6-1.7-.1-.5-.7-1.1-1.3-1.1z" fill="#b45351"/><path d="m275.2 167c0-1.2 0-1.7 0-2.2 0-1.2 1.2-2.8.6-4 0-.6-.6-1.7-1.2-2.2-.6-.6-1.2-.6-1.2-1.2-.6 0-.6 0-.6 0h-.6c-.6 0-1.2.6-1.7 1.2-.6 0-.6 0-1.2 0v.6c-.6 0-.6 0-.6 0h.6s0 0-.6.6v.6c-1.2 1.7-1.7 4-2.8 6.2-1.2 1.2-1.7 1.7-2.2 2.8v.6.6c-1.2 2.2-2.2 5.1-2.8 7.4-.6 2.8-1.2 6.2-1.7 9.1 0 2.2.6 4 .6 6.2v2.8 1.2 1.2c0 .6 0 1.2.6 1.2v.6c0 .6.6.6 1.2.6 0 .6.6.6.6 1.2h.6v.6h.6.6s0 0 0-.6h.6c0-.6.6-1.2.6-1.7.6-.6.6-.6.6-.6s0-.6.6-1.2v.6c.6-2.8 1.2-5.1 1.7-7.9 1.2-2.2 1.7-4.6 2.8-6.8.6-2.2 1.7-4 2.8-6.2.6-2.2.6-5.7 1.7-7.9-.2-1.7-.2-2.2-.2-3.4z" fill="#007db5"/><path d="m343.7 270.1s0-.6-.6-.6c-.6-.6 0-2.2-1.2-2.2-2.8-1.2-5.7-2.2-8.5-3.4s-7.4 0-10.2-1.2c-2.8-.6-5.7-2.2-9.1-2.2-1.7 0-3.4-.6-5.7-.6-.6 0-1.2 0-1.7 0-.6 0-.6 0-1.2 0h-.6-.6c-1.2.6-2.2 1.7-3.4 2.2-.6 0-1.2 0-1.7 0 0 .6-.6 1.2-.6 1.2 0 .6.6.6 1.2 1.2v.6h.6s0 0-.6 0c.6.6 1.2 1.2 1.7 1.2 0 0 0 .6.6.6 1.2.6 2.2 1.7 3.4 1.2h.6c1.2 0 1.7.6 2.2.6h2.2 1.2c2.2 1.2 4.6 2.8 6.8 3.4s5.1 1.7 7.4 2.2c2.8 1.2 4.6 2.2 7.4 2.8.6.6 2.2-.6 3.4-.6h2.2c1.2-.6 2.8.6 3.4.6.6-.6.6-.6.6-.6 0-.6 0-.6.6-.6v-.6-.6c0-.6.6-1.2.6-1.7.2-1.1.2-1.7-.4-2.9z" fill="#783a82"/><path d="m258.2 347.2c0-2.8-1.2-5.7-1.2-8.5-.6-2.8 0-5.7-.6-8.5 0-2.8-.6-5.1-1.2-7.4-.6-2.2-1.2-4.6-1.7-6.8-.6-1.7-1.2-3.4-1.7-5.1-.6-1.7-1.2-2.8-1.7-4 0-.6 0-1.2-.6-1.2 0-.6 0-.6 0-1.2s0 0 0-.6v-.6h-.6.6c-.6-.6-1.2-.6-1.7 0-.6.6-.6.6-1.2 1.2v.6c-.6.6-1.2 1.2-1.2 2.2-.6 1.2-.6 2.8-.6 4 0 1.7-.6 2.8-1.2 4.6-.6 2.2-.6 4.6-1.2 6.8s-1.7 4.6-2.2 7.4c0 2.8-1.7 5.1-1.7 7.9-.6 2.2.6 4.6 1.2 6.8 0 2.2-.6 4-1.2 6.2 0 2.2-.6 5.1 0 7.9.6 2.2 1.2 4.6 2.2 7.4v.6c0 3.4 1.2 6.8 1.2 10.2 0 1.2 0 2.2.6 3.4l1.2 1.2c.6 1.7 1.2 2.8 1.7 4 .6.6 1.2 1.7.6 2.2 0 .6.6 1.2 1.2 1.2v.6.6.6s0 0 .6.6h.6s0 0 0-.6c.6 0 1.2-.6 1.2-1.2 0-1.2.6-2.2.6-2.8.6-.6 1.2-1.2 1.7-2.2 0-.6.6-1.7.6-2.2.6-1.2 1.7-2.2 1.7-4 .6 0 .6 0 .6-.6.6-3.4 1.2-6.2 1.7-9.6.6-.6.6-1.2.6-1.7.6-.6.6-1.2.6-1.7.6-2.8 0-5.7.6-8.5-.1-3-.1-5.8-.1-9.2z" fill="#00734a"/><path d="m391.3 249.2c-.6 0-.6-.6-1.2-.6-.6 0-1.7-.6-2.8-1.2-1.2 0-2.8 0-4-.6-1.7-.6-4-.6-5.7-1.2-2.2-.6-4-1.7-6.2-2.2s-4.6-1.7-7.4-2.2c-1.7-.6-4-.6-5.7-1.2-1.7 0-3.4 0-5.1 0-2.8.6-5.1.6-7.9.6-2.2.6-5.1 0-7.4 0-.6 0-1.7 0-2.2 0-2.2.6-4 1.2-6.2 1.2-2.2.6-5.1 1.2-7.4 1.7-2.2 0-4.6.6-6.2 1.2-2.2.6-4 2.2-5.1 2.8-1.7.6-3.4 0-4.6.6s-1.7 1.2-2.2 1.2c0 0 0 0-.6 0 0 0-.6.6-.6 1.2s.6 1.2.6 1.2h1.7s0 0-.6 0c1.7 0 2.2 1.2 3.4 1.7 1.2.6 2.2 1.7 4 1.2 1.7.6 3.4.6 4.6.6 1.7.6 3.4 1.7 5.7 2.2 2.2.6 5.1.6 7.4 1.2 2.8 0 5.7-.6 8.5 0 2.8 0 5.7-.6 9.1-.6 2.8 0 5.7 1.2 8.5 1.2 2.8-.6 5.7-1.7 7.9-2.2 2.8-.6 5.7 0 7.9-.6s4.6-1.2 6.2-1.7c1.7-.6 2.8-1.7 4-2.2h1.2c1.7 0 3.4.6 4.6 0s2.2-1.2 2.8-1.2c.6 0 1.2-.6 1.2-1.2-.2-.4-.2-.4-.2-.9z" fill="#783a82"/><path d="m239.4 300.1s0 0-.6 0v-.6c-1.2-.6-1.7-1.7-2.8-2.8-.6-.6-.6-.6-.6-.6-.6 0-.6 0-.6.6-.6 0-.6.6-.6.6v.6c-.6 0-.6 0-.6 0v.6c-.6 1.2-1.2 1.7-1.2 2.2-.6.6-.6.6-.6 1.2 0 1.2-.6 2.2-1.2 4 0 .6 0 1.2-.6 1.7-.6 2.2-.6 5.1-1.7 7.4-.6 2.2-2.2 4-3.4 6.2-.6 2.2-.6 5.1-1.7 6.8v1.2c0 .6 0 1.2-.6 1.7v.6 1.7c0 1.2.6 1.7.6 2.8.6.6.6 1.2.6 1.7v.6c.6.6 1.2 1.2 2.2 1.2h.6 1.2c.6.6 1.2 0 2.2 0 .6 0 .6-.6 1.2-.6.6-.6 0-2.8.6-3.4 1.2-2.2 2.2-5.1 3.4-7.4 1.2-2.8 1.2-5.7 1.7-8.5 1.2-2.8 1.7-5.1 1.7-7.9 0-1.7.6-4 .6-5.7v-.6-.6-.6c0-.6 0-1.2.6-1.7 0 0 0-.6 0-1.2.2 0 .2-1.2-.4-1.2z" fill="#00734a"/><path d="m343.1 226c0-.6-.6-1.2-1.2-1.7-.6-.6-1.7-1.2-2.2-1.2-1.2-.6-1.7 0-2.8 0-.6 0-1.7-1.7-2.8-1.7-.6.6-1.7 1.2-2.8 1.7-1.7 1.2-3.4 2.8-6.2 4-2.2 1.2-4 1.7-6.2 2.2-2.2 1.2-5.7 1.2-7.9 2.2-1.2.6-2.2 1.2-3.4 2.2 0 0-.6 0-.6.6-.6 0-1.2 0-1.2 0-1.7.6-4.6.6-5.7 1.2-.6 0-.6 0-.6 0 0 .6-.6.6-.6.6-.6.6-.6 1.2-.6 1.7h.6v.6c0 .6.6.6.6 1.2.6 0 1.2.6 1.7.6h.6.6.6-.6c.6 0 .6.6 1.2.6h.6c.6-.6 1.7-.6 2.2 0h.6c2.8 0 5.7.6 7.9 0 3.4-.6 6.2-1.2 9.1-2.2 2.8-1.2 6.8-1.7 9.6-2.8 2.2-1.2 5.1-2.8 7.4-4 1.2-.6 1.2-1.7 1.7-2.2.6 0 .6-1.2.6-1.7.4-.8.4-1.4-.2-1.9z" fill="#783a82"/></svg>