<svg enable-background="new 0 0 500 500" viewBox="0 0 500 500" xmlns="http://www.w3.org/2000/svg"><g fill="#00b451"><path d="m250 128.5c-72.2 0-130.9 54.5-130.9 121.5 0 67.1 58.7 121.6 130.9 121.6s131-54.5 131-121.6c-.1-67-58.8-121.5-131-121.5m0 206.9c-51.1 0-92.7-38.3-92.7-85.3 0-47.4 41.6-85.9 92.7-85.9s92.6 38.6 92.6 85.9c0 46.9-41.6 85.3-92.6 85.3"/><path d="m250 308.7c-34.6 0-64-23.8-68.5-55.4-.8-6 3.8-11.5 10.3-12.3s12.4 3.4 13.3 9.4c2.9 20.6 22.2 36.2 45 36.2 22.5 0 41.8-15.4 44.9-35.9.9-6 6.9-10.2 13.4-9.4 6.4.8 10.9 6.3 10 12.4-2.3 15.1-10.4 29-22.9 39.1-12.6 10.3-28.8 15.9-45.5 15.9"/></g></svg>