<svg version="1.1" id="Layer_1" xmlns="http://www.w3.org/2000/svg" xmlns:xlink="http://www.w3.org/1999/xlink" x="0px" y="0px"
	 viewBox="0 0 319 600" style="enable-background:new 0 0 319 600;" xml:space="preserve">
	<linearGradient id="GradientISO" gradientUnits="userSpaceOnUse" x1="66.4329" y1="364.7" x2="250.5955" y2="364.7" gradientTransform="matrix(1 0 0 -1 0 491)">
		<stop  offset="0" style="stop-color:#22233F"/>
		<stop  offset="0.5" style="stop-color:#87E8F7"/>
		<stop  offset="1" style="stop-color:#22233F"/>
	</linearGradient>
<g id="back">
	<line class="st0" x1="176.5" y1="193.7" x2="99.7" y2="58.9"/>
	<line class="st1" x1="220.8" y1="7.1" x2="191.8" y2="58.9"/>
	<line class="st2" x1="161.8" y1="58.9" x2="130.1" y2="7.1"/>
	<line class="st3" x1="174.1" y1="462.1" x2="142.1" y2="407.1"/>
	<line class="st4" x1="50.8" y1="406.9" x2="205.1" y2="406.9"/>
	<line class="st5" x1="221.5" y1="272.4" x2="251" y2="326.8"/>
	<line class="st6" x1="282" y1="380.2" x2="312.1" y2="327.1"/>
	<line class="st7" x1="297.5" y1="247.2" x2="236.4" y2="247.2"/>
	<line class="st8" x1="83.3" y1="352" x2="20.1" y2="352.6"/>
	<line class="st9" x1="37.8" y1="221.3" x2="7.1" y2="272.4"/>
	<line class="st10" x1="159.6" y1="541.1" x2="218.6" y2="541.1"/>
	<polyline class="st11" points="267.6,194.1 114.1,194.1 80.7,250.4 20.1,352.6 126.1,541.1 160.1,541.1 187.3,593.5 297.5,406.9 
		251.1,327.1 312,326.8 312.1,327.1 360.1,407.1 282.1,541.1 218.3,541 173.9,461.7 174.1,462.1 297.5,247.2 267.1,194.1 
		221.5,272.4 7.1,272.4 -39,192.5 38.8,58.9 191.8,58.9 267.1,194.1 297.5,141.8 220.8,7.1 130.1,7.1 21.3,192.5 98.3,326.8 
		20.1,460.1 95.7,593.5 126.4,541 	"/>
	<line class="st12" x1="98.3" y1="326.8" x2="251" y2="326.8"/>
	<line class="st13" x1="146.1" y1="140.1" x2="114.1" y2="194.1"/>
</g>
<g id="first">
	<line class="st14" x1="79.6" y1="352.1" x2="77.4" y2="352.1"/>
	<line class="st15" x1="70" y1="352.3" x2="26" y2="353"/>
	<polyline class="st16" points="22.3,353.1 20.1,353.1 21.2,351.2 	"/>
	<line class="st17" x1="24.8" y1="345" x2="64.2" y2="277.1"/>
	<polyline class="st18" points="66,274 67.1,272.1 69.3,272.1 	"/>
	<line class="st19" x1="76.6" y1="272.1" x2="215.2" y2="272.1"/>
	<polyline class="st20" points="218.9,272.1 221.1,272.1 222.2,274.1 	"/>
	<line class="st21" x1="225.9" y1="280.9" x2="248.2" y2="321.8"/>
	<polyline class="st22" points="250,325.2 251.1,327.1 250,329 	"/>
	<line class="st23" x1="246.5" y1="335.2" x2="208" y2="402.1"/>
	<polyline class="st24" points="206.2,405.2 205.1,407.1 202.9,407.1 	"/>
	<line class="st25" x1="195.6" y1="407.1" x2="57" y2="407.1"/>
	<polyline class="st26" points="53.3,407.1 51.1,407.1 52.2,405.2 	"/>
	<line class="st27" x1="55.8" y1="399" x2="95.2" y2="332.1"/>
	

	<polyline class="st28" points="97,329 98.1,327.1 100.3,327.1 	"/>

	<line class="st29" x1="107.6" y1="327.1" x2="245.7" y2="327.1"/>
	

	<line class="st30" x1="249.4" y1="327.1" x2="251.6" y2="327.1"/>
	
	<line class="st31" x1="69.1" y1="276.1" x2="70.2" y2="278"/>

	<line class="st32" x1="73.5" y1="283.8" x2="93.3" y2="318.3"/>
	

	<line class="st33" x1="95" y1="321.2" x2="96.1" y2="323.1"/>
	

	<line class="st34" x1="22.1" y1="357.1" x2="23.2" y2="359"/>
	
	
	<line class="st35" x1="26.4" y1="364.5" x2="45.4" y2="397.4"/>
	
		
	<line class="st36" x1="47" y1="400.2" x2="48.1" y2="402.1"/>
</g>
</svg>
