
<svg version="1.1" id="Layer_1" xmlns="http://www.w3.org/2000/svg" xmlns:xlink="http://www.w3.org/1999/xlink" x="0px" y="0px"
	 viewBox="0 0 319 600" style="enable-background:new 0 0 319 600;" xml:space="preserve">

<g id="back">
	
		<linearGradient id="SVGID_1_" gradientUnits="userSpaceOnUse" x1="66.4329" y1="182.627" x2="250.5955" y2="182.627" gradientTransform="matrix(1 0 0 -1 0 494)">
		<stop  offset="0" style="stop-color:#22233F"/>
		<stop  offset="0.5" style="stop-color:#87E8F7"/>
		<stop  offset="1" style="stop-color:#22233F"/>
	</linearGradient>
	<path class="st0" d="M154.1,255.4c-12.2,0-12.8,21.1-17.4,27.6c-8.2,14.5-39.5,11.4-39.5,27c0,16.8,26.5,11.1,38.1,25.3
		c8.2,12,6.9,30.5,20.5,32c11.1,1.2,15.9-21.4,26.8-32.3c9-9,30.4-8.8,30.4-23.9c0-14.2-16.4-12.3-27.4-21.9
		C177.1,281.8,166.3,255.4,154.1,255.4z"/>
	
		<linearGradient id="SVGID_2_" gradientUnits="userSpaceOnUse" x1="66.4329" y1="180.5656" x2="250.5955" y2="180.5656" gradientTransform="matrix(1 0 0 -1 0 494)">
		<stop  offset="0" style="stop-color:#22233F"/>
		<stop  offset="0.5" style="stop-color:#87E8F7"/>
		<stop  offset="1" style="stop-color:#22233F"/>
	</linearGradient>
	<path class="st1" d="M63.8,310.4c0,23,30.7,18,47.4,37.6c11.8,16.4,10,40,28.8,44.5c18.7,4.5,25.4-24.5,41-39.5
		c12.9-12.3,46.9-11.9,44.9-41.1c-1.2-16.8-22.9-15.9-37.1-30.7c-14.9-15.5-22.6-47.3-42.7-47.3c-17.5,0-23,29-29.6,37.9
		C104.8,289.6,63.8,285.3,63.8,310.4z"/>
	
		<linearGradient id="SVGID_3_" gradientUnits="userSpaceOnUse" x1="66.4329" y1="178.4738" x2="250.5955" y2="178.4738" gradientTransform="matrix(1 0 0 -1 0 494)">
		<stop  offset="0" style="stop-color:#22233F"/>
		<stop  offset="0.5" style="stop-color:#87E8F7"/>
		<stop  offset="1" style="stop-color:#22233F"/>
	</linearGradient>
	<path class="st2" d="M30.4,310.7c0,29.3,34.9,25,56.7,49.8c15.4,20.9,13,49.7,37.1,57c26.2,8,34.8-27.6,55.2-46.6
		c16.7-15.6,63.9-15,59.4-58.2c-2-19.5-29.2-19.8-46.8-39.6c-21.2-23.7-25.9-60.7-53.9-60.7c-22.8,0-33.2,36.9-41.8,48.1
		C81.1,281.7,30.4,276,30.4,310.7z"/>
	
		<linearGradient id="SVGID_4_" gradientUnits="userSpaceOnUse" x1="66.4329" y1="176.526" x2="250.5955" y2="176.526" gradientTransform="matrix(1 0 0 -1 0 494)">
		<stop  offset="0" style="stop-color:#22233F"/>
		<stop  offset="0.5" style="stop-color:#87E8F7"/>
		<stop  offset="1" style="stop-color:#22233F"/>
	</linearGradient>
	<path class="st3" d="M-3.1,310.9c0,35.5,39.2,31.9,66,62c19,25.3,16,59.4,45.4,69.5c33.6,11.5,44.3-30.7,69.4-53.8
		c20.6-19,81.1-18.1,73.8-75.4c-2.8-22.1-35.4-23.7-56.6-48.4c-27.5-32.1-29.3-74.2-65.2-74.2c-28.2,0-43.4,44.7-54,58.4
		C57.4,273.6-3.1,266.8-3.1,310.9z"/>
	
		<linearGradient id="SVGID_5_" gradientUnits="userSpaceOnUse" x1="66.4329" y1="174.3836" x2="250.5955" y2="174.3836" gradientTransform="matrix(1 0 0 -1 0 494)">
		<stop  offset="0" style="stop-color:#22233F"/>
		<stop  offset="0.5" style="stop-color:#87E8F7"/>
		<stop  offset="1" style="stop-color:#22233F"/>
	</linearGradient>
	<path class="st4" d="M-36.6,311c0,41.8,43.4,38.9,75.3,74.3c22.5,29.8,19,69.2,53.7,82c41.1,15.1,53.8-33.8,83.6-60.9
		c24.5-22.3,98.4-21.2,88.3-92.5c-3.5-24.8-41.6-27.7-66.3-57.2c-33.7-40.4-32.6-87.6-76.4-87.6c-33.5,0-53.7,52.6-66.3,68.7
		C33.7,265.6-36.6,257.4-36.6,311z"/>
	
		<linearGradient id="SVGID_6_" gradientUnits="userSpaceOnUse" x1="66.4329" y1="172.3218" x2="250.5955" y2="172.3218" gradientTransform="matrix(1 0 0 -1 0 494)">
		<stop  offset="0" style="stop-color:#22233F"/>
		<stop  offset="0.5" style="stop-color:#87E8F7"/>
		<stop  offset="1" style="stop-color:#22233F"/>
	</linearGradient>
	<path class="st5" d="M-70.1,311.2c0,48,47.6,45.8,84.6,86.5c26.1,34.2,21.9,79,62.1,94.5c48.5,18.7,63.3-36.9,97.8-68.1
		c28.4-25.7,115.9-24.4,102.8-109.6c-4.2-27.4-47.9-31.6-76-66c-39.9-48.8-36-101.1-87.6-101.1c-38.8,0-63.9,60.5-78.5,78.9
		C9.9,257.5-70.1,248.1-70.1,311.2z"/>
	
		<linearGradient id="SVGID_7_" gradientUnits="userSpaceOnUse" x1="66.4329" y1="170.1655" x2="250.5955" y2="170.1655" gradientTransform="matrix(1 0 0 -1 0 494)">
		<stop  offset="0" style="stop-color:#22233F"/>
		<stop  offset="0.5" style="stop-color:#87E8F7"/>
		<stop  offset="1" style="stop-color:#22233F"/>
	</linearGradient>
	<path class="st6" d="M-103.6,311.3c0,54.3,51.9,52.8,93.9,98.8c29.7,38.7,24.9,88.9,70.4,107c55.9,22.5,72.7-40,112-75.2
		c32.3-29,133.5-27.5,117.3-126.8c-4.9-30.1-54-35.6-85.7-74.8c-46-57.3-39.3-114.5-98.9-114.5c-44.1,0-74.1,68.3-90.7,89.2
		C-13.9,249.3-103.6,238.7-103.6,311.3z"/>
	
		<linearGradient id="SVGID_8_" gradientUnits="userSpaceOnUse" x1="66.4329" y1="168.2485" x2="250.5955" y2="168.2485" gradientTransform="matrix(1 0 0 -1 0 494)">
		<stop  offset="0" style="stop-color:#22233F"/>
		<stop  offset="0.5" style="stop-color:#87E8F7"/>
		<stop  offset="1" style="stop-color:#22233F"/>
	</linearGradient>
	<path class="st7" d="M97.2,103.9c-49.4,0-84.4,76.2-102.9,99.5c-31.9,37.9-131.4,26-131.4,108c0,60.5,56.1,59.7,103.2,111
		C-0.6,465.5-6,521.1,44.8,541.9c63.4,26,82.2-43.1,126.2-82.4c36.2-32.3,151.1-30.7,131.8-143.9c-5.6-32.8-60.3-39.5-95.4-83.7
		C155,166.3,164.6,103.9,97.2,103.9z"/>
</g>
<g id="first">
	
		<linearGradient id="SVGID_9_" gradientUnits="userSpaceOnUse" x1="66.4329" y1="182.627" x2="250.5955" y2="182.627" gradientTransform="matrix(1 0 0 -1 0 494)">
		<stop  offset="0" style="stop-color:#22233F"/>
		<stop  offset="0.5" style="stop-color:#87E8F7"/>
		<stop  offset="1" style="stop-color:#22233F"/>
	</linearGradient>
	<path class="st8" d="M154.1,255.4c-12.2,0-12.8,21.1-17.4,27.6c-8.2,14.5-39.5,11.4-39.5,27c0,16.8,26.5,11.1,38.1,25.3
		c8.2,12,6.9,30.5,20.5,32c11.1,1.2,15.9-21.4,26.8-32.3c9-9,30.4-8.8,30.4-23.9c0-14.2-16.4-12.3-27.4-21.9
		C177.1,281.8,166.3,255.4,154.1,255.4z"/>
	
		<linearGradient id="SVGID_10_" gradientUnits="userSpaceOnUse" x1="66.4329" y1="180.5656" x2="250.5955" y2="180.5656" gradientTransform="matrix(1 0 0 -1 0 494)">
		<stop  offset="0" style="stop-color:#22233F"/>
		<stop  offset="0.5" style="stop-color:#87E8F7"/>
		<stop  offset="1" style="stop-color:#22233F"/>
	</linearGradient>
	<path class="st9" d="M63.8,310.4c0,23,30.7,18,47.4,37.6c11.8,16.4,10,40,28.8,44.5c18.7,4.5,25.4-24.5,41-39.5
		c12.9-12.3,46.9-11.9,44.9-41.1c-1.2-16.8-22.9-15.9-37.1-30.7c-14.9-15.5-22.6-47.3-42.7-47.3c-17.5,0-23,29-29.6,37.9
		C104.8,289.6,63.8,285.3,63.8,310.4z"/>
	
		<linearGradient id="SVGID_11_" gradientUnits="userSpaceOnUse" x1="66.4329" y1="178.4738" x2="250.5955" y2="178.4738" gradientTransform="matrix(1 0 0 -1 0 494)">
		<stop  offset="0" style="stop-color:#22233F"/>
		<stop  offset="0.5" style="stop-color:#87E8F7"/>
		<stop  offset="1" style="stop-color:#22233F"/>
	</linearGradient>
	<path class="st10" d="M30.4,310.7c0,29.3,34.9,25,56.7,49.8c15.4,20.9,13,49.7,37.1,57c26.2,8,34.8-27.6,55.2-46.6
		c16.7-15.6,63.9-15,59.4-58.2c-2-19.5-29.2-19.8-46.8-39.6c-21.2-23.7-25.9-60.7-53.9-60.7c-22.8,0-33.2,36.9-41.8,48.1
		C81.1,281.7,30.4,276,30.4,310.7z"/>
</g>
</svg>
