<?xml version="1.0" encoding="utf-8"?>
<!-- Generator: Adobe Illustrator 22.0.1, SVG Export Plug-In . SVG Version: 6.00 Build 0)  -->
<svg version="1.1" id="Layer_1" xmlns="http://www.w3.org/2000/svg" xmlns:xlink="http://www.w3.org/1999/xlink" x="0px" y="0px"
	 viewBox="0 0 1213.3 606.7" style="enable-background:new 0 0 1213.3 606.7;" xml:space="preserve">
<style type="text/css">
	.st0{fill:#FFFFFF;}
	.st1{fill:#FF3030;}
	.st2{fill:#DF2127;}
	.st3{fill:#D92C27;}
</style>
<path class="st0" d="M0,2h1213.3v604.7H0V2z"/>
<path d="M94.6,31.5h1.1v9.3h0.1c0.2-0.6,0.5-1.1,0.9-1.6c0.4-0.4,0.9-0.8,1.4-1.1s1.1-0.5,1.7-0.7c0.6-0.1,1.2-0.2,1.9-0.2
	c1.1,0,2.1,0.2,3,0.6c0.8,0.4,1.5,1,2.1,1.7s1,1.5,1.2,2.4c0.3,0.9,0.4,1.9,0.4,3c0,1.8-0.3,3.3-0.8,4.4s-1.1,2-1.8,2.5
	c-0.7,0.6-1.4,1-2.2,1.2s-1.4,0.3-2,0.3c-1,0-1.9-0.2-2.6-0.5s-1.3-0.7-1.8-1.1s-0.8-0.9-1.1-1.3s-0.4-0.7-0.5-0.9h-0.1V53h-1.1
	V31.5H94.6z M101.7,52.3c1,0,1.9-0.2,2.6-0.7c0.7-0.4,1.3-1,1.7-1.7s0.8-1.5,1-2.4s0.3-1.8,0.3-2.7s-0.1-1.7-0.3-2.5
	s-0.6-1.5-1.1-2.1s-1.1-1.1-1.7-1.5c-0.7-0.4-1.5-0.6-2.4-0.6c-1,0-1.9,0.2-2.6,0.5s-1.4,0.8-1.8,1.4c-0.5,0.6-0.8,1.3-1.1,2.1
	c-0.2,0.8-0.4,1.7-0.4,2.7c0,0.9,0.1,1.9,0.3,2.8s0.6,1.7,1,2.4c0.5,0.7,1.1,1.2,1.8,1.7C99.7,52,100.6,52.3,101.7,52.3z"/>
<path d="M111.4,45.3v0.2c0,0.9,0.1,1.8,0.4,2.6c0.2,0.8,0.6,1.5,1.1,2.2c0.5,0.6,1.1,1.1,1.8,1.5s1.5,0.5,2.5,0.5
	c1.5,0,2.8-0.4,3.7-1.2s1.5-1.9,1.9-3.4h1.1c-0.3,1.8-1.1,3.2-2.2,4.1s-2.6,1.4-4.5,1.4c-1.1,0-2.1-0.2-3-0.6s-1.6-1-2.1-1.7
	c-0.6-0.7-1-1.5-1.3-2.5s-0.4-2-0.4-3.1s0.1-2.1,0.4-3.1s0.7-1.9,1.3-2.6c0.6-0.8,1.3-1.3,2.2-1.8s1.9-0.7,3.1-0.7
	c1.1,0,2,0.2,2.9,0.6c0.8,0.4,1.5,0.9,2.1,1.6s1,1.5,1.3,2.4s0.4,1.9,0.4,2.9v0.3c0,0,0,0.2,0,0.3L111.4,45.3z M122.8,44.3
	c0-0.8-0.2-1.6-0.4-2.4s-0.6-1.4-1.1-2s-1-1-1.7-1.4c-0.7-0.3-1.4-0.5-2.3-0.5s-1.7,0.2-2.4,0.5c-0.7,0.4-1.3,0.8-1.8,1.4
	s-0.9,1.2-1.1,2c-0.3,0.8-0.4,1.5-0.5,2.3h11.3V44.3z"/>
<path d="M124.9,38.5v-1h2.8v-3.2c0-0.5,0.1-1,0.3-1.4s0.4-0.7,0.7-0.9s0.7-0.4,1.1-0.5s0.8-0.2,1.3-0.2c0.3,0,0.8,0.1,1.4,0.2v1
	c-0.6-0.1-1-0.1-1.4-0.1c-0.6,0-1.2,0.1-1.6,0.4s-0.6,0.9-0.6,1.7v3.1h3.2v1h-3.2V53h-1.1V38.5H124.9z"/>
<path d="M133.1,45.2c0-1.1,0.2-2.1,0.5-3.1s0.8-1.8,1.4-2.6c0.6-0.7,1.3-1.3,2.2-1.8s1.9-0.6,3-0.6s2.1,0.2,3,0.6s1.6,1,2.2,1.8
	c0.6,0.7,1.1,1.6,1.4,2.6s0.5,2,0.5,3.1s-0.2,2.1-0.5,3.1s-0.8,1.8-1.4,2.6s-1.3,1.3-2.2,1.7s-1.9,0.6-3,0.6s-2.2-0.2-3-0.6
	c-0.9-0.4-1.6-1-2.2-1.7s-1.1-1.6-1.4-2.6S133.1,46.3,133.1,45.2z M134.2,45.2c0,0.9,0.1,1.8,0.4,2.7s0.6,1.6,1.1,2.3
	s1.1,1.2,1.9,1.6c0.7,0.4,1.6,0.6,2.5,0.6s1.8-0.2,2.5-0.6s1.4-0.9,1.9-1.6s0.9-1.4,1.1-2.3c0.3-0.8,0.4-1.7,0.4-2.7
	s-0.1-1.8-0.4-2.7c-0.3-0.8-0.6-1.6-1.1-2.3s-1.1-1.2-1.9-1.6c-0.7-0.4-1.6-0.6-2.5-0.6s-1.8,0.2-2.5,0.6s-1.4,0.9-1.9,1.6
	s-0.9,1.4-1.1,2.3S134.2,44.3,134.2,45.2z"/>
<path d="M151.1,40.9c0.2-0.5,0.5-1,0.9-1.4s0.8-0.8,1.4-1.1c0.5-0.3,1.1-0.6,1.8-0.7c0.6-0.2,1.3-0.2,2-0.2v1.1
	c-0.6-0.1-1.3,0-2.1,0.2s-1.5,0.6-2.2,1.3c-0.3,0.3-0.5,0.6-0.7,0.9s-0.4,0.6-0.5,0.9s-0.2,0.7-0.3,1.1s-0.1,0.9-0.2,1.5v8.4h-1.1
	V37.5h1.1L151.1,40.9z"/>
<path d="M158.3,45.3v0.2c0,0.9,0.1,1.8,0.4,2.6c0.2,0.8,0.6,1.5,1.1,2.2c0.5,0.6,1.1,1.1,1.8,1.5s1.5,0.5,2.5,0.5
	c1.5,0,2.8-0.4,3.7-1.2s1.5-1.9,1.9-3.4h1.1c-0.3,1.8-1.1,3.2-2.2,4.1s-2.6,1.4-4.5,1.4c-1.1,0-2.1-0.2-3-0.6s-1.6-1-2.1-1.7
	c-0.6-0.7-1-1.5-1.3-2.5s-0.4-2-0.4-3.1s0.1-2.1,0.4-3.1s0.7-1.9,1.3-2.6c0.6-0.8,1.3-1.3,2.2-1.8s1.9-0.7,3.1-0.7
	c1.1,0,2,0.2,2.9,0.6c0.8,0.4,1.5,0.9,2.1,1.6s1,1.5,1.3,2.4s0.4,1.9,0.4,2.9v0.3c0,0,0,0.2,0,0.3L158.3,45.3z M169.7,44.3
	c0-0.8-0.2-1.6-0.4-2.4s-0.6-1.4-1.1-2s-1-1-1.7-1.4c-0.7-0.3-1.4-0.5-2.3-0.5s-1.7,0.2-2.4,0.5c-0.7,0.4-1.3,0.8-1.8,1.4
	s-0.9,1.2-1.1,2c-0.3,0.8-0.4,1.5-0.5,2.3h11.3V44.3z"/>
<path d="M104.2,287.7c-0.2,0.5-0.5,0.9-0.8,1.3s-0.8,0.8-1.2,1.1c-0.5,0.3-1,0.6-1.7,0.8c-0.6,0.2-1.3,0.3-2,0.3
	c-1.6,0-2.9-0.4-3.8-1.1s-1.4-1.8-1.4-3.3c0-0.9,0.2-1.6,0.5-2.2c0.4-0.6,0.8-1,1.4-1.3c0.5-0.3,1.2-0.6,1.8-0.7
	c0.7-0.1,1.3-0.2,1.9-0.3l1.8-0.2c0.8-0.1,1.5-0.2,1.9-0.3c0.5-0.1,0.8-0.3,1.1-0.5c0.2-0.2,0.4-0.5,0.5-0.9s0.1-0.8,0.1-1.3
	c0-0.4-0.1-0.8-0.2-1.2c-0.2-0.4-0.4-0.7-0.8-1c-0.3-0.3-0.8-0.5-1.3-0.7s-1.2-0.2-2-0.2c-1.4,0-2.5,0.3-3.3,1
	c-0.9,0.7-1.3,1.7-1.4,3.1H94c0.1-1.7,0.6-3,1.6-3.8s2.4-1.3,4.3-1.3s3.2,0.4,4.1,1.1s1.3,1.7,1.3,2.9v9v0.7c0,0.2,0,0.4,0.1,0.6
	s0.2,0.3,0.3,0.4s0.3,0.2,0.6,0.2c0.2,0,0.5,0,0.8-0.1v1c-0.3,0.1-0.6,0.1-0.9,0.1c-0.5,0-0.8-0.1-1.1-0.2s-0.5-0.3-0.6-0.5
	s-0.2-0.4-0.3-0.7c0-0.3-0.1-0.6-0.1-0.9L104.2,287.7z M104.2,282c-0.3,0.3-0.7,0.6-1.3,0.7s-1.2,0.2-1.9,0.3l-1.9,0.2
	c-0.6,0.1-1.1,0.1-1.7,0.3c-0.6,0.1-1.1,0.3-1.5,0.6c-0.5,0.3-0.8,0.6-1.1,1.1s-0.4,1-0.4,1.8c0,1.1,0.4,2,1.1,2.5
	c0.7,0.6,1.7,0.8,3,0.8s2.3-0.2,3.1-0.7s1.3-1,1.7-1.6s0.7-1.2,0.8-1.8s0.2-1,0.2-1.2L104.2,282z"/>
<path d="M107.3,276.3v-1h2.8v-3.2c0-0.5,0.1-1,0.3-1.4s0.4-0.7,0.7-0.9s0.7-0.4,1.1-0.5s0.8-0.2,1.3-0.2c0.3,0,0.8,0.1,1.4,0.2v1
	c-0.6-0.1-1-0.2-1.4-0.2c-0.6,0-1.2,0.1-1.6,0.4s-0.6,0.9-0.6,1.7v3.1h3.2v1h-3.2v14.4H110v-14.4H107.3z"/>
<path d="M121.8,276.3h-3.4v10.8c0,0.6,0.1,1.1,0.2,1.5s0.4,0.6,0.6,0.8c0.3,0.2,0.6,0.3,1,0.3s0.9,0,1.4,0v1c-0.6,0-1.1,0-1.7,0
	s-1-0.2-1.5-0.5s-0.8-0.6-1-1.1c-0.3-0.5-0.4-1.2-0.3-2.1v-10.8h-2.9v-1h2.9v-4.8h1.1v4.8h3.4v1.1L121.8,276.3z"/>
<path d="M123.9,283.2v0.2c0,0.9,0.1,1.8,0.4,2.6c0.2,0.8,0.6,1.5,1.1,2.2c0.5,0.6,1.1,1.1,1.8,1.5s1.5,0.5,2.5,0.5
	c1.5,0,2.8-0.4,3.7-1.2s1.5-1.9,1.9-3.4h1.1c-0.3,1.8-1.1,3.2-2.2,4.1s-2.6,1.4-4.5,1.4c-1.1,0-2.1-0.2-3-0.6s-1.6-1-2.1-1.7
	c-0.6-0.7-1-1.5-1.3-2.5s-0.4-2-0.4-3.1s0.1-2.1,0.4-3.1s0.7-1.9,1.3-2.6c0.6-0.8,1.3-1.4,2.2-1.8s1.9-0.7,3.1-0.7
	c1.1,0,2,0.2,2.9,0.6c0.8,0.4,1.5,0.9,2.1,1.6s1,1.5,1.3,2.4s0.4,1.9,0.4,2.9v0.3v0.3h-12.7L123.9,283.2z M135.3,282.2
	c0-0.8-0.2-1.6-0.4-2.4s-0.6-1.4-1.1-2s-1-1-1.7-1.4c-0.7-0.3-1.4-0.5-2.3-0.5s-1.7,0.2-2.4,0.5s-1.3,0.8-1.8,1.4s-0.9,1.2-1.1,2
	s-0.4,1.5-0.5,2.3h11.3V282.2z"/>
<path d="M140.2,278.8c0.2-0.5,0.5-1,0.9-1.4s0.8-0.8,1.4-1.1c0.5-0.3,1.1-0.6,1.8-0.7s1.3-0.2,2-0.2v1.1c-0.6-0.1-1.3,0-2.1,0.2
	s-1.5,0.6-2.2,1.3c-0.3,0.3-0.5,0.6-0.7,0.9s-0.4,0.6-0.5,0.9s-0.2,0.7-0.3,1.1s-0.1,0.9-0.2,1.5v8.4h-1.1v-15.4h1.1L140.2,278.8z"
	/>
<path d="M853,382.7c0.3,0.5,0.4,0.7,0.8,0.7c0,0,0.1,0.6-0.6,0.6c-0.4,0-0.6-0.2-1.1-0.9l-0.8-1.3h-0.7l-0.3,1.8
	c-0.1,0.3-0.2,0.4-0.4,0.4h-0.1c-0.2,0-0.4-0.2-0.3-0.4l0.9-4.8c0-0.3,0.3-0.5,0.6-0.5h1.4c1.3,0,2,0.5,2,1.5c0,1.2-0.7,1.9-2,1.9
	L853,382.7z M852.2,380.9c0.8,0,1.3-0.4,1.3-1.2c0-0.5-0.4-0.8-1.1-0.8h-1l-0.4,2H852.2z"/>
<path d="M852,376.7c2.6,0,4.7,2.1,4.7,4.7s-2.1,4.7-4.7,4.7s-4.7-2.1-4.7-4.7S849.4,376.7,852,376.7 M852,375.9
	c-3,0-5.4,2.4-5.4,5.5c0,3,2.4,5.5,5.4,5.5s5.4-2.5,5.4-5.5C857.4,378.3,855,375.9,852,375.9"/>
<g>
	<path d="M501.2,326.7h-3.1c-3,0-4.4,0.9-6.4,4.2l-16.7,26.9l-6.9-26.6c-0.8-3.1-1.7-4.5-5.1-4.5h-2.6c-3.4,0-5.6,2-6.1,5.6
		l-7.7,43.4c-0.6,3.2,0.9,4.9,3.7,4.9h1.1c3,0,4.2-1.5,4.8-4.7l6.1-35.1l6,23.5c0.4,2.3,1,3.9,5.5,3.9c3.8,0,4.7-1.3,6-3.6
		l14.6-24.2l-6.1,35.1c-0.6,3.4,0.9,4.9,3.7,4.9h1.2c3,0,4.2-1.6,4.8-4.7l7.7-43.5C506.4,328.9,504.7,326.7,501.2,326.7
		 M527.9,339.5c-13.8,0-22.1,11.2-21.7,23.5c0.4,11.2,8.2,18.3,19.5,18.3c14.1,0,22.1-11.3,21.7-23.6
		C547,347.3,539.8,339.5,527.9,339.5 M525.7,373.7c-6.5,0-10.5-4.7-10.7-11.1c-0.2-8.2,5.1-15.5,12.9-15.5c5.9,0,10.6,4.7,10.8,11.1
		C538.8,366.8,533.4,373.7,525.7,373.7 M577.9,339.5c-5.7,0-10.3,2.8-13.2,7.6c0.2-5.4-2.7-6.9-5.7-6.9c-1.5,0-2.6,0.3-2.6,0.6
		l-6.1,35.3c-0.7,3.7,1.5,4.7,4,4.7h1.1c2.9,0,4-1.2,4.7-4.7l3.7-21.2c2.7-4.7,5.7-6.9,10.2-6.9c4.6,0,7.3,2.8,7.5,7.3
		c0.1,1.1-0.2,2.7-0.4,4.5l-2.9,16.3c-0.7,3.7,1.5,4.7,4,4.7h1.1c2.9,0,4-1.2,4.7-4.7l3.1-18c0.3-2,0.7-3.8,0.6-5.4
		C591.4,344.8,586.3,339.5,577.9,339.5 M752.9,339.5c-4.7,0-8.2,2.7-10.5,7.6c0.3-5.4-2.6-6.9-5.6-6.9c-1.6,0-2.6,0.3-2.6,0.6
		L728,376c-0.7,3.7,1.8,4.7,4.4,4.7h1.1c2.5,0,3.7-1.2,4.4-4.7l2-11.9c1.6-9.2,4.9-15.7,10.5-15.7c2.7,0,4.4,1.1,5.5,2.3
		c0.1,0.1,4.2-1.5,4.1-6.4C759.7,341.5,756.7,339.5,752.9,339.5 M800.3,340c-3.8,0-5.9,1.9-7.3,6.8c-2.5-4.6-7.5-7.4-13.4-7.4
		c-12.5,0-21.1,11.1-21.1,23.7c0,10.4,6.4,18.1,16.4,18.1c6.1,0,10.8-2.6,13.9-7.7c-0.4,5.4,0.7,6.9,4.4,6.9c3.5,0,4.6-1.2,4.9-5
		c0.4-6.9,2.8-18.3,5.6-34.3C804,340.9,802.3,340,800.3,340 M767.7,362.9c0-8.1,4.7-16,13.4-16c7,0,10,5.1,10,11
		c0,7.2-4.8,15.8-13.8,15.8C771.1,373.7,767.7,369.8,767.7,362.9 M860.1,339.5c-6.8,0-11.4,3.5-14.5,8.6c-1.6-5.4-6.3-8.6-12.2-8.6
		c-5.1,0-9.7,2.5-12.9,7.2c0.1-4.9-2.8-6.5-5.7-6.5c-1.5,0-2.5,0.3-2.6,0.6l-6.1,35.3c-0.7,3.7,1.5,4.7,4,4.7h1.1c2.5,0,4-1,4.7-4.7
		l3.8-21.9c2.8-4.4,5.5-6.3,9.6-6.3c4,0,6.6,3,6.6,7.7c0,0.8-0.1,1.6-0.2,2.5l-3.1,18c-0.7,3.7,1.6,4.7,4,4.7h1
		c2.6,0,4.1-1.1,4.8-4.7l3.9-21.9c2.8-4.4,5.5-6.3,9.6-6.3c3.9,0,6.8,2.5,6.8,7.3c0,1.1-0.2,2.7-0.4,4.5l-2.9,16.3
		c-0.7,3.7,1.5,4.7,4,4.7h1.1c2.9,0,4-1.2,4.7-4.7l3.1-18c0.3-2,0.6-3.8,0.6-5.4C873.1,344.5,867.7,339.5,860.1,339.5 M619.5,339.3
		c-17.6,0-23.8,12.9-23.8,24.2c0,10.7,7.7,17.8,19.6,17.8c11.9,0,18.6-5.4,18.6-9.5c0-2.8-2-3.8-4.2-4c-3.1,4-7.5,5.9-13.3,5.9
		c-5.1,0-11.4-2-11.7-11.3h26.9c2.9,0,5.1-1.7,5.1-5.4c0-5.5-1.1-9.2-3.6-12.3C630.3,341.5,625.4,339.3,619.5,339.3 M627.9,355.9
		h-22.4c2.1-5.7,7.2-9.3,13.4-9.3c3.1,0,5.7,0.9,7.3,2.7C627.6,350.9,628.1,353.1,627.9,355.9 M719.9,351.8h-16
		c-1.9,0-2.8,0.4-3.5,1c-1,1-1.5,3.4-1.5,4.5c0.1,1.7,1.6,2.6,4,2.6h11.4c-1.6,7.9-6.6,13.4-15.3,13.4c-9.1,0-15.2-5.8-15.5-15.7
		c-0.4-12.4,7.8-22.7,19.5-22.7c6.8,0,12.1,3.7,14.3,8.5c0.2,0.3,6.6,0.3,6.4-5c-0.1-1.9-1.2-4.2-3.2-6.1c-3.4-3.4-9.6-6.3-18-6.3
		c-11.7,0-20.9,6.5-25.8,15.8c0-0.1-0.1-0.1-0.1-0.1c-1-1.2-2.6-1.9-4-1.9c-2.6,0-4.2,0.8-6.8,5.3l-12.4,22.1l-4.7-21.8
		c-0.9-4-2.3-5.4-4.9-5.4c-3,0-5.5,2.2-5.4,2.8l8.9,35.3l-9.3,15.1c-1,1.7-1,3.8,2.5,3.8h1.9c3.7,0,4.8-2.2,6.6-5.3l25-42.5
		c-0.8,3-1.1,6.1-1,9.4c0.4,14.3,10.1,22.8,24.2,22.8c6.7,0,12-2.6,15-6.4c-0.2,4.1,2,5.8,4.9,5.8c1.7,0,2.8-0.6,2.8-0.8l4-22.8
		C724.6,353.5,723.3,351.8,719.9,351.8"/>
	<path class="st1" d="M368.9,289.8c-1.7,0-3.4,0.1-4.9,0.2c-0.8,0.2-1.6,0.4-2.3,0.8c-9.1,3.1-18.1,9.6-24.6,18.2
		c-5.3,7-9.2,15.1-9.2,24.6c0,13.6,10.7,19.7,20.2,19.7c9.6,0,21.1-4.9,30.5-13.8l0.7-0.7h-13.6c-2.8,0-4.7-2.1-4.2-4.9
		c0-0.2,0.2-1,0.2-1.2c0.6-2.9,3.1-4.5,6-4.5h26.1c2.9,0,4.8,2.3,4.2,5.3l-4.6,26.1c-0.6,2.9-2.6,5.3-5.5,5.3h-1.1
		c-2.8,0-4.6-2.5-4.1-5.3c0.6-2.9,2.1-12.2,2.1-12.2c-12.9,11.9-28.1,18.2-41.1,18.4c-8.6,0.1-28.7-3.6-28.7-28.6c0-0.4,0-0.9,0-1.2
		c-0.4,2.8-0.7,5.7-0.7,8.6c0,30.2,24.5,54.8,54.8,54.8c30.2,0,54.8-24.5,54.8-54.8C423.5,314.3,399.1,289.8,368.9,289.8
		L368.9,289.8z"/>
</g>
<path d="M94.3,477.6c0,0.7,0.2,1.4,0.5,1.9s0.6,1,1.1,1.4s1,0.7,1.6,0.9s1.2,0.3,1.9,0.3c0.5,0,1,0,1.6-0.1s1.1-0.3,1.6-0.5
	s0.9-0.6,1.2-1s0.5-1,0.5-1.6c0-0.9-0.3-1.5-0.8-1.9s-1.2-0.8-2-1s-1.6-0.4-2.5-0.6s-1.8-0.4-2.5-0.7c-0.8-0.3-1.4-0.7-2-1.3
	c-0.5-0.5-0.8-1.4-0.8-2.4c0-0.8,0.2-1.4,0.5-1.9s0.8-0.9,1.3-1.2s1.1-0.5,1.8-0.6s1.3-0.2,2-0.2c0.8,0,1.5,0.1,2.2,0.3
	s1.3,0.5,1.8,0.9s0.9,0.9,1.2,1.5s0.4,1.4,0.4,2.2h-1.1c0-0.7-0.1-1.3-0.3-1.8s-0.6-0.9-1-1.2s-0.9-0.5-1.5-0.7
	c-0.6-0.1-1.2-0.2-1.8-0.2c-0.5,0-1,0-1.6,0.2c-0.5,0.1-1,0.3-1.4,0.5s-0.8,0.5-1,0.9s-0.4,0.8-0.4,1.4s0.2,1.1,0.5,1.5
	s0.7,0.7,1.2,0.9s1,0.4,1.6,0.6c0.6,0.1,1.2,0.3,1.8,0.4c0.8,0.1,1.5,0.3,2.1,0.5c0.7,0.2,1.2,0.4,1.7,0.8c0.5,0.3,0.9,0.8,1.2,1.3
	s0.4,1.2,0.4,2s-0.2,1.5-0.6,2.1s-0.9,1-1.4,1.3s-1.2,0.6-1.9,0.7s-1.4,0.2-2.1,0.2c-0.9,0-1.7-0.1-2.4-0.3c-0.8-0.2-1.4-0.6-2-1
	c-0.6-0.5-1-1-1.3-1.7s-0.5-1.5-0.5-2.4h1.2L94.3,477.6z"/>
<path d="M120.4,482.8h-1.1v-3.3h-0.1c-0.2,0.6-0.5,1.1-0.9,1.5s-0.8,0.8-1.3,1.2c-0.5,0.3-1,0.6-1.6,0.7s-1.2,0.2-1.8,0.2
	c-0.9,0-1.7-0.1-2.3-0.3s-1.1-0.5-1.5-0.9s-0.7-0.8-0.9-1.2c-0.2-0.5-0.4-0.9-0.5-1.4s-0.2-0.9-0.2-1.3s0-0.8,0-1.1v-9.5h1.1v9.8
	c0,0.4,0,0.9,0.1,1.5s0.2,1.1,0.5,1.6s0.7,1,1.3,1.4s1.4,0.6,2.5,0.6c0.9,0,1.6-0.2,2.3-0.5s1.3-0.8,1.8-1.3c0.5-0.6,0.8-1.2,1.1-2
	c0.2-0.8,0.4-1.7,0.4-2.6v-8.3h1.1V482.8z"/>
<path d="M124,461.3h1.1v9.3h0.1c0.2-0.6,0.5-1.1,0.9-1.6s0.9-0.8,1.4-1.1s1.1-0.5,1.7-0.7s1.2-0.2,1.9-0.2c1.1,0,2.1,0.2,3,0.6
	c0.8,0.4,1.5,1,2.1,1.6c0.6,0.7,1,1.5,1.2,2.4c0.3,0.9,0.4,1.9,0.4,3c0,1.8-0.3,3.3-0.8,4.4s-1.1,2-1.8,2.5c-0.7,0.6-1.4,1-2.2,1.2
	s-1.4,0.3-2,0.3c-1,0-1.9-0.2-2.6-0.5s-1.3-0.7-1.8-1.1s-0.8-0.9-1.1-1.3c-0.2-0.4-0.4-0.7-0.5-0.9h-0.1v3.5H124V461.3z
	 M131.1,482.1c1,0,1.9-0.2,2.6-0.7c0.7-0.4,1.3-1,1.7-1.7s0.8-1.5,1-2.4s0.3-1.8,0.3-2.7s-0.1-1.7-0.3-2.5s-0.6-1.5-1.1-2.1
	s-1.1-1.1-1.7-1.5s-1.5-0.6-2.4-0.6c-1,0-1.9,0.2-2.6,0.5s-1.4,0.8-1.8,1.4c-0.5,0.6-0.8,1.3-1.1,2.1c-0.2,0.8-0.4,1.7-0.4,2.7
	c0,0.9,0.1,1.9,0.3,2.8s0.6,1.7,1,2.4c0.5,0.7,1.1,1.2,1.8,1.7C129.1,482,130,482.1,131.1,482.1L131.1,482.1z"/>
<path d="M149.1,461.3h1.1v9.3h0.1c0.2-0.6,0.5-1.1,0.9-1.6s0.9-0.8,1.4-1.1s1.1-0.5,1.7-0.7s1.2-0.2,1.9-0.2c1.1,0,2.1,0.2,3,0.6
	c0.8,0.4,1.5,1,2.1,1.6c0.6,0.7,1,1.5,1.2,2.4c0.3,0.9,0.4,1.9,0.4,3c0,1.8-0.3,3.3-0.8,4.4s-1.1,2-1.8,2.5s-1.4,1-2.2,1.2
	s-1.4,0.3-2,0.3c-1,0-1.9-0.2-2.6-0.5s-1.3-0.7-1.8-1.1s-0.8-0.9-1.1-1.3c-0.2-0.4-0.4-0.7-0.5-0.9H150v3.5h-1.1v-21.4L149.1,461.3z
	 M156.1,482.1c1,0,1.9-0.2,2.6-0.7c0.7-0.4,1.3-1,1.7-1.7s0.8-1.5,1-2.4s0.3-1.8,0.3-2.7s-0.1-1.7-0.3-2.5s-0.6-1.5-1.1-2.1
	s-1.1-1.1-1.7-1.5c-0.7-0.4-1.5-0.6-2.4-0.6c-1,0-1.9,0.2-2.6,0.5s-1.4,0.8-1.8,1.4c-0.5,0.6-0.8,1.3-1.1,2.1
	c-0.2,0.8-0.4,1.7-0.4,2.7c0,0.9,0.1,1.9,0.3,2.8s0.6,1.7,1,2.4c0.5,0.7,1.1,1.2,1.8,1.7C154.1,481.9,155,482.1,156.1,482.1
	L156.1,482.1z"/>
<path d="M166.6,470.8c0.2-0.5,0.5-1,0.9-1.4s0.8-0.8,1.4-1.1c0.5-0.3,1.1-0.6,1.8-0.7c0.6-0.2,1.3-0.2,2-0.2v1.1
	c-0.6-0.1-1.3,0-2.1,0.2s-1.5,0.6-2.2,1.3c-0.3,0.3-0.5,0.6-0.7,0.9s-0.4,0.6-0.5,0.9s-0.2,0.7-0.3,1.1s-0.1,0.9-0.1,1.5v8.4h-1.1
	v-15.4h1.1v3.4L166.6,470.8z"/>
<path d="M183.4,479.7c-0.2,0.5-0.5,0.9-0.8,1.3s-0.8,0.8-1.2,1.1c-0.5,0.3-1,0.6-1.7,0.8c-0.6,0.2-1.3,0.3-2,0.3
	c-1.6,0-2.9-0.4-3.8-1.1s-1.3-1.8-1.3-3.3c0-0.9,0.2-1.6,0.5-2.2c0.4-0.6,0.8-1,1.4-1.3c0.5-0.3,1.2-0.6,1.8-0.7
	c0.7-0.1,1.3-0.2,1.9-0.3l1.8-0.2c0.8-0.1,1.5-0.2,1.9-0.3c0.5-0.1,0.8-0.3,1.1-0.5c0.2-0.2,0.4-0.5,0.4-0.9
	c0.1-0.4,0.1-0.8,0.1-1.3c0-0.4-0.1-0.8-0.2-1.2c-0.2-0.4-0.4-0.7-0.8-1c-0.3-0.3-0.8-0.5-1.3-0.7s-1.2-0.2-2-0.2
	c-1.4,0-2.5,0.3-3.3,1s-1.3,1.7-1.4,3.1h-1.1c0.1-1.7,0.6-3,1.6-3.8s2.4-1.3,4.3-1.3s3.2,0.4,4.1,1.1c0.8,0.7,1.3,1.7,1.3,2.9v9v0.7
	c0,0.2,0,0.4,0.1,0.6s0.2,0.3,0.3,0.4s0.3,0.2,0.6,0.2c0.2,0,0.5,0,0.8-0.1v1c-0.3,0.1-0.6,0.1-0.9,0.1c-0.5,0-0.8-0.1-1.1-0.2
	s-0.5-0.3-0.6-0.5s-0.2-0.4-0.3-0.7s-0.1-0.6-0.1-0.9v-0.9H183.4z M183.4,474c-0.3,0.3-0.7,0.6-1.3,0.7s-1.2,0.2-1.9,0.3l-1.9,0.2
	c-0.6,0.1-1.1,0.1-1.7,0.3c-0.6,0.1-1.1,0.3-1.5,0.6s-0.8,0.6-1.1,1.1s-0.4,1-0.4,1.8c0,1.1,0.4,2,1.1,2.5c0.7,0.6,1.7,0.8,3,0.8
	s2.3-0.2,3.1-0.7s1.3-1,1.7-1.6s0.7-1.2,0.8-1.8s0.2-1,0.2-1.2v-3L183.4,474z"/>
<path d="M188.2,467.3h1.1v3.3h0.1c0.2-0.6,0.5-1.1,0.9-1.5c0.4-0.5,0.8-0.8,1.3-1.2c0.5-0.3,1-0.6,1.6-0.7s1.2-0.2,1.8-0.2
	c0.9,0,1.7,0.1,2.3,0.3s1.1,0.5,1.5,0.9s0.7,0.8,0.9,1.2c0.2,0.5,0.4,0.9,0.5,1.4s0.2,0.9,0.2,1.3v1.1v9.5h-1.1V473
	c0-0.4,0-0.9-0.1-1.4c-0.1-0.6-0.2-1.1-0.5-1.7c-0.3-0.5-0.7-1-1.3-1.4s-1.4-0.6-2.4-0.6c-0.9,0-1.7,0.2-2.3,0.5
	c-0.7,0.3-1.3,0.8-1.7,1.3c-0.5,0.6-0.8,1.2-1.1,2s-0.4,1.7-0.4,2.6v8.3h-1.1v-15.3H188.2z"/>
<path d="M215.7,479.5c-0.7,1.2-1.5,2.1-2.5,2.7s-2.1,0.9-3.5,0.9c-1.2,0-2.2-0.2-3-0.7s-1.5-1-2.1-1.8c-0.5-0.7-0.9-1.6-1.2-2.6
	s-0.4-2-0.4-3c0-1.1,0.1-2.2,0.4-3.2s0.7-1.8,1.3-2.6c0.6-0.7,1.3-1.3,2.1-1.7s1.9-0.6,3-0.6c0.6,0,1.2,0.1,1.8,0.3s1.2,0.4,1.7,0.7
	s1,0.7,1.3,1.2c0.4,0.5,0.7,1,0.9,1.6h0.1v-9.5h1.1v21.4h-1.1L215.7,479.5L215.7,479.5z M210,482.1c1,0,1.8-0.2,2.5-0.6
	s1.3-0.9,1.8-1.6s0.8-1.4,1-2.3c0.2-0.8,0.3-1.7,0.3-2.6s-0.1-1.8-0.3-2.6c-0.2-0.9-0.6-1.6-1-2.3s-1.1-1.2-1.8-1.6
	s-1.6-0.6-2.6-0.6s-1.9,0.2-2.6,0.6s-1.3,0.9-1.8,1.6s-0.8,1.4-1,2.3s-0.3,1.8-0.3,2.7s0.1,1.8,0.3,2.6s0.6,1.6,1,2.3
	c0.5,0.7,1.1,1.2,1.8,1.6C208.1,481.9,209,482.1,210,482.1L210,482.1z"/>
<path d="M221,477.6c0,0.7,0.2,1.4,0.5,1.9s0.6,1,1.1,1.4s1,0.7,1.6,0.9s1.2,0.3,2,0.3c0.5,0,1,0,1.6-0.1s1.1-0.3,1.6-0.5
	s0.9-0.6,1.2-1s0.5-1,0.5-1.6c0-0.9-0.3-1.5-0.8-1.9s-1.2-0.8-2-1s-1.6-0.4-2.5-0.6s-1.8-0.4-2.5-0.7c-0.8-0.3-1.4-0.7-2-1.3
	c-0.5-0.5-0.8-1.4-0.8-2.4c0-0.8,0.2-1.4,0.5-1.9s0.8-0.9,1.3-1.2s1.1-0.5,1.8-0.6s1.3-0.2,2-0.2c0.8,0,1.5,0.1,2.2,0.3
	s1.3,0.5,1.8,0.9s0.9,0.9,1.2,1.5s0.4,1.4,0.4,2.2h-1.1c0-0.7-0.1-1.3-0.3-1.8s-0.6-0.9-1-1.2s-0.9-0.5-1.5-0.7
	c-0.6-0.1-1.2-0.2-1.8-0.2c-0.5,0-1,0-1.6,0.2c-0.5,0.1-1,0.3-1.4,0.5s-0.8,0.5-1,0.9c-0.3,0.4-0.4,0.8-0.4,1.4s0.2,1.1,0.5,1.5
	s0.7,0.7,1.2,0.9s1,0.4,1.7,0.6s1.2,0.3,1.8,0.4c0.8,0.1,1.5,0.3,2.1,0.5c0.7,0.2,1.2,0.4,1.7,0.8c0.5,0.3,0.9,0.8,1.2,1.3
	s0.4,1.2,0.4,2s-0.2,1.5-0.6,2.1c-0.4,0.5-0.9,1-1.4,1.3s-1.2,0.6-1.9,0.7s-1.4,0.2-2.1,0.2c-0.9,0-1.7-0.1-2.4-0.3
	c-0.8-0.2-1.4-0.6-2-1c-0.6-0.5-1-1-1.3-1.7s-0.5-1.5-0.5-2.4h1V477.6z"/>
<path d="M128.1,516h-2c-1.9,0-2.8,0.6-4.1,2.7l-10.7,17.2l-4.4-17.1c-0.5-2-1.1-2.9-3.3-2.9h-1.7c-2.2,0-3.6,1.3-4,3.6l-5,27.8
	c-0.4,2.1,0.6,3.2,2.4,3.2H96c1.9,0,2.7-0.9,3.1-3l4-22.5l3.8,15c0.3,1.5,0.6,2.5,3.5,2.5c2.4,0,3-0.8,3.8-2.3l9.4-15.5l-4,22.5
	c-0.4,2.1,0.6,3.2,2.3,3.2h0.8c1.9,0,2.7-1,3.1-3l5-27.9C131.4,517.5,130.4,516,128.1,516L128.1,516z M145.2,524.2
	c-8.8,0-14.2,7.2-13.9,15c0.3,7.2,5.2,11.8,12.5,11.8c9,0,14.2-7.2,13.9-15.1C157.5,529.2,152.9,524.2,145.2,524.2z M143.8,546.1
	c-4.2,0-6.8-3-6.9-7.1c-0.2-5.3,3.3-9.9,8.2-9.9c3.8,0,6.8,3,6.9,7.1C152.2,541.7,148.8,546.1,143.8,546.1z M177.4,524.2
	c-3.7,0-6.6,1.8-8.5,4.9c0.2-3.5-1.7-4.5-3.7-4.5c-0.9,0-1.6,0.2-1.7,0.3l-4,22.6c-0.4,2.4,0.9,3,2.6,3h0.7c1.9,0,2.6-0.8,3-3
	l2.4-13.6c1.7-3,3.6-4.4,6.5-4.4c3,0,4.7,1.8,4.8,4.7c0,0.8-0.1,1.7-0.3,2.8l-1.9,10.5c-0.4,2.4,0.9,3,2.6,3h0.7c1.9,0,2.6-0.8,3-3
	l2-11.5c0.2-1.3,0.4-2.4,0.4-3.5C185.9,527.6,182.7,524.2,177.4,524.2z M289.6,524.2c-3,0-5.2,1.7-6.8,4.9c0.2-3.5-1.7-4.5-3.6-4.5
	c-1,0-1.6,0.2-1.7,0.3l-4,22.6c-0.4,2.4,1.1,3,2.8,3h0.7c1.6,0,2.4-0.8,2.8-3l1.3-7.6c1-5.9,3.2-10,6.7-10c1.7,0,2.8,0.7,3.5,1.5
	c0.1,0.1,2.7-0.9,2.7-4.1C294,525.5,292,524.2,289.6,524.2L289.6,524.2z M320.1,524.6c-2.5,0-3.8,1.2-4.6,4.3
	c-1.6-3-4.8-4.7-8.6-4.7c-8,0-13.6,7.1-13.6,15.2c0,6.7,4.1,11.6,10.6,11.6c3.9,0,7-1.6,8.9-4.9c-0.3,3.4,0.4,4.5,2.8,4.5
	c2.2,0,2.9-0.8,3.1-3.2c0.3-4.5,1.8-11.8,3.6-22C322.4,525.2,321.4,524.6,320.1,524.6L320.1,524.6z M299.1,539.2
	c0-5.1,3-10.3,8.6-10.3c4.5,0,6.4,3.3,6.4,7c0,4.6-3.1,10.1-8.8,10.1C301.3,546.1,299.1,543.6,299.1,539.2z M358.4,524.2
	c-4.4,0-7.3,2.3-9.3,5.5c-1-3.4-4-5.5-7.8-5.5c-3.3,0-6.2,1.6-8.2,4.6c0.1-3.2-1.8-4.2-3.7-4.2c-0.9,0-1.6,0.2-1.7,0.3l-4,22.6
	c-0.4,2.4,0.9,3,2.6,3h0.7c1.6,0,2.6-0.7,3-3l2.5-14c1.8-2.8,3.5-4,6.2-4c2.6,0,4.2,1.9,4.2,4.9c0,0.5,0,1-0.1,1.5l-2,11.5
	c-0.4,2.4,1,3,2.6,3h0.7c1.6,0,2.7-0.7,3.1-3l2.5-14c1.8-2.8,3.5-4,6.2-4c2.5,0,4.4,1.5,4.4,4.7c0,0.8-0.1,1.7-0.3,2.8l-1.9,10.5
	c-0.4,2.4,0.9,3,2.6,3h0.7c1.9,0,2.6-0.8,3-3l2-11.5c0.2-1.3,0.4-2.4,0.4-3.5C366.8,527.4,363.3,524.2,358.4,524.2L358.4,524.2z
	 M204,524.1c-11.2,0-15.3,8.3-15.3,15.5c0,6.9,5,11.4,12.6,11.4s11.9-3.4,11.9-6.1c0-1.8-1.3-2.4-2.7-2.6c-2,2.6-4.8,3.8-8.5,3.8
	c-3.3,0-7.3-1.3-7.6-7.2h17.3c1.9,0,3.3-1.1,3.3-3.4c0-3.5-0.7-5.8-2.3-7.9C210.9,525.5,207.8,524.1,204,524.1z M209.4,534.7H195
	c1.4-3.7,4.6-5.9,8.6-5.9c2,0,3.6,0.6,4.6,1.7C209.2,531.5,209.5,532.9,209.4,534.7L209.4,534.7z M268.4,532.1h-10.3
	c-1.2,0-1.8,0.3-2.2,0.7c-0.6,0.7-0.9,2.2-0.9,2.8c0,1.1,1,1.7,2.6,1.7h7.3c-1,5.1-4.2,8.6-9.8,8.6c-5.8,0-9.8-3.7-10-10
	c-0.3-8,5-14.5,12.5-14.5c4.4,0,7.8,2.3,9.2,5.4c0.2,0.2,4.2,0.2,4.1-3.2c0-1.2-0.8-2.7-2.1-3.9c-2.2-2.1-6.2-4-11.5-4
	c-7.5,0-13.4,4.2-16.5,10.1c-0.6-0.8-1.6-1.2-2.6-1.2c-1.7,0-2.7,0.5-4.4,3.4l-8,14l-3-14c-0.6-2.6-1.5-3.4-3.2-3.4
	c-1.9,0-3.5,1.4-3.5,1.8l5.7,22.6l-6,9.6c-0.6,1.1-0.7,2.4,1.6,2.4h1.2c2.3,0,3.1-1.4,4.2-3.4l16.1-27.2c-0.5,1.9-0.7,3.9-0.6,6
	c0.3,9.2,6.5,14.6,15.5,14.6c4.3,0,7.7-1.6,9.6-4.1c-0.1,2.7,1.3,3.7,3.2,3.7c1.1,0,1.8-0.4,1.8-0.5l2.6-14.6
	C271.4,533.2,270.6,532.1,268.4,532.1L268.4,532.1z"/>
<path class="st2" d="M379,548.1l6.1-28.7c0.5-2.1,1.7-3.1,3.6-3.1h1.4c1,0,1.7,0.2,2.1,0.6s0.7,1.1,0.9,2.1l4.2,18.1l12-18.2
	c0.7-1.1,1.3-1.8,1.8-2.1c0.5-0.4,1.2-0.5,2.1-0.5h1.6c1,0,1.7,0.3,2.1,0.9c0.3,0.4,0.4,0.9,0.4,1.5c0,0.2,0,0.5-0.1,0.8l-6.1,28.8
	c-0.3,1.6-1.2,2.5-2.6,2.5h-0.6c-1.3,0-2-0.6-2-1.7c0-0.3,0-0.6,0.1-0.9l5.3-24.8l-11.2,17.1c-0.5,0.8-1,1.4-1.5,1.7
	s-1.2,0.5-2.2,0.5c-1.2,0-2-0.2-2.4-0.6s-0.7-1-0.9-1.9l-3.8-16.6l-5.3,24.9c-0.2,0.9-0.5,1.5-0.9,1.9s-1,0.6-1.8,0.6h-0.6
	c-0.7,0-1.3-0.2-1.6-0.7c-0.2-0.3-0.3-0.7-0.3-1.2C378.9,548.6,378.9,548.4,379,548.1L379,548.1z"/>
<path class="st2" d="M413.7,557.9c0-0.4,0.1-0.8,0.3-1.2s0.5-0.7,0.7-0.9s0.4-0.3,0.5-0.2c0.7,0.8,1.7,1.3,2.9,1.3
	c1,0,2.1-0.5,3.2-1.4s2.5-2.7,4.3-5.3l0.7-1.1c-1-0.2-1.7-1-1.9-2.5l-1.5-13.3c-0.2-1.8-0.6-3.1-1.2-3.9s-1.5-1.2-2.7-1.2
	c-0.1,0-0.1-0.3,0-0.8s0.4-1.1,1-1.6s1.4-0.8,2.5-0.8c2.9,0,4.6,2.8,5.1,8.4l1.1,12L441,525c0,0,0.1-0.1,0.3-0.1s0.4,0,0.6,0.1
	c0.5,0.1,1.1,0.3,1.7,0.7s0.9,1,0.9,1.8c0,0.7-0.4,1.7-1.2,3.1l-13.3,21c-2.2,3.6-4.1,6.1-5.7,7.5s-3.4,2.1-5.4,2.1
	s-3.5-0.5-4.4-1.4C413.9,559.3,413.7,558.7,413.7,557.9L413.7,557.9z"/>
<path class="st2" d="M443.3,517.5c0-0.2,0.3-0.5,0.9-0.8s1.2-0.5,1.8-0.5c0.9,0,1.7,0.3,2.2,0.8c0.5,0.6,0.7,1.3,0.7,2.3l0.3,25.2
	l11.2-21.8c0.7-1.5,2-2.2,3.7-2.2c2.2,0,3.3,0.9,3.4,2.8l1.7,21.2l12.5-28.3c0,0,0.1-0.1,0.4-0.1s0.6,0,1.1,0.1l1.2,0.3
	c0.4,0.2,0.7,0.4,1,0.8s0.4,0.9,0.4,1.5c0,0.7-0.3,1.8-1,3.2l-12.6,27c-0.7,1.3-1.9,1.9-3.7,1.9c-2.2,0-3.3-0.8-3.4-2.5l-1.8-21.7
	l-11.9,22.2c-0.4,0.8-0.9,1.3-1.5,1.6c-0.5,0.3-1.3,0.4-2.3,0.4c-1.2,0-2.1-0.2-2.7-0.6c-0.5-0.4-0.8-1-0.9-1.9L443.3,517.5z"/>
<path class="st2" d="M481.8,540.5c0-4.1,1.4-7.8,4.1-11.1s6.1-4.9,10.1-4.9c1.9,0,3.7,0.4,5.2,1.3s2.6,2.1,3.4,3.5
	c0.3-1.6,0.8-2.7,1.5-3.4c0.6-0.7,1.5-1,2.7-1c0.3,0,0.6,0,1,0.1c0.3,0.1,0.6,0.2,0.7,0.3c0.2,0.1,0.2,0.2,0.2,0.2l-4.1,19.1
	c-0.2,0.7-0.3,1.2-0.3,1.7s0.1,0.8,0.2,1.1c0.3,0.6,1,0.9,2.1,1c0.1,0,0.1,0.2,0,0.6s-0.4,0.8-1,1.2c-0.5,0.4-1.2,0.6-2.2,0.6
	c-2.9,0-4.3-1.4-4.3-4.3c0-0.3,0-0.6,0.1-1c-1.1,1.7-2.5,3.1-4.1,4c-1.7,0.9-3.5,1.4-5.4,1.4c-2.8,0-5.2-0.9-7.1-2.8
	C482.7,546.5,481.8,543.9,481.8,540.5L481.8,540.5z M486.9,540.1c0,2.1,0.6,3.7,1.8,4.9s2.6,1.8,4.4,1.8c2.3,0,4.3-0.8,6.1-2.4
	s2.9-3.6,3.4-6l0.8-4c-1.2-3.8-3.6-5.7-7.2-5.7c-2.7,0-5,1.2-6.7,3.5S486.9,537.1,486.9,540.1L486.9,540.1z"/>
<path class="st2" d="M506.9,557.9c0-0.4,0.1-0.8,0.3-1.2s0.5-0.7,0.7-0.9s0.4-0.3,0.5-0.2c0.7,0.8,1.7,1.3,2.9,1.3
	c1,0,2.1-0.5,3.2-1.4s2.5-2.7,4.3-5.3l0.7-1.1c-1-0.2-1.7-1-1.9-2.5l-1.5-13.3c-0.2-1.8-0.6-3.1-1.2-3.9s-1.5-1.2-2.7-1.2
	c-0.1,0-0.1-0.3,0-0.8s0.4-1.1,1-1.6s1.4-0.8,2.5-0.8c2.9,0,4.6,2.8,5.1,8.4l1.1,12l12.3-20.4c0,0,0.1-0.1,0.3-0.1s0.4,0,0.6,0.1
	c0.5,0.1,1.1,0.3,1.7,0.7s0.9,1,0.9,1.8c0,0.7-0.4,1.7-1.2,3.1l-13.3,21.1c-2.2,3.6-4.1,6.1-5.7,7.5s-3.4,2.1-5.4,2.1
	s-3.5-0.5-4.4-1.4C507.2,559.3,506.9,558.7,506.9,557.9L506.9,557.9z"/>
<g id="XMLID_41_">
	<g id="XMLID_43_">
		<g id="Word_Mark_1_">
			<path id="XMLID_45_" d="M639.3,517.1h-1.9c-1.9,0-2.7,0.6-4,2.6L623,536.4l-4.3-16.6c-0.5-2-1.1-2.8-3.2-2.8h-1.6
				c-2.1,0-3.5,1.2-3.9,3.5l-4.8,27c-0.3,2,0.6,3.1,2.3,3.1h0.7c1.8,0,2.7-0.9,3-2.9l3.9-21.8l3.7,14.6c0.3,1.5,0.6,2.4,3.4,2.4
				c2.4,0,2.9-0.8,3.7-2.2l9.1-15l-3.9,21.8c-0.3,2.1,0.6,3.1,2.3,3.1h0.8c1.8,0,2.7-0.9,3-2.9l4.8-27
				C642.5,518.5,641.5,517.1,639.3,517.1L639.3,517.1z M655.8,525c-8.5,0-13.8,7-13.5,14.6c0.3,7,5.1,11.4,12.1,11.4
				c8.8,0,13.8-7,13.5-14.6C667.8,529.8,663.3,525,655.8,525L655.8,525z M654.5,546.2c-4,0-6.6-2.9-6.7-6.9c-0.2-5.1,3.2-9.7,8-9.7
				c3.7,0,6.6,2.9,6.7,6.9C662.7,542,659.3,546.2,654.5,546.2L654.5,546.2z M687.1,525c-3.6,0-6.4,1.8-8.2,4.7
				c0.2-3.4-1.7-4.3-3.6-4.3c-0.9,0-1.6,0.2-1.6,0.3l-3.9,21.9c-0.4,2.3,0.9,2.9,2.5,2.9h0.7c1.8,0,2.5-0.7,2.9-2.9l2.3-13.2
				c1.7-2.9,3.5-4.3,6.4-4.3s4.6,1.7,4.6,4.5c0,0.7-0.1,1.7-0.3,2.7l-1.8,10.2c-0.4,2.3,0.9,2.9,2.5,2.9h0.7c1.8,0,2.5-0.7,2.9-2.9
				l2-11.2c0.2-1.3,0.4-2.4,0.3-3.4C695.4,528.3,692.3,525,687.1,525L687.1,525z M796,525c-2.9,0-5.1,1.7-6.6,4.7
				c0.2-3.4-1.6-4.3-3.5-4.3c-0.9,0-1.6,0.2-1.6,0.3l-3.9,21.9c-0.4,2.3,1.1,2.9,2.7,2.9h0.7c1.5,0,2.3-0.7,2.7-2.9l1.3-7.3
				c1-5.7,3.1-9.7,6.5-9.7c1.7,0,2.7,0.7,3.4,1.5c0.1,0.1,2.7-0.9,2.6-4C800.3,526.2,798.4,525,796,525L796,525z M825.6,525.4
				c-2.4,0-3.7,1.2-4.5,4.2c-1.5-2.9-4.7-4.6-8.3-4.6c-7.8,0-13.2,6.9-13.2,14.8c0,6.5,4,11.2,10.3,11.2c3.8,0,6.8-1.6,8.7-4.8
				c-0.3,3.3,0.4,4.3,2.8,4.3c2.1,0,2.8-0.8,3-3.1c0.3-4.3,1.8-11.4,3.5-21.3C827.8,525.9,826.9,525.4,825.6,525.4L825.6,525.4z
				 M805.2,539.6c0-5,2.9-10,8.3-10c4.4,0,6.2,3.2,6.2,6.8c0,4.5-3,9.8-8.6,9.8C807.4,546.2,805.2,543.8,805.2,539.6L805.2,539.6z
				 M862.8,525c-4.2,0-7.1,2.2-9.1,5.4c-1-3.3-3.9-5.4-7.6-5.4c-3.2,0-6.1,1.5-8,4.4c0.1-3.1-1.7-4-3.6-4c-0.9,0-1.5,0.2-1.6,0.3
				l-3.9,21.9c-0.4,2.3,0.9,2.9,2.5,2.9h0.7c1.5,0,2.5-0.6,2.9-2.9l2.4-13.6c1.8-2.7,3.4-3.9,6-3.9c2.5,0,4.1,1.9,4.1,4.8
				c0,0.5,0,1-0.1,1.5l-1.9,11.2c-0.4,2.3,0.9,2.9,2.5,2.9h0.6c1.6,0,2.6-0.7,3-2.9l2.4-13.6c1.8-2.7,3.4-3.9,6-3.9
				c2.4,0,4.2,1.5,4.2,4.5c0,0.7-0.1,1.7-0.3,2.7l-1.8,10.2c-0.4,2.3,0.9,2.9,2.5,2.9h0.7c1.8,0,2.5-0.7,2.9-2.9l2-11.2
				c0.2-1.3,0.3-2.4,0.3-3.4C870.9,528.1,867.6,525,862.8,525L862.8,525z M713,525c-10.9,0-14.8,8-14.8,15c0,6.7,4.8,11.1,12.2,11.1
				s11.5-3.3,11.5-5.9c0-1.8-1.2-2.4-2.7-2.5c-1.9,2.5-4.6,3.7-8.3,3.7c-3.2,0-7.1-1.2-7.3-7h16.8c1.8,0,3.2-1,3.2-3.3
				c0-3.4-0.7-5.7-2.2-7.6C719.7,526.2,716.6,525,713,525L713,525z M718.2,535.2h-13.9c1.3-3.6,4.4-5.7,8.4-5.7c2,0,3.5,0.6,4.5,1.7
				C717.9,532.1,718.3,533.5,718.2,535.2L718.2,535.2z M775.5,532.6h-10c-1.2,0-1.8,0.3-2.1,0.6c-0.6,0.6-0.9,2.1-0.9,2.7
				c0,1,0.9,1.6,2.5,1.6h7.1c-1,4.9-4.1,8.4-9.5,8.4c-5.7,0-9.5-3.6-9.7-9.7c-0.3-7.7,4.9-14.1,12.1-14.1c4.2,0,7.6,2.3,8.9,5.3
				c0.2,0.2,4.1,0.2,4-3.1c0-1.2-0.7-2.6-2-3.8c-2.1-2.1-6-3.9-11.2-3.9c-7.3,0-13,4-16.1,9.8l0,0c-0.6-0.8-1.6-1.2-2.5-1.2
				c-1.6,0-2.7,0.5-4.2,3.3l-7.8,13.6l-2.9-13.6c-0.6-2.5-1.5-3.3-3.1-3.3c-1.9,0-3.4,1.4-3.3,1.7l5.5,21.9l-5.8,9.4
				c-0.6,1-0.6,2.4,1.5,2.4h1.2c2.3,0,3-1.4,4.1-3.3l15.6-26.4c-0.5,1.8-0.7,3.8-0.6,5.8c0.3,8.9,6.3,14.2,15,14.2
				c4.2,0,7.5-1.6,9.3-4c-0.1,2.6,1.2,3.6,3.1,3.6c1,0,1.8-0.3,1.8-0.5l2.5-14.2C778.4,533.8,777.6,532.6,775.5,532.6z"/>
		</g>
		<g>
			<path class="st3" d="M882.8,548.2l6.1-28.5c0.2-0.8,0.5-1.5,0.9-1.8c0.4-0.4,1-0.6,1.7-0.6h0.7c0.8,0,1.3,0.2,1.7,0.7
				c0.2,0.3,0.3,0.6,0.3,1.1c0,0.2,0,0.5-0.1,0.8l-2.7,12.6l18.1-15.6l0,0c0.1,0,0.3,0.1,0.7,0.2c0.5,0.1,0.9,0.4,1.4,0.9
				c0.5,0.4,0.7,0.9,0.7,1.5c0,1-0.7,2.1-2.1,3.2l-14,11.5l7.2,9.8c1,1.5,1.9,2.5,2.6,3c0.7,0.5,1.5,0.8,2.4,0.9l0.1,0.3
				c0,0.2,0,0.5-0.1,0.8s-0.3,0.6-0.5,0.9c-0.2,0.3-0.6,0.6-1.1,0.8s-1.1,0.3-1.8,0.3c-1.2,0-2.2-0.4-3.1-1.2
				c-0.9-0.8-2-2.2-3.3-4.2l-7.6-10.9l-2.9,13.8c-0.2,0.8-0.5,1.5-0.9,1.8c-0.4,0.4-1,0.6-1.8,0.6h-0.7c-1.3,0-2-0.6-2-1.7
				C882.7,548.8,882.7,548.5,882.8,548.2z"/>
			<path class="st3" d="M911.4,540.9c0-4,1.3-7.6,4-10.8c2.6-3.2,5.9-4.7,9.8-4.7c1.9,0,3.5,0.4,5,1.3c1.5,0.8,2.6,2,3.3,3.4
				c0.3-1.5,0.8-2.6,1.4-3.3c0.6-0.7,1.5-1,2.6-1c0.3,0,0.6,0,0.9,0.1c0.3,0.1,0.5,0.2,0.7,0.3s0.2,0.2,0.2,0.2l-3.9,18.6
				c-0.2,0.6-0.3,1.2-0.3,1.6c0,0.4,0.1,0.8,0.2,1.1c0.3,0.5,0.9,0.9,2,1c0.1,0,0.1,0.2,0,0.6c-0.1,0.4-0.4,0.8-0.9,1.2
				s-1.2,0.6-2.1,0.6c-2.8,0-4.2-1.4-4.2-4.1c0-0.3,0-0.6,0-0.9c-1,1.7-2.4,3-4,3.9s-3.4,1.4-5.2,1.4c-2.7,0-5-0.9-6.8-2.7
				C912.3,546.6,911.4,544.1,911.4,540.9z M916.3,540.4c0,2,0.6,3.6,1.7,4.8c1.1,1.2,2.6,1.8,4.3,1.8c2.2,0,4.2-0.8,6-2.4
				c1.7-1.6,2.9-3.5,3.3-5.8l0.8-3.8c-1.1-3.7-3.5-5.5-7-5.5c-2.7,0-4.8,1.1-6.5,3.4C917.2,535,916.3,537.6,916.3,540.4z"/>
			<path class="st3" d="M940.9,548.4l4.7-22.3c0.1-0.2,0.5-0.3,1.3-0.3c1.9,0,2.9,1,2.8,3c0,0.3,0,0.6,0,0.9c2-2.9,4.7-4.3,8-4.3
				c1.8,0,3.4,0.5,4.7,1.4c1.3,1,2.2,2.3,2.7,3.9c2.3-3.6,5.4-5.4,9.3-5.4c2.4,0,4.3,0.8,5.8,2.3s2.2,3.5,2.2,5.9
				c0,1.3-0.5,3.8-1.5,7.4c-0.9,2.9-1.3,4.7-1.3,5.5c0,0.7,0.2,1.2,0.5,1.5c0.4,0.3,0.9,0.5,1.7,0.6c0.1,0,0.1,0.2,0,0.6
				s-0.5,0.8-1,1.3c-0.5,0.4-1.3,0.6-2.3,0.6c-1.3,0-2.3-0.3-2.9-1c-0.7-0.7-1-1.7-1-2.9s0.4-3.3,1.3-6.3c0.8-2.9,1.2-4.9,1.2-5.9
				c0-1.5-0.4-2.7-1.2-3.6s-1.9-1.4-3.3-1.4c-1.5,0-2.7,0.3-3.8,1s-2.1,1.8-3.1,3.4l-3,14.2c-0.3,1.6-1.2,2.4-2.6,2.4h-0.5
				c-1.4,0-2-0.5-2-1.6c0-0.2,0-0.5,0.1-0.7l2.5-11.8c0.2-0.7,0.2-1.4,0.2-2c0-1.1-0.3-2.1-0.8-2.9c-0.8-1.3-2-1.9-3.6-1.9
				c-1.5,0-2.7,0.3-3.8,1s-2.1,1.8-3.1,3.4l-3,14.1c-0.3,1.6-1.2,2.4-2.6,2.4H943c-1.3,0-2-0.6-2-1.7
				C940.8,548.9,940.8,548.6,940.9,548.4z"/>
			<path class="st3" d="M985.7,541c0-4.5,1.5-8.2,4.5-11.1c3-3,6.7-4.5,11-4.5c2.9,0,5.2,0.6,6.8,1.9c1.6,1.2,2.5,2.9,2.5,4.9
				c0,2.6-1.1,4.6-3.2,6c-2.1,1.3-5.8,2-11.1,2c-1.5,0-3.4-0.1-5.9-0.2v0.9c0,2,0.6,3.6,1.8,4.8s2.8,1.8,5,1.8c3.3,0,6-1.3,7.8-3.9
				c0-0.1,0.2,0,0.6,0.1c0.4,0.1,0.8,0.4,1.1,0.7c0.4,0.4,0.6,0.8,0.6,1.3c0,0.9-0.4,1.7-1.2,2.5c-2.1,2-5.1,3-9,3
				c-3.6,0-6.4-0.9-8.3-2.8C986.7,546.5,985.7,544,985.7,541z M991.1,536.4c1.5,0.2,3,0.2,4.6,0.2c6.7,0,10.1-1.4,10.1-4.3
				c0-0.9-0.4-1.6-1.3-2.2c-0.8-0.6-2-0.9-3.6-0.9c-2.2,0-4.2,0.7-5.9,2C993.3,532.5,992,534.3,991.1,536.4z"/>
			<path class="st3" d="M1012.7,544.9l5.8-27.1c0.2-0.9,0.4-1.5,0.8-1.9c0.4-0.4,0.9-0.5,1.5-0.5h0.6c1.5,0,2.2,0.6,2.2,1.7
				c0,0.2,0,0.4-0.1,0.7l-5.6,26.6c-0.1,0.7-0.2,1.2-0.2,1.7s0.1,1,0.2,1.3c0.3,0.6,1,0.9,2.1,1v0.2c0,0.2,0,0.4-0.2,0.7
				c-0.1,0.3-0.3,0.5-0.5,0.8c-0.2,0.2-0.5,0.5-1,0.6c-0.5,0.2-1,0.3-1.6,0.3c-2.9,0-4.4-1.3-4.4-3.9
				C1012.4,546.4,1012.5,545.7,1012.7,544.9z"/>
			<path class="st3" d="M1023.9,541c0-4.5,1.5-8.2,4.5-11.1c3-3,6.7-4.5,11-4.5c2.9,0,5.2,0.6,6.8,1.9c1.6,1.2,2.5,2.9,2.5,4.9
				c0,2.6-1.1,4.6-3.2,6c-2.1,1.3-5.8,2-11.1,2c-1.5,0-3.4-0.1-5.9-0.2v0.9c0,2,0.6,3.6,1.8,4.8c1.2,1.2,2.8,1.8,5,1.8
				c3.3,0,6-1.3,7.8-3.9c0-0.1,0.2,0,0.6,0.1s0.8,0.4,1.1,0.7c0.4,0.4,0.6,0.8,0.6,1.3c0,0.9-0.4,1.7-1.2,2.5c-2.1,2-5.1,3-9,3
				c-3.6,0-6.4-0.9-8.3-2.8C1024.9,546.5,1023.9,544,1023.9,541z M1029.3,536.4c1.5,0.2,3,0.2,4.6,0.2c6.7,0,10.1-1.4,10.1-4.3
				c0-0.9-0.4-1.6-1.3-2.2c-0.8-0.6-2-0.9-3.6-0.9c-2.2,0-4.2,0.7-5.9,2C1031.5,532.5,1030.2,534.3,1029.3,536.4z"/>
			<path class="st3" d="M1050.4,539.9c0-3.9,1.3-7.3,3.9-10.2s5.9-4.3,10-4.3c3.4,0,6.1,1.1,8.3,3.2c2.1,2.1,3.2,4.8,3.2,8.2
				c0,3.9-1.3,7.3-3.9,10.2s-5.9,4.3-10,4.3c-3.4,0-6.1-1.1-8.3-3.2C1051.5,545.9,1050.4,543.2,1050.4,539.9z M1055,539.7
				c0,2.1,0.7,3.9,2,5.4c1.3,1.4,3,2.1,5,2.1c2.6,0,4.7-1,6.5-3c1.7-2,2.6-4.4,2.6-7.2c0-2.1-0.7-3.9-2-5.4c-1.3-1.4-3-2.1-5-2.1
				c-2.6,0-4.7,1-6.4,3C1055.9,534.5,1055,536.9,1055,539.7z"/>
			<path class="st3" d="M1078.2,548.4l4.7-22.3c0.1-0.2,0.5-0.3,1.3-0.3c1.9,0,2.9,1,2.9,3c0,0.4,0,0.8-0.1,1.3
				c2-3.1,4.8-4.6,8.2-4.7c2.6,0,4.7,0.8,6.2,2.3s2.3,3.5,2.3,5.9c0,1.4-0.5,3.9-1.6,7.4c-0.9,2.9-1.3,4.7-1.3,5.5
				c0,0.7,0.2,1.2,0.5,1.5c0.4,0.3,0.9,0.5,1.7,0.6c0.1,0,0.1,0.2,0,0.6c-0.1,0.4-0.5,0.8-1,1.3c-0.6,0.4-1.3,0.6-2.2,0.6
				c-1.3,0-2.3-0.3-3-1s-1-1.7-1-2.9c0-1,0.4-3.1,1.3-6.3c0.8-2.8,1.2-4.8,1.2-5.9c0-1.6-0.4-2.8-1.3-3.7s-2.1-1.3-3.6-1.3
				c-1.6,0-2.9,0.4-4,1.2s-2.2,2-3.2,3.7l-2.9,13.7c-0.3,1.6-1.1,2.4-2.3,2.4h-0.6c-1.5,0-2.2-0.6-2.2-1.7
				C1078.1,548.8,1078.1,548.6,1078.2,548.4z"/>
		</g>
	</g>
</g>
</svg>
