<svg enable-background="new 0 0 996 534" viewBox="0 0 996 534" xmlns="http://www.w3.org/2000/svg"><path d="m299.9 267c0-110.7 88.7-200.6 198.1-200.6s198.1 89.9 198.1 200.6-88.7 200.6-198.1 200.6-198.1-89.9-198.1-200.6" fill="#1694cf"/><g fill="#fff"><path d="m492.8 331.4v1.4c0 37.3-27.8 58.9-62.6 58.9-41.1 0-62.5-24.7-63.6-55.8h29.9v.8c1.6 15.1 13.9 26.5 32 26.5 18.9 0 31.9-12.6 31.9-32v-21h-.3c-7.9 3.4-21 5.4-30.3 5.4-37.4 0-64-24.1-65.5-54.4v-.2-69.1h32.3v66.8 1.4c0 15.4 16.8 27.9 32 27.9s31.8-11.9 31.8-27.3v-1.4-67.3h32.1z"/><path d="m599.8 285h-32.4c-19.2 0-32.4-14.2-32.4-31.6 0-18.8 14.6-31.6 32.4-31.6s32.4 12.5 32.4 31.6zm-32.4-94c-35.4 0-64 25.2-64 62.3 0 34.5 26.4 62.3 64.2 62.3h64l-.1-62.3c-.1-37.6-28.8-62.3-64.1-62.3"/></g></svg>