<?xml version="1.0" encoding="utf-8"?>
<!-- Generator: Adobe Illustrator 22.0.1, SVG Export Plug-In . SVG Version: 6.00 Build 0)  -->
<svg version="1.1" id="Layer_1" xmlns="http://www.w3.org/2000/svg" xmlns:xlink="http://www.w3.org/1999/xlink" x="0px" y="0px"
	 viewBox="0 0 500 500" style="enable-background:new 0 0 500 500;" xml:space="preserve">
<style type="text/css">
	.st0{fill:#FFFFFF;}
</style>
<g>
	<g>
		<path class="st0" d="M128,346.2c0-13.2,0-15.7-0.2-18.5c-0.2-3-0.9-4.4-3.7-5c-0.7-0.2-2.2-0.3-3.4-0.3c-1,0-1.5-0.2-1.5-0.8
			c0-0.6,0.6-0.8,1.9-0.8c4.6,0,10.1,0.3,12.5,0.3c3.6,0,8.6-0.3,12.6-0.3c10.9,0,14.8,3.7,16.2,5c1.9,1.8,4.4,5.8,4.4,10.4
			c0,12.4-9.1,21.1-21.4,21.1c-0.4,0-1.4,0-1.8-0.1c-0.4-0.1-1-0.2-1-0.8c0-0.7,0.6-1,2.4-1c4.9,0,11.7-5.5,11.7-14.4
			c0-2.9-0.3-8.7-5.1-13.1c-3.1-2.9-6.7-3.4-8.7-3.4c-1.3,0-2.6,0.1-3.4,0.4c-0.4,0.2-0.7,0.7-0.7,1.7v34.8c0,8,0,14.9,0.4,18.6
			c0.3,2.4,0.8,4.4,3.4,4.7c1.2,0.2,3.1,0.3,4.4,0.3c1,0,1.4,0.3,1.4,0.7c0,0.6-0.7,0.9-1.7,0.9c-5.7,0-11.2-0.3-13.5-0.3
			c-2,0-7.5,0.3-11,0.3c-1.1,0-1.7-0.3-1.7-0.9c0-0.4,0.4-0.7,1.4-0.7c1.3,0,2.4-0.2,3.1-0.3c1.7-0.3,2.2-2.3,2.5-4.8
			c0.4-3.7,0.4-10.5,0.4-18.6v-15.1H128z"/>
		<path class="st0" d="M185.4,346.2c0-13.2,0-15.7-0.2-18.5c-0.2-3-1-4.4-3-4.9c-1-0.3-2.1-0.3-3.1-0.3c-0.9,0-1.4-0.2-1.4-0.9
			c0-0.5,0.7-0.7,2.1-0.7c3.3,0,8.8,0.3,11.3,0.3c2.2,0,7.3-0.3,10.6-0.3c1.1,0,1.8,0.2,1.8,0.7c0,0.7-0.5,0.9-1.4,0.9
			s-1.6,0.1-2.6,0.3c-2.4,0.4-3,1.9-3.2,5c-0.2,2.8-0.2,5.2-0.2,18.5v15.3c0,8.5,0,15.3,0.4,19.1c0.3,2.4,0.9,3.9,3.5,4.3
			c1.2,0.2,3.1,0.3,4.4,0.3c1,0,1.4,0.3,1.4,0.7c0,0.6-0.7,0.9-1.7,0.9c-5.7,0-11.2-0.3-13.6-0.3c-2,0-7.5,0.3-11,0.3
			c-1.1,0-1.7-0.3-1.7-0.9c0-0.4,0.3-0.7,1.4-0.7c1.3,0,2.4-0.2,3.1-0.3c1.7-0.3,2.3-1.8,2.5-4.4c0.4-3.7,0.4-10.5,0.4-19v-15.4
			H185.4z"/>
		<path class="st0" d="M226.2,375c0.2,6.8,1.3,9.1,3,9.7c1.5,0.5,3.1,0.6,4.5,0.6c1,0,1.5,0.2,1.5,0.7c0,0.7-0.8,0.9-2,0.9
			c-5.7,0-9.1-0.3-10.8-0.3c-0.8,0-4.9,0.3-9.4,0.3c-1.1,0-1.9-0.1-1.9-0.9c0-0.5,0.5-0.7,1.4-0.7c1.1,0,2.7-0.1,3.9-0.4
			c2.3-0.7,2.6-3.2,2.7-10.8l0.8-51.6c0-1.7,0.3-3,1.1-3c1,0,1.7,1.1,3.2,2.7c1,1.1,14.3,15.3,27,28c5.9,5.9,17.7,18.5,19.2,19.9
			h0.4l-0.9-39.1c-0.1-5.3-0.9-7-3-7.8c-1.3-0.5-3.4-0.5-4.6-0.5c-1,0-1.4-0.3-1.4-0.8c0-0.7,1-0.8,2.3-0.8c4.5,0,8.7,0.3,10.5,0.3
			c1,0,4.3-0.3,8.5-0.3c1.1,0,2,0.1,2,0.8c0,0.5-0.5,0.8-1.6,0.8c-0.9,0-1.6,0-2.6,0.3c-2.4,0.7-3.1,2.5-3.2,7.4l-1,55
			c0,1.9-0.3,2.7-1.1,2.7c-1,0-2-1-3-1.9c-5.5-5.2-16.6-16.6-25.7-25.6c-9.5-9.4-19.2-20.3-20.7-21.9H225L226.2,375z"/>
		<path class="st0" d="M337.2,385.8c-3.5,1.3-9.1,2.3-13.7,2.3c-25.5,0-35.4-18.9-35.4-34.6c0-14.2,10.2-33.7,35.7-33.7
			c20.8,0,35.3,12.6,35.3,33c0,15.3-9.7,25-15.2,28.7l17.5,9c18.4,9.4,30,10.4,35.9,10.4c4.5,0,11-0.7,17-3c0.5-0.2,1-0.4,1.3-0.4
			c0.4,0,0.8,0.3,0.8,0.8s-0.4,0.8-1,1c-5.2,2.5-15.1,6.5-27.6,6.5c-13.2,0-22.5-3.4-36.8-11.8L337.2,385.8z M346.9,355.1
			c0-21.1-13.1-31.2-25.1-31.2c-11.4,0-21.6,7.3-21.6,27.5c0,20.7,12.5,32.2,26.6,32.2C333.7,383.7,346.9,380.6,346.9,355.1z"/>
		<g>
			<path class="st0" d="M304.2,427.3c0,6.3,0,9.8,1,10.7c0.8,0.7,2,1.1,5.8,1.1c2.5,0,6.5,0,7.9-1.1c1-0.8,1.9-2.1,2.3-2.9
				c0.2-0.5,0.6-0.7,0.9-0.6c0.4,0.1,0.5,0.5,0.3,0.9c-0.2,0.5-1.4,3.3-2.4,4.8c-0.6,0.9-1.8,1.8-4.2,1.8c-3.4,0-6.7-0.1-8.8-0.2
				c-2.1-0.1-3.9-0.1-5.8-0.1c-0.5,0-1.6,0-2.7,0s-2.3,0.1-3.3,0.1c-0.6,0-1-0.1-1-0.5c0-0.2,0.2-0.4,0.8-0.4c0.7,0,1.3-0.1,1.7-0.2
				c0.9-0.2,1.2-1.3,1.4-2.7c0.2-2.1,0.2-6,0.2-10.6v-8.7c0-7.5,0-8.9-0.1-10.5c-0.1-1.7-0.5-2.5-2-2.8c-0.4-0.1-1-0.1-1.6-0.1
				c-0.5,0-0.8-0.1-0.8-0.4s0.3-0.4,1-0.4c2.2,0,5.2,0.2,6.5,0.2c1.1,0,4.6-0.2,6.5-0.2c0.7,0,1,0.1,1,0.4s-0.3,0.4-0.9,0.4
				c-0.5,0-1.3,0-1.9,0.1c-1.3,0.2-1.7,1.1-1.8,2.8c-0.1,1.6-0.1,3-0.1,10.5v8.6H304.2z"/>
			<path class="st0" d="M334.2,428.8c-0.2,0-0.3,0.1-0.4,0.4l-2.6,7.1c-0.5,1.2-0.7,2.4-0.7,3c0,0.9,0.4,1.5,1.9,1.5h0.7
				c0.6,0,0.7,0.1,0.7,0.4c0,0.4-0.3,0.5-0.8,0.5c-1.5,0-3.6-0.1-5-0.1c-0.5,0-3.1,0.1-5.6,0.1c-0.6,0-0.9-0.1-0.9-0.5
				c0-0.3,0.2-0.4,0.6-0.4s1.1,0,1.5-0.1c2.2-0.3,3.1-2,4-4.5l11.9-31.1c0.6-1.4,0.9-2,1.3-2s0.7,0.4,1.2,1.6
				c1.1,2.7,8.8,22.9,11.8,30.5c1.8,4.5,3.2,5.2,4.2,5.4c0.7,0.1,1.4,0.2,2,0.2c0.4,0,0.6,0,0.6,0.4s-0.4,0.5-2.2,0.5
				c-1.7,0-5.2,0-9-0.1c-0.9,0-1.4,0-1.4-0.4c0-0.3,0.2-0.4,0.7-0.4c0.3-0.1,0.7-0.5,0.4-1.1l-3.8-10.5c-0.1-0.3-0.2-0.3-0.5-0.3
				h-10.6V428.8z M343.9,426.3c0.2,0,0.3-0.2,0.2-0.3l-4.3-12.2c0-0.2-0.1-0.4-0.2-0.4s-0.2,0.2-0.3,0.4l-4.4,12.2
				c0,0.2,0,0.3,0.2,0.3H343.9z"/>
		</g>
		<path class="st0" d="M134.1,407l-7.4,0.2c-2.9,0.1-4.1,0.3-4.8,1.4c-0.5,0.7-0.7,1.3-0.8,1.7c-0.1,0.4-0.2,0.6-0.5,0.6
			s-0.4-0.2-0.4-0.8c0-0.8,0.9-5.3,1-5.7c0.2-0.6,0.3-0.9,0.6-0.9c0.4,0,0.9,0.5,2.1,0.6c1.4,0.2,3.3,0.3,4.9,0.3h19.6
			c1.6,0,2.7-0.2,3.4-0.3c0.7-0.1,1.1-0.2,1.3-0.2c0.3,0,0.4,0.3,0.4,1c0,1-0.1,4.5-0.1,5.8c0,0.5-0.1,0.8-0.4,0.8
			c-0.4,0-0.5-0.3-0.5-1V410c-0.1-1.3-1.4-2.7-5.8-2.8l-6.2-0.2v20.4c0,4.6,0,8.5,0.2,10.7c0.1,1.4,0.4,2.5,1.9,2.7
			c0.7,0.1,1.8,0.2,2.5,0.2c0.5,0,0.8,0.2,0.8,0.4c0,0.3-0.4,0.5-0.9,0.5c-3.3,0-6.4-0.1-7.8-0.1c-1.1,0-4.2,0.1-6.2,0.1
			c-0.6,0-1-0.1-1-0.5c0-0.3,0.2-0.4,0.8-0.4c0.7,0,1.3-0.1,1.8-0.2c1-0.2,1.3-1.3,1.4-2.7c0.2-2.1,0.2-6,0.2-10.6L134.1,407
			L134.1,407z"/>
		<path class="st0" d="M161.8,418.7c0-7.6,0-9-0.1-10.6c-0.1-1.7-0.5-2.5-2.1-2.8c-0.4-0.1-1.2-0.2-1.9-0.2c-0.5,0-0.8-0.1-0.8-0.4
			s0.3-0.5,1.1-0.5c1.3,0,2.8,0.1,4,0.1c1.3,0.1,2.4,0.1,3.1,0.1c1.6,0,11.4,0,12.3,0c0.9-0.1,1.7-0.2,2.1-0.3
			c0.2,0,0.5-0.2,0.8-0.2c0.2,0,0.3,0.2,0.3,0.5s-0.2,0.9-0.4,3.2c0,0.5-0.1,2.7-0.2,3.3c0,0.3-0.1,0.5-0.5,0.5
			c-0.3,0-0.4-0.2-0.4-0.7c0-0.3-0.1-1.2-0.3-1.8c-0.3-0.9-0.8-1.5-3.3-1.8c-0.8-0.1-6-0.2-7-0.2c-0.2,0-0.3,0.1-0.3,0.5V420
			c0,0.3,0,0.5,0.3,0.5c1.1,0,6.8,0,7.9-0.1c1.2-0.1,1.9-0.3,2.4-0.7c0.3-0.4,0.5-0.7,0.8-0.7c0.2,0,0.3,0.1,0.3,0.4
			s-0.2,1.1-0.4,3.6c0,1-0.2,3-0.2,3.3c0,0.4,0,0.9-0.4,0.9c-0.3,0-0.4-0.2-0.4-0.4c0-0.5,0-1.1-0.2-1.8c-0.2-1-0.9-1.7-2.8-1.9
			c-0.9-0.1-5.8-0.1-7-0.1c-0.2,0-0.3,0.2-0.3,0.5v3.9c0,1.7-0.1,6.3,0,7.7c0.1,3.4,0.9,4.2,5.9,4.2c1.3,0,3.4,0,4.6-0.6
			c1.3-0.6,1.9-1.6,2.2-3.7c0.1-0.6,0.2-0.7,0.5-0.7c0.4,0,0.4,0.4,0.4,0.9c0,1.1-0.4,4.5-0.6,5.5c-0.3,1.3-0.8,1.3-2.7,1.3
			c-3.7,0-6.4-0.1-8.5-0.2s-3.7-0.1-5.1-0.1c-0.5,0-1.6,0-2.8,0c-1.1,0-2.4,0.1-3.4,0.1c-0.6,0-1-0.1-1-0.5c0-0.3,0.2-0.4,0.8-0.4
			c0.7,0,1.3-0.1,1.8-0.2c1-0.2,1.2-1.3,1.4-2.7c0.2-2.1,0.2-6,0.2-10.6v-8.7H161.8z"/>
		<path class="st0" d="M214.5,441.3c-2,0.8-5.1,1.3-7.8,1.3c-14.5,0-20.1-10.8-20.1-19.8c0-8.1,5.8-19.3,20.2-19.3
			c11.8,0,20,7.2,20,18.9c0,8.8-5.5,14.3-8.6,16.4l9.9,5.1c10.4,5.4,17,5.9,20.3,5.9c2.6,0,6.2-0.4,9.6-1.7c0.3-0.1,0.5-0.3,0.7-0.3
			s0.4,0.2,0.4,0.5s-0.2,0.4-0.6,0.6c-3,1.4-8.5,3.7-15.7,3.7c-7.5,0-12.7-1.9-20.9-6.8L214.5,441.3z M220,423.8
			c0-12.1-7.4-17.8-14.2-17.8c-6.5,0-12.2,4.2-12.2,15.8c0,11.9,7.1,18.4,15.1,18.4C212.6,440.1,220,438.4,220,423.8z"/>
		<path class="st0" d="M235,418.7c0-7.6,0-9-0.1-10.6c-0.1-1.7-0.5-2.5-2.1-2.8c-0.4-0.1-1.2-0.2-1.9-0.2c-0.5,0-0.8-0.1-0.8-0.4
			s0.3-0.5,1.1-0.5c2.6,0,5.7,0.2,7.2,0.2c1.2,0,4.3-0.2,6.1-0.2c0.7,0,1.1,0.1,1.1,0.5c0,0.3-0.3,0.4-0.8,0.4s-0.8,0.1-1.4,0.2
			c-1.3,0.2-1.7,1.1-1.8,2.8c-0.1,1.6-0.1,3-0.1,10.6v7c0,7.2,1.4,10.3,3.9,12.3c2.2,1.8,4.5,2,6.2,2c2.2,0,4.8-0.7,6.8-2.7
			c2.7-2.7,2.9-7.2,2.9-12.4v-6.2c0-7.6,0-9-0.1-10.6c-0.1-1.7-0.5-2.5-2.1-2.8c-0.4-0.1-1.2-0.2-1.8-0.2c-0.5,0-0.8-0.1-0.8-0.4
			s0.3-0.5,1-0.5c2.5,0,5.6,0.2,5.7,0.2c0.6,0,3.7-0.2,5.6-0.2c0.7,0,1,0.1,1,0.5c0,0.3-0.3,0.4-0.9,0.4c-0.5,0-0.8,0.1-1.4,0.2
			c-1.3,0.2-1.7,1.1-1.8,2.8c-0.1,1.6-0.1,3-0.1,10.6v5.3c0,5.5-0.5,11.4-4.7,15c-3.5,3-7.1,3.6-10.3,3.6c-2.6,0-7.4-0.2-11-3.4
			c-2.5-2.3-4.4-6-4.4-13.2v-7.3H235z"/>
		<path class="st0" d="M278.3,418.7c0-7.6,0-9-0.1-10.6c-0.1-1.7-0.6-2.5-1.7-2.8c-0.5-0.1-1.2-0.2-1.8-0.2c-0.5,0-0.8-0.1-0.8-0.5
			c0-0.3,0.4-0.4,1.2-0.4c1.9,0,5,0.2,6.4,0.2c1.2,0,4.2-0.2,6-0.2c0.6,0,1,0.1,1,0.4c0,0.4-0.3,0.5-0.8,0.5s-0.9,0.1-1.5,0.2
			c-1.3,0.2-1.7,1.1-1.8,2.8c-0.1,1.6-0.1,3-0.1,10.6v8.8c0,4.8,0,8.8,0.2,10.9c0.1,1.3,0.5,2.2,2,2.4c0.7,0.1,1.8,0.2,2.5,0.2
			c0.5,0,0.8,0.2,0.8,0.4c0,0.3-0.4,0.5-0.9,0.5c-3.3,0-6.4-0.1-7.7-0.1c-1.1,0-4.2,0.1-6.2,0.1c-0.6,0-1-0.1-1-0.5
			c0-0.3,0.2-0.4,0.8-0.4c0.7,0,1.3-0.1,1.8-0.2c1-0.2,1.3-1,1.4-2.5c0.2-2.1,0.2-6,0.2-10.9v-8.7H278.3z"/>
		<rect x="119.9" y="292.7" class="st0" width="239.5" height="1.7"/>
		<rect x="119.9" y="394.7" class="st0" width="220.7" height="1.7"/>
		<rect x="119.9" y="448.6" class="st0" width="92.8" height="1.7"/>
		<rect x="274.3" y="448.6" class="st0" width="85.9" height="1.7"/>
		<path class="st0" d="M124.6,253.3v-71.1h6.5V210v71h-6.5C124.6,281,124.6,253.3,124.6,253.3z"/>
		<path class="st0" d="M245.7,232c-0.3,13.7-5.4,25.3-15.5,34.9c-10,9.6-22,14.4-35.9,14.5c-14.1,0.2-26.3-4.6-36.7-14.4
			s-15.6-21.7-15.7-35.8c0-14.2,5.1-26.2,15.4-36.2c10.3-9.9,22.4-14.9,36.5-14.8c14.1,0,26.2,4.9,36.4,14.8
			c10.2,9.9,15.3,21.8,15.3,35.8c0,0.1,0,0.2,0,0.3s0,0.2,0,0.3s0,0.2,0,0.3s0,0.2,0,0.3L245.7,232z M148.2,232.7
			c0.4,12.3,5.1,22.7,14.2,31.2c9.1,8.5,19.8,12.7,32.1,12.6c12.4-0.2,23-4.6,31.8-13.2s13.2-19.1,13.3-31.4
			c0.2-12.5-4.2-23.3-13.2-32.3s-19.7-13.5-32.2-13.5c-12.3-0.1-23,4.3-32.1,13.3c-9.1,8.9-13.6,19.6-13.6,32c0,0.2,0,0.4,0,0.6
			c0,0.2,0,0.4,0,0.6L148.2,232.7z"/>
		<path class="st0" d="M359.1,232c-0.3,13.7-5.4,25.3-15.5,34.9c-10,9.6-22,14.4-35.9,14.5c-14.1,0.2-26.3-4.6-36.7-14.4
			c-10.4-9.8-15.6-21.7-15.7-35.8c0-14.2,5.1-26.2,15.4-36.2c10.3-9.9,22.4-14.9,36.5-14.8c14.1,0,26.2,4.9,36.4,14.8
			c10.2,9.9,15.3,21.8,15.3,35.8c0,0.1,0,0.2,0,0.3s0,0.2,0,0.3s0,0.2,0,0.3s0,0.2,0,0.3L359.1,232z M261.6,232.7
			c0.4,12.3,5.1,22.7,14.2,31.2s19.8,12.7,32.1,12.6c12.4-0.2,23-4.6,31.8-13.2s13.2-19.1,13.3-31.4c0.2-12.5-4.2-23.3-13.2-32.3
			s-19.7-13.5-32.2-13.5c-12.3-0.1-23,4.3-32.1,13.3c-9.1,8.9-13.6,19.6-13.6,32c0,0.2,0,0.4,0,0.6c0,0.2,0,0.4,0,0.6L261.6,232.7z"
			/>
		<g>
			<path class="st0" d="M206.2,139.3c0.9-0.3,1.6-0.5,2.2-0.4c0.5,0.1-0.4,1.1-0.7,2.6c1.5-1.6,2.5-2.3,3.1-2.2
				c0.6,0.2-0.1,2.6-0.2,4c0.6-0.8,2.2-4.4,2.5-4.9c0.3-0.6,0.2-1.1-0.2-1.2c-0.4-0.1-0.9-0.3-3-0.1c-8.7,0.6-7.4,4.2-7.4,4.2
				s-1.6-0.5-1.6-2.9c0-2.7,3.1-4,4.1-4.4c0.5-0.1,0.9-0.1,0.5,0.3c-0.5,0.6-0.5,1-0.3,1.1c0.7,0.4,2.7-0.7,2.7-0.7
				c0.2-0.7,0.9-2,2.1-2.1c0.8,0,0.5,1.1,0.5,1.1c3-3.3,6.6-4.9,6.6-4.9c-3.1-0.2-6.3,1.6-9.3,3.7c-1.9,1.4-2.6,0.6-2.4-0.1
				c0.9-1.9,2.5-3.5,4.8-4.8c7.2-4,17.3-4.6,21.3-4.6c-0.5,1.2-0.4,2.2,0.1,3.1c0.2-1.3,0.7-3,3.4-5.9c5.4-5.7,9.9-14,12.5-23.6
				c0.3-1.3,0.7-2.4,2.6-4.2c1.2-1.1,3-2.4,5.4-4.3c10.2-8.1,10.5-10.5,10.4-11.4c-0.7,0.7-2.7,3.5-11.3,10.5c-2,1.6-3.8,2.7-5.3,4
				c-0.5,0.4-0.9,0.8-1.3,1.3c0.5-1.2,0.2-2.4-0.5-3.8c-0.6-1.1-1.4-1-1.8-0.7c-0.4,0.3-0.6,0.8-2.4,3c1.8-0.1,2.2-1.6,2.9-1.6
				c0.6,0,1.8,1.5,0.2,3.5c-2.3,3-4.8,4.9-6.4,5.9c-0.9,0.4-1.5,0.2-0.7-0.6c3.2-3.2,6.4-6,6.3-7.2c-1.8,1.9-4.7,4.6-7.2,6.5
				c-1,0.8-1.5,0.2-0.6-0.9c1.8-1.7,5-4.9,6.2-7s1-4.3-0.4-6c-0.6-0.7-1-0.7-1.4-0.4c-0.5,0.4-0.6,1-2.3,3.5c1.7-0.4,2.1-2,2.7-2.1
				c0.6-0.1,1.6,1.3,0.3,3.8c-1,2-3,4.3-4.8,6c-1.2,1.3-2.6,1.2-1.7,0.1c2.9-3.6,6.3-7.1,6.1-8.7c-2,2.8-3.7,5-6.8,7.8
				c-0.9,0.9-1.7-0.1-0.9-1.1c1.7-1.8,4.2-4.5,5.3-6.6c1.2-2.3,1.1-4.2-0.2-5.8c-0.6-0.7-1.1-0.6-1.6-0.4c-0.4,0.2-0.6,1-2.2,3.7
				c1.6-0.5,2-2.3,2.6-2.4s1.7,1.1,0.5,3.7c-0.9,1.9-2.8,4.3-4.5,6.2c-1.1,1.3-2.2,1.2-1.5,0.1c2.5-3.8,5.6-7,5.2-8.6
				c-1.8,2.8-3.6,5.2-6,7.9c-0.8,0.8-1.4,0.2-0.8-0.7c1.4-1.9,4-5.5,4.9-8c0.9-2.4,0.8-4.3-0.9-5.6c-0.5-0.4-1.2-0.4-1.6-0.1
				c-0.3,0.3-0.5,1.1-1.7,4c1.5-0.6,1.8-2.8,2.3-2.9c0.6-0.1,1.9,0.9,1,3.6c-0.8,2.4-2.6,5.2-3.9,7.1l0,0c-0.8,1.5-2.3,1.6-1.6,0.3
				c2-4.1,5.1-7.9,4.5-9.5c-1.5,3-3.3,5.8-5.4,8.8c-0.7,1-1.6,0-0.9-1.2c1.4-2.4,3.3-5.9,4-8.3c0.8-2.6,0.5-4.8-1.1-6.1
				c-1.2-0.9-1.5-0.7-1.7-0.3c-0.4,0.6-0.3,1.1-1.4,4.3c1.4-0.8,1.6-2.6,2.1-2.9c0.5-0.2,1.8,1.2,1.1,4.2c-0.6,2.6-2.4,6-3.8,8.2
				c-0.7,0.9-1.4,0.6-1-0.5c1.5-4.3,4-8.2,3.4-9.8c-1.1,3.1-2.5,6-4.2,9.2c-0.5,0.9-1.3,0.4-1.1-0.5c1-2.4,2.9-7.1,3.5-10.3
				c0.5-3-0.4-4.7-1.9-5.9c-1.1-0.9-1.6-0.9-2.1-0.4c-0.3,0.3-0.3,1.4-1.1,5c1.2-1.1,1.5-3.2,2-3.5s2.2,0.7,1.7,4.1
				c-0.4,3.1-1.8,7.1-2.7,9.7c-0.6,0.6-1.5,0.2-1.3-0.9c0.7-2.7,3.1-8.9,2.5-10.6c-1.1,3.5-2,6.2-3.3,9.7c-0.4,1.1-1.8,0.4-1.7-1
				c0.6-2.5,1.9-7.7,2.1-11c0.1-3.1-0.7-4.8-2.3-6c-1.2-0.9-2.2-1-2.6-0.6c-0.3,0.3-0.1,1.4-0.4,5.2c1-1.1,1-3.4,1.4-3.7
				s2.4,0.9,2.4,4.4c0,3.1-0.7,6.9-1.2,9.5l0,0c-0.3,1.8-1.9,1.6-1.7,0.2c0.2-1.9,2.1-11.1,0.9-12.3c-0.2,4.7-1.3,10.3-2.1,12.2
				c-0.5,1.1-2.1,1.1-2-0.3c0.5-3.2,1.2-8.3,1.2-11.5c-0.1-3.2-2-5.1-3.5-6.1c-1.2-0.8-2.5-1-2.8-0.7s0.1,5.3,0.1,9.3
				c1.1-1.4,0.9-7.3,1.2-7.6c0.4-0.3,3.3,1,3.6,4.7c0.2,2.2-0.2,6.5-0.6,9.8c-0.3,1.7-1.9,1.4-1.7,0.1c0.2-1.9,1.3-11.3,0.1-12.5
				c-0.2,4.7-0.6,10.6-1.3,12.4c-0.4,1.1-1.4,1.2-1.8-0.1c-0.3-3-1-8.5-1.7-11.8c-0.7-3.5-3.5-5.3-4.8-6c-1.4-0.7-3.6-0.6-3.8-0.3
				s0.9,3.4,2.3,7.9c0.1-2.1-0.9-5.9-0.6-6.2c0.3-0.3,4.5,0.9,5.4,4.3c0.7,2.7,1.7,8.6,2.1,12c-0.1,1.4-1.7,1.1-1.7-0.1
				c-0.1-2-2.2-13.1-3.6-13.9c0.8,5.1,2.6,11.8,2.5,13.9c-0.1,1.3-1.6,1.2-2.2-0.2c-0.9-3-2.6-8.5-4.8-12.4c-3-5.3-7.8-5-8-5
				c0,0,4,1.4,6.6,5.8c2.5,4.1,4.5,10.4,5.3,12.8c-0.8,0.3-1.7-0.3-2-1.3c-0.8-2.1-5.3-12.4-7.2-13.4c1.8,3.1,6.1,13.1,6.3,13.8
				c0.2,0.7,0.7,1.7,1.7,2.1c0.6,0.3,1.5,0.2,2.2,0.4c1.3,0.5,2.9,1.8,3.4,4.8c0.5,2.8,1,5.5,1.5,8c-0.7,0.3-1.8-0.2-2.1-1.1
				c-0.5-1.9-2.3-9-3.9-9.7c1.6,4.2,3.1,9.4,3.2,10c0.1,0.6,0.5,1.3,1.2,1.7c0.6,0.3,1.2,0.1,1.9,0.7c0.5,2.6,1,5,1.4,7.4
				c0.3-1.8-0.3-4.7-0.5-7c0-0.2,0-0.4-0.1-0.6c0.5-0.3,1.6-0.7,3.3,0.7c0.9,0.9,1.9,2.3,2,4.3c0.1,2.6,0,4.6,0,6.2l0,0
				c-0.1,1.7-1.5,0.5-1.6-0.7c-0.3-2.7-0.3-8.4-1.6-9.2c0.5,4.3,0.6,5.6,0.6,8.4c0,0.8-0.3,0.9-0.7,0.5c-0.4-0.5-0.7-1-1-1.3
				c0,0.2,0.1,0.6,0.2,1c-0.2,0.4-1.1,0.3-1.5-0.9c-0.9-2.9-2.2-7-2.6-6.8c0.2,1,1.6,6.2,1.9,7.1c0.3,0.8,0.6,1.5,1.2,1.8
				c0.5,0.3,1.1-0.3,1.1-1c0.3,1.1,1,2.7,3.2,4.5c2,1.7,11.7,11.6,14.1,16.4c-0.3,0-0.6,0-0.9,0c-3.6-5.8-10.4-12.3-13.2-14.9
				c-1.5-1.4-2.6-2.2-3.6-3.8c0,0.8,0.1,2.3,3,4.7c3.1,2.6,9.9,10.1,12.5,14c-0.8,0-1.7,0-2.6,0.1c-2.2-3.1-5.8-7-12.6-13.3
				c-3.5-3.2-3.7-6.2-4.6-9.9c-0.2-0.9-0.5-2-0.9-3.2c-2.5-8.3-8-24.1-11.6-30c-4.1-6.9-5.9-6.8-5.9-6.8c6.5,8.1,13.4,28,16.1,37.2
				c0.4,1.2,0.6,2.2,0.9,3.2c1,3.8,1.2,7.8,5,11.2c6,5.5,9.3,8.3,11.9,11.8c-3.6,0.4-7.7,1.4-11.6,3.5c-2.8,1.5-4.8,3.4-5.8,6.2l0,0
				c0,0-4.1,1.7-4,5.6c0.1,4.4,4.6,5,4.6,5C203.3,141.7,204,140.2,206.2,139.3z M241.7,100.9c2.8-2.2,3.9-3.4,4.3-4.1
				c-0.2,0.9-0.4,1.8-0.7,2.7c-1.3,1-2.5,1.8-3.4,2.3C241.2,102,240.8,101.6,241.7,100.9z M238.8,113.4c-0.2-0.2-0.4-0.5-0.2-1
				c0.5-0.4,1.1-0.8,1.7-1.3C239.8,111.8,239.3,112.6,238.8,113.4z M235.8,114.8c-0.9,1.7-2.2,3.8-5.2,6.7c-0.8,0.8-1.1,0.2-0.7-0.4
				c1.5-1.3,3.9-3.7,5.3-6.6c0-0.1,0.1-0.2,0.1-0.2l0,0C235.5,114.3,235.7,114.5,235.8,114.8z M215.7,96.7c0-1.2-0.3-2.1-0.7-2.9
				h0.1c4,0.2,4.5,3.9,4.4,5.1c-0.3,3.1-0.8,5.9-1.3,7.8c-0.4,1.4-1,0.3-0.9-1c0.2-2.6,1-7.8-0.3-9.8c0.1,2.3-0.1,5.3-0.6,9.6
				c-0.1,1.1-0.8,1.1-0.9,0.2C215.6,104.5,215.9,101.5,215.7,96.7z M221.2,98.3c3.1,1,3.1,3.8,2.9,4.9c-0.6,3.4-1.9,6.5-2.7,8.1
				c-0.6,0.8-1-0.6-0.7-1.6c0.8-2.4,2.4-7.4,1.5-9.6c-0.3,2.3-1,5.1-2.3,9.3c-0.4,1.3-1,0.8-0.9-0.6c0.5-1.6,1.4-5.3,1.8-9.7
				c0-0.2,0-0.5,0-0.7C221,98.3,221.1,98.3,221.2,98.3z M232.1,95.7c0.1-0.3,0.2-0.7,0.3-1.1c0.8-0.1,2.4,0,3,2c0,0.1,0,0.3,0,0.6
				l0,0l0,0c0,0.7-0.2,1.8-0.5,2.4c-1.1,2.2-2,3.7-2.7,4.7c0,0,0,0,0-0.1c-0.6,0.9-1.5-0.1-1-1c0.8-1.6,3.3-5.7,2.7-7.2
				c-0.4,0.7-1.3,3.4-3.6,6.7c-0.5,0.7-1.4,0-1.2-0.9C229.9,100.7,231.2,98.6,232.1,95.7z M240.3,102.4c3,1.3,1.9,4.6,1.4,5.3
				c-1.1,1.4-2.6,3-3.7,3.8c-0.2,0.1-0.3,0.2-0.4,0.3c-0.5,0.1-0.6-0.4-0.1-1c1.5-1.9,3.8-4.7,3.3-5.5c-0.4,0.7-1.8,2.5-4.2,5.1
				c-0.6,0.7-1.4,0.3-0.9-0.5c0.9-0.9,2.3-2.4,3.7-4.4C240,104.6,240.3,103.3,240.3,102.4z M229,120.2c-0.4,0-0.4-0.5,0-0.9
				c1.8-1.7,5.2-5.5,4.8-7.4c-1,1.8-2.2,3.9-5.2,6.9c-0.9,0.9-1.4,0-0.6-0.8c0,0-0.1,0-0.1,0.1c1.5-1.4,3.9-4.1,5.3-6.9
				c0.1-0.2,0.2-0.5,0.3-0.7l0.4,0.4c0.5,0.7,1,1.8,0.4,3.1C232.8,116.6,230.3,119,229,120.2z M226.5,116.3c1.7-1.9,4.7-6.2,4.2-8.2
				c-0.8,1.9-1.9,4.2-4.7,7.6c-0.7,0.9-1.3,0.5-0.9-0.3c1.1-1.5,3.5-4.8,4.6-8.2c0.1-0.3,0.1-0.7,0.1-1.1c1.3,0.6,2.9,2.2,2,4.4
				c-1,2.5-3.2,4.9-4.6,6.3l0,0C226.4,117.7,225.9,117,226.5,116.3z M225.6,101.6c3.4,1.6,3.1,4.4,2.9,5.2c-0.8,2.5-2.4,5.1-3.6,6.7
				c-0.8,1.1-1.4,0.1-0.8-0.8c1.4-2.2,3.5-6.7,2.9-8.9c-0.6,2.1-1.5,4.6-3.5,8.4c-0.6,1-1.2,0.7-1-0.1c0.8-1.6,2.4-4.9,3-8.7
				c0.1-0.7,0.1-1.3,0-1.8C225.5,101.6,225.6,101.6,225.6,101.6z M225.7,101.6c0.1,0,0.2,0,0.4,0C226,101.6,225.9,101.6,225.7,101.6
				z M242.7,103.6c-0.2-0.3,0-0.6,0.1-0.8c0.4-0.3,1-0.6,1.8-1.1c0,0.1-0.1,0.2-0.1,0.3C244.2,102.7,243,104,242.7,103.6z M236.8,99
				c2.7,0.7,2.9,3.2,1.8,5.4c-0.5,1-2,2.7-3.3,4c-0.7,0.3-1.2-0.4-0.7-1.3c1.2-1.9,3.5-4.8,2.8-6.2c-0.4,0.7-1.5,3-3.7,5.8
				c-0.6,0.7-1.7-0.3-1.1-1.2c0.8-1,2.1-2.7,3.5-5.3c0.2-0.4,0.4-0.8,0.5-1.2C236.6,98.9,236.7,99,236.8,99z M227.2,89.8
				C227.2,89.7,227.3,89.7,227.2,89.8C227.3,89.7,227.2,89.8,227.2,89.8L227.2,89.8z M227.1,91.3c0.1-0.5,0.1-1,0.1-1.4
				c0.7-0.1,2.5-0.4,3.6,2.1c0.3,0.7,0.3,2.4,0,3.3c-0.8,2.5-1.8,4.2-2.5,5.4c-0.6,0.4-1.3-0.4-0.9-1.4c0.6-1.5,2.3-6.2,1.6-7.4
				c-0.3,0.8-1.3,4.2-2.7,6.9c-0.4,0.9-1.5,0.7-1.5,0C225.5,97.5,226.5,95.1,227.1,91.3z M219.4,81.8c0.7,0.8,1.1,2.7,1,4.3
				c-0.3,3-0.6,5.3-0.8,6.9c-0.4,1-1.3,0.7-1.3-0.5c-0.1-2,0.1-8.1-0.7-9.5c-0.1,1.1-0.1,4.9-0.4,8.8c-0.1,1.3-1.4,0.6-1.6-0.9
				c0.2-1.8,0.3-4.2,0.2-6.9c0-1.3-0.4-2.9-1-4c0.1,0,0.3-0.1,0.5-0.1h-0.1C216.2,79.9,218.1,80.3,219.4,81.8z M231.5,123.1
				L231.5,123.1L231.5,123.1L231.5,123.1z M234.3,119.2c-0.9,1-1.6,1.9-2.1,2.6c-0.9,0.8-1.7,0.8-1,0.2c1.7-1.6,4.7-5,4.8-7
				c0.2,0.6,0.3,1.6-0.4,2.7C235.1,118.3,234.7,118.7,234.3,119.2z M246.8,94.4c-0.3,0.5-0.5,1.1-0.6,1.7c0,0.1,0,0.1,0,0.2
				c-0.5,0.5-2.6,2.2-4.9,3.9c-0.9,0.7-1.5,0.4-0.9-0.2C241.7,99.1,244.4,97.1,246.8,94.4z M222.4,85.3c0.9,0,1.9,0,2.9,1.6
				c0.5,0.8,0.7,2.8,0.5,4.2c-0.4,2.6-1,4.4-1.4,5.7l0,0c-0.4,1.3-1.6,0.6-1.5-0.5c0.2-1.8,1.4-8.3,0.7-9.6
				c-0.3,0.9-0.9,5.6-1.9,8.9c-0.3,0.9-1.1,0.7-1.3-0.1c0.2-1.2,0.8-4.1,1.2-9.2c0-0.2,0-0.4,0-0.7
				C221.9,85.4,222.1,85.3,222.4,85.3z M208.8,89.5L208.8,89.5c-0.3-2.4-0.8-5.3-1.2-7.6c-0.3-1.6-0.8-2.8-1.6-3.6
				c0.4-0.3,1.1-0.7,2.2-0.8c2.5-0.1,3.7,0.9,4.6,1.9c1.3,1.4,1.5,3.5,1.6,4.6c0.1,2.9,0.1,5.3,0,6.9c-0.4,1.2-2,0.9-2-0.3
				c-0.1-2-0.7-9.8-2-10.6c0.8,5.1,0.8,7.8,0.7,10C211,91.2,209.2,91.1,208.8,89.5z"/>
			<path class="st0" d="M230.1,127.5c-8.8-0.1-13.5,3.9-13.5,3.9c11.7-3.9,19.1-0.2,19.1-0.2c-2.8-2.7-6-2.5-6.3-2.9
				C229.2,127.9,230.1,127.5,230.1,127.5z"/>
			<path class="st0" d="M214.2,137.8c3.9-1.9,7.5-2.5,10.7-2.5c7,0,11.5,2.6,11.5,2.6c-2.2-2.6-5.1-2.8-5.4-3.2
				c-0.3-0.4,1.2-0.9,1.2-0.9C219.5,131.9,214.2,137.8,214.2,137.8z"/>
			<path class="st0" d="M236.5,134.6c-2.6-2.6-5.2-2.7-5.5-3.2c-0.3-0.4,0.6-0.9,0.6-0.9c-11.7-0.9-17,3.7-17,3.7
				C229.6,130.2,236.5,134.6,236.5,134.6z"/>
			<path class="st0" d="M226.4,135.9c-4-0.2-6.6,0.5-7.5,0.9c-0.8,0.3-1.7,0.7-2.6,1.2c-2.3,1.4-5.3,5.8-5.3,5.8s1.3-0.2,1.6-0.6
				c1.1-1.4,2.3-2.9,4.2-4c2.6-1.5,7.6-1.7,9.9,2.8c1.6,3.2,3.6,6.6,6.1,9.7c-1.9,1.4-5.3,4.5-7.6,8.1c4.1-3.7,7.4-6,8.7-6.8
				c0.3,0.4,0.7,0.7,1,1.1c-1.3,0.8-5.3,3.5-8.1,6.9c4.9-3.1,8.2-5,9.4-5.7c0.2,0.2,0.4,0.3,0.6,0.5c-1.4,0.9-5.3,3.6-8,6.8
				c4.9-3.1,8.2-5,9.4-5.7c0.2,0.1,0.3,0.2,0.5,0.4c-1.1,0.7-3.6,2.4-5.9,4.6c-0.5-0.1-1-0.1-1.6,0c2.4,1,2.9,1.8,3.9,3.1
				c2.2,2.8,7.8,0.5,10-1.6c1.2-1.2,5.5-6.2,11.7-10.4c-0.3,0-0.7,0.1-1,0.2l0,0c0,0-5.3-1.7-12.9-7.7c2.4,4.1,8.4,7.4,10.7,8.5
				c-0.2,0.1-0.4,0.2-0.6,0.3c-1.7-0.6-6.7-2.7-12.6-7.2c2.6,4.3,8.5,7.2,10.9,8.3c-0.2,0.2-0.5,0.3-0.7,0.5
				c-2.2-0.8-7.2-2.8-12.6-6.9c2.4,4.4,8.4,7.1,11.2,8.1c-0.2,0.2-0.4,0.3-0.6,0.5c-2.2-0.7-6.9-2.6-12.8-6.7
				c3.1,4.5,8.7,7.1,11.3,8.1c-0.1,0.1-0.2,0.2-0.3,0.3c-9-3-15.3-11.3-18.3-17c0.6,0.7,1.4,1.7,2.4,3.1c2.2,3,4.7,5.1,4.7,5.1
				s-2.5-4.6-3.7-6.8s-2.6-4.8-2.6-4.8s1.7,2.1,3.4,4.3c2.5,3.3,4.2,4.5,4.2,4.5s-1.3-2.7-2.8-5.1c-1.5-2.4-2.3-3.9-2.3-3.9
				s1,0.7,2.6,2.6c1.5,1.7,1.7,1.9,3.1,3.4c0,0-0.4-1.6-2.2-4.2c-0.4-0.6-0.8-1.1-1.1-1.5c1,0.3,1.9,0.6,2.8,0.9
				C235.6,137.5,230.7,136.1,226.4,135.9z M243.9,162.3c-2.4,2.3-6.2,3.1-7.8,1.6c-0.6-0.7-1.2-1.4-2.2-1.8c3.7-2.5,5-2.9,6.3-3.2
				c0.7-0.2,1.4,0.1,1.4,0.1l0,0c1.2,0.7,2.5,1.3,3.9,1.8C245,161.3,244.4,161.8,243.9,162.3z"/>
			<path class="st0" d="M217.4,162.3c-0.5-0.3-1.1-0.9-1.7-1.1c0.3,0.5,0.6,1.3,1.2,1.9c0.6,0.6,1.2,1.1,2.1,1.1
				c3.9,0.3,5.9-3.7,5.9-3.7c-0.1,0.1-2.1,2-5.1,2.3C219.1,162.8,218.1,162.7,217.4,162.3z"/>
			<path class="st0" d="M211.2,162.4c1.2,0.8,2.2,0,2.3-1c0-0.8-0.7-2-2.2-2.1c-2.9-0.2-3.7,1.9-3.7,1.9s1.6-0.9,3.4-0.3
				C211.4,161,212.4,161.7,211.2,162.4z"/>
			<path class="st0" d="M232.4,165.6c0.1-0.8-0.7-2-2.2-2.1c-2.9-0.2-3.7,1.9-3.7,1.9s1.6-0.9,3.4-0.3c0.5,0.1,1.4,0.8,0.5,1.8
				C230.8,167,232.4,166.3,232.4,165.6z"/>
			<path class="st0" d="M208,167.4c0.8-0.7,1.3-1,2-1.4c0.8-0.4,1.2-1.2,1-1.8c-0.3-0.9-2.2-1.3-4.1-0.5c-2.4,1-2.8,2.9-2.4,3.4
				c0.4-0.6,1-1.6,2.8-2.1c1.3-0.4,2.7-0.2,1.9,0.8C208.9,165.9,208.1,166.8,208,167.4z"/>
			<path class="st0" d="M217.8,168.9c0.2,0.3,0.4,0.9-0.2,1.5c1.3,0.1,1.7-1.2,1.5-1.9c-0.1-0.2-0.1-0.4-0.3-0.5
				c-2.4-4.9-7.7-1.6-7.7-1.6c2.7-0.8,4.4-0.4,5.6,0.3c-0.6-0.1-1.3-0.1-2.1-0.1c-2.6,0.2-4.6,1.4-5.7,2.6c-0.8,0.9-1.2,2.3-0.5,3
				c0-0.7,0-1.5,1-2.3c1.1-0.9,3-1.8,5.2-1.9C217.3,167.8,217.7,168.6,217.8,168.9z"/>
			<path class="st0" d="M225.5,164.5c-0.7-0.1-2.1,0.6-2.8,1.6c-0.3,0.4-0.5,1-0.4,1.5c0,2-3.7,3.7-3.7,3.7c1.9,0.2,3.4-0.7,4.1-1.6
				c-0.1,0.8-0.6,1.5-2.1,2c-2.3,0.7-5.3-0.1-5.4-0.1c0,0,0.4,0.6,1.6,1.1c1.5,0.6,3.2,0.6,4.4,0.2c2.3-0.6,3.3-2.9,2.6-4.1
				c-0.3-0.6-0.7-1.5-0.3-2C223.9,166,224.8,165.1,225.5,164.5z"/>
			<path class="st0" d="M247.3,108c1.2-2.7,3.2-7.2,3.2-8.4c-0.4,0.1-2.7,5.6-3.9,7.9c-2.3,4.3-5.1,8.9-8.9,13.6
				c-3.4,4.2-1.3,5.9-1.3,5.9s-0.3-1.9,2-4.6C242.1,118.1,245.2,112.7,247.3,108z"/>
			<path class="st0" d="M285.2,104.7c2.4-1.2,6.8-3.6,10.8-7.9c2.6-2.8,6.1-8.3,3.8-13.6c0.6,4.6-1,8.2-4.8,12.3
				c-4.7,5-9.5,7.5-11,8.3c0.6-2.2,1.8-3.5,3.1-4.3c3.9-2.5,8.9-6.7,9.2-9.3c-2.4,2.9-5.2,5.2-9.3,7.7c-1.6,1-2.2-1-2.3-1.3
				c0,0,0,0,0-0.1c1.4-0.7,7.9-4.4,12.5-10.8c2.6-3.6,6.4-11.1,2.5-16.8c1.9,4.8,0,10.7-3.6,15.7c-4.5,6.2-10.5,9.8-11.4,10.4v-0.1
				c0.2-0.9,1.1-4.2,3-5.6c3.6-2.6,9.3-8.8,9.7-11.7c-3.8,4.1-7.5,8.4-10.4,10.4c-1.3,0.9-2,0.7-2.4,0.5c0.5-2.1,0.2-3.7,0.1-3.8
				c0,0-0.1,2.9-3.6,6.9c-5,5.8-10.9,7.6-10.9,7.6l-0.2,1.6c0,0,7.1-2.2,12.3-8.2c1-1.2,1.7-2.4,2-3.5l0.2,5.2c0,0,0,0,0-0.1
				c0,0,0,4.8-4.4,7.5s-8.8,3.5-11.1,3.7c0.2-0.2,0.4-0.5,0.6-0.8l0,0c0,0,1-1.1,3.1-1.9c2.9-1.1,8.8-3.8,9.6-6.9
				c-3.9,3-6.9,4.5-9.8,5.6c-1.6,0.6-2.2-0.2-2.4-0.5c0-0.1-0.1-0.2-0.1-0.3c-0.4,1.5-1.4,4.2-6.2,5c-4.9,0.9-9.3,0.6-11.5,0.4
				c-1.1-0.2-0.5-0.9,0.5-0.8c2.3,0.2,9.8,0.2,11.4-1.6c-4.5,0.6-8.1,0.8-11.3,0.4c-1.2-0.2-1-1,0.1-1.1c2.5,0.4,7.7,0.7,13.4-1.7
				c1.8-0.8,2.8-1.9,3.4-3.3c0.1-0.2,0.2-0.5,0.2-0.7c0.2,0.6,0.3,1.2,0.3,1.2s0.5-2,2.8-3.5c2.9-1.8,8.4-6.6,8.9-9.5
				c-3.8,4.1-6.8,6.5-9.7,8.5c-1.6,1.1-2.1,0.6-2.2,0.5c-0.1-0.3-0.2-0.6-0.3-0.8c0.1,3-2,5-4,5.9c-4.5,2-9.3,2.1-11.9,1.9
				c-0.4-0.3,0.1-0.6,0.9-0.7c4.1-0.3,9.6-1.8,10.8-3.5c-4.3,1.6-7.9,2.2-11.1,2.5c-1.1,0.1-1-0.4-0.2-0.7c3.5-0.5,10.8-2,14.2-5.9
				c0.1-0.1,0.1-0.1,0.2-0.2c2.9-1.4,8.8-5.1,13.2-11.1c1-1.4,1.8-2.7,2.3-3.9l0.6,6l0,0l0.2,1.5c0.2-0.1,5.2-2.8,11.6-11.7
				c5.1-7,3.7-15.3,1.1-18c1.1,3.3,2.4,10.2-2.1,16.6c-5.8,8.1-10.1,11.2-10.7,11.6c0.1-1,0.6-3.7,3.2-6.5
				c2.4-2.5,8.7-11.1,8.6-15.4c-2.7,6-6.7,11.4-8.9,13.8c-2,2.2-3,2.1-3.4,1.9c0.5-1.2,0.8-2.4,0.9-3.4c2.1-2.5,6.8-8.7,9.7-15.8
				c1.8-4.5,2.1-8.4,1.2-10.7c0,1.1,0.3,2.7-2.5,9.8c-2.7,6.8-6.5,12.1-8.3,14.4c0-0.5-0.1-1-0.3-1.4l0.1,0.1c0,0-0.4-1.1,1.2-4.1
				c2.5-4.5,7.2-12.6,6.6-17.7c-1.6,6.6-4.3,11-7,15.6c-1.7,2.8-3,2.2-3,2.2l0.4,0.8c0.4,1.1,2.9,6-2.9,13.6
				c-3.9,5-7.8,7.9-10.3,9.6c0.1-0.4,0.2-0.8,0.2-1.4c0-0.1,0-0.1,0-0.2c0.2-0.9,0.7-2.5,2.2-3.6c2.7-2.1,7.9-7.3,8.4-10.7
				c-3.5,4.6-6.3,7.3-9,9.5c-1.8,1.5-3.2,0-3.2,0s1.7,4.2-1.2,7.6c-2.9,3.3-8.6,5.1-12,5.9c-1,0-0.3-0.9,0.5-1.2
				c3-1.1,8.6-3.6,10.1-6.8c-4.1,3.1-7.3,4.6-10.3,5.8c-0.8,0.3-0.8,0-0.4-0.4c0.3-0.2,0.6-0.5,0.9-0.7l0.1-0.1l0,0
				c0.1-0.1,0.2-0.1,0.2-0.2c2-1.5,7.7-5.5,10.2-8.5c0.3-0.3,0.5-0.6,0.6-1c2.4-1.8,7.7-6.3,11.4-12.4c2.2-3.6,3-6.5,2.6-7.7
				c-0.2-0.5-0.6-0.7-0.7-0.8c0,0,0,2.2-3.1,7.4c-3.4,5.7-7.6,9.5-9.5,11.1c0-0.7,0.3-2.2,1.6-3.7c3.4-4,7.3-8.5,7.5-11.5
				c-3.1,4.8-4.8,6.8-7.9,10.3c-1.2,1.3-1.9,0.9-2.1,0.7c-0.1-0.2-0.2-0.3-0.3-0.4c0.4,1.8,0.9,4.4-1.1,6.8
				c-3.1,3.7-9.2,7.7-10.6,8.6c-2,1.3-2.9,2.8-3.4,4.8c-0.6,2-2.9,11.1-10.7,22.1c-0.6,0.9-1.8,2.3-3.1,3.9c-0.9,1.2-1.5,2.9,0,4.4
				c-0.1-0.4-0.1-0.7-0.1-1c0.2,0.2,0.3,0.4,0.5,0.6l0,0c0,0,2.7,4.1,6.1,4.4c0,0-1.4-0.8-3-2.1c1.5,0.8,3.4,1.6,5.8,2.1
				c1.2,0.3,2.3,0.2,3.2-0.1v0.1c-1.7,2.1-4.3,2.1-5.4,1.8c-3.1-0.9-4.8-2.7-6.1-4.1c0.4,1.5,2.2,4.2,5,5.4c0.2,0.4,0.8,1.2,1.6,2.1
				c-2.5-1.3-4.4-1.9-5.8-2.2c2,1.5,5.5,3.4,9.1,5.7c0,0.1,0.1,0.3,0.2,0.4c-3.1-1.1-5.8-2.2-7.4-2.5c1.9,1.4,4.6,2.6,8.4,4.7
				c0.3,0.4,0.5,0.9,0.8,1.3c-2.4-0.9-4-1.3-5.9-1.6c2.6,1.5,5.9,3,11.1,5c0.1,0.3,0.2,0.5,0.3,0.8c-2.8-1.2-4.9-2.1-8.3-2.8
				c2.5,1.6,5.6,3.1,9.1,4.6c0.1,0.3,0.3,0.5,0.4,0.8c-1.2-0.3-2.2-0.5-3.5-0.7c0.4,0.4,2,1.3,3.9,2.1c-2.3,1.6-6.2,5-8.2,7.4
				c4.7-3.1,8.3-5.3,9.4-6l0,0c-0.5,0.4-5.7,4.7-13.3,10.2c4.8-1.9,12.9-7,14.6-8.1l0,0c-0.7,0.6-3.9,3.5-8.7,6.2
				c-5.4,3.1-10,4-13.6,4.5s-5,1-7.5,1.8s-4.9,1.1-6-0.3c0.5,2.7,3,2.5,4.9,2c0.3-0.1,1.2-0.2,1.1,1.1c1-0.4,1.3-1.8,3-2.4
				c1.1-0.3,2.5-0.6,5-0.9c6.3-0.8,9.2-1.9,14.1-4.4c4.2-2.2,7.9-4.8,9.2-5.7c0,0,0,0,0.1,0.1c-1.2,1-6.3,5.1-11.4,7.5
				c-6.5,3-12,3.2-13.1,3.4c-0.3,0-2.5,0.3-3.3,0.7c-0.7,0.3-1.2,0.9-2,1.6c-1.9,1.7-3.8,2.1-3.8,2.1c1.3,0.4,3.8-0.9,5.1-2
				c-0.8,0.9-2.2,2.2-3.4,2.6c-2.6,0.9-4.2-0.1-4.6-0.6c-0.1,1.1,1.5,3,5,1.8c1.5-0.5,2.2-1.3,4.1-3.1c0.9-1,1.9-1.5,2.8-1.7
				c0.3,0,0.6-0.1,0.8,0.3c0.2,0.7-0.3,2.1-2.1,3c0,0,3.4,0.4,4.2-3.7c2.3-0.3,5.8-1,9.5-2.5c2.1,5.3,5.1,8.4,7.2,9.6
				c1.5,0.9,3.1,0.7,3.1,0.7s-1.6-0.6-3.5-2.2c-1.6-1.4-3.6-3.8-5.2-7.1c-0.5-1.2-0.1-1.6,0-1.6l0,0c1.5,3.3,3.5,6.7,6.6,8.9
				c0.9,0.7,1.6,1,2.2,1.3s1.2,0.6,1.7,0.8c1.1,0.4,2.4,0.6,3.4,0.2c0,0-1.6-0.2-3.8-1.6c-1.1-0.7-4.9-3-7.7-8.4
				c-0.7-1.5-0.5-2.1-0.4-2.2l0,0c2.2,4.5,4.9,7.4,8.2,9.7c1.6,1.1,3,1.5,4,1.7c0.3,0.1,0.5,0.2,0.7,0.3c1.8,0.6,3.7,0.6,5.1-0.3
				c0,0-1.7,0.3-4.6-0.7c-2.8-1-7.4-4.5-10.7-9.4l0,0c-1-1.6-0.8-2.2-0.7-2.5l0,0c3,5,6.2,7.8,9.9,10.1c1.8,1.1,3.5,1.5,4.8,1.6
				c0.3,0.1,0.5,0.2,0.7,0.2c3.1,0.8,6-0.4,7-1.6c3,0.1,5.5-1.3,5.9-2.4c-1.8,1.2-3.3,1.5-7.1,0.8c-3.8-0.7-10.8-4.8-15.5-10.7
				c-0.6-1-0.3-1.9-0.2-2.1l0,0c4.1,4.8,8,7.5,12.4,9.7c2.8,1.4,5.1,1.5,6.4,1.4c0.7,0.2,1.3,0.3,1.9,0.4c4,0.6,7.3-1.2,7.7-2.4
				c-1.5,0.9-3.6,1.5-7.6,1c-4.6-0.6-13.8-5.2-19.1-11.7l0,0c1.5,1.1,2.6,1.3,2.6,1.3c-3.4-3.3-5.2-7.2-6.3-10.3
				c1.4,2.5,3.5,5.8,5.7,8.4c4.5,5.3,14.8,10.1,21.4,11c3.9,0.5,5.2-1.1,5.2-1.1c-7.2,0.7-21.6-6.4-25.5-11.2
				c-3.4-4.1-6.3-9.7-7.1-11.1c2.4,0.1,3.9-2.1,3.9-2.2c0,0-2.7,1.4-5.5,0.1c-1.4-0.7-2.9-2.1-3.8-3.1c0.4-0.1,0.7-0.2,1-0.3
				c1.1,1.2,2.8,2.7,4.9,2.9c0,0-2.3-1.2-4.2-3.2c0.2-0.1,0.5-0.3,0.7-0.5c0.7,0.5,4,2.8,6.5,3.4c3.6,0.8,5.8-1.5,6.5-2.8
				c0,0-2.8,2.1-6.2,1.3c-0.9-0.2-1.9-0.6-2.9-1.1l0,0c-1.4-0.6-1-1.8-0.1-1.4c4.7,2,5.6,1.1,5.6,1.1s-2-0.1-4.8-1.7
				c-0.8-0.4-0.3-1.3,1-1c1.3,0.7,3.5,1.7,6.2,2c3.9,0.4,5.8-2,6.2-3.5c0,0-2.2,2.4-5.9,2c-1.4-0.1-2.7-0.4-3.8-0.8
				c-1.1-0.6-0.8-1.5,0.1-1.3c4.6,1.1,5.4,0.3,5.4,0.3s-2.5-0.2-5.1-1.3c-0.8-0.4-0.4-1.5,1.3-1.3c0.9,0.5,2.2,1.1,3.7,1.2
				c2.9,0.3,4.7-1,5.8-2c1.1-1.1,1.6-2.3,1.6-2.4c0,0-2.9,3.2-7.4,2.8c-0.5,0-0.9-0.1-1.3-0.2h0.1c-1.4-0.4-1.2-1.8-0.1-1.6
				c4.5,0.7,5.7-0.4,5.7-0.4s-2.7,0.1-5.4-0.7c-1-0.3-0.6-1.7,1.3-1.5c1.1,0.4,2.8,0.8,5.3,0.7c3.3-0.1,5.2-1.7,6.2-3
				c1-1.4,1.3-2.9,1.3-2.9s-2.2,4.2-7.5,4.3c-1.1,0-2.1,0-2.8-0.1c-1.1-0.3-0.6-1.8,0.5-1.7c3.4,0.2,6.5-0.1,7.3-1.1
				c-3.4,0.4-4.7,0.3-7.1-0.1c-1.1-0.2-0.7-1.5,0.9-1.6c1.2,0.4,3.3,0.7,6.2,0.4c3.3-0.4,5.3-2.2,6.4-3.6c1.1-1.6,1.5-3.1,1.5-3.1
				s-2.4,4.2-7.8,5.3c-1.8,0.4-3.5,0.2-4.7,0h0.1c-1.2-0.3-0.7-1.8,0.5-1.8c3.2,0.1,7.3-0.2,8.8-2.3c-4,1.4-6.4,1.2-8.6,1.1
				c-1.1-0.1-0.7-1.4,0.8-1.6c1.9,0.1,4.9-0.1,9.4-1.4c7.6-2.2,8.3-7.9,8.2-9.3c-1,2.8-2.1,5.8-8.8,7.7c-2.6,0.8-4.7,1.2-6.3,1.4
				c-1.4-0.2-1.1-1.9,0.2-2c3.5-0.2,8.9-1.6,10.1-3.6c-3.8,1.4-7.6,2.2-10,2.3c-1.2,0-0.6-1.7,1.1-1.9c2.8-0.2,6.9-0.9,10.9-3.1
				c5.8-3.3,6.2-9.5,5.4-12.2c-0.3,3.1-1.2,7.8-6.2,10.7c-2.9,1.6-5.9,2.4-8.3,2.8c-1.5,0-1.3-1.3,1-2c3.1-0.9,9.4-3.8,10.5-6.6
				c-2.6,2.2-5.6,4.1-10.2,5.6C283.9,106.7,283.7,105.5,285.2,104.7z M268.1,82.5L268.1,82.5L268.1,82.5L268.1,82.5z M274.7,120
				C274.7,119.9,274.7,119.9,274.7,120c-1,4.2-5.3,4-6.6,3.9c-2.5-0.3-4.8-1-6.4-1.7c-1.4-0.7-0.5-1.7,0.7-1.3
				c1.8,0.6,6.8,2.2,9.4,0.4c-4.5-0.1-7.7-1-9.6-2c-1.1-0.6-0.2-1.6,1.4-1c1.8,0.7,4.8,1.5,8.3,1.2c1.1-0.1,2.1-0.4,2.8-0.8
				C274.8,119,274.8,119.5,274.7,120z M257.4,139c-0.4,0.2-2.9,1.3-5.8,0.4c-1.4-0.4-2.6-1.1-3.5-1.8c0.3,0.2,0.6,0.4,0.8,0.5
				c-0.9-0.8,0-1.3,0.7-0.9c0.9,0.5,3.2,1.6,4.5,1.4c-2.3-1.1-3-1.4-4.5-2.5c-1-0.7-0.4-1.7,0.5-0.9l0,0c1.5,1,4.8,3.2,7,3.5
				c0.3,0,0.5,0,0.8,0C257.7,138.8,257.6,138.9,257.4,139z M252.2,133.7c1.1,0.7,4.7,2.8,6.6,2.6c-3.7-1.6-4.6-2.3-6.5-3.6
				c-0.8-0.6-0.4-1.2,0.2-0.9c1.4,1,5.3,3.5,7.9,3.8c0.7,0.1,1.3,0,1.9-0.1c-0.6,0.6-2.4,2.2-4.9,1.8c-1.6-0.2-4-1.7-5.6-2.8
				C251,133.8,251.7,133.4,252.2,133.7z M260.5,133.9c-1.7-0.2-4.2-1.6-5.9-2.6c-0.7-0.6-0.1-1.3,0.8-0.9c1.3,0.7,5.2,2.8,7.3,1.5
				c-3.5-0.6-5.9-1.7-7.3-2.8c-0.8-0.6-0.1-1.3,1.2-0.8c1.6,0.9,4.4,2.3,7.3,2.9c0.7,0.2,1.4,0.2,2,0.1l0,0
				C265.1,132.2,263.3,134.2,260.5,133.9z M259.9,119.4c-1.3,3.1-3.8,4.2-6.3,3.9c-3.7-0.4-6.9-2-8.7-3.2c-0.6-0.7,0.1-1.2,0.7-0.9
				c0.7,0.4,6.1,3,10.6,2.3c-4.3-1-8.1-2.2-10.4-3.7c-1-0.7-0.4-1.2,0.5-1.1c2.1,1.1,6.2,2.9,11.1,2.9c0.9,0,1.8-0.1,2.6-0.4
				C260,119.3,259.9,119.3,259.9,119.4z M263.9,113.3L263.9,113.3L263.9,113.3L263.9,113.3z M263.8,113.3L263.8,113.3
				c-0.5,2.7-3.2,4.6-6.5,4.7c-4.4,0-8-1.3-10.1-2.3c-0.7-0.6,0.2-1.2,0.9-0.9c1.7,0.6,6.9,2.1,11.2,1.2c-5.1-0.8-8.9-1.7-11.1-2.8
				c-1-0.5-0.4-1.3,0.5-1.2c2.1,0.8,7.1,2.5,12.6,1.9C262.2,113.8,263.1,113.6,263.8,113.3z M242,124.1c-0.7-0.8,0.2-1.3,0.7-0.8
				c0.6,0.5,6.2,3.4,9.9,2.8c-4.3-1.2-7.6-2.6-9.8-4.3c-0.9-0.7-0.4-1.3,0.5-1.1c1.8,1.3,5.6,3.8,10.1,4.2c0.9,0.1,1.7,0,2.4-0.2
				c-1.1,2.5-3.2,2.8-5.2,2.6C247,127.1,243.9,125.4,242,124.1z M264,129.5c-2.5-0.5-4.8-1.5-6.2-2.3c-0.8-0.7,0.1-1.6,1.1-1.1
				c1.6,0.8,6.2,2.9,8.7,1.2c-4.2-0.5-7-1.7-8.7-2.9c-1-0.7-0.1-1.7,1.4-1.2c1.5,0.8,4.3,2.1,7.7,2.5c0.9,0.1,1.8,0,2.7-0.2
				c0,0.1-0.1,0.2-0.1,0.4v-0.1C268.9,129.1,266.2,130,264,129.5z M278.5,113c-0.1,0.3-1.6,4.2-6.4,4.7c-2.7,0.3-5.1-0.1-6.9-0.5
				l0,0c-1.3-0.3-1-1.2,0.3-1.1c1.9,0.2,8.3,0.6,10.7-1.9c-4.8,0.8-8.9,0.9-10.9,0.4c-0.9-0.3-0.4-0.9,0.4-1.1
				c2.4,0.1,6.6,0,11.5-1.6c0.6-0.2,1.1-0.4,1.6-0.6C278.7,111.7,278.7,112.3,278.5,113z M280.6,103.5c2.3-1.4,3.3-3.1,3.7-4.6
				c0.1,1,0,2-0.3,3.1l0,0c-0.5,1.5-1.4,6.4-7.6,8.5c-3.4,1.1-6.3,1.5-8.5,1.5c-1.5-0.2-1.3-1.7,1.1-2c2.1-0.3,9.8-1.4,10.9-4.2
				c-4.2,1.9-7.4,2.5-10.6,2.9c-1,0.1-1.2-1.4,0.3-1.8C272.8,106.5,276.9,105.7,280.6,103.5z M264.4,107.7c0.9-0.2,1.7-0.4,2.4-0.7
				c0,0.1,0,0.2,0,0.3c-0.3,1.6-1.7,4.5-6,4.9c-4.6,0.4-8.7-0.6-11-1.3c-1-0.6-0.3-1.2,0.5-1c2,0.4,8.5,1.5,11.7-0.1
				c-5.2,0.1-9.6-0.5-11.7-1.3c-1-0.4-0.5-0.9,0.4-1C252.8,107.9,258.4,108.8,264.4,107.7z M247.4,130.7c-3.5-0.7-6.2-2.1-8-3.6
				c-0.4-0.6,0.3-0.7,0.7-0.4c0.8,0.7,4.7,3.1,8.4,2.9c-4.5-1.4-6.7-2.9-8.4-4.3c-0.7-0.6-0.4-1,0.1-0.8c1.8,1.5,5.5,4,10.2,4.5
				c1.2,0.1,2.2,0,3-0.3c0,0.1,0,0.1-0.1,0.2C252,131,249,131,247.4,130.7z M278,175.4c-1.5,0.8-3.1,0.9-6.2,0.2
				c-3.2-0.8-8.6-4.4-12.6-9.6c-1.1-1.7-0.4-2.7-0.3-2.8l0,0c3.4,5,7,7.8,11,10.1c2.4,1.4,4.4,1.6,5.7,1.6c0.4,0.1,0.8,0.2,1.2,0.3
				C277.2,175.3,277.6,175.3,278,175.4z M257.5,145.8c0.4,0.2,0.8,0.3,1.2,0.4l-0.2,0.1c-0.6,0.1-3.3,0.6-5.3-1.1
				c-1.3-1.2-2.4-3.3-2.9-4.5c0.2,0.1,0.5,0.2,0.7,0.3h0.1c0.7,1.4,1.9,3.2,3.6,3.6c0,0-1.4-1.3-2.6-3.4c0.2,0,0.3,0,0.5,0
				C253.3,142.2,255.3,144.8,257.5,145.8z"/>
			<path class="st0" d="M234.1,124.5c-0.1,1.1,0.5,2,1,2c-0.9-3,1.2-4.4,3.2-7.6C235.9,120.6,234.2,122.6,234.1,124.5z"/>
			<path class="st0" d="M277.6,62.1c0.4-0.9,1.2-2.7,2.7,0.2c0,0,0.1-2.6-1.3-3.2c-0.7-0.3-1.5,0.1-2,1.3
				c-1.2,3.1-5.4,10.4-10.2,16.7C267.8,76.5,272.9,73.1,277.6,62.1z"/>
			<path class="st0" d="M253.6,92.5c-2.4,1.8-2.9,4.6-2.8,5.9c0.4-0.8,1.2-3.4,2.9-4.7c1.7-1.3,9.1-6.7,11.2-8.9
				c2.1-2.3,1.6-4.4,1.6-4.4s-0.6,2.1-2.5,3.9C262.3,85.8,259.4,88.2,253.6,92.5z"/>
		</g>
		<g>
			<path class="st0" d="M358.4,319.5c2.6,0,4.6,2,4.6,4.5c0,2.6-2,4.6-4.7,4.6c-2.6,0-4.7-2-4.7-4.6
				C353.7,321.5,355.8,319.5,358.4,319.5L358.4,319.5z M358.3,320.4c-2,0-3.5,1.6-3.5,3.6s1.5,3.6,3.5,3.6s3.5-1.6,3.5-3.6
				C361.9,322,360.4,320.4,358.3,320.4L358.3,320.4z M357.6,326.4h-1.1v-4.5c0.4-0.1,1-0.2,1.7-0.2c0.9,0,1.2,0.1,1.6,0.4
				c0.3,0.2,0.4,0.6,0.4,1c0,0.5-0.4,0.9-0.9,1.1v0.1c0.4,0.1,0.7,0.5,0.8,1.1c0.1,0.7,0.2,1,0.3,1.1h-1.1c-0.1-0.2-0.2-0.6-0.4-1.1
				c-0.1-0.5-0.4-0.7-0.9-0.7h-0.5v1.7H357.6z M357.7,323.8h0.5c0.6,0,1.1-0.2,1.1-0.7c0-0.4-0.3-0.7-1-0.7c-0.3,0-0.5,0-0.6,0.1
				V323.8z"/>
		</g>
	</g>
</g>
</svg>
