<?xml version="1.0" encoding="utf-8"?>
<!-- Generator: Adobe Illustrator 22.0.1, SVG Export Plug-In . SVG Version: 6.00 Build 0)  -->
<svg version="1.1" id="Layer_1" xmlns="http://www.w3.org/2000/svg" xmlns:xlink="http://www.w3.org/1999/xlink" x="0px" y="0px"
	 viewBox="0 0 500 500" style="enable-background:new 0 0 500 500;" xml:space="preserve">
<style type="text/css">
	.st0{fill:#A81221;}
	.st1{fill:#DB1B2E;}
	.st2{fill:url(#SVGID_5_);}
	.st3{fill:url(#SVGID_6_);}
	.st4{fill:#FFFFFF;}
</style>
<g>
	<path class="st0" d="M448.7,216.3c-2-6.1-29-18.7-73.1-18.9c-44.1-0.2-89.5,12.1-120.8,19.6c-34.5,8.3-77.1,20.2-121.4,20
		c-46.8-0.2-77.4-13.9-73.7-20.7c-15,23-24.3,46.7-29,71.9c-5.2,27.8-3.1,53.9,4.5,77.9c1.9,6.1,29,18.7,73.1,18.9
		c44.1,0.2,89.5-12.2,120.8-19.6c34.5-8.2,77.1-20.2,121.4-20c46.8,0.2,77.4,13.9,73.7,20.7c15-23,24.3-46.7,29-71.9
		C458.4,266.4,456.3,240.4,448.7,216.3"/>
	<g>
		<defs>
			<path id="SVGID_1_" d="M254.8,217c32-6.1,76.9-18.1,119.2-18.1c44.1,0,71.5,12.7,73,18.5c0.5,1.8-1.5,3.7-3.8,5.1
				c3.9-2.3,5.8-4.4,5.5-6.1c-2-6.1-29-18.7-73.1-18.9C331.5,197.2,286.1,209.5,254.8,217"/>
		</defs>
		<use xlink:href="#SVGID_1_"  style="overflow:visible;fill:#DA1B2D;"/>
		<clipPath id="SVGID_2_">
			<use xlink:href="#SVGID_1_"  style="overflow:visible;"/>
		</clipPath>
	</g>
	<g>
		<defs>
			<path id="SVGID_3_" d="M40.5,371.2c-1.4-0.8-3.1-2-3.5-3.7c-1.6-6.6,33.4-20.4,79.3-20.4c43.4,0,80.3,11,114.2,18.4
				c-31.8-8.2-70.5-20.2-114.8-20c-46.9,0.2-82.2,13.9-80.5,20.7C35.5,367.4,37.4,369.4,40.5,371.2"/>
		</defs>
		<use xlink:href="#SVGID_3_"  style="overflow:visible;fill:#DA1B2D;"/>
		<clipPath id="SVGID_4_">
			<use xlink:href="#SVGID_3_"  style="overflow:visible;"/>
		</clipPath>
	</g>
	<polyline class="st1" points="458.2,216.3 463.5,216.3 463.5,217.1 461.3,217.1 461.3,224.4 460.4,224.4 460.4,217.1 458.2,217.1 
		458.2,216.3 	"/>
	<path class="st1" d="M465,216.3h1.4l1.5,5.3c0.2,0.8,0.3,1.4,0.3,1.4s0.1-0.6,0.3-1.3l1.5-5.4h1.4l0.7,8.1h-1l-0.5-5.9
		c0-0.5-0.1-1.4-0.1-1.4s-0.2,0.7-0.3,1.3l-1.7,6h-0.8l-1.6-5.7c-0.3-0.9-0.4-1.6-0.4-1.6s-0.1,1.1-0.1,1.6l-0.4,5.7h-0.9L465,216.3
		"/>
	
		<radialGradient id="SVGID_5_" cx="289.6633" cy="211.1903" r="44.0671" gradientTransform="matrix(1.8903 0 0 1.8903 -207.5875 -218.6489)" gradientUnits="userSpaceOnUse">
		<stop  offset="0" style="stop-color:#FFE07C"/>
		<stop  offset="0.7413" style="stop-color:#FFB225"/>
		<stop  offset="1" style="stop-color:#E39B1B"/>
	</radialGradient>
	<circle class="st2" cx="322.9" cy="198.2" r="83.3"/>
	<linearGradient id="SVGID_6_" gradientUnits="userSpaceOnUse" x1="27.8923" y1="291.2434" x2="456.0456" y2="291.2434">
		<stop  offset="0" style="stop-color:#DA1B2D"/>
		<stop  offset="0.2806" style="stop-color:#C01627"/>
		<stop  offset="0.5044" style="stop-color:#A81221"/>
		<stop  offset="1" style="stop-color:#DA1B2D"/>
	</linearGradient>
	<path class="st3" d="M253.4,217c-28.8-7.5-70.2-19.8-114.4-19.6c-44.2,0.2-75.4,12.8-79.3,18.9c-15,23-24.3,46.7-29,71.9
		c-5.2,27.8-3.1,53.9,4.5,77.9c-1.5-6.8,33.6-20.4,80.5-20.7c44.4-0.2,83.1,11.8,114.8,20c28.9,7.4,70.2,19.8,114.4,19.6
		c44.2-0.2,75.4-12.8,79.3-18.9c15-23,24.3-46.7,29-71.9c5.2-27.8,3.1-53.9-4.5-77.9c1.5,6.8-33.6,20.4-80.5,20.7
		C323.9,237.2,285.2,225.3,253.4,217"/>
	<path class="st4" d="M120.4,235.1l-4.4,12.9c-0.7-0.6-1.9-0.9-2.9-1c-7.4-0.5-20.8,2.4-21.6,4.2c-1.7,3.7-3.5,12.3-4.1,15.1
		c4.3-1.6,13.4-3.3,18.8-3.5l-3.1,11.5c-6.7,0.1-17.7,3.2-18.1,4.7c-0.7,2.5-1.3,6.9-2.2,13.3c-1.2,9.2-2.2,16.5,0.3,18.4
		c-3.4,1.7-13.9,4.2-15.9,1.8c-1.9-2.2,3.9-55.3,13.9-71.2C82.8,238.6,108,233.1,120.4,235.1"/>
	<path class="st4" d="M292.6,321.7c-0.1,0.8,1.2,1.2,3.2,1.6c4.9,1,9.1,1.4,14.2,1.1c1-0.1,2.3-0.4,3.2-1c0,0-2.7,12.8-5.7,13.4
		c-2.2,0.4-18.4-1.7-27-3.9c-2.9-0.7-4.4-1.6-4.4-2.4c0.6-10.1,8.4-37.8,11.7-56.4c1.8-9.8,1.3-12.1-1.5-14.8
		c4.7-1.9,16.3-1,17.1,1.1c1.2,3,0.3,8.1-1.9,18.1C299.1,289.6,293.4,315.4,292.6,321.7"/>
	<path class="st4" d="M129.3,251.9c2.6,0.8,2.4,4.3,1.9,8.6c5.3-7,16.1-8.4,18.9-6.8l-3.7,13c-5.7-4-12.9-0.3-15.2,5.4
		c-3.4,8.4-8.5,33.2-3.8,34.9c0,0-14,2.1-15.4-0.8c-1.9-3.9,4.2-28,5.5-34c1.3-6,0.2-12-1.7-14.1C115.8,258.1,127,251.2,129.3,251.9
		"/>
	<path class="st4" d="M245,279.4c4.2,0.4,6.4,2.4,6.1,8.5c-0.4,10.3-6,26.3-14.9,25.3c-4-0.4-6.5-3-6.3-8
		C230.3,297.2,235.6,278.4,245,279.4z M247.4,268.8c-18.1-1.3-31,14.4-31.7,34.6c-0.4,12.2,5.4,19.4,17.4,20.3
		c20.9,1.5,31.4-16.4,32.1-35.2C265.6,276.8,259.2,269.7,247.4,268.8"/>
	<path class="st4" d="M404.7,281.7c0.6,3.6,1.3,11.1-0.6,21.2c-2.7,14.4-7,21-7,21s-3.8-33-10.7-40.8c-2.1-2.4-14.2,5.2-14.2,5.2
		c2.6,1.4,3.9,5.2,7.7,16.8c3.3,9.8,6.4,25.8,7,31.4c0,2.1-5.5,9.4-8.2,11.9c-2.6,2.4-6.2,2.8-8.7,1.7c-0.1,1.8,2.2,7,6,10.1
		c5.7,4.6,10,0.1,14.4-4.8c9.6-11,18.7-26.5,24.4-42.5c2.8-8,4-17.2,4.1-24.4c0.1-3.8-0.2-7.7-1-9.8
		C417.9,277.9,404.7,281.7,404.7,281.7"/>
	<path class="st4" d="M173.3,255.4c4.3,5.4-14,50.2-7.6,55.3c0,0-13.2,0.4-15.4-2.1c-3.8-4.2,11.2-44.3,8-49
		C158.3,259.5,171.9,253.6,173.3,255.4"/>
	<path class="st4" d="M178.6,235.7c0.2,4.5-3.2,8.4-7.6,8.6c-4.4,0.2-8.2-3.2-8.5-7.8c-0.2-4.5,3.2-8.4,7.6-8.6
		C174.6,227.7,178.3,231.2,178.6,235.7"/>
	<path class="st4" d="M368.4,334.8c-3,3-7.1,5-10.6,5.7c-1.9,0.4-4,0.7-5.9-0.1c-2-0.9-2.9-5.2-3.3-8.3c-2.6,5.2-8.3,7.8-12.4,8
		c-9.5,0.5-16.3-4.7-17-15.7c-0.8-12.3,2.3-22.8,7.8-29.7c5.1-6.4,10.8-9.5,19.4-10.5c2.1-0.2,4.5-0.3,6.9-0.2
		c4.8,0.2,9.5,0.9,11.4,2.1c0.3,0.2-3.6,35.5-2.4,41.9C362.9,331.5,363.8,333.2,368.4,334.8z M350.1,295.6c-1-0.5-2.5-0.7-3.7-0.6
		c-3.3,0.3-5.9,0.7-9.2,5.3c-3.9,5.5-5.2,14.5-4.7,21.6c0.3,4.8,2.4,6.7,5.3,6.5c4.3-0.3,8.3-5.1,9.4-9.1
		C347.2,319.3,351.1,296.1,350.1,295.6"/>
	<path class="st4" d="M217,263.8l-10.7-2c1-4,1.9-9.9,2.1-12.3c0.1-2.5,0.1-4.6-0.9-4.9c-1.8-0.6-13.6,3.7-13.3,4.4
		c0.8,1.7-0.5,7.4-1.1,10.5c-1.9-0.3-4.5-0.6-5.9-0.7c-0.7,1.3-5.2,10.1-5.2,10.1c2.4,0.2,6.8,0.8,9.1,1.2
		c-0.6,2.9-8.2,32.1-8.3,36.4c-0.1,5.3,2.3,10.1,10.7,9.1c6.2-0.7,9.8-3.3,12.5-5.3c-3.6-0.8-9.4-1.8-7.9-10.1
		c0.4-2.4,3.9-17.6,6.5-27.9l9.6,1.8L217,263.8"/>
</g>
</svg>
