<svg enable-background="new 0 0 1213.3 606.7" viewBox="0 0 1213.3 606.7" xmlns="http://www.w3.org/2000/svg"><path d="m0 2h1213.3v604.7h-1213.3z" fill="#fff"/><path d="m94.6 31.5h1.1v9.3h.1c.2-.6.5-1.1.9-1.6.4-.4.9-.8 1.4-1.1s1.1-.5 1.7-.7c.6-.1 1.2-.2 1.9-.2 1.1 0 2.1.2 3 .6.8.4 1.5 1 2.1 1.7s1 1.5 1.2 2.4c.3.9.4 1.9.4 3 0 1.8-.3 3.3-.8 4.4s-1.1 2-1.8 2.5c-.7.6-1.4 1-2.2 1.2s-1.4.3-2 .3c-1 0-1.9-.2-2.6-.5s-1.3-.7-1.8-1.1-.8-.9-1.1-1.3-.4-.7-.5-.9h-.1v3.5h-1.1v-21.5zm7.1 20.8c1 0 1.9-.2 2.6-.7.7-.4 1.3-1 1.7-1.7s.8-1.5 1-2.4.3-1.8.3-2.7-.1-1.7-.3-2.5-.6-1.5-1.1-2.1-1.1-1.1-1.7-1.5c-.7-.4-1.5-.6-2.4-.6-1 0-1.9.2-2.6.5s-1.4.8-1.8 1.4c-.5.6-.8 1.3-1.1 2.1-.2.8-.4 1.7-.4 2.7 0 .9.1 1.9.3 2.8s.6 1.7 1 2.4c.5.7 1.1 1.2 1.8 1.7.7.3 1.6.6 2.7.6z"/><path d="m111.4 45.3v.2c0 .9.1 1.8.4 2.6.2.8.6 1.5 1.1 2.2.5.6 1.1 1.1 1.8 1.5s1.5.5 2.5.5c1.5 0 2.8-.4 3.7-1.2s1.5-1.9 1.9-3.4h1.1c-.3 1.8-1.1 3.2-2.2 4.1s-2.6 1.4-4.5 1.4c-1.1 0-2.1-.2-3-.6s-1.6-1-2.1-1.7c-.6-.7-1-1.5-1.3-2.5s-.4-2-.4-3.1.1-2.1.4-3.1.7-1.9 1.3-2.6c.6-.8 1.3-1.3 2.2-1.8s1.9-.7 3.1-.7c1.1 0 2 .2 2.9.6.8.4 1.5.9 2.1 1.6s1 1.5 1.3 2.4.4 1.9.4 2.9v.3s0 .2 0 .3zm11.4-1c0-.8-.2-1.6-.4-2.4s-.6-1.4-1.1-2-1-1-1.7-1.4c-.7-.3-1.4-.5-2.3-.5s-1.7.2-2.4.5c-.7.4-1.3.8-1.8 1.4s-.9 1.2-1.1 2c-.3.8-.4 1.5-.5 2.3h11.3z"/><path d="m124.9 38.5v-1h2.8v-3.2c0-.5.1-1 .3-1.4s.4-.7.7-.9.7-.4 1.1-.5.8-.2 1.3-.2c.3 0 .8.1 1.4.2v1c-.6-.1-1-.1-1.4-.1-.6 0-1.2.1-1.6.4s-.6.9-.6 1.7v3.1h3.2v1h-3.2v14.4h-1.1v-14.5z"/><path d="m133.1 45.2c0-1.1.2-2.1.5-3.1s.8-1.8 1.4-2.6c.6-.7 1.3-1.3 2.2-1.8s1.9-.6 3-.6 2.1.2 3 .6 1.6 1 2.2 1.8c.6.7 1.1 1.6 1.4 2.6s.5 2 .5 3.1-.2 2.1-.5 3.1-.8 1.8-1.4 2.6-1.3 1.3-2.2 1.7-1.9.6-3 .6-2.2-.2-3-.6c-.9-.4-1.6-1-2.2-1.7s-1.1-1.6-1.4-2.6-.5-2-.5-3.1zm1.1 0c0 .9.1 1.8.4 2.7s.6 1.6 1.1 2.3 1.1 1.2 1.9 1.6c.7.4 1.6.6 2.5.6s1.8-.2 2.5-.6 1.4-.9 1.9-1.6.9-1.4 1.1-2.3c.3-.8.4-1.7.4-2.7s-.1-1.8-.4-2.7c-.3-.8-.6-1.6-1.1-2.3s-1.1-1.2-1.9-1.6c-.7-.4-1.6-.6-2.5-.6s-1.8.2-2.5.6-1.4.9-1.9 1.6-.9 1.4-1.1 2.3-.4 1.8-.4 2.7z"/><path d="m151.1 40.9c.2-.5.5-1 .9-1.4s.8-.8 1.4-1.1c.5-.3 1.1-.6 1.8-.7.6-.2 1.3-.2 2-.2v1.1c-.6-.1-1.3 0-2.1.2s-1.5.6-2.2 1.3c-.3.3-.5.6-.7.9s-.4.6-.5.9-.2.7-.3 1.1-.1.9-.2 1.5v8.4h-1.1v-15.4h1.1z"/><path d="m158.3 45.3v.2c0 .9.1 1.8.4 2.6.2.8.6 1.5 1.1 2.2.5.6 1.1 1.1 1.8 1.5s1.5.5 2.5.5c1.5 0 2.8-.4 3.7-1.2s1.5-1.9 1.9-3.4h1.1c-.3 1.8-1.1 3.2-2.2 4.1s-2.6 1.4-4.5 1.4c-1.1 0-2.1-.2-3-.6s-1.6-1-2.1-1.7c-.6-.7-1-1.5-1.3-2.5s-.4-2-.4-3.1.1-2.1.4-3.1.7-1.9 1.3-2.6c.6-.8 1.3-1.3 2.2-1.8s1.9-.7 3.1-.7c1.1 0 2 .2 2.9.6.8.4 1.5.9 2.1 1.6s1 1.5 1.3 2.4.4 1.9.4 2.9v.3s0 .2 0 .3zm11.4-1c0-.8-.2-1.6-.4-2.4s-.6-1.4-1.1-2-1-1-1.7-1.4c-.7-.3-1.4-.5-2.3-.5s-1.7.2-2.4.5c-.7.4-1.3.8-1.8 1.4s-.9 1.2-1.1 2c-.3.8-.4 1.5-.5 2.3h11.3z"/><path d="m104.2 347.7c-.2.5-.5.9-.8 1.3s-.8.8-1.2 1.1c-.5.3-1 .6-1.7.8-.6.2-1.3.3-2 .3-1.6 0-2.9-.4-3.8-1.1s-1.4-1.8-1.4-3.3c0-.9.2-1.6.5-2.2.4-.6.8-1 1.4-1.3.5-.3 1.2-.6 1.8-.7.7-.1 1.3-.2 1.9-.3l1.8-.2c.8-.1 1.5-.2 1.9-.3.5-.1.8-.3 1.1-.5.2-.2.4-.5.5-.9s.1-.8.1-1.3c0-.4-.1-.8-.2-1.2-.2-.4-.4-.7-.8-1-.3-.3-.8-.5-1.3-.7s-1.2-.2-2-.2c-1.4 0-2.5.3-3.3 1-.9.7-1.3 1.7-1.4 3.1h-1.3c.1-1.7.6-3 1.6-3.8s2.4-1.3 4.3-1.3 3.2.4 4.1 1.1 1.3 1.7 1.3 2.9v9 .7c0 .2 0 .4.1.6s.2.3.3.4.3.2.6.2c.2 0 .5 0 .8-.1v1c-.3.1-.6.1-.9.1-.5 0-.8-.1-1.1-.2s-.5-.3-.6-.5-.2-.4-.3-.7c0-.3-.1-.6-.1-.9zm0-5.7c-.3.3-.7.6-1.3.7s-1.2.2-1.9.3l-1.9.2c-.6.1-1.1.1-1.7.3-.6.1-1.1.3-1.5.6-.5.3-.8.6-1.1 1.1s-.4 1-.4 1.8c0 1.1.4 2 1.1 2.5.7.6 1.7.8 3 .8s2.3-.2 3.1-.7 1.3-1 1.7-1.6.7-1.2.8-1.8.2-1 .2-1.2z"/><path d="m107.3 336.3v-1h2.8v-3.2c0-.5.1-1 .3-1.4s.4-.7.7-.9.7-.4 1.1-.5.8-.2 1.3-.2c.3 0 .8.1 1.4.2v1c-.6-.1-1-.2-1.4-.2-.6 0-1.2.1-1.6.4s-.6.9-.6 1.7v3.1h3.2v1h-3.2v14.4h-1.3v-14.4z"/><path d="m121.8 336.3h-3.4v10.8c0 .6.1 1.1.2 1.5s.4.6.6.8c.3.2.6.3 1 .3s.9 0 1.4 0v1c-.6 0-1.1 0-1.7 0s-1-.2-1.5-.5-.8-.6-1-1.1c-.3-.5-.4-1.2-.3-2.1v-10.8h-2.9v-1h2.9v-4.8h1.1v4.8h3.4v1.1z"/><path d="m123.9 343.2v.2c0 .9.1 1.8.4 2.6.2.8.6 1.5 1.1 2.2.5.6 1.1 1.1 1.8 1.5s1.5.5 2.5.5c1.5 0 2.8-.4 3.7-1.2s1.5-1.9 1.9-3.4h1.1c-.3 1.8-1.1 3.2-2.2 4.1s-2.6 1.4-4.5 1.4c-1.1 0-2.1-.2-3-.6s-1.6-1-2.1-1.7c-.6-.7-1-1.5-1.3-2.5s-.4-2-.4-3.1.1-2.1.4-3.1.7-1.9 1.3-2.6c.6-.8 1.3-1.4 2.2-1.8s1.9-.7 3.1-.7c1.1 0 2 .2 2.9.6.8.4 1.5.9 2.1 1.6s1 1.5 1.3 2.4.4 1.9.4 2.9v.3.3h-12.7zm11.4-1c0-.8-.2-1.6-.4-2.4s-.6-1.4-1.1-2-1-1-1.7-1.4c-.7-.3-1.4-.5-2.3-.5s-1.7.2-2.4.5-1.3.8-1.8 1.4-.9 1.2-1.1 2-.4 1.5-.5 2.3h11.3z"/><path d="m140.2 338.8c.2-.5.5-1 .9-1.4s.8-.8 1.4-1.1c.5-.3 1.1-.6 1.8-.7s1.3-.2 2-.2v1.1c-.6-.1-1.3 0-2.1.2s-1.5.6-2.2 1.3c-.3.3-.5.6-.7.9s-.4.6-.5.9-.2.7-.3 1.1-.1.9-.2 1.5v8.4h-1.1v-15.4h1.1z"/><path d="m338.7 355.7h39.5c3.6 0 4.9.9 6.9 3.6l8.8 11.9c-.1-.1-15.7-11.2-55.2-15.5" fill="#002a3a"/><path d="m534.4 448.9h-53.1c-22.2 0-32.5-4.3-43.3-18.5l-38.8-50.9h24.8c23.8 0 37.1 11.7 37.1 11.7l-20.4-27.8c-9.8-13.4-18.8-19.1-38.7-19.1h-65.9c-14.3 0-20.3-1.8-28.1-12.4l-7.2-9.7h94.9c36.2 0 52.9 10.9 71.8 36.4z" fill="#00a7e1"/><path d="m348.5 539.5v-72.5h16.5l27.4 38.6 26.9-38.6h16v72.5h-14.5v-53.9l-28.6 41.2-29.3-41.2v53.9z" fill="#002a3a"/><path d="m611.1 467h14.5v79l-14.5-18z" fill="#002a3a"/><path d="m525.9 467h20l16.7 22.6 18-22.6h20.2l-30.1 32.6 50.4 64.1h-8.4c-8.3 0-14.6-4.6-18.6-10.4-7.7-10.9-33.1-42.5-33.1-42.5l-6.4 7.3c-11.8 13.4-29.8 23.2-56.1 23.2-31.9 0-48-11.2-48-39.5 0-27.6 16.7-36.6 38.6-36.6 20 0 29.9 10.1 29.9 26.8 0 9-2.3 14.6-2.3 14.6h-51.3c1.1 15.2 11 22.5 32.9 22.5 21 0 37.4-9 48.2-21.5l6.4-7.3zm-37.7 9.4c-16.6 0-21.7 8.8-22.5 19h38.3s.6-1.6.6-4.3c-.1-11.1-7.5-14.7-16.4-14.7" fill="#002a3a"/><path d="m708.5 470.9-5.1 13.3s-9.7-6.2-23-6.2c-15.1 0-25.9 6-25.9 24.9 0 18.5 9.3 26.2 27.5 26.2 16.4 0 26.1-7.1 26.1-7.1v13.3s-7.8 6-26.6 6c-28.3 0-41.6-12.3-41.6-39.5 0-26.1 16.5-36.6 40.1-36.6 17.7 0 28.5 5.7 28.5 5.7" fill="#002a3a"/><path d="m784 496.4v43.1h-14.4v-11.2h-.8s-6.4 13.1-25.1 13.1c-18.6 0-25.6-11.2-25.6-23.4 0-12.6 6.9-19.6 6.9-19.6h44.6v-2.7c0-14-4.1-17.5-20.8-17.5-14.3 0-24.1 5.6-24.1 5.6l-5.1-13.3s12.8-5.2 30.1-5.2c23.6-.1 34.3 5.8 34.3 31.1m-37.3 33.5c14 0 22.9-8.6 22.9-20.4h-35.5s-2.1 2.4-2.1 7.7c0 6.8 3.7 12.7 14.7 12.7" fill="#002a3a"/><path d="m802.9 539.5v-72.5h16.5l41.1 51.6v-51.6h14.4v72.5h-14.4l-43.2-53.9v53.9z" fill="#002a3a"/><path d="m955.9 496.4v43.1h-14.4v-11.2h-.8s-6.4 13.1-25.1 13.1c-18.6 0-25.6-11.2-25.6-23.4 0-12.6 6.9-19.6 6.9-19.6h44.6v-2.7c0-14-4.1-17.5-20.8-17.5-14.3 0-24.1 5.6-24.1 5.6l-5.1-13.3s12.8-5.2 30.1-5.2c23.5-.1 34.3 5.8 34.3 31.1m-37.3 33.5c14 0 22.9-8.6 22.9-20.4h-35.5s-2.1 2.4-2.1 7.7c0 6.8 3.7 12.7 14.7 12.7" fill="#002a3a"/><g fill="#002d56"><path d="m964.6 143.3c-4.5 0-8.6 0-13.1 0 1.5 13.1 3.1 26.1 4.6 39.3-9.6 0-19.2 0-28.9 0 1-13.1 2-26 3.1-39.2-4.4 0-8.6 0-13.2 0-1 4.2-2 8.6-2.9 13-1.8 8.2-3.7 16.4-5.4 24.6-.3 1.2-.5 1.9-2 1.9-9.1-.1-18.1 0-27.6 0 .4-.9.6-1.6 1-2.3 7.8-17.5 15.6-34.9 23.3-52.4.7-1.6 1.5-2.2 3.3-2.1 22.7.1 45.4.1 68.1 0 1.4 0 2.4.2 3.1 1.7 8 18.1 16 36.1 24.1 54.2.1.2.1.5.2.8-8.8 0-17.5 0-26.4 0-3.9-13.3-7.6-26.4-11.3-39.5z"/><path d="m293.4 148.3c-2 4.1-4 8.3-5.9 12.4-3.2 6.8-6.5 13.5-9.7 20.3-.6 1.3-1.2 1.8-2.7 1.8-5.4-.1-10.9 0-16.7 0 1.2-2.4 2.2-4.6 3.3-6.8 8.1-15.9 16.2-31.8 24.2-47.8.9-1.7 1.8-2.3 3.8-2.3 5.8.1 11.7.1 17.9.1.6 12.6 1.3 25.2 1.9 37.7.2.2.5.4.7.6.5-.7.9-1.5 1.4-2.1 10.7-11.5 21.4-23.1 32.2-34.6.7-.8 1.9-1.6 2.8-1.6 8.7-.1 17.5-.1 26.4-.1-.1.6-.2 1-.4 1.5-7.8 17.8-15.6 35.6-23.4 53.4-.7 1.5-1.4 2-3.1 2-5.8-.1-11.5 0-17.8 0 5.6-12.1 11.1-23.9 16.7-35.8-.2-.1-.3-.2-.5-.3-4.7 5.1-9.5 10.2-14.2 15.4-5.9 6.4-11.8 12.8-17.9 19.2-.7.8-2 1.4-3.1 1.4-4.5.2-9.1.1-13.9.1-.6-11.5-1.1-22.9-1.7-34.3 0-.1-.2-.2-.3-.2z"/><path d="m744.7 166.7c.6-1.2.9-1.9 1.3-2.6 5.3-12 10.7-23.9 15.9-35.9.7-1.6 1.5-2.3 3.4-2.2 5.1.2 10.2.1 15.6.1-.2.8-.4 1.4-.6 2-7.8 17.6-15.7 35.2-23.5 52.8-.7 1.6-1.5 2-3.2 2-5.8-.1-11.6-.1-17.3 0-1.7 0-2.6-.5-3.2-2.2-3.9-11.4-8-22.7-12-34-.3-.8-.6-1.5-1-2.7-.5.8-.8 1.3-1 1.8-5.2 11.6-10.5 23.3-15.6 35-.7 1.5-1.4 2-3.1 2-5.2-.1-10.4 0-15.8 0 .2-.6.3-1.2.5-1.6 7.9-17.8 15.8-35.5 23.7-53.3.7-1.6 1.5-1.9 3.2-1.9 5.2.2 10.4.2 15.6 0 2-.1 2.9.5 3.5 2.4 4.2 12.1 8.6 24.2 12.9 36.3.1.5.3.9.7 2z"/><path d="m606.7 182.8c2.3-5.3 4.5-10.2 6.7-15.2 3.7-8.4 7.8-16.7 11.2-25.3 3.1-7.7 8.8-12.1 16.4-14.4 3.3-1 6.8-1.7 10.2-1.8 15.1-.2 30.2-.1 45.6-.1-1.6 3.7-3.2 7.3-4.7 10.8-6.5 14.7-13.1 29.3-19.5 44-.7 1.5-1.5 2-3.1 2-5.2-.1-10.4 0-16 0 2.2-5.1 4.3-9.9 6.5-15-1-.1-1.6-.2-2.2-.2-8 0-16 0-24 0-1.5 0-2.3.4-3 1.9-1.6 4-3.4 7.9-5.2 11.7-.3.7-1.3 1.5-2.1 1.5-5.4.1-10.8.1-16.8.1zm66.5-44.6c-1.2 0-2 0-2.8 0-6.4 0-12.9.1-19.3 0-3.1 0-5.8 1-7.3 3.5-2.4 4-4.3 8.4-6.6 13h27.4c.5 0 1.4-.4 1.6-.8 2.3-5.2 4.6-10.3 7-15.7z"/><path d="m815.1 182.8c2.2-5.1 4.3-9.9 6.4-14.8-.6-.2-.9-.3-1.2-.3-8.4 0-16.8-.1-25.2 0-.9 0-2.1.9-2.5 1.7-1.9 3.8-3.5 7.8-5.3 11.7-.3.7-1.2 1.6-1.8 1.6-5.6.1-11.2.1-17.1.1.4-1 .7-1.7 1-2.5 5.8-13 11.7-26 17.3-39.1 3.7-8.5 10.7-12.2 19-14.2 2.9-.7 5.9-1 8.8-1 14.2-.1 28.4 0 42.6 0 .3 0 .7.1 1.3.1-.3.9-.6 1.6-.9 2.3-7.8 17.5-15.6 34.9-23.3 52.4-.7 1.5-1.4 2.1-3.1 2-5.2-.1-10.5 0-16 0zm19.7-44.6c-7.7 0-15 0-22.2 0-3.1 0-5.7 1.1-7.2 3.6-2.4 4-4.2 8.3-6.5 12.9h27.8c.4 0 1.1-.5 1.2-.9 2.2-5.1 4.5-10.1 6.9-15.6z"/><path d="m974.8 119.8c-22.9 0-45.5 0-68.4 0 2-4.4 3.8-8.7 5.7-13 5.4-12 10.7-24.1 16-36.1.7-1.7 1.6-2.3 3.5-2.2 9.2.1 18.5.1 27.7 0 2.8 0 4.9 1 6 3.4 2.5 5.3 4.9 10.6 7.5 16.3-1.3 0-2.1-.1-3 0-2 .2-3.1-.4-3.9-2.4-.9-2.5-3.4-3.1-7.2-2 5.4 12 10.7 23.9 16.1 36z"/><path d="m426.2 170.2c-1.8 4.2-3.2 7.8-5 11.4-.3.6-1.7 1.1-2.5 1.1-17.4.1-34.8 0-52.2 0-1.8 0-3.6 0-5.7 0 .2-.7.4-1.3.6-1.9 7.8-17.7 15.5-35.4 23.3-53.1.3-.8 1.4-1.7 2.2-1.7 19.4-.1 38.8-.1 58.6-.1-1.6 4-3.2 7.9-4.8 11.8-8 0-15.9 0-23.8 0-5.4 0-10.9.1-16.3 0-1.6 0-2.3.4-2.9 1.9-1.1 2.7-2.4 5.4-3.8 8.4h39.5c-1.8 3.9-3.3 7.4-5 10.8-.3.5-1.6.6-2.5.6-11.3 0-22.6.1-33.9 0-2.4 0-3.5.8-4.3 2.9-.9 2.6-2.2 5.1-3.5 8 14.2-.1 27.9-.1 42-.1z"/><path d="m486.8 155.8c5.6 9 11 17.8 16.6 26.8-.8.1-1.4.2-2 .2-5.6 0-11.2-.1-16.8 0-1.6 0-2.3-.5-3-1.9-2.9-6-6-11.9-9.1-18.1-.7.5-1.3.9-1.8 1.4-6.4 5.7-12.8 11.4-19.2 17.1-.7.7-1.8 1.3-2.7 1.3-7.5.1-15 .1-22.5 0-.2 0-.4-.1-1-.3 13.2-10.6 26.3-21 39.4-31.5-4.7-8.3-9.3-16.5-14.2-25.1 5.9 0 11.5-.1 17 .1.6 0 1.4 1 1.8 1.7 3.1 5.3 6.1 10.5 9.3 16.1 3.7-3.4 7.3-6.6 10.9-9.8 3-2.7 5.6-6.3 9.2-7.7 3.4-1.3 7.8-.3 11.8-.3s8.1 0 12.8 0c-12.5 10.3-24.4 20.1-36.5 30z"/><path d="m604.4 170.5c-1.7 3.9-3.2 7.5-4.8 11-.3.6-1.3 1.2-2 1.2-13.8.1-27.6.1-41.3 0-4.1 0-6.7-2.5-8.6-5.8-2.7-4.9-3.1-10.2-.9-15.3 3.3-7.9 6.7-15.8 10.6-23.4 3.7-7.3 10.6-10.6 18.4-11.8 2.5-.4 5.1-.5 7.6-.5h38.3c-1.9 4.1-3.6 8-5.5 11.7-.3.5-1.6.7-2.4.7-9.7 0-19.3.1-29 0-6.3 0-10.9 2.5-13.4 8.5-1.8 4.3-3.9 8.5-5.9 12.8-.4.8-.7 1.7-1 2.5-1.4 4.8 1.1 8.2 6.1 8.3h30.7c.9.1 1.8.1 3.1.1z"/><path d="m552.1 125.9c-1.5 3.5-3 6.8-4.4 10.1-6.6 14.8-13.2 29.6-19.7 44.5-.7 1.7-1.6 2.3-3.5 2.2-5.1-.2-10.2-.1-15.7-.1 2.3-5.2 4.4-10.1 6.6-15.1 5.9-13.3 11.8-26.5 17.6-39.8.7-1.5 1.4-2.1 3.1-2 5.3.3 10.5.2 16 .2z"/><path d="m995.9 78.8c.4.7.6.9 1.2.9 0 0 .1.8-.8.8-.5 0-.9-.2-1.5-1.3l-1.1-1.9h-1l-.5 2.6c-.1.4-.3.6-.6.6h-.2c-.3 0-.5-.2-.5-.6l1.3-6.7c.1-.5.4-.7.8-.7h1.9c1.8 0 2.8.7 2.8 2.1 0 1.6-1 2.7-2.8 2.7zm-1.2-2.5c1.2 0 1.8-.6 1.8-1.7 0-.8-.6-1.2-1.6-1.2h-1.5l-.5 2.8h1.8z"/><path d="m994.4 70.3c3.6 0 6.6 3 6.6 6.6 0 3.7-3 6.6-6.6 6.6-3.7 0-6.6-3-6.6-6.6 0-3.7 2.9-6.6 6.6-6.6m0-1.1c-4.2 0-7.7 3.5-7.7 7.7 0 4.3 3.5 7.7 7.7 7.7s7.7-3.5 7.7-7.7c0-4.3-3.5-7.7-7.7-7.7"/></g></svg>