<svg version="1.1" id="Layer_1" xmlns="http://www.w3.org/2000/svg" xmlns:xlink="http://www.w3.org/1999/xlink" x="0px" y="0px"
	 viewBox="0 0 1274 218" style="enable-background:new 0 0 1274 218;" xml:space="preserve">
	<path d="M535.5,3v128.6l5.6,5.2v10.6h-25.2V20.2l-5.6-3.4V2.9L535.5,3z"/>
	<path d="M87.1,147.8c-12.2,0-13.8-11.5-13.8-11.5l-21,11.6c0,0-1.3,0.1-11,0.1c-36.2,0-41-21.1-41-51.5c0-29.3,5.3-51.6,38.6-51.6
		c9.2,0,12.9-0.1,19.4,0.8L72.6,56V2.2h19v128.2l4.3,2.9v14.5H87.1z M72.6,61.7c-2.4-0.2-15.8-1.5-26.8-1.5c-21.6,0-26,9.7-26,37.3
		c0,30.3,4.8,35,26.4,35c12.8,0,26.4-2.5,26.4-2.5V61.7z M91.7,2.2"/>
	<path d="M266.7,153.9c0-10.4-5.1-17.6-26.2-17.2c-7.1,0.1-18.8,0.4-31.7,0.4c-15.6,0-23.1-2.7-23.1-18.9c0-3.7,0-7.9,0-7.9
		l9.3,11.7c16,0.5,32.3,0.4,39.4,0c17.9-1,19.6-11.7,21.3-21.1c1.1-5.7,1.4-20.7,0.2-26.9l-14.6-9.6l21.8-2.1l0.1-14.7
		c-38,0-34.6,0-49.7,0c-32.5,0-44.1,8-46.1,31.3c-0.9,10.2-0.8,31.7-0.3,40.3c1.4,23.1,6.6,34,42.9,34c7.3,0,11,0,27.8,0
		c5.6,0,7,1,8,2.9c0.6,1.2,0.8,3.2,0.2,4.8c-1.1,2.7-6.3,5.3-23.1,16.4c-2.3,1.5-19.1,12.2-19.1,12.2l23.3,6.4c0,0,11-7,20.1-13.5
		c16.4-11.7,18.8-15.1,19.4-23.4C266.7,157.5,266.7,156.3,266.7,153.9z M186.1,77.4c0.5-6.6,4.4-10.7,13.9-12.6
		c9.8-2,23.8-1.2,29.4,0.2c7.3,1.8,9.3,3.7,10.3,12.5c0.7,6.5,0.8,14.5,0,18.9c-2.3,12.5-7.8,14.6-54,12.3
		C185.7,93.5,185.7,82.9,186.1,77.4z"/>
	<path d="M489.3,132.3l-0.1-62.9c0,0,0.7-19.4-12-22.2c-15-3.2-39.7-1.1-62.7,4.4l0.1,14c0,0,27-5.5,45.2-4.2
		c9.3,0.7,10.4,7,10.4,10c0,3,0,16.5,0,16.5l-9.5-3.4c0,0-24.3,3.6-30.2,5.1c-10.6,2.7-23,5.5-23,24.4V124
		c0,10.9,4.1,24.1,20.3,25.8c2.9,0.3,14,0.8,20.5-1.3c8.1-3.3,22.4-9.8,22.4-9.8c0.5,4.4,5.9,10.9,17.5,10.9h5.6l0-14.5L489.3,132.3
		z M470.1,129.3c-13.2,5.3-19.8,5.5-26.4,5.5c-14.8,0-18-2.4-18-13.3c0-13.3,0.6-14,8-17.6c3.3-1.6,36.4-11.4,36.4-11.4L470.1,129.3
		z"/>
	<path d="M367,122.2V63.5h21.4l8.5-15.4H367V20.9h-18.8v27.3h-13.5v15.4h13.5v59.6c0,15.6,8.3,26.1,24.8,26.1c2.7,0,7.9,0,10.4-0.7
		l4.9-14.1C365.8,135.7,367,130.4,367,122.2z"/>
	<path d="M887.3,127.4h-12.4l-2.8,5.2c-3.6,0.4-7,0.7-11.1,0.7c-25.4,0-29.2-7.1-29.2-35.5c0-28.6,3.8-35.1,29.2-35.1
		c4.4,0,8.8,0.3,12.6,0.7l2.5,3.8l11.3,0.1l0,0l0.2-15c0,0-14.1-4.1-31.3-4.1c-31.9,0-43.7,7.2-43.7,48.1
		c0,40.9,11.8,50.9,43.7,50.9c21.2,0,31.3-6.7,31.3-6.7L887.3,127.4z"/>
	<path d="M981.9,127.4h-12.4l-2.7,5.2c-3.6,0.4-7,0.7-11.1,0.7c-25.4,0-29.2-7.1-29.2-35.5c0-28.6,3.8-35.1,29.2-35.1
		c4.4,0,8.8,0.3,12.6,0.7l2.5,3.8l11.2,0.1l0,0l0.2-15c0,0-14.1-4.1-31.3-4.1c-31.9,0-43.7,7.2-43.7,48.1
		c0,40.9,11.8,50.9,43.7,50.9c21.1,0,31.3-6.7,31.3-6.7L981.9,127.4z"/>
	<path d="M786.1,131.6V49.1h-18l0,80c-5.6,2.1-16.5,3.7-28.6,2.4c-10.4-1.1-11.8-6.3-11.8-15.8V65.9c0-16.5-10.4-16.8-12.5-16.8
		c-2.2,0-10.1,0-10.1,0v14.7l4.8,1.3c0,0,0,50,0,55.6c0,17.4,8.7,26.5,24.1,26.5c14.6,0,16.3,0,26.8,0l7.4-12.9
		c0,0,2.4,12.9,13.7,12.9h8.2v-11.8L786.1,131.6z"/>
	<path d="M124.8,147.2V64l-4.2-5.4V49h22.1v98.2H124.8z"/>
	<path d="M292.9,147.3V64.1l-4.2-5.4v-9.6h22.1v98.2H292.9z"/>
	<path d="M560.3,74.7V51.1h23.8v23.6H560.3z M560.3,145.6V122h23.8v23.6H560.3z"/>
	<path d="M1047.9,133.4c18.3,0,29.9-2.9,29.9-2.9l2.8,11.7c0,0-10.3,5.8-31.3,5.8c-30.8,0-49.4-5.8-49.4-49.5
		c0-13,1.8-25.3,4.8-32.5c5.4-13.1,20.6-17,42.2-17c16.7,0,28.8,1.9,35.1,9.7c5,6.6,7.1,12.7,7.1,28.9c0,3.7-0.2,7.2-0.4,12.4
		l-57.8,7l-12.2-8.4c0,0,0.1,22,5.3,27.4C1029.1,131.3,1035.4,133.4,1047.9,133.4z M1048.9,63.1c-29.2,0-29,6-30.2,33.2l53.5-9.3
		C1072.2,67.9,1070.6,63.1,1048.9,63.1z"/>
	
		<path d="M1145.4,148.9c-22.5,0-36.5-6.1-36.5-6.1l3.6-13.2c0,0,15.6,4.2,32,4.2c15.7,0,22-5.4,22-14.6c0-12.5-7.1-11.6-23.6-12.9
			c-19.5-1.3-35.8,0.3-35.8-26.6c0-24.5,13.3-30.8,39.1-30.8c17.9,0,31.3,4.4,31.3,4.4l-3.5,13.4c0,0-12-2.2-27.6-2.2
			c-16.5,0-22.6,2.8-22.6,13.7c0,12.1,3.8,14.5,24.2,14.5c21.7,0,35.8-0.7,35.8,26C1183.7,143.2,1168.1,148.9,1145.4,148.9z"/>
	
	
		<path d="M1235.4,148.9c-22.5,0-36.5-6.1-36.5-6.1l3.6-13.2c0,0,15.6,4.2,32,4.2c15.7,0,22-5.4,22-14.6c0-12.5-7.1-11.6-23.6-12.9
			c-19.5-1.3-35.8,0.3-35.8-26.6c0-24.5,13.3-30.8,39.1-30.8c17.9,0,31.3,4.4,31.3,4.4l-3.5,13.4c0,0-12-2.2-27.6-2.2
			c-16.5,0-22.6,2.8-22.6,13.7c0,12.1,3.8,14.5,24.2,14.5c21.7,0,35.8-0.7,35.8,26C1273.7,143.2,1258.2,148.9,1235.4,148.9z"/>
	
	
		<path d="M646.8,148.9c-22.6,0-36.5-6.1-36.5-6.1l3.7-13.2c0,0,15.6,4.2,31.9,4.2c15.6,0,22-5.4,22-14.6c0-12.5-7.1-11.6-23.6-12.9
			c-19.5-1.3-35.9,0.3-35.9-26.6c0-24.5,13.3-30.8,39.1-30.8c17.9,0,31.4,4.4,31.4,4.4l-3.5,13.4c0,0-12-2.2-27.6-2.2
			c-16.5,0-22.6,2.8-22.6,13.7c0,12.1,3.8,14.5,24.1,14.5c21.7,0,35.8-0.7,35.8,26C685.1,143.2,669.5,148.9,646.8,148.9z"/>
	
</svg>
