<?xml version="1.0" encoding="utf-8"?>
<!-- Generator: Adobe Illustrator 22.0.1, SVG Export Plug-In . SVG Version: 6.00 Build 0)  -->
<svg version="1.1" id="Layer_1" xmlns="http://www.w3.org/2000/svg" xmlns:xlink="http://www.w3.org/1999/xlink" x="0px" y="0px"
	 viewBox="0 0 1000 339.3" style="enable-background:new 0 0 1000 339.3;" xml:space="preserve">
<g>
	<rect x="0.8" y="-0.4" style="fill:#0071BB;" width="998.4" height="339"/>
</g>
<g>
	<path style="fill:#FFFFFF;" d="M170.5,211.5h-15.2v-98.6h15.2v57l8.6-0.8l16.4-27.2h17l-20.1,32.6l21.2,37.1h-17.1l-17-29.4l-9.1,1
		V211.5z"/>
	<path style="fill:#FFFFFF;" d="M224.8,130v-16H240v16H224.8z M224.8,211.5v-69.7H240v69.7H224.8z"/>
	<path style="fill:#FFFFFF;" d="M273.6,211.5h-15.2v-69.7h15v4.3c6.6-3.9,12.6-5.9,18.1-5.9c8.1,0,14,2.3,17.7,6.8
		c8.4-4.6,16.9-6.8,25.2-6.8c8.4,0,14.3,2.6,17.7,7.7c3.4,5.2,5.2,13.9,5.2,26.1v37.3h-15v-36.9c0-7.5-0.8-12.9-2.3-16
		c-1.5-3.2-4.7-4.7-9.5-4.7c-4.2,0-8.7,0.9-13.5,2.8l-2.4,1c0.7,1.9,1.1,7.8,1.1,17.8v36.1h-15v-35.8c0-8.3-0.7-14-2.2-17.1
		c-1.5-3.2-4.7-4.7-9.8-4.7c-4.6,0-9,0.9-13,2.8l-2.1,0.8V211.5z"/>
	<path style="fill:#FFFFFF;" d="M420.9,211.5h-15.2v-69.7h15v4.3c6.8-3.9,13.2-5.9,19.2-5.9c9.3,0,15.6,2.6,19,7.9
		c3.4,5.2,5.1,13.9,5.1,26v37.3h-15v-36.9c0-7.5-0.8-12.9-2.4-16c-1.6-3.2-4.9-4.7-10-4.7c-4.7,0-9.3,0.9-13.7,2.8l-2.1,0.8V211.5z"
		/>
	<path style="fill:#FFFFFF;" d="M485.7,149.3c4.8-6,12.7-9.1,23.9-9.1c11.1,0,19.1,3,23.9,9.1c4.8,6,7.2,15.1,7.2,27.2
		c0,12.1-2.3,21.2-7,27.3c-4.6,6.1-12.7,9.2-24.1,9.2c-11.4,0-19.5-3.1-24.1-9.2c-4.6-6.1-7-15.2-7-27.3
		C478.5,164.4,480.9,155.4,485.7,149.3z M497,194.6c2.1,3.7,6.3,5.6,12.5,5.6c6.2,0,10.4-1.9,12.5-5.6s3.2-9.8,3.2-18.2
		s-1.1-14.4-3.4-18c-2.3-3.5-6.4-5.3-12.3-5.3c-5.9,0-10.1,1.8-12.3,5.3c-2.3,3.5-3.4,9.5-3.4,18S494.9,190.9,497,194.6z"/>
	<path style="fill:#FFFFFF;" d="M555.7,211.5v-69.7h15v8.4c7.9-5.1,15.8-8.4,23.7-9.9v15.2c-8,1.6-14.8,3.6-20.5,6.1l-3.1,1.3v48.6
		H555.7z"/>
	<path style="fill:#FFFFFF;" d="M606.8,211.5v-98.6H622v98.6H606.8z"/>
	<path style="fill:#FFFFFF;" d="M692.7,163.3V195c0.1,2,0.6,3.6,1.6,4.5c1,1,2.5,1.6,4.5,1.9l-0.4,11.6c-8,0-14.2-1.7-18.5-5.2
		c-7.4,3.4-14.9,5.2-22.4,5.2c-13.8,0-20.8-7.4-20.8-22.2c0-7.1,1.9-12.2,5.6-15.3c3.8-3.2,9.5-5.1,17.3-5.7l18-1.5v-5
		c0-3.7-0.8-6.3-2.4-7.8c-1.6-1.5-4-2.2-7.2-2.2c-5.9,0-13.4,0.4-22.3,1.1l-4.5,0.3l-0.6-10.7c10.1-2.4,19.4-3.6,27.9-3.6
		c8.5,0,14.6,1.8,18.4,5.5C690.9,149.5,692.7,155.3,692.7,163.3z M661.5,180.5c-6.4,0.6-9.6,4-9.6,10.4c0,6.4,2.8,9.6,8.5,9.6
		c4.6,0,9.6-0.7,14.8-2.2l2.5-0.8V179L661.5,180.5z"/>
	<path style="fill:#FFFFFF;" d="M727,211.5h-15.2v-69.7h15v4.3c6.8-3.9,13.2-5.9,19.2-5.9c9.3,0,15.6,2.6,19,7.9
		c3.4,5.2,5.1,13.9,5.1,26v37.3h-15v-36.9c0-7.5-0.8-12.9-2.4-16c-1.6-3.2-4.9-4.7-10-4.7c-4.7,0-9.3,0.9-13.6,2.8l-2.1,0.8V211.5z"
		/>
	<path style="fill:#FFFFFF;" d="M844.7,112.8v98.6h-15v-3.6c-6.8,3.4-13,5.2-18.7,5.2c-9.1,0-15.8-2.7-20-8.2
		c-4.2-5.5-6.3-14.7-6.3-27.6c0-12.9,2.3-22.3,7-28.1c4.7-5.9,12-8.8,21.9-8.8c3.3,0,8.6,0.6,15.9,1.8v-29.3H844.7z M827.2,197
		l2.4-1v-41.2c-5.6-0.9-10.7-1.4-15.5-1.4c-9.4,0-14.1,7.8-14.1,23.4c0,8.5,1.1,14.5,3.3,17.8c2.2,3.3,5.6,4.9,10.4,4.9
		C818.4,199.5,822.9,198.7,827.2,197z"/>
</g>
</svg>
