<?xml version="1.0" encoding="utf-8"?>
<!-- Generator: Adobe Illustrator 22.0.1, SVG Export Plug-In . SVG Version: 6.00 Build 0)  -->
<svg version="1.1" id="Layer_1" xmlns="http://www.w3.org/2000/svg" xmlns:xlink="http://www.w3.org/1999/xlink" x="0px" y="0px"
	 viewBox="0 0 500 500" style="enable-background:new 0 0 500 500;" xml:space="preserve">
<style type="text/css">
	.st0{fill:#FFFFFF;}
</style>
<g>
	<path class="st0" d="M130.4,433.5c-0.4,2.8-0.9,4.9-2.8,5.3c-0.9,0.2-2,0.4-3.4,0.4c-1.1,0-1.5,0.3-1.5,0.8c0,0.7,0.7,1,1.9,1
		c1.9,0,4.4-0.2,6.6-0.2c2.3-0.1,4.4-0.1,5.4-0.1c1.4,0,4.3,0.1,7.2,0.3c2.8,0.1,5.5,0.3,6.7,0.3c17.6,0,25.5-10.7,25.5-21
		c0-11.3-9.6-18.1-17.4-20.8c5.3-4.2,9.8-9,9.8-16.8c0-5.1-3.1-14.4-20.4-14.4c-3.2,0-7,0.3-11.7,0.3c-1.9,0-7.9-0.3-13-0.3
		c-1.4,0-2.1,0.2-2.1,0.9c0,0.7,0.6,0.9,1.6,0.9c1.3,0,3,0.1,3.7,0.3c3.2,0.7,3.9,2.2,4.1,5.5c0.2,3.1,0.2,5.8,0.2,20.4V413
		C130.8,421.8,130.8,429.4,130.4,433.5z M142.3,373.9c0-1.1,0.2-1.4,0.9-1.6c1-0.2,1.8-0.2,3.2-0.2c8.2,0,12,8.5,12,14.9
		c0,4.7-1.4,8.2-3.9,10.2c-1.6,1.4-3.7,1.8-6.9,1.8c-2.2,0-3.6-0.1-4.5-0.3c-0.4-0.1-0.7-0.3-0.7-1.1V373.9z M142.3,403.6
		c0-0.5,0.2-0.7,0.6-0.7c1.4,0,2.4,0,4.1,0.1c3.7,0.2,5.9,0.9,7.9,2.3c7.3,5.1,9.3,13.2,9.3,19.1c0,10-7.3,12.3-11.6,12.3
		c-2.2,0-4.4-0.1-7-1.2c-3.1-1.3-3.3-2.9-3.3-9.2V403.6z"/>
	<path class="st0" d="M188.1,433.5c-0.4,2.8-0.9,4.9-2.8,5.3c-0.9,0.2-2,0.4-3.4,0.4c-1.1,0-1.5,0.3-1.5,0.8c0,0.7,0.7,1,1.9,1
		c1.9,0,4.4-0.2,6.6-0.2c2.3-0.1,4.4-0.1,5.5-0.1c3.9,0,7.4,0.1,11.7,0.3c4.3,0.1,10.8,0.3,17.7,0.3c5,0,7.3-1.7,8.5-3.5
		c2-3,4.5-8.3,4.8-9.3c0.2-0.7,0.1-1.4-0.7-1.7c-0.5-0.2-1.3,0.3-1.7,1.2c-0.8,1.6-2.7,4.2-4.6,5.7c-2.8,2.2-10.9,2.2-15.9,2.2
		c-7.5,0-9.9-0.7-11.6-2.1c-2-1.7-2-8.4-2-20.7V396c0-14.6,0-17.3,0.2-20.4c0.2-3.4,1-5,3.5-5.5c1.1-0.2,2.7-0.3,3.7-0.3
		c1.1,0,1.7-0.2,1.7-0.9c0-0.7-0.7-0.9-2-0.9c-3.7,0-10.7,0.3-13,0.3c-2.6,0-8.6-0.3-13.1-0.3c-1.4,0-2.1,0.2-2.1,0.9
		c0,0.7,0.6,0.9,1.6,0.9c1.2,0,2.4,0.1,3.2,0.3c3.2,0.7,3.9,2.2,4.1,5.5c0.2,3.1,0.2,5.8,0.2,20.4V413
		C188.6,421.8,188.6,429.4,188.1,433.5z"/>
	<path class="st0" d="M290,439c-1,0.1-1.3,0.3-1.3,0.9c0,0.7,1.1,0.7,2.9,0.8c7.6,0.2,14.6,0.2,18.1,0.2c3.5,0,4.4-0.2,4.4-1
		c0-0.7-0.5-0.8-1.2-0.8c-1.1,0-2.6-0.1-4-0.4c-2-0.5-4.8-1.8-8.4-10.5c-6.1-14.6-21.4-53.9-23.7-59.2c-1-2.2-1.5-3.1-2.4-3.1
		c-1,0-1.5,1.1-2.7,3.8l-24,60.4c-1.9,4.8-3.7,8.1-8.1,8.7c-0.8,0.1-2.1,0.2-3,0.2c-0.8,0-1.1,0.2-1.1,0.8c0,0.8,0.6,1,1.8,1
		c5,0,10.2-0.3,11.3-0.3c3,0,7.1,0.3,10.1,0.3c1.1,0,1.6-0.2,1.6-1c0-0.6-0.3-0.8-1.4-0.8h-1.4c-3,0-3.8-1.3-3.8-3
		c0-1.2,0.5-3.5,1.4-5.9l5.2-13.8c0.2-0.6,0.4-0.8,0.9-0.8h21.3c0.5,0,0.8,0.2,1,0.7l7.6,20.4C291.3,438,290.7,438.8,290,439z
		 M280.4,410.9h-17.6c-0.4,0-0.5-0.3-0.4-0.7l8.8-23.7c0.1-0.4,0.3-0.9,0.6-0.9c0.3,0,0.4,0.5,0.5,0.9l8.6,23.8
		C281,410.7,280.9,410.9,280.4,410.9z"/>
	<path class="st0" d="M444.1,452.4c-0.4,0-0.9,0.3-1.4,0.5c-6.6,2.6-13.7,3.4-18.6,3.4c-6.5,0-19.2-1.1-39.4-11.5l-19.2-9.9
		c6-4,16.6-14.7,16.6-31.7c0-22.5-15.9-36.5-38.7-36.5c-28,0-39.2,21.6-39.2,37.2c0,17.3,10.9,38.2,38.9,38.2c5.1,0,11.2-1.1,15-2.5
		l15,8.9c15.8,9.3,26,13.1,40.4,13.1c13.8,0,24.6-4.4,30.3-7.2c0.7-0.3,1.2-0.6,1.2-1.2C445,452.8,444.6,452.4,444.1,452.4z
		 M346.6,437.4c-15.4,0-29.2-12.7-29.2-35.6c0-22.3,11.2-30.4,23.7-30.4c13.2,0,27.5,11.2,27.5,34.4
		C368.7,434,354.2,437.4,346.6,437.4z"/>
	<path class="st0" d="M322.5,312.6c0.1-1.9,0.5-2.8,1.9-3.1c0.6-0.1,1.5-0.2,2-0.2c0.6,0,0.9-0.1,0.9-0.5c0-0.4-0.4-0.5-1.1-0.5
		c-2,0-5.8,0.2-7.1,0.2c-1.4,0-4.7-0.2-7.1-0.2c-0.8,0-1.1,0.1-1.1,0.5c0,0.4,0.3,0.5,0.9,0.5c0.7,0,1.3,0.1,1.7,0.2
		c1.7,0.4,2.1,1.2,2.2,3.1c0.1,1.7,0.1,3.2,0.1,11.5v9.5c0,5,0,9.3-0.3,11.5c-0.2,1.6-0.5,2.8-1.5,3c-0.5,0.1-1.1,0.2-1.9,0.2
		c-0.6,0-0.8,0.2-0.8,0.4c0,0.4,0.4,0.5,1,0.5c1,0,2.4-0.1,3.6-0.1c1.2-0.1,2.4-0.1,3-0.1c2.1,0,4,0.1,6.3,0.2
		c2.3,0.1,5.9,0.2,9.6,0.2c2.7,0,4-0.9,4.6-2c1.1-1.7,2.4-4.7,2.6-5.3c0.1-0.4,0.1-0.8-0.4-1c-0.3-0.1-0.7,0.2-0.9,0.7
		c-0.4,0.9-1.5,2.4-2.5,3.2c-1.5,1.2-5.9,1.2-8.7,1.2c-4.1,0-5.4-0.4-6.3-1.2c-1.1-1-1.1-4.7-1.1-11.6v-9.5
		C322.4,315.9,322.4,314.4,322.5,312.6z"/>
	<path class="st0" d="M376.7,342.2c-3.3-8.2-11.6-30.3-12.9-33.3c-0.5-1.2-0.8-1.7-1.3-1.7c-0.5,0-0.8,0.6-1.5,2.2l-13,34
		c-1,2.7-2,4.5-4.4,4.9c-0.4,0.1-1.1,0.1-1.6,0.1c-0.4,0-0.6,0.1-0.6,0.4c0,0.4,0.3,0.5,1,0.5c2.7,0,5.6-0.2,6.1-0.2
		c1.6,0,3.8,0.2,5.5,0.2c0.6,0,0.9-0.1,0.9-0.5c0-0.3-0.2-0.4-0.8-0.4h-0.8c-1.6,0-2.1-0.7-2.1-1.7c0-0.7,0.3-1.9,0.8-3.3l2.8-7.7
		c0.1-0.3,0.2-0.4,0.5-0.4h11.6c0.3,0,0.4,0.1,0.5,0.4l4.2,11.5c0.3,0.6-0.1,1.1-0.5,1.2c-0.5,0.1-0.7,0.2-0.7,0.5
		c0,0.4,0.6,0.4,1.6,0.4c4.2,0.1,8,0.1,9.8,0.1c1.9,0,2.4-0.1,2.4-0.5c0-0.4-0.3-0.4-0.7-0.4c-0.6,0-1.4-0.1-2.2-0.2
		C380.1,347.9,378.6,347.1,376.7,342.2z M365.8,332.5h-9.6c-0.2,0-0.3-0.2-0.2-0.4l4.8-13.3c0.1-0.2,0.2-0.5,0.3-0.5
		c0.2,0,0.2,0.3,0.3,0.5l4.7,13.4C366.1,332.3,366.1,332.5,365.8,332.5z"/>
	<path class="st0" d="M150.2,311.6c4.8,0.1,6.3,1.6,6.4,3.1l0.1,0.6c0.1,0.8,0.2,1.1,0.6,1.1c0.3,0,0.4-0.3,0.5-0.9
		c0-1.4,0.2-5.2,0.2-6.3c0-0.8-0.1-1.1-0.4-1.1c-0.2,0-0.6,0.1-1.5,0.3c-0.8,0.1-2,0.3-3.7,0.3h-21.4c-1.8,0-3.8-0.1-5.4-0.3
		c-1.3-0.1-1.9-0.7-2.3-0.7c-0.3,0-0.5,0.3-0.7,1c-0.1,0.4-1.1,5.4-1.1,6.3c0,0.6,0.1,0.9,0.5,0.9c0.3,0,0.5-0.2,0.6-0.7
		c0.1-0.4,0.4-1.1,0.9-1.9c0.8-1.2,2.1-1.5,5.2-1.6l8-0.2v22.3c0,5,0,9.3-0.3,11.6c-0.2,1.6-0.5,2.8-1.6,3c-0.5,0.1-1.1,0.2-1.9,0.2
		c-0.6,0-0.9,0.2-0.9,0.4c0,0.4,0.4,0.5,1.1,0.5c2.2,0,5.6-0.2,6.8-0.2c1.5,0,4.9,0.2,8.5,0.2c0.6,0,1-0.2,1-0.5
		c0-0.3-0.3-0.4-0.9-0.4c-0.8,0-2-0.1-2.8-0.2c-1.6-0.2-1.9-1.4-2.1-2.9c-0.3-2.3-0.3-6.6-0.3-11.7v-22.3L150.2,311.6z"/>
	<path class="st0" d="M166.5,345.4c-0.2,1.6-0.5,2.8-1.6,3c-0.5,0.1-1.1,0.2-1.9,0.2c-0.6,0-0.9,0.2-0.9,0.4c0,0.4,0.4,0.5,1.1,0.5
		c1.1,0,2.5-0.1,3.7-0.1c1.3-0.1,2.5-0.1,3.1-0.1c1.6,0,3.3,0.1,5.6,0.2c2.3,0.1,5.3,0.2,9.3,0.2c2.1,0,2.5,0,2.9-1.4
		c0.3-1.1,0.7-4.8,0.7-6c0-0.5,0-1-0.4-1c-0.4,0-0.5,0.2-0.6,0.8c-0.4,2.2-1,3.4-2.4,4c-1.4,0.7-3.7,0.7-5.1,0.7
		c-5.5,0-6.4-0.8-6.5-4.6c-0.1-1.6,0-6.6,0-8.4v-4.3c0-0.3,0.1-0.5,0.3-0.5c1.3,0,6.6,0.1,7.7,0.2c2,0.2,2.8,1,3,2.1
		c0.2,0.7,0.2,1.4,0.2,2c0,0.3,0.1,0.5,0.5,0.5c0.5,0,0.5-0.6,0.5-1c0-0.4,0.2-2.6,0.2-3.6c0.2-2.8,0.4-3.6,0.4-4
		c0-0.3-0.2-0.4-0.4-0.4c-0.3,0-0.5,0.3-0.9,0.7c-0.5,0.5-1.3,0.7-2.6,0.8c-1.2,0.1-7.4,0.1-8.6,0.1c-0.3,0-0.4-0.2-0.4-0.6v-13.8
		c0-0.4,0.1-0.5,0.4-0.5c1.1,0,6.7,0.1,7.7,0.2c2.7,0.3,3.2,1,3.6,2c0.3,0.7,0.3,1.6,0.3,2c0,0.5,0.1,0.8,0.5,0.8
		c0.4,0,0.5-0.3,0.5-0.6c0.1-0.7,0.2-3.1,0.3-3.6c0.2-2.5,0.4-3.2,0.4-3.5c0-0.3-0.1-0.5-0.3-0.5c-0.3,0-0.6,0.2-0.9,0.2
		c-0.4,0.1-1.3,0.2-2.3,0.3c-1,0.1-11.8,0.1-13.5,0.1c-0.8,0-2-0.1-3.4-0.1c-1.3,0-2.9-0.1-4.4-0.1c-0.8,0-1.2,0.1-1.2,0.5
		c0,0.4,0.3,0.5,0.9,0.5c0.8,0,1.7,0.1,2.1,0.2c1.8,0.4,2.2,1.3,2.3,3.1c0.1,1.7,0.1,3.3,0.1,11.5v9.6
		C166.8,338.8,166.8,343.1,166.5,345.4z"/>
	<path class="st0" d="M238,328.3c0-12.7-9-20.6-21.8-20.6c-15.8,0-22.1,12.2-22.1,21.1c0,9.8,6.2,21.6,22,21.6
		c2.9,0,6.3-0.6,8.5-1.4l8.5,5c8.9,5.3,14.7,7.4,22.8,7.4c7.8,0,13.9-2.5,17.1-4.1c0.4-0.2,0.6-0.3,0.6-0.7c0-0.3-0.2-0.5-0.5-0.5
		c-0.2,0-0.5,0.2-0.8,0.3c-3.7,1.5-7.7,1.9-10.5,1.9c-3.7,0-10.8-0.6-22.2-6.5l-10.8-5.6C232,343.9,238,337.9,238,328.3z M218,347.6
		c-8.7,0-16.5-7.2-16.5-20.1c0-12.6,6.3-17.2,13.4-17.2c7.4,0,15.5,6.3,15.5,19.5C230.4,345.7,222.3,347.6,218,347.6z"/>
	<path class="st0" d="M253.8,312.6c0.1-1.9,0.5-2.8,2-3.1c0.6-0.1,1-0.2,1.6-0.2c0.5,0,0.9-0.1,0.9-0.5c0-0.4-0.4-0.5-1.2-0.5
		c-1.9,0-5.3,0.2-6.6,0.2c-1.6,0-5-0.2-7.9-0.2c-0.8,0-1.2,0.1-1.2,0.5c0,0.4,0.3,0.5,0.9,0.5c0.8,0,1.7,0.1,2.1,0.2
		c1.8,0.4,2.2,1.3,2.3,3.1c0.1,1.7,0.1,3.3,0.1,11.5v8c0,7.9,2,11.9,4.8,14.4c3.9,3.6,9.1,3.8,12,3.8c3.5,0,7.4-0.6,11.2-3.9
		c4.5-3.9,5.1-10.3,5.1-16.4v-5.8c0-8.3,0-9.8,0.1-11.5c0.1-1.9,0.5-2.8,2-3.1c0.6-0.1,1-0.2,1.6-0.2c0.6,0,1-0.1,1-0.5
		c0-0.4-0.4-0.5-1.1-0.5c-2.1,0-5.5,0.2-6.2,0.2c-0.1,0-3.5-0.2-6.2-0.2c-0.8,0-1.1,0.1-1.1,0.5c0,0.4,0.3,0.5,0.9,0.5
		c0.6,0,1.5,0.1,1.9,0.2c1.8,0.4,2.2,1.3,2.3,3.1c0.1,1.7,0.1,3.3,0.1,11.5v6.8c0,5.6-0.2,10.5-3.1,13.5c-2.2,2.2-5.1,2.9-7.4,2.9
		c-1.8,0-4.3-0.2-6.7-2.2c-2.6-2.2-4.2-5.5-4.2-13.4v-7.6C253.7,315.9,253.7,314.4,253.8,312.6z"/>
	<path class="st0" d="M300.9,312.6c0.1-1.9,0.5-2.8,2-3.1c0.6-0.1,1.1-0.2,1.6-0.2c0.5,0,0.9-0.1,0.9-0.5c0-0.3-0.4-0.4-1.1-0.4
		c-2,0-5.2,0.2-6.6,0.2c-1.6,0-5-0.2-7-0.2c-0.9,0-1.3,0.1-1.3,0.4c0,0.4,0.3,0.5,0.9,0.5c0.6,0,1.3,0.1,1.9,0.2
		c1.2,0.3,1.7,1.2,1.8,3.1c0.1,1.7,0.1,3.3,0.1,11.5v9.6c0,5.3,0,9.6-0.3,11.9c-0.2,1.6-0.5,2.5-1.6,2.7c-0.5,0.1-1.1,0.2-1.9,0.2
		c-0.6,0-0.9,0.2-0.9,0.4c0,0.4,0.4,0.5,1.1,0.5c2.2,0,5.6-0.2,6.8-0.2c1.5,0,4.9,0.2,8.4,0.2c0.6,0,1-0.2,1-0.5
		c0-0.3-0.3-0.4-0.9-0.4c-0.8,0-2-0.1-2.8-0.2c-1.6-0.2-2-1.2-2.2-2.7c-0.2-2.3-0.2-6.6-0.2-11.9v-9.6
		C300.8,315.9,300.8,314.4,300.9,312.6z"/>
	<rect x="121" y="448.6" class="st0" width="241.1" height="1.9"/>
	<rect x="289.7" y="356.9" class="st0" width="93.9" height="1.9"/>
	<rect x="121" y="299.1" class="st0" width="261.6" height="1.9"/>
	<rect x="121" y="356.9" class="st0" width="101.4" height="1.9"/>
	<polygon class="st0" points="133.3,208.7 133.3,178.3 126.2,178.3 126.2,256 126.2,286.3 133.3,286.3 	"/>
	<path class="st0" d="M162.3,271c11.3,10.7,24.7,16,40,15.8c15.2-0.1,28.2-5.4,39.2-15.9c11-10.5,16.6-23.2,16.9-38.2l-0.2-0.2v-0.3
		V232v-0.3v-0.3c0-15.3-5.6-28.3-16.7-39.1c-11.1-10.8-24.4-16.2-39.7-16.2c-15.4-0.1-28.7,5.3-39.9,16.2
		c-11.2,10.9-16.8,24-16.8,39.5C145.2,247.2,151,260.3,162.3,271z M152.3,233.4v-0.7V232c0-13.5,5-25.2,14.9-35
		c9.9-9.8,21.6-14.6,35-14.5c13.7,0,25.4,4.9,35.2,14.8c9.8,9.9,14.6,21.6,14.4,35.3c-0.1,13.5-5,24.9-14.6,34.3
		c-9.6,9.4-21.2,14.2-34.7,14.4c-13.4,0.1-25.1-4.5-35-13.7c-9.9-9.3-15.1-20.6-15.5-34.1L152.3,233.4z"/>
	<path class="st0" d="M269.1,231.9c0.1,15.4,5.8,28.4,17.1,39.1c11.3,10.7,24.7,16,40,15.8c15.2-0.1,28.2-5.4,39.2-15.9
		c11-10.5,16.6-23.2,16.9-38.2l-0.2-0.2v-0.3V232v-0.3v-0.3c0-15.3-5.6-28.3-16.7-39.1c-11.1-10.8-24.4-16.2-39.7-16.2
		c-15.4-0.1-28.7,5.3-39.9,16.2C274.7,203.2,269.1,216.4,269.1,231.9z M326.1,182.6c13.7,0,25.4,4.9,35.2,14.8
		c9.8,9.9,14.6,21.6,14.4,35.3c-0.1,13.5-5,24.9-14.6,34.3c-9.6,9.4-21.2,14.2-34.7,14.4c-13.4,0.1-25.1-4.5-35-13.7
		c-9.9-9.3-15.1-20.6-15.5-34.1l0.3-0.2v-0.7V232c0-13.5,5-25.2,14.9-35C301,187.3,312.7,182.5,326.1,182.6z"/>
	<path class="st0" d="M129.4,474.7c-0.1,0-0.8,0-1-0.1c-0.3-0.1-0.4-0.1-0.4-0.6c-0.1-0.7-0.1-2-0.1-3.5v-2.9c0-2,0.1-3.4,0.1-3.9
		c0-0.1,0-0.2,0-0.2c0-0.4-0.2-0.6-0.5-0.6c-0.2,0-0.4,0.1-0.5,0.2l-0.1,0.1c-0.6,0.4-3.5,2.4-3.6,2.4c-0.2,0.1-0.3,0.3-0.3,0.5
		c0,0.2,0.2,0.5,0.4,0.5c0.1,0,0.2,0,0.3-0.1c0.1,0,0.3-0.1,0.5-0.2c0.3-0.2,1-0.5,1.2-0.5c0,0.1,0,0.2,0,0.3l0,4.6
		c0,1.5,0,2.8-0.1,3.5c0,0.5-0.1,0.5-0.4,0.6c-0.3,0.1-1,0.1-1.2,0.1c-0.2,0-0.4,0.2-0.4,0.4c0,0.1,0.1,0.4,0.5,0.4c0.6,0,1.4,0,2,0
		c0.3,0,0.6,0,0.7,0c0.2,0,0.4,0,0.7,0c0.5,0,1.2,0,1.9,0c0.5,0,0.5-0.3,0.5-0.4C129.8,474.9,129.6,474.7,129.4,474.7z"/>
	<path class="st0" d="M154.6,462.8c-2.8,0-4.5,2.6-4.5,6.8c0,2.3,0.9,6.1,4.3,6.1c2.8,0,4.5-2.6,4.5-6.9
		C158.9,466,157.8,462.8,154.6,462.8z M154.3,464.1c1.5,0,2.2,2.8,2.2,5.5c0,2.9-0.7,5-1.8,5c-1.5,0-2.1-2.8-2.1-5.5
		C152.5,466,153.2,464.1,154.3,464.1z"/>
	<path class="st0" d="M182.7,462.8c-2.8,0-4.5,2.6-4.5,6.8c0,2.3,0.9,6.1,4.3,6.1c2.8,0,4.5-2.6,4.5-6.9
		C187,466,185.9,462.8,182.7,462.8z M182.4,464.1c1.5,0,2.2,2.8,2.2,5.5c0,2.9-0.7,5-1.8,5c-1.5,0-2.1-2.8-2.1-5.5
		C180.6,466,181.3,464.1,182.4,464.1z"/>
	<path class="st0" d="M235.2,463.1c-0.4,0-0.8,0-1.2,0c-0.4,0-0.8,0-1.1,0c-0.2,0-0.5,0-0.8,0c-0.5,0-1,0-1.5,0
		c-0.4,0-0.6,0.1-0.6,0.4c0,0.1,0.1,0.4,0.5,0.4c0.2,0,0.5,0,0.6,0c0.4,0.1,0.4,0.2,0.5,0.7c0,0.5,0,0.9,0,3.3v2.8
		c0,1.4,0,2.7-0.1,3.3c-0.1,0.4-0.1,0.6-0.2,0.6c-0.2,0-0.3,0.1-0.5,0.1c-0.5,0-0.5,0.3-0.5,0.4c0,0.1,0.1,0.4,0.6,0.4
		c0.4,0,0.8,0,1.3,0c0.3,0,0.6,0,0.7,0c0.2,0,0.4,0,0.7,0c0.5,0,1.1,0,1.8,0c0.6,0,0.6-0.4,0.6-0.4c0-0.1,0-0.4-0.5-0.4
		c-0.2,0-0.6,0-0.8-0.1c-0.2,0-0.3-0.1-0.4-0.6c-0.1-0.7-0.1-1.9-0.1-3.4v-6.3c0,0,0,0,0,0c0.1,0,0.3,0,0.5,0c0.3,0,0.9,0.1,1.4,0.5
		c0.8,0.7,0.8,1.6,0.8,2.2c0,1.4-1.1,2.3-1.8,2.3c-0.2,0-0.7,0-0.7,0.5c0,0.2,0.1,0.3,0.4,0.4c0.1,0,0.3,0,0.4,0
		c2.4,0,4.2-1.7,4.2-4.1c0-0.9-0.5-1.7-0.9-2.1C238,463.8,237.3,463.1,235.2,463.1z"/>
	<path class="st0" d="M271.5,474.8c-0.1,0-0.2,0-0.4,0c-0.2,0-0.8-0.2-1.6-1c-0.8-0.8-1.7-2-2.9-3.5l-0.4-0.5c1.4-1.2,2-2.3,2-3.6
		c0-1.1-0.6-2-1.2-2.4c-0.9-0.6-2.1-0.7-3.1-0.7c-0.2,0-0.7,0-1.1,0c-0.4,0-0.9,0-1.2,0c-0.1,0-0.4,0-0.6,0c-0.4,0-1,0-1.5,0
		c-0.4,0-0.6,0.1-0.6,0.4c0,0.1,0.1,0.4,0.5,0.4c0.2,0,0.5,0,0.6,0c0.4,0.1,0.4,0.2,0.5,0.7c0,0.5,0,0.9,0,3.3v2.8
		c0,1.4,0,2.7-0.1,3.3c-0.1,0.4-0.1,0.6-0.2,0.6c-0.1,0-0.3,0.1-0.5,0.1c-0.5,0-0.5,0.3-0.5,0.4c0,0.1,0.1,0.4,0.6,0.4
		c0.4,0,0.9,0,1.3,0c0.3,0,0.5,0,0.6,0c0.1,0,0.3,0,0.5,0c0.5,0,1.2,0,1.8,0c0.5,0,0.6-0.3,0.6-0.4c0-0.2-0.1-0.4-0.5-0.4
		c-0.2,0-0.5,0-0.7-0.1c-0.2,0-0.3-0.1-0.4-0.6c-0.1-0.7-0.1-1.9-0.1-3.4v-0.1l1.2,0c0.1,0,0.1,0,0.1,0c0.1,0.1,0.4,0.5,0.7,1
		c0.3,0.4,0.6,0.8,0.8,1.2c0.9,1.3,1.6,2,2.3,2.4c0.5,0.3,0.9,0.3,1.8,0.3h1.5c0.5,0,0.6-0.3,0.6-0.4
		C272,475,271.8,474.8,271.5,474.8z M262.9,464.4c0.1,0,0.4,0,0.7,0c0.8,0,2.1,0.6,2.1,2.6c0,1.4-0.5,1.9-0.8,2.2
		c-0.2,0.2-0.4,0.2-1,0.2c-0.4,0-0.8,0-1.1-0.1c0,0,0,0,0,0L262.9,464.4z"/>
	<path class="st0" d="M296,462.8c-4.7,0-6.8,3.4-6.8,6.5s2.1,6.5,6.7,6.5c4,0,6.8-2.8,6.8-6.8C302.7,465.3,300.1,462.8,296,462.8z
		 M300,469.6c0,4.4-2.4,4.8-3.4,4.8c-2.7,0-4.6-2.3-4.6-5.6c0-4.1,2.3-4.7,3.6-4.7C298.2,464.1,300,466.4,300,469.6z"/>
	<path class="st0" d="M329.3,462.8c-4.7,0-6.8,3.4-6.8,6.5s2.1,6.5,6.7,6.5c4,0,6.8-2.8,6.8-6.8C336,465.3,333.4,462.8,329.3,462.8z
		 M333.2,469.6c0,4.4-2.4,4.8-3.4,4.8c-2.7,0-4.6-2.3-4.6-5.6c0-4.1,2.3-4.7,3.6-4.7C331.4,464.1,333.2,466.4,333.2,469.6z"/>
	<path class="st0" d="M363.7,462.9c-0.1,0-0.2,0-0.3,0.1c0,0,0,0-0.1,0c-0.1,0-0.2,0-0.4,0l-0.1,0c-0.2,0-1.8,0-4.2,0
		c-0.2,0-0.4,0-0.6,0l-0.4,0c-0.2,0-0.4,0-0.6,0c-0.2,0-0.4,0-0.6,0c-0.4,0-0.6,0.1-0.6,0.4c0,0.1,0,0.4,0.5,0.4c0.2,0,0.5,0,0.6,0
		c0.4,0.1,0.4,0.2,0.5,0.6c0,0.5,0,0.9,0,3.3v2.8c0,1.5,0,2.7-0.1,3.3c-0.1,0.4-0.1,0.6-0.2,0.6c-0.1,0-0.3,0.1-0.5,0.1
		c-0.5,0-0.5,0.3-0.5,0.4c0,0.3,0.2,0.4,0.6,0.4c0.3,0,0.8,0,1.2,0c0.3,0,0.6,0,0.8,0c0.2,0,0.4,0,0.7,0c0.5,0,1.1,0,1.7,0
		c0.5,0,0.6-0.3,0.6-0.4c0-0.1-0.1-0.4-0.5-0.4c-0.2,0-0.5,0-0.8-0.1c-0.2,0-0.3-0.1-0.4-0.6c-0.1-0.7-0.1-1.8-0.1-3.3v-1.1
		c1.1,0,1.9,0,2.1,0c0.4,0.1,0.6,0.3,0.6,0.4c0.1,0.2,0.1,0.3,0.1,0.4c0,0.3,0.2,0.5,0.4,0.5c0.2,0,0.4-0.1,0.4-0.6
		c0-0.1,0-0.8,0.1-1.1c0-0.3,0.1-0.5,0.1-0.7c0-0.2,0-0.3,0-0.3c0-0.3-0.2-0.4-0.4-0.4c-0.2,0-0.3,0.1-0.4,0.3
		c-0.1,0.1-0.2,0.2-0.5,0.2c-0.2,0-0.4,0-0.7,0l-1.9,0l0-3.8l2.3,0c0.5,0,0.7,0.2,0.8,0.3c0.1,0.2,0.1,0.4,0.1,0.5
		c0,0.4,0.3,0.5,0.4,0.5c0.1,0,0.4-0.1,0.4-0.5c0-0.1,0-0.5,0.1-0.9c0-0.2,0-0.4,0-0.4c0-0.2,0.1-0.4,0.1-0.5c0-0.1,0-0.2,0-0.3
		C364.1,463.1,363.9,462.9,363.7,462.9z"/>
	<path class="st0" d="M212.7,88.4c1.1,4.1,1.3,8.5,5.5,12.3c6.6,6,10.1,9.1,13,12.9c-4,0.5-8.4,1.5-12.7,3.9c-3,1.6-5.2,3.8-6.3,6.7
		l0,0c0,0-4.5,1.9-4.4,6.1c0.1,4.8,5.1,5.5,5.1,5.5c-1.1-1.6-0.2-3.3,2.2-4.2c0.9-0.4,1.8-0.5,2.4-0.4c0.6,0.1-0.4,1.2-0.8,2.8
		c1.7-1.7,2.7-2.6,3.3-2.4c0.6,0.2-0.1,2.9-0.2,4.4c0.6-0.9,2.4-4.8,2.7-5.4c0.3-0.6,0.2-1.2-0.2-1.3c-0.4-0.1-1-0.3-3.3-0.2
		c-9.5,0.7-8.1,4.6-8.1,4.6s-1.8-0.6-1.8-3.1c0-2.9,3.4-4.4,4.5-4.8c0.5-0.1,1-0.1,0.6,0.4c-0.6,0.7-0.6,1.1-0.4,1.2
		c0.8,0.4,3-0.8,3-0.8c0.2-0.7,1-2.2,2.3-2.3c0.9,0,0.5,1.2,0.5,1.2c3.3-3.6,7.2-5.3,7.2-5.3c-3.4-0.2-6.9,1.8-10.2,4.1
		c-2.1,1.5-2.9,0.6-2.6-0.1c1-2.1,2.8-3.9,5.2-5.2c7.9-4.3,19-5,23.2-5c-0.5,1.3-0.4,2.4,0.1,3.3c0.2-1.4,0.7-3.3,3.7-6.5
		c5.9-6.2,10.8-15.2,13.6-25.8c0.4-1.4,0.7-2.6,2.9-4.6c1.3-1.2,3.3-2.6,5.9-4.6c11.2-8.9,11.5-11.5,11.4-12.5
		c-0.7,0.8-2.9,3.9-12.3,11.4c-2.2,1.7-4.2,3-5.8,4.4c-0.5,0.5-1,0.9-1.4,1.4c0.5-1.3,0.3-2.6-0.6-4.2c-0.6-1.2-1.5-1.1-2-0.8
		c-0.4,0.3-0.7,0.9-2.7,3.3c1.9-0.2,2.4-1.7,3.1-1.7c0.7,0,1.9,1.6,0.2,3.8c-2.5,3.3-5.3,5.4-7,6.5c-0.9,0.4-1.6,0.2-0.8-0.7
		c3.5-3.5,7-6.6,6.9-7.9c-2,2-5.1,5-7.8,7.1c-1.1,0.8-1.6,0.2-0.7-0.9c2-1.9,5.5-5.3,6.8-7.7c1.3-2.3,1.1-4.7-0.4-6.5
		c-0.6-0.8-1.1-0.8-1.5-0.4c-0.5,0.5-0.7,1.1-2.5,3.9c1.8-0.4,2.3-2.2,3-2.3c0.7-0.1,1.7,1.4,0.4,4.1c-1.1,2.1-3.3,4.7-5.2,6.6
		c-1.3,1.4-2.8,1.3-1.8,0.1c3.2-3.9,6.9-7.8,6.6-9.5c-2.2,3-4.1,5.4-7.4,8.5c-1,0.9-1.9-0.1-1-1.2c1.9-2,4.6-4.9,5.8-7.2
		c1.3-2.5,1.2-4.6-0.3-6.3c-0.7-0.8-1.2-0.7-1.7-0.5c-0.5,0.2-0.6,1.1-2.4,4.1c1.8-0.5,2.2-2.5,2.9-2.6c0.6-0.1,1.9,1.2,0.6,4.1
		c-1,2.1-3,4.7-4.9,6.8c-1.2,1.4-2.4,1.3-1.6,0.1c2.7-4.1,6.1-7.7,5.7-9.4c-1.9,3-3.9,5.7-6.6,8.7c-0.8,0.9-1.5,0.2-0.9-0.8
		c1.6-2.1,4.4-6,5.4-8.7c1-2.6,0.8-4.7-1-6.2c-0.5-0.4-1.3-0.5-1.8-0.1c-0.4,0.3-0.5,1.2-1.9,4.4c1.7-0.7,1.9-3.1,2.5-3.2
		c0.6-0.2,2.1,0.9,1.1,4c-0.8,2.6-2.8,5.7-4.3,7.8c0,0,0,0,0,0c-0.9,1.6-2.5,1.7-1.8,0.3c2.2-4.5,5.5-8.6,5-10.4
		c-1.6,3.3-3.6,6.4-5.9,9.6c-0.8,1.1-1.7,0-1-1.3c1.5-2.6,3.7-6.5,4.4-9.1c0.8-2.9,0.6-5.3-1.2-6.7c-1.3-1-1.6-0.7-1.9-0.3
		c-0.4,0.6-0.3,1.2-1.5,4.7c1.5-0.9,1.7-2.9,2.3-3.1c0.6-0.2,2,1.3,1.2,4.6c-0.7,2.9-2.6,6.5-4.1,9c-0.7,0.9-1.6,0.6-1.1-0.6
		c1.7-4.6,4.4-8.9,3.7-10.8c-1.2,3.4-2.8,6.6-4.6,10c-0.5,1-1.4,0.4-1.3-0.5c1.1-2.6,3.2-7.8,3.8-11.2c0.6-3.3-0.4-5.2-2.1-6.4
		c-1.2-0.9-1.8-1-2.3-0.5c-0.3,0.4-0.3,1.5-1.2,5.5c1.3-1.2,1.6-3.5,2.1-3.9c0.5-0.3,2.4,0.8,1.9,4.5c-0.5,3.4-1.9,7.8-3,10.6
		c-0.7,0.6-1.7,0.2-1.4-0.9c0.7-3,3.4-9.7,2.7-11.6c-1.2,3.8-2.2,6.8-3.6,10.6c-0.5,1.2-1.9,0.5-1.9-1.1c0.7-2.7,2.1-8.4,2.2-12
		c0.1-3.4-0.7-5.2-2.5-6.5c-1.3-1-2.4-1.1-2.8-0.7c-0.3,0.3-0.1,1.6-0.4,5.7c1.1-1.2,1.1-3.7,1.6-4c0.4-0.3,2.7,0.9,2.7,4.8
		c0,3.4-0.7,7.5-1.4,10.4c0,0,0,0,0-0.1c-0.3,2-2.1,1.7-1.9,0.2c0.2-2,2.3-12.1,1-13.4c-0.3,5.2-1.5,11.3-2.3,13.3
		c-0.5,1.2-2.3,1.2-2.2-0.3c0.6-3.5,1.4-9.1,1.3-12.5c-0.1-3.5-2.2-5.5-3.9-6.6c-1.4-0.9-2.8-1.1-3.1-0.7c-0.3,0.3,0.1,5.8,0.1,10.1
		c1.2-1.5,1-7.9,1.4-8.3c0.4-0.4,3.6,1.1,3.9,5.2c0.2,2.4-0.3,7.1-0.7,10.7c-0.3,1.9-2,1.6-1.9,0.1c0.2-2,1.4-12.3,0.1-13.6
		c-0.3,5.2-0.6,11.6-1.4,13.6c-0.5,1.2-1.5,1.3-2-0.2c-0.4-3.3-1.1-9.3-1.9-12.9c-0.8-3.8-3.9-5.8-5.3-6.5c-1.6-0.7-3.9-0.6-4.2-0.3
		c-0.2,0.3,1,3.7,2.5,8.6c0.1-2.3-1-6.4-0.7-6.8c0.3-0.4,4.9,0.9,5.9,4.7c0.8,2.9,1.8,9.4,2.3,13.1c-0.1,1.5-1.8,1.2-1.9-0.1
		c-0.1-2.2-2.4-14.3-3.9-15.1c0.8,5.6,2.9,12.9,2.8,15.1c-0.1,1.4-1.8,1.3-2.4-0.2c-0.9-3.3-2.8-9.3-5.2-13.6
		c-3.2-5.8-8.5-5.5-8.7-5.5c0,0,4.3,1.6,7.3,6.4c2.8,4.5,5,11.3,5.8,14c-0.9,0.3-1.8-0.4-2.2-1.4c-0.9-2.3-5.7-13.6-7.9-14.7
		c2,3.3,6.7,14.3,6.9,15.1c0.3,0.8,0.8,1.8,1.8,2.3c0.6,0.3,1.5,0.2,2.3,0.4c1.5,0.5,3.2,1.9,3.9,5.3c0.6,3.1,1.1,6,1.6,8.8
		c-0.7,0.4-2-0.2-2.3-1.2c-0.5-2.1-2.5-9.8-4.3-10.6c1.8,4.6,3.3,10.3,3.5,10.9c0.1,0.7,0.5,1.5,1.4,1.8c0.7,0.3,1.3,0.1,2,0.7
		c0.5,2.8,1,5.5,1.6,8.1c0.3-2-0.3-5.2-0.6-7.7c0-0.2,0-0.4-0.1-0.6c0.5-0.3,1.7-0.8,3.5,0.7c1,0.9,2.2,2.5,2.3,4.8
		c0.1,2.8,0,5,0,6.7c0,0,0,0,0,0c-0.1,1.9-1.6,0.5-1.8-0.8c-0.4-2.9-0.3-9.2-1.8-10.1c0.5,4.7,0.6,6.1,0.7,9.2c0,0.9-0.3,1-0.7,0.5
		c-0.4-0.5-0.8-1-1.1-1.4c0,0,0,0,0,0l0,0l0,0c0,0.2,0.1,0.6,0.2,1.1c-0.2,0.4-1.2,0.3-1.6-1c-0.9-3.2-2.4-7.7-2.9-7.5
		c0.2,1.1,1.8,6.8,2.1,7.7c0.3,0.9,0.7,1.6,1.3,2c0.6,0.3,1.2-0.4,1.2-1.1c0.3,1.2,1.1,3,3.5,5c2.2,1.8,12.8,12.7,15.4,17.9
		c-0.3,0-0.7,0-1,0c-3.9-6.4-11.4-13.4-14.4-16.3c-1.6-1.5-2.9-2.4-3.9-4.2c0,0.8,0.1,2.5,3.2,5.1c3.4,2.9,10.9,11,13.7,15.3
		c-0.9,0-1.8,0-2.8,0.1c-2.4-3.4-6.4-7.6-13.8-14.5c-3.8-3.5-4-6.8-5.1-10.8c-0.3-1-0.6-2.2-1-3.5c-2.7-9.1-8.8-26.3-12.6-32.8
		c-4.5-7.6-6.4-7.5-6.4-7.5c7.1,8.8,14.6,30.6,17.6,40.7C212.2,86.2,212.5,87.4,212.7,88.4z M248.4,87.4c3,0.7,3.3,3.5,2,5.9
		c-0.6,1.1-2.2,2.9-3.6,4.4c-0.8,0.4-1.3-0.5-0.8-1.4c1.3-2.1,3.8-5.2,3-6.8c-0.4,0.7-1.6,3.3-4,6.3c-0.6,0.8-1.8-0.4-1.2-1.3l0,0
		c0.9-1.1,2.2-2.9,3.8-5.8c0.2-0.4,0.4-0.9,0.5-1.3C248.2,87.4,248.3,87.4,248.4,87.4z M253.8,89.6c3-2.3,4.2-3.7,4.7-4.4
		c-0.2,0.9-0.5,1.9-0.8,2.9c-1.4,1.1-2.7,1.9-3.7,2.5C253.2,90.8,252.9,90.3,253.8,89.6z M250.6,103.2c-0.2-0.2-0.4-0.6-0.2-1.1
		c0.6-0.4,1.2-0.9,1.8-1.4C251.7,101.5,251.2,102.3,250.6,103.2z M247.4,104.7c-1,1.9-2.4,4.1-5.6,7.3c-0.9,0.8-1.2,0.2-0.7-0.5
		c1.6-1.4,4.3-4.1,5.8-7.2c0-0.1,0.1-0.2,0.1-0.3c0,0,0,0,0,0C247.1,104.2,247.2,104.4,247.4,104.7z M225.4,85
		c0-1.3-0.3-2.3-0.8-3.2c0,0,0.1,0,0.2,0c4.4,0.2,4.9,4.2,4.8,5.6c-0.3,3.4-0.9,6.4-1.4,8.5c-0.4,1.5-1.1,0.3-1-1
		c0.3-2.8,1-8.5-0.3-10.7c0.1,2.5-0.1,5.7-0.6,10.5c-0.1,1.2-0.9,1.2-1,0.2C225.3,93.5,225.6,90.2,225.4,85z M231.4,86.7
		c3.4,1,3.5,4.1,3.3,5.4c-0.6,3.7-2.1,7-3,8.7c-0.6,0.9-1.1-0.6-0.8-1.7c0.9-2.7,2.6-8.1,1.7-10.5c-0.4,2.5-1.1,5.6-2.6,10.2
		c-0.4,1.4-1.1,0.8-1-0.7c0.5-1.8,1.5-5.8,1.9-10.6c0-0.3,0-0.5,0-0.8C231.1,86.7,231.2,86.7,231.4,86.7z M243.4,83.9
		c0.1-0.4,0.2-0.8,0.3-1.2c0.9-0.1,2.7,0,3.2,2.1c0,0.1,0.1,0.4,0,0.6c0,0,0,0,0,0l0,0c0,0.8-0.2,1.9-0.6,2.6
		c-1.2,2.4-2.2,4.1-3,5.2c0,0,0,0,0-0.1c-0.6,1-1.6-0.1-1.1-1.1c0.9-1.8,3.7-6.3,2.9-7.8c-0.4,0.7-1.5,3.7-3.9,7.3
		c-0.5,0.8-1.6,0-1.3-1C240.9,89.3,242.3,87.1,243.4,83.9z M252.3,91.2c3.2,1.5,2.1,5,1.5,5.8c-1.2,1.6-2.8,3.2-4,4.1
		c-0.2,0.1-0.3,0.2-0.5,0.3c-0.5,0.1-0.7-0.4-0.2-1.1c1.7-2.1,4.2-5.1,3.6-6c-0.4,0.7-2,2.7-4.6,5.6c-0.7,0.7-1.5,0.4-1-0.5
		c1-1,2.5-2.6,4.1-4.8C251.9,93.6,252.3,92.1,252.3,91.2z M239.9,110.6c-0.4,0-0.5-0.5,0-1c2-1.8,5.7-6,5.2-8.1
		c-1,1.9-2.4,4.2-5.7,7.5c-1,1-1.5,0-0.7-0.8c0,0-0.1,0.1-0.1,0.1c1.6-1.6,4.3-4.5,5.8-7.6c0.1-0.2,0.2-0.5,0.3-0.7l0.4,0.4
		c0.6,0.7,1.1,2,0.4,3.4C244,106.7,241.4,109.3,239.9,110.6z M237.2,106.3c1.8-2.1,5.1-6.7,4.6-8.9c-0.9,2.1-2.1,4.6-5.1,8.3
		c-0.8,1-1.4,0.6-1-0.3c1.2-1.6,3.8-5.3,5-9c0.1-0.3,0.2-0.7,0.1-1.2c1.5,0.6,3.2,2.4,2.2,4.8c-1.1,2.7-3.5,5.3-5.1,6.9c0,0,0,0,0,0
		C237.1,107.9,236.5,107.1,237.2,106.3z M236.2,90.3c3.7,1.7,3.4,4.8,3.1,5.7c-0.9,2.7-2.7,5.5-3.9,7.4c-0.9,1.2-1.5,0.1-0.8-0.9
		c1.5-2.4,3.8-7.4,3.1-9.7c-0.6,2.4-1.6,5-3.8,9.2c-0.6,1.1-1.3,0.8-1.1-0.1c0.9-1.7,2.6-5.4,3.3-9.5c0.1-0.7,0.1-1.4,0-2
		C236.1,90.3,236.2,90.3,236.2,90.3z M236.3,90.3c0.1,0,0.3,0,0.4,0C236.6,90.3,236.5,90.3,236.3,90.3z M254.9,92.5
		c-0.2-0.3,0-0.7,0.1-0.9c0.5-0.3,1.1-0.7,1.9-1.2c0,0.1-0.1,0.2-0.1,0.3C256.5,91.6,255.2,92.9,254.9,92.5z M238,77.4
		c0,0,0.1,0,0.1,0C238.1,77.4,238,77.4,238,77.4C238,77.4,238,77.4,238,77.4z M237.9,79c0.1-0.5,0.1-1,0.1-1.6
		c0.7-0.1,2.7-0.5,3.9,2.3c0.4,0.8,0.4,2.6,0,3.7c-0.9,2.7-1.9,4.6-2.7,5.9c-0.6,0.5-1.4-0.4-1-1.5c0.6-1.7,2.5-6.7,1.8-8.1
		c-0.4,0.9-1.4,4.6-2.9,7.6c-0.5,0.9-1.7,0.8-1.7,0C236.1,85.8,237.2,83.2,237.9,79z M229.4,68.6c0.8,0.8,1.2,3,1,4.6
		c-0.3,3.3-0.6,5.8-0.9,7.5c-0.5,1.1-1.4,0.7-1.4-0.5c-0.1-2.2,0.1-8.8-0.8-10.3c-0.1,1.2-0.1,5.4-0.5,9.7c-0.1,1.4-1.6,0.7-1.7-1
		c0.2-1.9,0.3-4.6,0.2-7.5c-0.1-1.5-0.5-3.1-1.1-4.4c0.1,0,0.3-0.1,0.5-0.1c0,0-0.1,0-0.1,0C225.9,66.6,228,67.1,229.4,68.6z
		 M242.7,113.8C242.7,113.8,242.7,113.8,242.7,113.8C242.7,113.8,242.7,113.8,242.7,113.8C242.7,113.8,242.7,113.8,242.7,113.8z
		 M245.7,109.6c-1,1.1-1.7,2-2.2,2.9c-1,0.9-1.9,0.9-1.2,0.2c1.9-1.7,5.1-5.4,5.2-7.6c0.2,0.7,0.3,1.7-0.4,2.9
		C246.6,108.4,246.2,109,245.7,109.6z M259.4,82.4c-0.3,0.6-0.5,1.2-0.7,1.9c0,0.1,0,0.1,0,0.2c-0.6,0.5-2.8,2.4-5.4,4.2
		c-1,0.7-1.7,0.4-1-0.2C253.7,87.6,256.8,85.4,259.4,82.4z M232.7,72.5c1,0,2.1,0,3.2,1.7c0.6,0.9,0.8,3,0.5,4.6
		c-0.5,2.8-1.1,4.8-1.5,6.2c0,0,0,0,0,0c-0.5,1.4-1.7,0.6-1.6-0.6c0.2-1.9,1.5-9.1,0.7-10.5c-0.3,1-1,6.1-2,9.7
		c-0.3,1-1.3,0.7-1.4-0.1c0.3-1.3,0.8-4.5,1.4-10.1c0-0.2,0-0.5,0-0.7C232.1,72.6,232.4,72.5,232.7,72.5z M217.9,77.1
		C217.8,77.1,217.8,77.2,217.9,77.1c-0.4-2.6-0.9-5.8-1.3-8.3c-0.3-1.8-0.9-3-1.7-3.9c0.4-0.3,1.2-0.8,2.4-0.9c2.7-0.1,4,0.9,5,2
		c1.4,1.5,1.7,3.9,1.7,5c0.1,3.1,0.1,5.8,0,7.5c-0.5,1.3-2.1,0.9-2.2-0.4c-0.1-2.2-0.7-10.8-2.2-11.6c0.8,5.6,0.9,8.6,0.8,10.9
		C220.3,79,218.3,78.8,217.9,77.1z"/>
	<path class="st0" d="M241.1,118.6c-9.6-0.1-14.8,4.3-14.8,4.3c12.8-4.3,20.9-0.2,20.9-0.2c-3.1-2.9-6.5-2.7-6.8-3.2
		C240.1,119.1,241.1,118.6,241.1,118.6z"/>
	<path class="st0" d="M223.8,129.8c4.3-2.1,8.2-2.8,11.7-2.7c7.7,0.1,12.6,2.8,12.6,2.8c-2.4-2.8-5.6-3-5.9-3.5
		c-0.3-0.5,1.3-1,1.3-1C229.6,123.4,223.8,129.8,223.8,129.8z"/>
	<path class="st0" d="M248.1,126.4c-2.8-2.9-5.7-3-6-3.4c-0.3-0.5,0.7-0.9,0.7-0.9c-12.8-1-18.5,4.1-18.5,4.1
		C240.5,121.6,248.1,126.4,248.1,126.4z"/>
	<path class="st0" d="M222.1,135.7c1.2-1.5,2.6-3.1,4.6-4.4c2.8-1.7,8.3-1.8,10.8,3.1c1.8,3.4,3.9,7.2,6.7,10.6
		c-2.1,1.5-5.8,4.9-8.3,8.9c4.5-4.1,8.1-6.6,9.5-7.5c0.4,0.4,0.7,0.8,1.1,1.2c-1.4,0.9-5.8,3.9-8.9,7.5c5.4-3.4,9-5.4,10.3-6.2
		c0.2,0.2,0.4,0.4,0.6,0.5c-1.5,1-5.8,3.9-8.7,7.4c5.4-3.4,8.9-5.4,10.3-6.2c0.2,0.1,0.4,0.3,0.6,0.4c-1.3,0.8-4,2.7-6.4,5.1
		c-0.5-0.1-1.1-0.1-1.7,0c2.6,1.1,3.2,2,4.2,3.3c2.4,3.1,8.5,0.5,10.9-1.8c1.4-1.3,6-6.8,12.8-11.4c-0.4,0-0.7,0.1-1.1,0.2l0-0.1
		c0,0-5.8-1.9-14.1-8.4c2.7,4.5,9.2,8.1,11.7,9.3c-0.2,0.1-0.4,0.2-0.6,0.4c-1.8-0.7-7.3-3-13.8-7.8c2.8,4.7,9.3,7.9,12,9
		c-0.2,0.2-0.5,0.4-0.7,0.6c-2.4-0.8-7.8-3-13.8-7.5c2.6,4.8,9.2,7.7,12.2,8.9c-0.2,0.2-0.4,0.4-0.6,0.6c-2.4-0.8-7.6-2.8-14-7.4
		c3.3,4.9,9.5,7.8,12.3,8.9c-0.1,0.1-0.2,0.2-0.4,0.4c-9.9-3.3-16.8-12.4-20-18.6c0.6,0.7,1.5,1.8,2.6,3.4c2.4,3.3,5.1,5.6,5.1,5.6
		s-2.7-5-4.1-7.4c-1.3-2.4-2.9-5.2-2.9-5.2s1.8,2.2,3.7,4.7c2.7,3.6,4.6,4.9,4.6,4.9s-1.4-2.9-3.1-5.5c-1.6-2.6-2.5-4.2-2.5-4.2
		s1.1,0.8,2.8,2.8c1.6,1.9,1.8,2.1,3.4,3.7c0,0-0.4-1.8-2.4-4.6c-0.5-0.7-0.9-1.2-1.2-1.6c1.1,0.3,2.1,0.7,3.1,1
		c-1.8-2.8-7.2-4.3-11.8-4.6c-4.7-0.2-7.6,0.7-8.4,1.1c0,0,0,0,0,0c-0.9,0.3-1.7,0.7-2.6,1.2c-2.5,1.5-5.8,6.3-5.8,6.3
		S221.8,136.1,222.1,135.7z M256.2,156.7c-2.6,2.5-6.8,3.4-8.5,1.7c-0.7-0.7-1.3-1.6-2.4-2c4-2.8,5.5-3.1,6.8-3.5
		c0.7-0.2,1.6,0.1,1.6,0.1l0,0c1.3,0.7,2.8,1.4,4.3,1.9C257.4,155.5,256.8,156.1,256.2,156.7z"/>
	<path class="st0" d="M282.7,69.4c0-0.8,0.3-2.4,1.7-4c3.7-4.3,8-9.3,8.2-12.6c-3.4,5.2-5.3,7.5-8.6,11.3c-1.3,1.5-2.1,1-2.3,0.7
		c-0.1-0.2-0.2-0.3-0.3-0.4c0.4,2,1,4.8-1.2,7.4c-3.4,4.1-10.1,8.4-11.5,9.3c-2.1,1.4-3.1,3-3.7,5.2c-0.6,2.2-3.1,12.1-11.7,24.1
		c-0.7,1-2,2.5-3.4,4.3c-1,1.3-1.7,3.2,0,4.8c-0.1-0.4-0.2-0.8-0.1-1.1c0.2,0.2,0.4,0.4,0.6,0.6l0,0c0,0,2.9,4.4,6.7,4.8
		c0,0-1.5-0.8-3.2-2.3c1.7,0.9,3.7,1.7,6.3,2.3c1.4,0.3,2.5,0.2,3.5-0.1c0,0,0,0.1,0,0.1c-1.9,2.3-4.7,2.3-5.9,1.9
		c-3.3-1-5.2-3-6.6-4.5c0.5,1.7,2.4,4.6,5.5,5.9c0.2,0.4,0.8,1.3,1.8,2.3c-2.8-1.4-4.8-2.1-6.3-2.4c2.2,1.6,6,3.7,10,6.2
		c0.1,0.1,0.1,0.3,0.2,0.4c-3.4-1.3-6.3-2.4-8.1-2.7c2.1,1.5,5,2.8,9.2,5.1c0.3,0.5,0.6,1,0.9,1.4c-2.6-1-4.4-1.5-6.4-1.7
		c2.9,1.6,6.4,3.2,12.1,5.5c0.1,0.3,0.2,0.6,0.4,0.9c-3-1.3-5.4-2.2-9-3.1c2.7,1.8,6.2,3.4,9.9,5c0.1,0.3,0.3,0.6,0.4,0.8
		c-1.3-0.3-2.4-0.5-3.8-0.7c0.4,0.5,2.2,1.5,4.3,2.3c-2.5,1.7-6.8,5.5-9,8.1c5.1-3.4,9.1-5.8,10.3-6.6c0,0,0,0,0,0
		c-0.5,0.4-6.1,5.1-14.5,11.1c5.2-2,14.1-7.7,16-8.9c0,0,0,0,0,0c-0.7,0.7-4.2,3.8-9.5,6.8c-5.9,3.3-10.9,4.3-14.8,4.9
		c-3.9,0.6-5.5,1.1-8.1,2c-2.7,0.9-5.3,1.2-6.5-0.3c0.6,3,3.2,2.7,5.3,2.2c0.3-0.1,1.3-0.2,1.2,1.2c1.1-0.4,1.4-2,3.2-2.6
		c1.2-0.3,2.7-0.6,5.5-1c6.8-0.9,10.1-2,15.4-4.8c4.6-2.4,8.7-5.2,10.1-6.3c0,0,0,0.1,0.1,0.1c-1.3,1.1-6.9,5.6-12.5,8.1
		c-7.1,3.3-13.1,3.5-14.3,3.7l0,0l0,0c-0.3,0-2.7,0.4-3.6,0.8c-0.8,0.4-1.3,0.9-2.1,1.7c-2,1.8-4.2,2.3-4.2,2.3
		c1.4,0.4,4.1-1,5.5-2.2c-0.9,1-2.4,2.4-3.7,2.8c-2.8,1-4.6-0.1-5-0.6c-0.1,1.2,1.6,3.3,5.5,2c1.6-0.6,2.4-1.5,4.5-3.4
		c1-1.1,2-1.6,3.1-1.8c0.3,0,0.7-0.1,0.8,0.3c0.3,0.8-0.3,2.3-2.3,3.3c0,0,3.8,0.4,4.6-4.1c2.5-0.4,6.3-1.1,10.3-2.7
		c2.3,5.8,5.6,9.2,7.8,10.5c1.6,0.9,3.4,0.8,3.4,0.8s-1.8-0.7-3.8-2.4c-1.8-1.5-3.9-4.1-5.6-7.8c-0.5-1.3-0.1-1.7,0-1.8c0,0,0,0,0,0
		c1.7,3.6,3.9,7.3,7.2,9.8c1,0.7,1.8,1.1,2.4,1.4c0.7,0.4,1.3,0.7,1.9,0.9c1.2,0.5,2.6,0.6,3.7,0.2c0,0-1.7-0.3-4.1-1.7
		c-1.2-0.7-5.3-3.3-8.5-9.2c-0.8-1.6-0.6-2.3-0.4-2.4c0,0,0,0,0,0c2.4,5,5.3,8.1,9,10.6c1.7,1.2,3.2,1.6,4.3,1.8
		c0.3,0.1,0.6,0.2,0.9,0.3c2,0.6,4.1,0.6,5.6-0.4c0,0-1.8,0.4-5-0.8c-3-1.1-8-4.9-11.6-10.3c-1-1.8-0.9-2.4-0.7-2.7c0,0,0,0,0,0
		c3.3,5.5,6.8,8.5,10.8,11c2,1.2,3.8,1.6,5.2,1.7c0.3,0.1,0.6,0.2,0.8,0.2c3.4,0.9,6.6-0.5,7.6-1.8c3.3,0.1,6-1.4,6.4-2.6
		c-1.9,1.3-3.6,1.7-7.7,0.9c-4.2-0.8-11.8-5.3-17-11.7c-0.7-1.1-0.3-2-0.2-2.3l0,0c4.4,5.2,8.8,8.2,13.6,10.6c3.1,1.5,5.6,1.7,7,1.6
		c0.7,0.2,1.4,0.3,2.1,0.4c4.4,0.6,8-1.3,8.5-2.6c-1.6,1-3.9,1.6-8.3,1.1c-5.1-0.6-15-5.7-20.9-12.8l0,0c1.6,1.2,2.8,1.4,2.8,1.4
		c-3.7-3.6-5.7-7.8-6.9-11.3c1.5,2.7,3.8,6.3,6.3,9.2c5,5.8,16.2,11.1,23.4,12c4.3,0.5,5.7-1.2,5.7-1.2c-7.8,0.7-23.6-7-27.9-12.2
		c-3.7-4.5-6.9-10.6-7.7-12.1c2.7,0.1,4.2-2.3,4.3-2.4c0,0-3,1.6-6,0.2c-1.6-0.8-3.2-2.3-4.2-3.4c0.4-0.1,0.8-0.2,1.1-0.3
		c1.2,1.3,3.1,2.9,5.3,3.1c0,0-2.5-1.3-4.6-3.5c0.3-0.2,0.5-0.3,0.7-0.5c0.7,0.5,4.3,3.1,7.2,3.7c4,0.9,6.4-1.6,7.1-3.1
		c0,0-3,2.3-6.8,1.4c-1-0.2-2.1-0.7-3.1-1.2c0,0,0,0,0,0c-1.6-0.6-1.1-1.9-0.1-1.5c5.2,2.1,6.2,1.2,6.2,1.2s-2.2-0.2-5.3-1.9
		c-0.9-0.5-0.3-1.4,1.1-1.1c1.4,0.8,3.8,1.8,6.8,2.2c4.2,0.5,6.3-2.2,6.8-3.8c0,0-2.4,2.6-6.5,2.2c-1.6-0.1-3-0.5-4.1-0.8
		c-1.2-0.6-0.8-1.6,0.1-1.4c5,1.2,5.8,0.3,5.8,0.3s-2.7-0.2-5.5-1.4c-0.9-0.4-0.4-1.7,1.4-1.4c1,0.6,2.4,1.2,4.1,1.3
		c3.1,0.3,5.2-1,6.3-2.2c1.2-1.2,1.7-2.6,1.8-2.6c0,0-3.2,3.5-8.1,3.1c-0.5,0-1-0.1-1.5-0.2c0,0,0.1,0,0.1,0
		c-1.6-0.4-1.3-1.9-0.1-1.8c5,0.8,6.3-0.5,6.3-0.5s-2.9,0.1-5.9-0.8c-1.1-0.3-0.6-1.9,1.4-1.6c1.2,0.4,3.1,0.9,5.8,0.8
		c3.6-0.1,5.7-1.8,6.7-3.3c1.1-1.6,1.4-3.1,1.4-3.2c0,0-2.4,4.6-8.2,4.7c-1.2,0-2.3,0-3.1-0.1c-1.2-0.4-0.6-2,0.6-1.9
		c3.7,0.2,7.1-0.1,7.9-1.2c-3.7,0.4-5.1,0.3-7.7-0.1c-1.2-0.2-0.7-1.6,1-1.7c1.3,0.4,3.5,0.8,6.8,0.5c3.6-0.4,5.8-2.4,6.9-4
		c1.3-1.7,1.7-3.3,1.7-3.4c0,0-2.6,4.6-8.5,5.8c-2,0.4-3.8,0.2-5.1,0c0,0,0,0,0.1,0c-1.3-0.3-0.7-2,0.5-1.9c3.5,0.1,7.9-0.2,9.6-2.5
		c-4.3,1.6-7,1.3-9.4,1.2c-1.2-0.1-0.7-1.5,0.9-1.7c2,0.1,5.3-0.1,10.2-1.6c8.3-2.5,9-8.6,9-10.2c-1.1,3.1-2.3,6.3-9.6,8.5
		c-2.9,0.9-5.2,1.3-6.9,1.5c-1.5-0.2-1.2-2.1,0.2-2.1c3.9-0.2,9.7-1.8,11.1-4c-4.2,1.5-8.3,2.4-10.9,2.5c-1.3,0-0.7-1.9,1.2-2.1
		c3-0.2,7.5-1,11.9-3.4c6.4-3.6,6.8-10.4,5.9-13.3c-0.3,3.4-1.3,8.6-6.8,11.7c-3.1,1.8-6.4,2.7-9,3.1c-1.6,0.1-1.5-1.4,1.1-2.2
		c3.4-1,10.3-4.2,11.4-7.2c-2.8,2.4-6.1,4.5-11.2,6.1c-1,0.3-1.3-1,0.4-1.8c2.7-1.3,7.4-4,11.8-8.6c2.8-3,6.7-9.1,4.2-14.9
		c0.6,5-1.1,9-5.2,13.5c-5.1,5.5-10.4,8.2-12,9c0.6-2.4,2-3.9,3.3-4.7c4.2-2.7,9.7-7.3,10-10.1c-2.6,3.2-5.7,5.7-10.2,8.4
		c-1.8,1.1-2.4-1.2-2.5-1.4c0,0,0,0,0-0.1c1.5-0.8,8.6-4.9,13.6-11.8c2.9-3.9,7-12.2,2.7-18.4c2.1,5.3,0,11.6-4,17.2
		c-4.9,6.8-11.5,10.7-12.5,11.3c0,0,0-0.1,0-0.1c0.2-1,1.2-4.6,3.3-6.1c3.9-2.9,10.1-9.6,10.6-12.7c-4.2,4.5-8.2,9.2-11.4,11.3
		c-1.4,1-2.2,0.8-2.6,0.5c0.6-2.3,0.2-4.1,0.1-4.1c0,0-0.1,3.2-3.9,7.6c-5.5,6.3-11.9,8.3-11.9,8.3l-0.2,1.8c0,0,7.7-2.4,13.4-9
		c1.1-1.3,1.8-2.7,2.2-3.9l0.2,5.7c0,0,0,0,0,0c0,0,0,5.2-4.8,8.2c-4.8,3-9.6,3.8-12.2,4c0.3-0.3,0.5-0.5,0.7-0.8l0,0
		c0,0,1.1-1.2,3.3-2c3.2-1.2,9.6-4.2,10.5-7.5c-4.2,3.3-7.5,5-10.7,6.2c-1.8,0.7-2.4-0.2-2.6-0.5c0-0.1-0.1-0.3-0.1-0.3
		c-0.5,1.6-1.5,4.5-6.7,5.5c-5.4,0.9-10.1,0.7-12.6,0.4c-1.2-0.2-0.5-1,0.5-0.9c2.5,0.2,10.7,0.2,12.4-1.7
		c-4.9,0.6-8.8,0.9-12.4,0.4c-1.3-0.2-1.1-1.1,0.1-1.2c2.7,0.4,8.5,0.8,14.6-1.8c1.9-0.8,3.1-2.1,3.7-3.6c0.1-0.3,0.2-0.5,0.3-0.8
		c0.2,0.7,0.3,1.4,0.3,1.4s0.5-2.2,3-3.8c3.2-2,9.2-7.2,9.7-10.3c-4.2,4.5-7.5,7.1-10.6,9.3c-1.7,1.2-2.3,0.7-2.5,0.5
		c-0.1-0.3-0.2-0.6-0.3-0.9c0.1,3.3-2.2,5.5-4.4,6.5c-4.9,2.2-10.1,2.3-13,2.1c-0.5-0.3,0.1-0.7,1-0.8c4.4-0.4,10.5-1.9,11.8-3.8
		c-4.7,1.8-8.6,2.4-12.1,2.7c-1.2,0.1-1.1-0.5-0.2-0.8c3.8-0.5,11.8-2.2,15.6-6.5c0.1-0.1,0.1-0.2,0.2-0.2
		c3.1-1.5,9.6-5.6,14.4-12.1c1.1-1.5,1.9-3,2.5-4.3l0.7,6.5c0,0,0,0,0,0l0.2,1.7c0.2-0.1,5.7-3.1,12.7-12.8c5.5-7.7,4-16.7,1.2-19.6
		c1.2,3.6,2.7,11.2-2.3,18.1c-6.3,8.8-11,12.2-11.7,12.6c0.1-1,0.6-4,3.5-7.1c2.6-2.8,9.6-12.1,9.4-16.9c-2.9,6.6-7.3,12.5-9.8,15
		c-2.2,2.3-3.3,2.3-3.7,2c0.6-1.3,0.9-2.6,1-3.7c2.3-2.7,7.5-9.5,10.6-17.3c2-4.9,2.3-9.2,1.3-11.7c0,1.2,0.3,3-2.7,10.7
		c-2.9,7.4-7.1,13.2-9.1,15.8c-0.1-0.6-0.2-1.1-0.3-1.5l0.1,0.1c0,0-0.5-1.2,1.3-4.5c2.7-4.9,7.8-13.8,7.2-19.3
		c-1.7,7.2-4.7,12.1-7.6,17c-1.8,3.1-3.3,2.4-3.3,2.4l0.5,0.9c0.4,1.2,3.2,6.6-3.2,14.8c-4.2,5.5-8.5,8.6-11.3,10.5
		c0.1-0.4,0.2-0.9,0.2-1.5c0-0.1,0-0.1,0-0.2c0.2-1,0.8-2.7,2.4-4c3-2.3,8.6-8,9.2-11.7c-3.8,5-6.9,8-9.8,10.4
		c-1.9,1.6-3.5,0.1-3.5,0.1l0,0l0,0l0,0c0,0,0,0,0,0.1c0.2,0.6,1.6,4.8-1.4,8.2c-3.2,3.6-9.4,5.5-13.2,6.4c-1.1,0-0.3-1,0.6-1.3
		c3.3-1.2,9.4-3.9,11.1-7.5c-4.5,3.3-8,5-11.2,6.4c-0.9,0.4-0.8,0-0.4-0.5c0.3-0.2,0.6-0.5,1-0.8c0.1,0,0.1-0.1,0.2-0.1c0,0,0,0,0,0
		c0.1-0.1,0.2-0.1,0.3-0.2c2.2-1.6,8.4-6,11.2-9.3c0.3-0.3,0.5-0.7,0.7-1.1c2.6-2,8.5-6.9,12.4-13.5c2.4-4,3.3-7.1,2.8-8.4
		c-0.2-0.6-0.6-0.8-0.7-0.8c0,0,0,2.5-3.3,8.1C289.4,63.6,284.8,67.7,282.7,69.4z M294.2,100.9c0,0.5-0.1,1.2-0.3,1.9
		c-0.2,0.6-2,4.6-7,5.1c-2.9,0.3-5.6-0.1-7.5-0.6c0,0,0,0,0.1,0c-1.5-0.4-1.1-1.4,0.3-1.2c2,0.2,9,0.7,11.7-2
		c-5.2,0.9-9.7,1-11.9,0.4c-1-0.3-0.4-1,0.5-1.2c2.6,0.1,7.2,0,12.5-1.7C293.2,101.3,293.7,101.1,294.2,100.9z M289.9,110.3
		c-1.1,4.6-5.7,4.5-7.2,4.3c-2.8-0.3-5.2-1.1-7-1.8c-1.5-0.8-0.5-1.9,0.8-1.4c1.9,0.6,7.5,2.4,10.3,0.4c-5-0.1-8.4-1.1-10.5-2.2
		c-1.2-0.6-0.2-1.7,1.5-1.1c2,0.8,5.3,1.7,9.1,1.3c1.2-0.1,2.2-0.4,3.1-0.9C290,109.4,289.9,109.8,289.9,110.3z M270.9,131.2
		c-0.4,0.2-3.1,1.4-6.3,0.4c-1.5-0.5-2.8-1.2-3.8-2c0.3,0.2,0.6,0.4,0.9,0.6c-0.9-0.8,0.1-1.4,0.7-1c1,0.5,3.5,1.7,4.9,1.5
		c-2.5-1.2-3.3-1.5-4.9-2.7c-1.1-0.8-0.4-1.8,0.5-1c0,0,0,0,0,0c1.6,1.1,5.3,3.5,7.7,3.8c0.3,0,0.6,0,0.9,0
		C271.3,131,271.2,131.1,270.9,131.2z M265.3,125.4c1.2,0.8,5.1,3.1,7.2,2.9c-4-1.8-5.1-2.5-7.1-4c-0.9-0.6-0.5-1.3,0.2-1
		c1.6,1.1,5.8,3.8,8.6,4.1c0.8,0.1,1.5,0,2.1-0.1c-0.7,0.7-2.6,2.4-5.4,2c-1.7-0.3-4.3-1.9-6.1-3.1
		C263.9,125.5,264.7,125,265.3,125.4z M274.3,125.6c-1.9-0.2-4.6-1.7-6.4-2.9c-0.8-0.7-0.1-1.4,0.8-0.9c1.5,0.8,5.7,3.1,8,1.6
		c-3.8-0.6-6.4-1.9-8-3c-0.9-0.7-0.1-1.4,1.3-0.9c1.8,1,4.8,2.5,7.9,3.2c0.8,0.2,1.5,0.2,2.2,0.1c0,0,0,0,0,0
		C279.4,123.7,277.4,126,274.3,125.6z M278,103.1C278,103.1,278,103.1,278,103.1C278,103.1,278,103.1,278,103.1
		C278,103.1,278,103.1,278,103.1z M273.7,109.7c-1.4,3.4-4.2,4.5-6.9,4.3c-4-0.4-7.5-2.2-9.6-3.5c-0.7-0.8,0.1-1.3,0.8-0.9
		c0.7,0.4,6.7,3.3,11.5,2.5c-4.7-1.1-8.8-2.4-11.4-4.1c-1.1-0.7-0.4-1.3,0.5-1.2c2.3,1.2,6.7,3.2,12.2,3.2c0.9,0,1.9-0.2,2.9-0.5
		C273.7,109.6,273.7,109.7,273.7,109.7z M254.1,114.9c-0.7-0.9,0.2-1.4,0.8-0.9c0.7,0.5,6.7,3.7,10.8,3.1c-4.7-1.3-8.3-2.8-10.7-4.7
		c-1-0.8-0.4-1.5,0.5-1.2c1.9,1.5,6.1,4.1,11,4.6c0.9,0.1,1.9,0,2.7-0.2c-1.2,2.7-3.5,3.1-5.7,2.9
		C259.6,118.2,256.2,116.3,254.1,114.9z M278.1,120.8c-2.8-0.6-5.2-1.7-6.8-2.5c-0.9-0.8,0.1-1.7,1.2-1.2c1.7,0.8,6.7,3.2,9.5,1.3
		c-4.6-0.5-7.7-1.9-9.5-3.2c-1.1-0.8-0.1-1.9,1.5-1.3c1.7,0.9,4.7,2.3,8.4,2.7c0.9,0.1,2,0,3-0.2c0,0.1-0.1,0.3-0.1,0.4
		c0,0,0-0.1,0-0.1C283.5,120.4,280.6,121.3,278.1,120.8z M277.9,103.1c0,0,0.1,0,0.1,0c-0.7,3-3.6,5.1-7.2,5.1
		c-4.8,0.1-8.8-1.4-11-2.5c-0.7-0.7,0.3-1.3,1-1c1.9,0.6,7.5,2.3,12.2,1.4c-5.6-0.9-9.7-1.8-12.2-3.1c-1.1-0.6-0.4-1.4,0.5-1.3
		c2.3,0.9,7.7,2.7,13.8,2.1C276.2,103.6,277.1,103.4,277.9,103.1z M260.1,122.1c-3.8-0.8-6.8-2.3-8.8-3.9c-0.5-0.6,0.3-0.8,0.8-0.4
		c0.9,0.7,5.1,3.3,9.1,3.2c-4.9-1.5-7.3-3.2-9.2-4.7c-0.8-0.6-0.4-1.1,0.2-0.9c2,1.6,6,4.4,11.1,4.9c1.3,0.1,2.4,0,3.3-0.3
		c0,0.1,0,0.1-0.1,0.2C265.1,122.4,261.8,122.5,260.1,122.1z M293.4,170.9c-1.6,0.9-3.3,1-6.7,0.2c-3.5-0.8-9.4-4.8-13.8-10.4
		c-1.2-1.9-0.4-3-0.4-3.1c0,0,0,0,0,0c3.7,5.5,7.6,8.6,12,11.1c2.6,1.5,4.8,1.8,6.2,1.7c0.5,0.1,0.9,0.3,1.4,0.3
		C292.6,170.8,293,170.9,293.4,170.9z M271.1,138.7c0.5,0.2,0.9,0.4,1.4,0.5l-0.2,0.1c-0.7,0.2-3.6,0.7-5.8-1.2
		c-1.5-1.3-2.6-3.6-3.2-4.9c0.3,0.1,0.5,0.2,0.8,0.3c0,0,0.1,0,0.1,0c0.8,1.6,2.1,3.5,3.9,3.9c0,0-1.6-1.5-2.9-3.7
		c0.2,0,0.3,0,0.5,0C266.4,134.7,268.7,137.5,271.1,138.7z M296.3,92.4c2.5-1.5,3.6-3.4,4-4.9c0.1,1.1-0.1,2.3-0.3,3.5
		c-0.5,1.8-1.7,6.9-8.3,9.1c-3.7,1.2-6.9,1.6-9.3,1.6c-1.6-0.2-1.4-1.8,1.2-2.2c2.3-0.3,10.7-1.6,11.9-4.6
		c-4.6,2.1-8.1,2.8-11.5,3.2c-1.1,0.1-1.3-1.5,0.3-2C287.7,95.7,292.3,94.8,296.3,92.4z M278.6,96.9c1-0.2,1.9-0.5,2.6-0.8
		c0,0.1,0,0.2,0,0.4c-0.3,1.7-1.8,5-6.5,5.4c-5.1,0.5-9.5-0.6-12-1.4c-1.1-0.7-0.4-1.3,0.6-1.1c2.2,0.5,9.3,1.7,12.8-0.2
		c-5.7,0.1-10.5-0.5-12.8-1.4c-1.1-0.4-0.5-1,0.5-1C266,97.2,272,98.2,278.6,96.9z M282.7,69.4C282.7,69.4,282.7,69.4,282.7,69.4
		c0,0.1,0,0.1,0,0.1C282.7,69.4,282.7,69.4,282.7,69.4z"/>
	<path class="st0" d="M227.3,156.6c-0.5-0.3-1.2-0.9-1.9-1.2c0.3,0.5,0.7,1.4,1.3,2.1c0.6,0.7,1.4,1.2,2.3,1.2
		c4.3,0.3,6.5-4.1,6.5-4.1c-0.1,0.1-2.3,2.2-5.6,2.5C229.1,157.2,228,157,227.3,156.6z"/>
	<path class="st0" d="M216.4,155.4c0,0,1.8-1,3.7-0.4c0.5,0.2,1.6,1,0.3,1.7c1.3,0.9,2.4,0,2.5-1.1c0.1-0.9-0.8-2.2-2.4-2.3
		C217.4,153.1,216.4,155.4,216.4,155.4z"/>
	<path class="st0" d="M243.7,160.3c0.1-0.9-0.8-2.2-2.4-2.3c-3.1-0.2-4.1,2.1-4.1,2.1c0,0,1.7-1,3.7-0.4c0.5,0.2,1.5,0.9,0.5,2
		C241.9,161.7,243.6,161,243.7,160.3z"/>
	<path class="st0" d="M216.9,162.2c0.8-0.7,1.4-1.1,2.1-1.5c0.8-0.5,1.3-1.3,1.1-1.9c-0.3-1-2.4-1.4-4.5-0.6c-2.6,1.1-3,3.2-2.7,3.7
		c0.4-0.7,1.1-1.7,3.1-2.3c1.4-0.4,2.9-0.2,2,0.8C218,160.6,217.1,161.5,216.9,162.2z"/>
	<path class="st0" d="M218.5,164.9c1.2-1,3.3-2,5.6-2.1c3-0.1,3.4,0.8,3.6,1.1c0.2,0.3,0.5,1-0.2,1.6c1.4,0.2,1.9-1.3,1.6-2.1l0,0
		c0,0,0,0,0,0c-0.1-0.2-0.1-0.3-0.3-0.5c-2.7-5.4-8.5-1.8-8.5-1.8c3-0.9,4.9-0.5,6.1,0.3c-0.6-0.1-1.4-0.2-2.3-0.1
		c-2.8,0.2-5,1.6-6.2,2.8c-0.9,0.9-1.3,2.5-0.5,3.3C217.3,166.7,217.4,165.8,218.5,164.9z"/>
	<path class="st0" d="M236.1,159.1c-0.8-0.1-2.3,0.7-3.1,1.7c-0.4,0.5-0.5,1-0.5,1.6c0,2.1-4,4-4,4c2.1,0.2,3.8-0.8,4.5-1.8
		c-0.1,0.9-0.7,1.7-2.3,2.2c-2.5,0.7-5.8-0.1-5.9-0.2c0,0,0.5,0.7,1.8,1.2c1.7,0.6,3.5,0.6,4.8,0.2c2.5-0.7,3.6-3.1,2.9-4.5
		c-0.4-0.6-0.8-1.6-0.4-2.2C234.4,160.7,235.3,159.7,236.1,159.1z"/>
	<path class="st0" d="M260,97.3c1.3-2.9,3.5-7.9,3.5-9.2c-0.5,0.1-2.9,6.1-4.3,8.6c-2.5,4.7-5.6,9.7-9.8,14.9
		c-3.7,4.6-1.4,6.4-1.4,6.4s-0.4-2.1,2.2-5C254.2,108.4,257.6,102.5,260,97.3z"/>
	<path class="st0" d="M245.5,115.3c-0.1,1.2,0.6,2.2,1.1,2.1c-1-3.3,1.3-4.8,3.5-8.3C247.5,111.1,245.6,113.2,245.5,115.3z"/>
	<path class="st0" d="M293,47.2c0.4-0.9,1.3-2.9,2.9,0.2c0,0,0.1-2.9-1.4-3.5c-0.7-0.3-1.6,0.2-2.1,1.5c-1.3,3.3-5.9,11.4-11.2,18.2
		C282.4,62.8,287.9,59.1,293,47.2z"/>
	<path class="st0" d="M308.8,27.6c0.5-1.6,1.5-2.2,3.2,1.1c0,0,0-2.9-2.1-4.4c-0.6-0.5-1.8,0.2-2.2,1.6c-1,3.6-5.4,16.6-9.8,24.1
		C299.7,49.6,304.7,40.4,308.8,27.6z"/>
	<path class="st0" d="M266.8,80.4c-2.6,2-3.2,5.1-3.1,6.4c0.4-0.9,1.3-3.7,3.2-5.1c1.9-1.4,9.9-7.3,12.2-9.8
		c2.3-2.5,1.7-4.8,1.7-4.8s-0.6,2.3-2.7,4.2C276.3,73,273.1,75.6,266.8,80.4z"/>
</g>
</svg>
